<?xml version="1.0" standalone="no"?>
<!DOCTYPE svg PUBLIC "-//W3C//DTD SVG 1.1//EN" "http://www.w3.org/Graphics/SVG/1.1/DTD/svg11.dtd" >
<svg xmlns="http://www.w3.org/2000/svg" xmlns:xlink="http://www.w3.org/1999/xlink" version="1.1">
<metadata>
Created by FontForge 20170731 at Fri Nov  2 23:15:57 2018
 By Aleksey,,,
Copyright (c) 2018 by Alexander Slobzheninov. All rights reserved.
</metadata>
<defs>
<font id="ObjectSans-ThinSlanted" horiz-adv-x="602" >
  <font-face 
    font-family="Object Sans Thin"
    font-weight="252"
    font-style="oblique"
    font-stretch="normal"
    units-per-em="1000"
    panose-1="0 0 3 0 0 0 0 0 0 0"
    ascent="800"
    descent="-200"
    x-height="501"
    cap-height="701"
    bbox="-209 -250 1435.03 935"
    underline-thickness="50"
    underline-position="-175"
    unicode-range="U+000D-F6C3"
  />
<missing-glyph horiz-adv-x="0" 
 />
    <glyph glyph-name=".notdef" horiz-adv-x="0" 
 />
    <glyph glyph-name=".null" horiz-adv-x="0" 
 />
    <glyph glyph-name="nonmarkingreturn" horiz-adv-x="333" 
 />
    <glyph glyph-name="NULL" horiz-adv-x="701" 
d="M48 0l123 701h517l-123 -701h-517zM92 37h441l110 627h-440z" />
    <glyph glyph-name="NULL" horiz-adv-x="701" 
d="M48 0l123 701h517l-123 -701h-517zM92 37h441l110 627h-440z" />
    <glyph glyph-name="CR" unicode="&#xd;" horiz-adv-x="30" 
 />
    <glyph glyph-name="space" unicode=" " horiz-adv-x="250" 
 />
    <glyph glyph-name="exclam" unicode="!" horiz-adv-x="180" 
d="M62 187l54 333l32 181h43l-32 -181l-63 -333h-34zM47 -11q-16 0 -25 10.5t-6 27.5q7 32 38 32q16 0 25 -10.5t6 -26.5q-2 -14 -13 -23.5t-25 -9.5z" />
    <glyph glyph-name="quotedbl" unicode="&#x22;" horiz-adv-x="283" 
d="M78 396l29 169l23 135h39l-24 -135l-31 -169h-36zM222 396l28 169l24 135h38l-23 -135l-32 -169h-35z" />
    <glyph glyph-name="numbersign" unicode="#" horiz-adv-x="945" 
d="M177 0l109 244h-237l7 36h245l89 197h-249l6 37h258l99 222h40l-99 -222h204l98 222h40l-98 -222h251l-5 -37h-262l-87 -197h264l-8 -36h-272l-108 -244h-40l108 244h-204l-109 -244h-40zM342 280h203l88 197h-204z" />
    <glyph glyph-name="dollar" unicode="$" horiz-adv-x="688" 
d="M647 494l-41 2q15 88 -36 139t-153 51q-100 0 -166.5 -46t-79.5 -119q-6 -33 3 -57.5t24 -39t46.5 -25.5t56 -16t66.5 -11q63 -10 98 -19t78 -29.5t58.5 -57t6.5 -89.5q-16 -91 -95 -145t-198 -57l-17 -97h-41l17 98q-115 8 -172 75t-39 174l42 -3q-16 -97 37.5 -152
t163.5 -55q105 0 175.5 45.5t83.5 120.5q6 32 -1.5 56.5t-26.5 39t-45 24.5t-58.5 17t-65.5 12q-3 0 -5 0.5t-5 1t-5 0.5q-45 7 -74 14t-64 21.5t-54 33.5t-29 50.5t-2 73.5q15 89 89.5 144t187.5 57l16 94h41l-16 -95q110 -8 163 -69.5t36 -161.5z" />
    <glyph glyph-name="percent" unicode="%" horiz-adv-x="1018" 
d="M272 340q-89 0 -137 57.5t-32 145.5q15 87 81 142.5t153 55.5q89 0 136.5 -57.5t32.5 -145.5q-16 -87 -81.5 -142.5t-152.5 -55.5zM191 0l628 731h51l-630 -731h-49zM275 381q70 0 124.5 46t67.5 117q11 68 -25.5 112t-105.5 44q-72 0 -126.5 -45.5t-66.5 -115.5
q-12 -69 25 -113.5t107 -44.5zM722 -10q-89 0 -136.5 57t-31.5 146q15 86 81 142t153 56q89 0 136.5 -57.5t31.5 -145.5q-15 -87 -81 -142.5t-153 -55.5zM725 31q70 0 124.5 46t67.5 117q11 68 -25.5 112t-105.5 44q-71 0 -125.5 -45.5t-67.5 -116.5q-12 -68 25 -112.5
t107 -44.5z" />
    <glyph glyph-name="ampersand" unicode="&#x26;" horiz-adv-x="766" 
d="M256 -25q-103 0 -160 56t-42 142q13 76 63.5 122t132.5 81q-72 91 -57 174q13 73 70.5 119.5t133.5 46.5q83 0 130.5 -55t35.5 -137l-42 2q11 65 -24.5 107.5t-99.5 42.5q-62 0 -108 -37t-56 -95q-13 -75 71 -166l210 -224q57 70 117 187l44 -2q-69 -135 -135 -213
l117 -126h-60l-88 93q-115 -119 -253 -118zM259 15q123 0 225 107l-207 223q-76 -29 -123 -70t-59 -107q-11 -67 35 -110t129 -43z" />
    <glyph glyph-name="quotesingle" unicode="'" horiz-adv-x="140" 
d="M78 397l28 169l24 135h39l-24 -135l-31 -169h-36z" />
    <glyph glyph-name="parenleft" unicode="(" horiz-adv-x="295" 
d="M143 -179q-58 71 -80 198t2 264q23 134 90 261.5t149 197.5l51 -2q-92 -77 -160 -201.5t-92 -260.5q-25 -138 -1 -261.5t89 -197.5z" />
    <glyph glyph-name="parenright" unicode=")" horiz-adv-x="294" 
d="M1 -181l-51 2q91 75 159 199t93 263q24 135 0.5 258.5t-88.5 200.5l47 -2q58 -71 80 -198t-1 -264q-24 -135 -90 -261.5t-149 -197.5z" />
    <glyph glyph-name="asterisk" unicode="*" horiz-adv-x="501" 
d="M234 261l34 189l-180 -95l-12 32l180 94l-148 94l24 32l147 -95l33 189h36l-34 -189l180 95l13 -32l-180 -94l148 -94l-24 -32l-147 95l-33 -189h-37z" />
    <glyph glyph-name="plus" unicode="+" horiz-adv-x="572" 
d="M245 132l37 208h-215l7 39h214l34 193h41l-33 -193h214l-7 -39h-215l-37 -208h-40z" />
    <glyph glyph-name="comma" unicode="," horiz-adv-x="178" 
d="M-2 -124l-21 8l64 106q-12 2 -19 12.5t-4 24.5q2 14 12.5 23t25.5 9q16 0 24.5 -10.5t6.5 -26.5q-6 -18 -9 -23z" />
    <glyph glyph-name="hyphen" unicode="-" horiz-adv-x="512" 
d="M59 296l7 39h410l-7 -39h-410z" />
    <glyph glyph-name="period" unicode="." horiz-adv-x="171" 
d="M42 -11q-16 0 -25 10.5t-6 27.5q2 14 13 23t25 9q16 0 25 -10.5t7 -26.5q-7 -33 -39 -33z" />
    <glyph glyph-name="slash" unicode="/" horiz-adv-x="397" 
d="M-58 -230l465 931h43l-465 -931h-43z" />
    <glyph glyph-name="zero" unicode="0" horiz-adv-x="707" 
d="M307 -25q-131 0 -190.5 103t-29.5 275q31 172 124 272.5t223 100.5q132 0 192 -102.5t29 -275.5q-30 -172 -123.5 -272.5t-224.5 -100.5zM309 15q112 0 195 92.5t110 245.5q27 152 -22 242.5t-159 90.5q-113 0 -195 -91t-109 -247q-27 -152 22 -242.5t158 -90.5z" />
    <glyph glyph-name="one" unicode="1" horiz-adv-x="329" 
d="M151 0l112 634h-6l-179 -126l9 52l199 141h31l-123 -701h-43z" />
    <glyph glyph-name="two" unicode="2" horiz-adv-x="593" 
d="M25 0l6 42l337 256q144 107 164 213q13 77 -27.5 126t-116.5 49q-87 0 -154 -59.5t-84 -149.5l-41 3q20 107 98.5 176.5t181.5 69.5q97 0 149 -62t35 -157q-12 -70 -60 -128t-141 -128l-275 -204l-1 -7h385l-7 -40h-449z" />
    <glyph glyph-name="three" unicode="3" horiz-adv-x="610" 
d="M261 -25q-100 0 -158 66.5t-46 167.5l42 -3q-10 -83 36 -137t128 -54q86 0 151.5 53.5t80.5 135.5q14 79 -33 129.5t-134 50.5q-55 0 -87 -19l-10 31l276 258l2 7h-339l7 40h411l-5 -28l-271 -251q114 7 178.5 -57t45.5 -167q-16 -97 -94 -160t-181 -63z" />
    <glyph glyph-name="four" unicode="4" horiz-adv-x="579" 
d="M345 0l32 183h-350l5 28l404 490h74l-83 -478h89l-8 -40h-89l-32 -183h-42zM91 223h293l77 441h-5z" />
    <glyph glyph-name="five" unicode="5" horiz-adv-x="583" 
d="M247 -25q-101 0 -158.5 66.5t-44.5 167.5l42 -3q-10 -83 36 -137t127 -54q87 0 153 53.5t80 135.5q14 79 -41 130t-155 51h-147l84 316h337l-7 -40h-300l-61 -236h101q118 0 182.5 -64t47.5 -162q-17 -97 -95 -160.5t-181 -63.5z" />
    <glyph glyph-name="six" unicode="6" horiz-adv-x="584" 
d="M246 -25q-107 0 -164 64.5t-40 161.5q13 74 81 153l313 347h55l-281 -307q51 31 114 31q103 0 160 -63.5t40 -161.5t-96 -161.5t-182 -63.5zM248 15q86 0 153 54.5t82 136.5q13 78 -33.5 129t-129.5 51q-90 0 -156 -53t-80 -135q-14 -80 31 -131.5t133 -51.5z" />
    <glyph glyph-name="seven" unicode="7" horiz-adv-x="504" 
d="M110 0l394 661h-419l7 40h471l-4 -27l-403 -674h-46z" />
    <glyph glyph-name="eight" unicode="8" horiz-adv-x="646" 
d="M278 -25q-112 0 -174.5 59.5t-46.5 150.5q13 69 66 120t129 68l3 7q-57 17 -85.5 61.5t-18.5 104.5q14 79 85.5 129.5t167.5 50.5q99 0 153.5 -52t39.5 -133q-10 -58 -54 -101.5t-106 -60.5l-4 -7q71 -16 107.5 -69t23.5 -124q-16 -89 -96.5 -146.5t-189.5 -57.5z
M346 395q79 0 138.5 42t71.5 107q11 62 -32 102t-121 40q-80 0 -140 -41.5t-71 -105.5q-11 -63 32.5 -103.5t121.5 -40.5zM278 11q92 0 161 49.5t82 125.5q13 73 -37.5 120.5t-139.5 47.5q-93 0 -161 -49t-82 -125q-13 -74 37 -121.5t140 -47.5z" />
    <glyph glyph-name="nine" unicode="9" horiz-adv-x="584" 
d="M373 726q107 0 164 -64t40 -161q-13 -79 -81 -153l-313 -348h-54l281 308q-54 -32 -116 -32q-102 0 -159 64t-40 161q17 98 96 161.5t182 63.5zM371 686q-86 0 -153 -54t-81 -136q-14 -78 32.5 -129t129.5 -51q90 -1 156 52t80 136q14 80 -31 131t-133 51z" />
    <glyph glyph-name="colon" unicode=":" horiz-adv-x="171" 
d="M115 402q-16 0 -24.5 10.5t-6.5 27.5q7 32 39 32q16 0 24.5 -10.5t5.5 -26.5q-2 -14 -13 -23.5t-25 -9.5zM43 -11q-17 0 -26 10.5t-5 27.5q2 14 12.5 23t25.5 9q16 0 24.5 -10.5t6.5 -26.5q-3 -14 -14 -23.5t-24 -9.5z" />
    <glyph glyph-name="semicolon" unicode=";" horiz-adv-x="178" 
d="M122 402q-16 0 -25 10.5t-7 27.5q7 32 38 32q17 0 26 -10.5t6 -26.5q-2 -14 -13 -23.5t-25 -9.5zM-1 -124l-22 8l65 106q-13 2 -20 12.5t-4 24.5q2 14 12.5 23t25.5 9q16 0 25 -10.5t6 -26.5q-2 -11 -9 -23z" />
    <glyph glyph-name="less" unicode="&#x3c;" horiz-adv-x="458" 
d="M372 92l-332 228l7 45l413 228l-8 -45l-367 -202l-2 -7l296 -203z" />
    <glyph glyph-name="equal" unicode="=" horiz-adv-x="572" 
d="M85 444l7 39h470l-7 -39h-470zM41 193l7 39h470l-7 -39h-470z" />
    <glyph glyph-name="greater" unicode="&#x3e;" horiz-adv-x="457" 
d="M31 92l7 44l367 203l2 7l-296 202l8 45l331 -228l-8 -45z" />
    <glyph glyph-name="question" unicode="?" horiz-adv-x="556" 
d="M221 166q14 75 45.5 114.5t103.5 81.5q54 31 89 67.5t45 93.5q13 73 -26.5 118t-111.5 45q-80 0 -141 -53.5t-80 -136.5l-42 3q22 101 95 164t169 63q92 0 143 -58.5t35 -150.5q-12 -66 -52.5 -110t-108.5 -84q-60 -34 -85.5 -66t-36.5 -94zM216 -11q-18 0 -26.5 10.5
t-5.5 27.5q2 14 13 23t25 9q16 0 25 -10.5t6 -26.5q-2 -14 -13 -23.5t-24 -9.5z" />
    <glyph glyph-name="at" unicode="@" horiz-adv-x="1004" 
d="M399 -172q-180 0 -275.5 123t-62.5 312q33 188 179 310t337 122q194 0 298.5 -123.5t70.5 -314.5q-21 -123 -72 -193.5t-130 -70.5q-49 0 -79.5 26.5t-29.5 77.5l-7 -3q-75 -109 -209 -109q-80 0 -123.5 41.5t-32.5 107.5q14 75 79 110t178 49l150 19l5 30
q12 65 -22.5 104.5t-101.5 39.5q-70 0 -120.5 -37t-61.5 -96l-39 3q13 76 71 123t143 47q87 0 136.5 -53t34.5 -134l-40 -230q-6 -35 13.5 -57t55.5 -22q62 0 103 63.5t59 169.5q31 172 -62 283t-268 111q-176 0 -310.5 -113t-165.5 -287q-29 -171 55.5 -281t246.5 -110
q101 0 161 32l-5 -42q-68 -28 -159 -28zM423 23q88 0 151.5 53.5t77.5 133.5l11 65l-147 -20q-97 -12 -149.5 -40.5t-63.5 -86.5q-8 -47 25.5 -76t94.5 -29z" />
    <glyph glyph-name="A" unicode="A" horiz-adv-x="652" 
d="M-21 0l396 701h62l149 -701h-43l-39 183h-377l-105 -183h-43zM148 223h349l-94 438h-7z" />
    <glyph glyph-name="B" unicode="B" horiz-adv-x="676" 
d="M47 0l123 701h292q89 0 138.5 -51t36.5 -130q-10 -55 -51 -95.5t-100 -55.5l-4 -7q63 -15 95.5 -62t20.5 -111q-14 -82 -88.5 -135.5t-175.5 -53.5h-287zM157 385h248q71 0 125.5 39.5t64.5 100.5q11 59 -28 97.5t-111 38.5h-250zM96 40h239q84 0 147 44t75 111
q11 65 -35 107t-130 42h-242z" />
    <glyph glyph-name="C" unicode="C" horiz-adv-x="816" 
d="M378 -25q-161 0 -245.5 107t-55.5 271q29 163 149 268t279 105q121 0 203.5 -74t86.5 -183l-41 -3q-5 94 -76 157t-175 63q-143 0 -251 -95t-134 -243q-26 -145 47.5 -239t213.5 -94q108 0 202.5 62.5t131.5 153.5l39 -12q-41 -104 -147.5 -174t-226.5 -70z" />
    <glyph glyph-name="D" unicode="D" horiz-adv-x="741" 
d="M47 0l124 701h211q172 0 259 -94.5t58 -258.5q-28 -163 -147 -255.5t-291 -92.5h-214zM97 40h169q152 0 259 83.5t132 229.5q26 143 -51 225.5t-228 82.5h-172z" />
    <glyph glyph-name="E" unicode="E" horiz-adv-x="625" 
d="M47 0l124 701h473l-7 -40h-430l-50 -276h391l-7 -40h-391l-53 -305h440l-7 -40h-483z" />
    <glyph glyph-name="F" unicode="F" horiz-adv-x="557" 
d="M48 0l123 701h426l-7 -40h-383l-49 -276h335l-6 -40h-336l-61 -345h-42z" />
    <glyph glyph-name="G" unicode="G" horiz-adv-x="851" 
d="M385 -25q-163 0 -250 107t-58 271q28 163 151 268t284 105q119 0 200 -68.5t86 -172.5l-40 -8q-7 91 -77 150t-171 59q-144 1 -255 -94.5t-137 -243.5q-26 -144 50 -238.5t218 -94.5q133 0 238 85t137 219l-405 -2l7 41l448 -2q-28 -167 -147 -274t-279 -107z" />
    <glyph glyph-name="H" unicode="H" horiz-adv-x="703" 
d="M47 0l123 701h42l-55 -315h436l55 315h43l-124 -701h-42l61 345h-436l-61 -345h-42z" />
    <glyph glyph-name="I" unicode="I" horiz-adv-x="225" 
d="M47 0l124 701h42l-124 -701h-42z" />
    <glyph glyph-name="J" unicode="J" horiz-adv-x="440" 
d="M107 -20q-53 0 -117 20l4 40q65 -20 113 -20q72 0 124.5 49.5t68.5 142.5l86 489h43l-87 -492q-19 -109 -83 -169t-152 -60z" />
    <glyph glyph-name="K" unicode="K" horiz-adv-x="592" 
d="M47 0l123 701h43l-55 -314h6l409 314h62l-434 -332l317 -369h-58l-302 352h-7l-62 -352h-42z" />
    <glyph glyph-name="L" unicode="L" horiz-adv-x="555" 
d="M47 0l124 701h42l-116 -661h391l-8 -40h-433z" />
    <glyph glyph-name="M" unicode="M" horiz-adv-x="903" 
d="M47 0l123 701h69l174 -645h7l401 645h70l-124 -701h-42l114 647h-6l-403 -647h-46l-174 645h-7l-114 -645h-42z" />
    <glyph glyph-name="N" unicode="N" horiz-adv-x="703" 
d="M47 0l123 701h63l295 -646h8l113 646h42l-123 -701h-63l-295 645h-7l-114 -645h-42z" />
    <glyph glyph-name="O" unicode="O" horiz-adv-x="861" 
d="M385 -25q-163 0 -250.5 107t-58.5 271q29 163 151.5 268t284.5 105q163 0 250 -106.5t58 -271.5q-29 -163 -151.5 -268t-283.5 -105zM386 15q145 0 256 95.5t136 242.5q26 145 -50 239t-218 94q-144 0 -255.5 -95.5t-136.5 -242.5q-26 -145 49.5 -239t218.5 -94z" />
    <glyph glyph-name="P" unicode="P" horiz-adv-x="639" 
d="M47 0l124 701h255q116 0 169.5 -58.5t36.5 -155.5q-17 -95 -90 -151.5t-188 -56.5h-216l-49 -279h-42zM145 319h213q98 0 158.5 48t74.5 126q13 76 -29.5 122t-139.5 46h-216z" />
    <glyph glyph-name="Q" unicode="Q" horiz-adv-x="862" 
d="M385 -25q-163 0 -250 107t-58 271q28 163 151 268t284 105q164 0 251 -106.5t57 -271.5q-27 -158 -147 -264l79 -84h-58l-54 57q-114 -82 -255 -82zM386 15q124 0 226 72l-213 225h59l188 -197q108 93 133 238q26 145 -50.5 239t-218.5 94q-144 0 -255 -95.5t-137 -242.5
q-25 -145 50.5 -239t217.5 -94z" />
    <glyph glyph-name="R" unicode="R" horiz-adv-x="687" 
d="M47 0l124 701h292q113 0 169 -54.5t39 -147.5q-16 -88 -89 -141t-180 -54h-32l211 -304h-53l-209 303h-176l-54 -303h-42zM150 343h250q92 0 154.5 44t75.5 118q14 74 -31.5 115t-139.5 41h-253z" />
    <glyph glyph-name="S" unicode="S" horiz-adv-x="688" 
d="M303 -25q-130 0 -195 68t-45 182l42 -3q-16 -97 37.5 -152t163.5 -55q105 0 175.5 45.5t83.5 120.5q15 86 -71 119q-35 14 -141 32q-45 7 -74.5 14t-64.5 21.5t-54 33.5t-29 50.5t-2 73.5q16 91 93 146t194 55q125 0 187.5 -63t43.5 -169l-41 2q15 88 -36.5 139
t-153.5 51q-100 0 -166.5 -46t-79.5 -119q-6 -33 3 -57.5t24.5 -39t47 -25.5t56 -16t66.5 -11q63 -10 97.5 -19t77.5 -29.5t58.5 -57t6.5 -89.5q-17 -93 -98.5 -147.5t-205.5 -54.5z" />
    <glyph glyph-name="T" unicode="T" horiz-adv-x="573" 
d="M222 0l116 661h-247l7 40h536l-7 -40h-247l-116 -661h-42z" />
    <glyph glyph-name="U" unicode="U" horiz-adv-x="704" 
d="M306 -25q-121 0 -181.5 84.5t-37.5 220.5l75 421h42l-74 -424q-22 -119 27 -190.5t151 -71.5q104 0 179.5 72.5t97.5 192.5l74 421h42l-74 -424q-25 -136 -113 -219t-208 -83z" />
    <glyph glyph-name="V" unicode="V" horiz-adv-x="650" 
d="M249 0l-146 701h44l137 -663h7l371 663h46l-394 -701h-65z" />
    <glyph glyph-name="W" unicode="W" horiz-adv-x="998" 
d="M200 0l-85 701h41l81 -662h8l301 662h65l67 -662h9l314 662h43l-333 -701h-70l-66 655h-8l-297 -655h-70z" />
    <glyph glyph-name="X" unicode="X" horiz-adv-x="614" 
d="M-12 0l312 371l-178 330h49l159 -298h7l265 298h52l-298 -330l182 -371h-50l-162 336h-7l-281 -336h-50z" />
    <glyph glyph-name="Y" unicode="Y" horiz-adv-x="576" 
d="M223 0l50 283l-170 418h46l150 -370h7l280 370h48l-318 -418l-50 -283h-43z" />
    <glyph glyph-name="Z" unicode="Z" horiz-adv-x="612" 
d="M-10 0l4 24l579 630l1 7h-457l7 40h523l-3 -24l-577 -630l-2 -7h476l-7 -40h-544z" />
    <glyph glyph-name="bracketleft" unicode="[" horiz-adv-x="424" 
d="M16 -180l160 911h305l-6 -36h-265l-148 -839h265l-7 -36h-304z" />
    <glyph glyph-name="backslash" unicode="\" horiz-adv-x="396" 
d="M284 -230h-40l-137 931h41z" />
    <glyph glyph-name="bracketright" unicode="]" horiz-adv-x="423" 
d="M256 -180h-305l6 36h265l148 839h-265l7 36h305z" />
    <glyph glyph-name="asciicircum" unicode="^" horiz-adv-x="554" 
d="M60 400l268 301h56l162 -301h-46l-144 272h-7l-241 -272h-48z" />
    <glyph glyph-name="underscore" unicode="_" horiz-adv-x="500" 
d="M-51 -38l7 38h500l-7 -38h-500z" />
    <glyph glyph-name="grave" unicode="`" horiz-adv-x="261" 
d="M224 615l-88 116h52l86 -116h-50z" />
    <glyph glyph-name="a" unicode="a" horiz-adv-x="663" 
d="M265 -20q-114 0 -174.5 77t-40.5 196q21 117 107 192.5t199 75.5q75 0 125.5 -37t68.5 -100l8 1l20 116h41l-88 -501h-41l20 118l-5 -1q-41 -64 -103.5 -100.5t-136.5 -36.5zM269 19q95 0 171.5 66.5t93.5 167.5q18 98 -33.5 163.5t-144.5 65.5q-98 0 -173 -66.5
t-92 -167.5q-18 -100 32.5 -164.5t145.5 -64.5z" />
    <glyph glyph-name="b" unicode="b" horiz-adv-x="662" 
d="M306 -20q-75 0 -125.5 37t-68.5 101l-7 -1l-21 -117h-41l129 731h41l-61 -346l6 1q40 63 102 99t136 36q114 0 175 -77.5t40 -195.5q-20 -117 -106.5 -192.5t-198.5 -75.5zM306 19q97 0 172 66.5t93 167.5q17 99 -33 164t-145 65q-97 0 -172.5 -66.5t-93.5 -167.5
q-17 -99 33.5 -164t145.5 -65z" />
    <glyph glyph-name="c" unicode="c" horiz-adv-x="597" 
d="M266 -20q-114 0 -175 77.5t-40 195.5q20 117 106 192.5t199 75.5q87 0 145 -51t61 -128l-40 -3q-5 63 -52 103t-115 40q-97 0 -171.5 -66t-92.5 -168q-18 -100 32 -164.5t144 -64.5q71 0 133.5 38.5t88.5 98.5l39 -9q-31 -73 -104.5 -120t-157.5 -47z" />
    <glyph glyph-name="d" unicode="d" horiz-adv-x="662" 
d="M265 -20q-113 0 -174 77.5t-41 195.5q21 117 107.5 192.5t198.5 75.5q76 0 126 -37t67 -101l8 2l61 346h41l-129 -731h-41l20 117l-5 -1q-39 -64 -102 -100t-137 -36zM269 19q97 0 172.5 66.5t92.5 167.5q18 99 -32.5 164t-145.5 65q-97 0 -172.5 -66.5t-92.5 -167.5
q-18 -99 32.5 -164t145.5 -65z" />
    <glyph glyph-name="e" unicode="e" horiz-adv-x="632" 
d="M276 -20q-119 0 -182.5 77.5t-42.5 197.5q20 116 109 191t205 75q115 0 176 -76.5t40 -195.5q0 -1 -1 -5.5t-1 -7.5h-490q-13 -96 40 -156.5t149 -60.5q70 0 135.5 38.5t97.5 97.5l37 -14q-37 -71 -113 -116t-159 -45zM97 274l446 3q10 91 -40.5 148t-139.5 57
q-94 0 -168.5 -58t-97.5 -150z" />
    <glyph glyph-name="f" unicode="f" horiz-adv-x="348" 
d="M85 0l82 464h-88l6 37h88l22 126q11 60 47.5 92t87.5 32q42 0 70 -11l-4 -38q-32 10 -63 10q-37 0 -63.5 -23t-33.5 -67l-22 -121h138l-7 -37h-137l-82 -464h-41z" />
    <glyph glyph-name="g" unicode="g" horiz-adv-x="662" 
d="M235 -250q-102 0 -165.5 53.5t-62.5 137.5l42 7q-2 -71 51 -115t138 -44q94 0 164.5 60t87.5 154l19 109l-6 -1q-43 -61 -104.5 -95.5t-132.5 -34.5q-114 0 -175 77t-40 195q20 117 106 192.5t199 75.5q74 0 124.5 -36t69.5 -98l8 1l20 113h41l-89 -501
q-19 -110 -101.5 -180t-193.5 -70zM269 20q98 0 173 66t93 167q17 100 -33.5 164.5t-145.5 64.5q-98 0 -172.5 -66t-92.5 -168q-17 -99 33.5 -163.5t144.5 -64.5z" />
    <glyph glyph-name="h" unicode="h" 
d="M43 0l129 731h41l-57 -321l7 1q34 51 87 80.5t113 29.5q95 0 140.5 -65t27.5 -165l-51 -291h-41l52 294q14 84 -21.5 136t-112.5 52q-78 0 -142 -52.5t-78 -131.5l-53 -298h-41z" />
    <glyph glyph-name="i" unicode="i" horiz-adv-x="228" 
d="M179 608q-17 0 -26 11.5t-5 27.5q7 33 38 33q17 0 26.5 -11t6.5 -28q-7 -33 -40 -33zM49 0l89 501h41l-89 -501h-41z" />
    <glyph glyph-name="j" unicode="j" horiz-adv-x="226" 
d="M177 608q-17 0 -26 11t-6 28q7 33 38 33q17 0 26.5 -11t6.5 -28q-3 -14 -14 -23.5t-25 -9.5zM-59 -221q-35 0 -71 13l4 39q35 -13 63 -13q34 0 60 23t32 58l106 602h41l-107 -604q-9 -52 -45 -85t-83 -33z" />
    <glyph glyph-name="k" unicode="k" horiz-adv-x="464" 
d="M43 0l129 731h41l-80 -453h6l292 223h60l-317 -240l237 -261h-59l-218 242h-7l-43 -242h-41z" />
    <glyph glyph-name="l" unicode="l" horiz-adv-x="215" 
d="M43 0l129 731h41l-129 -731h-41z" />
    <glyph glyph-name="m" unicode="m" horiz-adv-x="922" 
d="M44 0l88 501h40l-13 -79l6 1q29 46 75 72t101 26q65 0 106 -34t46 -91l8 3q27 57 78.5 89.5t118.5 32.5q87 0 130.5 -59.5t26.5 -154.5l-54 -307h-41l55 310q13 77 -20.5 124.5t-101.5 47.5q-74 0 -128.5 -48.5t-68.5 -126.5l-54 -307h-40l55 310q13 78 -20.5 125
t-101.5 47q-74 0 -128.5 -48.5t-68.5 -126.5l-53 -307h-41z" />
    <glyph glyph-name="n" unicode="n" 
d="M43 0l89 501h41l-17 -92l7 1q34 52 87 81.5t113 29.5q95 0 140.5 -65t27.5 -165l-51 -291h-41l52 294q14 84 -21.5 136t-112.5 52q-78 0 -142 -53t-78 -131l-53 -298h-41z" />
    <glyph glyph-name="o" unicode="o" horiz-adv-x="624" 
d="M267 -20q-115 0 -176 77t-41 196q21 117 107.5 192.5t200.5 75.5t175.5 -77t40.5 -196q-21 -117 -107.5 -192.5t-199.5 -75.5zM269 19q97 0 172.5 66.5t92.5 167.5q18 100 -32.5 164.5t-146.5 64.5q-97 0 -172 -66.5t-92 -167.5q-18 -100 32 -164.5t146 -64.5z" />
    <glyph glyph-name="p" unicode="p" horiz-adv-x="662" 
d="M397 521q113 0 174 -77.5t41 -195.5q-21 -117 -107.5 -192.5t-198.5 -75.5q-76 0 -126 37t-67 101l-8 -2l-61 -346h-41l129 731h41l-20 -117l5 1q39 64 102 100t137 36zM393 482q-97 0 -172.5 -66.5t-92.5 -167.5q-18 -99 32.5 -164t145.5 -65q97 0 172.5 66.5
t92.5 167.5q18 100 -32.5 164.5t-145.5 64.5z" />
    <glyph glyph-name="q" unicode="q" horiz-adv-x="662" 
d="M356 521q75 0 125.5 -37t67.5 -101l8 1l20 117h41l-129 -731h-41l61 346l-5 -1q-40 -63 -102.5 -99t-136.5 -36q-114 0 -174.5 77t-40.5 196q21 117 107.5 192.5t198.5 75.5zM356 482q-97 0 -172.5 -66.5t-92.5 -167.5q-18 -99 32.5 -164t145.5 -65q97 0 172.5 66.5
t92.5 167.5q18 99 -32.5 164t-145.5 65z" />
    <glyph glyph-name="r" unicode="r" horiz-adv-x="376" 
d="M43 0l89 501h41l-16 -88l6 1q54 97 151 97q42 0 73 -17l-5 -41q-30 19 -72 19q-64 0 -112.5 -54t-63.5 -141l-50 -277h-41z" />
    <glyph glyph-name="s" unicode="s" horiz-adv-x="512" 
d="M222 -20q-98 0 -149.5 50.5t-37.5 129.5l40 -2q-11 -63 30 -101.5t119 -38.5q68 0 117 29.5t57 78.5q6 31 -2 51.5t-28.5 31t-42.5 16t-55 10.5l-21 3q-32 5 -53.5 9.5t-47 15t-39.5 25t-21 39.5t-1 57q10 61 67.5 99t139.5 38q90 0 137 -46t33 -122l-39 3
q10 58 -26.5 92.5t-107.5 34.5q-65 0 -111 -28.5t-54 -73.5q-4 -24 1.5 -41.5t14.5 -27t31.5 -17.5t36 -10.5t44.5 -7.5q4 -1 6 -1q38 -6 58.5 -10t50.5 -15.5t44 -26t22.5 -41t2.5 -61.5q-12 -66 -71.5 -104t-144.5 -38z" />
    <glyph glyph-name="t" unicode="t" horiz-adv-x="347" 
d="M193 -12q-53 0 -79.5 35t-16.5 92l61 349h-88l7 37h88l31 153h37l-27 -153h138l-7 -37h-138l-62 -351q-6 -40 10 -63.5t52 -23.5q34 0 71 10l-4 -37q-31 -11 -73 -11z" />
    <glyph glyph-name="u" unicode="u" 
d="M558 501l-89 -501h-40l16 92l-7 -1q-33 -52 -86 -81.5t-114 -29.5q-94 0 -140 64.5t-28 165.5l51 291h41l-51 -294q-15 -83 21 -135.5t113 -52.5q78 0 142 53t77 132l53 297h41z" />
    <glyph glyph-name="v" unicode="v" horiz-adv-x="533" 
d="M191 0l-120 501h43l110 -466h7l275 466h44l-297 -501h-62z" />
    <glyph glyph-name="w" unicode="w" horiz-adv-x="830" 
d="M158 0l-85 501h42l77 -458h6l230 458h59l69 -458h7l239 458h43l-262 -501h-61l-69 455h-7l-227 -455h-61z" />
    <glyph glyph-name="x" unicode="x" horiz-adv-x="513" 
d="M-10 0l241 261l-142 240h48l123 -208h6l197 208h49l-227 -240l148 -261h-48l-130 228h-6l-210 -228h-49z" />
    <glyph glyph-name="y" unicode="y" horiz-adv-x="539" 
d="M31 -221q-35 0 -62 12l5 38q28 -11 57 -11q27 0 50 12t48.5 43t41.5 55t48 77l-148 496h43l131 -441h7l259 441h44l-297 -504q-67 -114 -115 -166t-112 -52z" />
    <glyph glyph-name="z" unicode="z" horiz-adv-x="521" 
d="M-5 0l4 23l439 432l2 7h-353l6 39h424l-4 -23l-439 -432l-2 -7h373l-7 -39h-443z" />
    <glyph glyph-name="braceleft" unicode="{" horiz-adv-x="328" 
d="M167 -180q-48 0 -74 34t-16 86l42 241q6 32 -7.5 52t-41.5 20h-11l9 54h9q28 0 50 21.5t28 54.5l41 231q9 52 45 84.5t85 32.5h61l-8 -36h-50q-34 0 -61 -25t-34 -63l-40 -228q-7 -40 -31.5 -66t-57.5 -29l-3 -7q32 -3 48 -30t9 -67l-42 -239q-7 -38 10 -61.5t51 -23.5
h54l-7 -36h-58z" />
    <glyph glyph-name="bar" unicode="|" horiz-adv-x="224" 
d="M7 -230l170 961h40l-170 -961h-40z" />
    <glyph glyph-name="braceright" unicode="}" horiz-adv-x="328" 
d="M11 -180h-61l6 36h51q34 0 61 25t35 63l42 238q7 40 31 66t57 29l4 7q-32 3 -48.5 30t-9.5 67l41 229q7 37 -10.5 61t-52.5 24h-53l7 36h58q49 0 75 -34t16 -86l-40 -231q-6 -32 7 -52.5t41 -20.5h11l-9 -54h-9q-28 0 -50 -21.5t-28 -53.5l-42 -240q-9 -52 -45 -85
t-85 -33z" />
    <glyph glyph-name="asciitilde" unicode="~" horiz-adv-x="593" 
d="M436 235q-33 0 -68 18.5t-60 41t-57 41t-60 18.5q-53 0 -108 -47l-17 32q62 54 128 54q34 0 69 -18.5t60 -41t57 -41t59 -18.5q46 0 93 39l17 -33q-56 -45 -113 -45z" />
    <glyph glyph-name="exclamdown" unicode="&#xa1;" horiz-adv-x="179" 
d="M121 412q-17 0 -26 10.5t-5 26.5q2 15 12.5 24t24.5 9q17 0 26 -10.5t6 -27.5q-7 -32 -38 -32zM-17 -230l32 181l63 333h35l-55 -333l-32 -181h-43z" />
    <glyph glyph-name="cent" unicode="&#xa2;" horiz-adv-x="597" 
d="M268 19q70 0 132.5 39t88.5 98l39 -9q-28 -68 -94.5 -113.5t-144.5 -52.5l-15 -83h-41l15 83q-106 7 -161 82.5t-36 189.5q20 113 102 188t190 80l15 81h40l-15 -82q77 -8 126.5 -57t52.5 -121l-40 -3q-5 63 -52.5 103t-114.5 40q-97 0 -171.5 -66t-91.5 -168
q-19 -100 31 -164.5t145 -64.5z" />
    <glyph glyph-name="sterling" unicode="&#xa3;" horiz-adv-x="571" 
d="M6 0l9 59q54 8 94 69.5t66 207.5l-100 -2l7 39h100l30 175q14 78 70.5 128t129.5 50q79 0 122 -57t31 -143l-39 3q9 70 -23 114.5t-92 44.5q-58 0 -102 -40.5t-55 -102.5l-31 -172h266l-7 -39l-267 -1q-25 -134 -62.5 -199.5t-92.5 -87.5l-3 -7h425l-6 -39h-470z" />
    <glyph glyph-name="currency" unicode="&#xa4;" horiz-adv-x="742" 
d="M35 -49l-24 26l126 108q-44 68 -27 168q17 98 85 166l-87 104l31 28l88 -104q83 64 188 64q109 0 168 -67l125 106l23 -27l-125 -107q44 -70 28 -168q-18 -98 -86 -166l87 -104l-31 -27l-87 104q-81 -64 -189 -64q-109 0 -167 66zM329 28q98 0 172.5 63.5t91.5 161.5
q17 97 -33 158.5t-146 61.5q-97 0 -172 -63.5t-92 -161.5q-17 -96 33.5 -158t145.5 -62z" />
    <glyph glyph-name="yen" unicode="&#xa5;" horiz-adv-x="647" 
d="M258 0l14 80h-255l7 37h255l23 128h-256l7 37h242l-182 419h48l169 -394h6l307 396l51 -2l-329 -419h240l-6 -37h-255l-23 -128h255l-6 -37h-255l-14 -80h-43z" />
    <glyph glyph-name="brokenbar" unicode="&#xa6;" horiz-adv-x="222" 
d="M105 329l71 402h40l-71 -402h-40zM6 -230l71 402h40l-71 -402h-40z" />
    <glyph glyph-name="section" unicode="&#xa7;" horiz-adv-x="593" 
d="M229 -155q-92 0 -142 53t-36 133l40 -2q-11 -65 28 -104.5t113 -39.5q73 0 126 38.5t64 98.5q5 28 -3 48t-19 31t-39 20t-44.5 11.5t-54.5 7.5q-2 0 -3.5 0.5t-3.5 0.5q-38 5 -60 8.5t-52 13.5t-44.5 23.5t-23 37.5t-2.5 56q8 48 48 81.5t102 43.5q-93 33 -74 136
q13 72 74 118t144 46q87 0 133.5 -53t31.5 -134l-39 3q11 63 -24.5 103.5t-102.5 40.5t-116.5 -35.5t-59.5 -91.5q-8 -43 17.5 -69t52 -32.5t87.5 -15.5q3 -1 5 -1q48 -7 73.5 -13t57.5 -20.5t43.5 -41t4.5 -65.5q-9 -49 -47.5 -82t-99.5 -43q97 -30 80 -136
q-14 -76 -80.5 -125t-154.5 -49zM298 174q82 2 132.5 30.5t58.5 77.5q5 29 -4.5 48.5t-37.5 29.5t-43 13t-52 7q-11 1 -16 2q-18 1 -34 5q-79 -3 -129.5 -32.5t-58.5 -75.5q-5 -29 4.5 -48t32 -29t47 -15t58.5 -9q7 -1 11 -1t31 -3z" />
    <glyph glyph-name="dieresis" unicode="&#xa8;" horiz-adv-x="379" 
d="M151 608q-16 0 -25 10.5t-6 27.5q2 14 12.5 23t25.5 9q16 0 25 -10.5t6 -27.5q-7 -32 -38 -32zM359 608q-16 0 -25 10.5t-6 27.5q2 14 12.5 23t25.5 9q16 0 25 -10.5t6 -27.5q-7 -32 -38 -32z" />
    <glyph glyph-name="copyright" unicode="&#xa9;" horiz-adv-x="890" 
d="M380 -135q-169 0 -259.5 109.5t-61.5 278.5q29 165 157 274t295 109q169 0 259.5 -109.5t60.5 -278.5q-29 -167 -156.5 -275t-294.5 -108zM381 -99q154 0 271 99.5t144 252.5q26 149 -54.5 248t-231.5 99q-153 0 -271 -101t-144 -251q-26 -152 54.5 -249.5t231.5 -97.5z
M402 -19q-115 0 -176 76.5t-40 195.5q21 117 107.5 192.5t199.5 75.5q80 0 138 -44t68 -111l-35 -7q-13 58 -59.5 92t-113.5 34q-98 0 -174.5 -67t-94.5 -170q-17 -102 33.5 -167t148.5 -65q67 0 130.5 37.5t94.5 95.5l31 -15q-35 -67 -108 -110t-150 -43z" />
    <glyph glyph-name="guillemotleft" unicode="&#xab;" horiz-adv-x="575" 
d="M197 0l-163 251l252 250h51l-252 -250l164 -251h-52zM420 0l-162 251l251 250h52l-252 -250l163 -251h-52z" />
    <glyph glyph-name="logicalnot" unicode="&#xac;" horiz-adv-x="631" 
d="M501 70l41 233h-482l8 39h518l-48 -272h-37z" />
    <glyph glyph-name="registered" unicode="&#xae;" horiz-adv-x="890" 
d="M380 -132q-169 0 -259.5 109.5t-60.5 278.5q29 164 157 273t294 109q170 0 260.5 -109.5t60.5 -278.5q-30 -167 -157 -274.5t-295 -107.5zM381 -97q154 0 271.5 99.5t144.5 253.5q26 148 -55.5 247.5t-231.5 99.5q-153 0 -270.5 -101.5t-143.5 -251.5q-27 -151 53.5 -249
t231.5 -98zM250 12l87 492h185q74 0 115 -42.5t29 -106.5q-11 -62 -65 -102.5t-127 -40.5h-6l133 -200h-44l-133 200h-102l-35 -200h-37zM329 247h146q59 0 102.5 32t52.5 81q8 48 -24 78t-90 30h-149z" />
    <glyph glyph-name="macron" unicode="&#xaf;" horiz-adv-x="382" 
d="M115 616l7 38h281l-6 -38h-282z" />
    <glyph glyph-name="degree" unicode="&#xb0;" horiz-adv-x="503" 
d="M272 347q-92 0 -138.5 54t-30.5 143q15 86 78.5 139t153.5 53q91 0 137.5 -54.5t30.5 -143.5q-15 -86 -79 -138.5t-152 -52.5zM273 383q74 0 127.5 44.5t66.5 116.5q12 70 -24.5 113t-108.5 43q-75 0 -128.5 -44.5t-66.5 -117.5q-13 -70 24 -112.5t110 -42.5z" />
    <glyph glyph-name="plusminus" unicode="&#xb1;" horiz-adv-x="556" 
d="M261 270l25 144h-206l6 39h207l23 132h41l-23 -132h206l-7 -39h-206l-25 -144h-41zM28 118l6 40h454l-7 -40h-453z" />
    <glyph glyph-name="acute" unicode="&#xb4;" horiz-adv-x="260" 
d="M167 615h-53l129 116h53z" />
    <glyph glyph-name="uni00B5" unicode="&#xb5;" horiz-adv-x="568" 
d="M13 -173l118 674h41l-53 -300q-13 -77 20.5 -119.5t102.5 -42.5q63 0 120 46t70 120l52 296h41l-88 -501h-41l16 86q-67 -86 -172 -86q-110 0 -141 83l-46 -256h-40z" />
    <glyph glyph-name="paragraph" unicode="&#xb6;" horiz-adv-x="657" 
d="M187 -228l101 565q-100 0 -152 51t-37 134q14 81 83 130t167 49h306l-6 -37h-91l-158 -892h-39l158 892h-135l-158 -892h-39z" />
    <glyph glyph-name="periodcentered" unicode="&#xb7;" horiz-adv-x="172" 
d="M90 255q-17 0 -26 10.5t-5 27.5q2 14 12.5 23t24.5 9q16 0 25 -11t7 -27q-3 -14 -14 -23t-24 -9z" />
    <glyph glyph-name="cedilla" unicode="&#xb8;" horiz-adv-x="309" 
d="M70 -246q-42 0 -66.5 23t-25.5 60l34 4q1 -25 17 -40t43 -15q30 0 53 18t28 45q4 28 -15 44.5t-54 16.5h-40l29 96h37l-21 -64q50 0 77.5 -27t20.5 -70q-7 -39 -40 -65t-77 -26z" />
    <glyph glyph-name="guillemotright" unicode="&#xbb;" horiz-adv-x="574" 
d="M14 0l252 251l-163 250h50l164 -250l-251 -251h-52zM237 0l252 251l-162 250h50l163 -250l-250 -251h-53z" />
    <glyph glyph-name="questiondown" unicode="&#xbf;" horiz-adv-x="546" 
d="M329 425q-16 0 -25 10.5t-6 26.5q5 33 38 33q16 0 25 -11t6 -27q-7 -32 -38 -32zM182 -242q-93 0 -144 58.5t-35 149.5q12 67 53 111t108 84q61 34 86.5 65.5t36.5 94.5l40 -3q-14 -76 -45 -115t-103 -82q-55 -31 -89.5 -67t-44.5 -93q-13 -73 26.5 -118t112.5 -45
q80 0 140 53.5t79 136.5l43 -3q-22 -101 -95 -164t-169 -63z" />
    <glyph glyph-name="Agrave" unicode="&#xc0;" horiz-adv-x="652" 
d="M443 774h-52l-76 94h53zM-21 0l396 701h62l149 -701h-43l-39 183h-377l-105 -183h-43zM148 223h349l-94 438h-7z" />
    <glyph glyph-name="Aacute" unicode="&#xc1;" horiz-adv-x="652" 
d="M394 774l108 94h55l-109 -94h-54zM-21 0l396 701h62l149 -701h-43l-39 183h-377l-105 -183h-43zM148 223h349l-94 438h-7z" />
    <glyph glyph-name="Acircumflex" unicode="&#xc2;" horiz-adv-x="652" 
d="M409 868h52l85 -94h-52l-59 64h-7l-83 -64h-55zM-21 0l396 701h62l149 -701h-43l-39 183h-377l-105 -183h-43zM148 223h349l-94 438h-7z" />
    <glyph glyph-name="Atilde" unicode="&#xc3;" horiz-adv-x="652" 
d="M485 784q-35 0 -65 25.5t-52 25.5q-42 0 -71 -38l-27 21q15 23 42.5 37.5t56.5 14.5q34 0 64.5 -25.5t54.5 -25.5q46 0 73 41l28 -20q-15 -25 -43.5 -40.5t-60.5 -15.5zM-21 0l396 701h62l149 -701h-43l-39 183h-377l-105 -183h-43zM148 223h349l-94 438h-7z" />
    <glyph glyph-name="Adieresis" unicode="&#xc4;" horiz-adv-x="652" 
d="M321 790q-16 0 -25 11t-6 28q2 14 13.5 23.5t25.5 9.5q16 0 25 -11t7 -28q-3 -14 -14 -23.5t-26 -9.5zM527 790q-16 0 -25 11t-6 28q3 14 14 23.5t25 9.5q17 0 26 -11.5t6 -27.5q-3 -14 -14 -23.5t-26 -9.5zM-21 0l396 701h62l149 -701h-43l-39 183h-377l-105 -183h-43z
M148 223h349l-94 438h-7z" />
    <glyph glyph-name="Aring" unicode="&#xc5;" horiz-adv-x="652" 
d="M420 762q-39 0 -60.5 25.5t-14.5 63.5q7 37 35 60.5t65 23.5q39 0 60 -25t15 -64q-7 -37 -35.5 -60.5t-64.5 -23.5zM420 794q25 0 44.5 16.5t23.5 41.5q4 22 -8 36.5t-35 14.5q-25 0 -44 -16t-24 -40q-4 -24 7.5 -38.5t35.5 -14.5zM-21 0l396 701h62l149 -701h-43
l-39 183h-377l-105 -183h-43zM148 223h349l-94 438h-7z" />
    <glyph glyph-name="AE" unicode="&#xc6;" horiz-adv-x="884" 
d="M-22 0l489 701h438l-7 -40h-361l-51 -285h322l-7 -39h-321l-53 -297h371l-7 -40h-413l27 156h-268l-110 -156h-49zM164 195h248l82 468h-6z" />
    <glyph glyph-name="Ccedilla" unicode="&#xc7;" horiz-adv-x="816" 
d="M504 686q-143 0 -251 -95t-134 -243q-26 -145 47 -239t214 -94q107 0 202 62.5t131 153.5l39 -12q-39 -100 -141 -170t-218 -74l-11 -33q50 0 77.5 -27t20.5 -70q-7 -39 -39.5 -65t-76.5 -26q-42 0 -67 23t-26 60l34 4q2 -25 17.5 -40t42.5 -15q30 0 53.5 18t28.5 45
q4 27 -15 44t-54 17h-40l20 66q-152 7 -230.5 113t-50.5 264q29 163 149 268t280 105q121 0 203 -74t87 -183l-42 -3q-5 94 -75.5 157t-174.5 63z" />
    <glyph glyph-name="Egrave" unicode="&#xc8;" horiz-adv-x="625" 
d="M448 774h-52l-76 94h53zM48 0l123 701h473l-7 -40h-430l-49 -276h390l-6 -40h-391l-54 -305h440l-7 -40h-482z" />
    <glyph glyph-name="Eacute" unicode="&#xc9;" horiz-adv-x="625" 
d="M399 774l108 94h55l-109 -94h-54zM48 0l123 701h473l-7 -40h-430l-49 -276h390l-6 -40h-391l-54 -305h440l-7 -40h-482z" />
    <glyph glyph-name="Ecircumflex" unicode="&#xca;" horiz-adv-x="625" 
d="M414 868h52l85 -94h-52l-59 64h-7l-83 -64h-55zM48 0l123 701h473l-7 -40h-430l-49 -276h390l-6 -40h-391l-54 -305h440l-7 -40h-482z" />
    <glyph glyph-name="Edieresis" unicode="&#xcb;" horiz-adv-x="625" 
d="M326 790q-16 0 -25 11t-6 28q2 14 13.5 23.5t25.5 9.5q16 0 25 -11t7 -28q-3 -14 -14 -23.5t-26 -9.5zM532 790q-16 0 -25 11t-6 28q3 14 14 23.5t25 9.5q17 0 26 -11.5t6 -27.5q-3 -14 -14 -23.5t-26 -9.5zM48 0l123 701h473l-7 -40h-430l-49 -276h390l-6 -40h-391
l-54 -305h440l-7 -40h-482z" />
    <glyph glyph-name="Igrave" unicode="&#xcc;" horiz-adv-x="225" 
d="M228 774h-53l-75 94h53zM48 0l123 701h42l-123 -701h-42z" />
    <glyph glyph-name="Iacute" unicode="&#xcd;" horiz-adv-x="225" 
d="M178 774l109 94h55l-109 -94h-55zM48 0l123 701h42l-123 -701h-42z" />
    <glyph glyph-name="Icircumflex" unicode="&#xce;" horiz-adv-x="225" 
d="M193 868h52l85 -94h-52l-59 64h-7l-84 -64h-54zM48 0l123 701h42l-123 -701h-42z" />
    <glyph glyph-name="Idieresis" unicode="&#xcf;" horiz-adv-x="225" 
d="M106 790q-16 0 -25 11t-7 28q3 14 14 23.5t26 9.5q16 0 25 -11t6 -28q-2 -14 -13.5 -23.5t-25.5 -9.5zM312 790q-16 0 -25 11t-6 28q2 14 13.5 23.5t25.5 9.5q16 0 25 -11t6 -28q-2 -14 -13.5 -23.5t-25.5 -9.5zM48 0l123 701h42l-123 -701h-42z" />
    <glyph glyph-name="Ntilde" unicode="&#xd1;" horiz-adv-x="703" 
d="M519 784q-35 0 -65 25.5t-52 25.5q-42 0 -71 -38l-28 21q16 23 43.5 37.5t56.5 14.5q34 0 64 -25.5t54 -25.5q47 0 74 41l28 -20q-15 -25 -43.5 -40.5t-60.5 -15.5zM47 0l123 701h63l295 -646h8l113 646h42l-123 -701h-63l-295 645h-7l-114 -645h-42z" />
    <glyph glyph-name="Ograve" unicode="&#xd2;" horiz-adv-x="861" 
d="M547 774h-53l-75 94h53zM385 -25q-163 0 -250.5 107t-58.5 271q29 163 151.5 268t284.5 105q163 0 250 -106.5t58 -271.5q-29 -163 -151.5 -268t-283.5 -105zM386 15q145 0 256 95.5t136 242.5q26 145 -50 239t-218 94q-144 0 -255.5 -95.5t-136.5 -242.5
q-26 -145 49.5 -239t218.5 -94z" />
    <glyph glyph-name="Oacute" unicode="&#xd3;" horiz-adv-x="861" 
d="M497 774l108 94h56l-109 -94h-55zM385 -25q-163 0 -250.5 107t-58.5 271q29 163 151.5 268t284.5 105q163 0 250 -106.5t58 -271.5q-29 -163 -151.5 -268t-283.5 -105zM386 15q145 0 256 95.5t136 242.5q26 145 -50 239t-218 94q-144 0 -255.5 -95.5t-136.5 -242.5
q-26 -145 49.5 -239t218.5 -94z" />
    <glyph glyph-name="Ocircumflex" unicode="&#xd4;" horiz-adv-x="861" 
d="M513 868h52l85 -94h-52l-60 64h-6l-84 -64h-54zM385 -25q-163 0 -250.5 107t-58.5 271q29 163 151.5 268t284.5 105q163 0 250 -106.5t58 -271.5q-29 -163 -151.5 -268t-283.5 -105zM386 15q145 0 256 95.5t136 242.5q26 145 -50 239t-218 94q-144 0 -255.5 -95.5
t-136.5 -242.5q-26 -145 49.5 -239t218.5 -94z" />
    <glyph glyph-name="Otilde" unicode="&#xd5;" horiz-adv-x="861" 
d="M589 784q-35 0 -65.5 25.5t-52.5 25.5q-43 0 -70 -38l-28 21q16 23 43.5 37.5t56.5 14.5q34 0 64 -25.5t54 -25.5q47 0 74 41l28 -20q-15 -25 -43.5 -40.5t-60.5 -15.5zM385 -25q-163 0 -250.5 107t-58.5 271q29 163 151.5 268t284.5 105q163 0 250 -106.5t58 -271.5
q-29 -163 -151.5 -268t-283.5 -105zM386 15q145 0 256 95.5t136 242.5q26 145 -50 239t-218 94q-144 0 -255.5 -95.5t-136.5 -242.5q-26 -145 49.5 -239t218.5 -94z" />
    <glyph glyph-name="Odieresis" unicode="&#xd6;" horiz-adv-x="861" 
d="M425 790q-16 0 -25 11t-7 28q3 14 14 23.5t26 9.5q16 0 25 -11t6 -28q-2 -14 -13.5 -23.5t-25.5 -9.5zM631 790q-16 0 -25 11t-6 28q2 14 13 23.5t26 9.5q16 0 25 -11t6 -28q-2 -14 -13.5 -23.5t-25.5 -9.5zM385 -25q-163 0 -250.5 107t-58.5 271q29 163 151.5 268
t284.5 105q163 0 250 -106.5t58 -271.5q-29 -163 -151.5 -268t-283.5 -105zM386 15q145 0 256 95.5t136 242.5q26 145 -50 239t-218 94q-144 0 -255.5 -95.5t-136.5 -242.5q-26 -145 49.5 -239t218.5 -94z" />
    <glyph glyph-name="multiply" unicode="&#xd7;" horiz-adv-x="372" 
d="M71 207l-23 26l130 118l-88 117l30 26l87 -115l128 115l25 -26l-131 -117l88 -118l-30 -26l-87 116z" />
    <glyph glyph-name="Oslash" unicode="&#xd8;" horiz-adv-x="842" 
d="M95 -140l110 158q-78 47 -113 135t-15 200q28 163 148.5 268t276.5 105q91 0 157 -37l118 171h46l-132 -191q69 -48 98 -132.5t11 -188.5q-28 -163 -148 -268t-277 -105q-74 0 -136 27l-98 -142h-46zM227 55l411 599q-59 32 -137 32q-140 0 -249 -95.5t-134 -242.5
q-17 -98 12 -175t97 -118zM376 15q141 0 249 95.5t134 242.5q16 91 -8 164t-82 117l-409 -596q54 -23 116 -23z" />
    <glyph glyph-name="Ugrave" unicode="&#xd9;" horiz-adv-x="704" 
d="M469 774h-52l-76 94h53zM307 -25q-121 0 -182 84.5t-37 220.5l74 421h42l-74 -424q-21 -119 27.5 -190.5t151.5 -71.5t179 73t97 192l74 421h43l-75 -424q-24 -136 -112 -219t-208 -83z" />
    <glyph glyph-name="Uacute" unicode="&#xda;" horiz-adv-x="704" 
d="M420 774l108 94h56l-110 -94h-54zM307 -25q-121 0 -182 84.5t-37 220.5l74 421h42l-74 -424q-21 -119 27.5 -190.5t151.5 -71.5t179 73t97 192l74 421h43l-75 -424q-24 -136 -112 -219t-208 -83z" />
    <glyph glyph-name="Ucircumflex" unicode="&#xdb;" horiz-adv-x="704" 
d="M436 868h51l85 -94h-52l-59 64h-7l-83 -64h-54zM307 -25q-121 0 -182 84.5t-37 220.5l74 421h42l-74 -424q-21 -119 27.5 -190.5t151.5 -71.5t179 73t97 192l74 421h43l-75 -424q-24 -136 -112 -219t-208 -83z" />
    <glyph glyph-name="Udieresis" unicode="&#xdc;" horiz-adv-x="704" 
d="M347 790q-16 0 -25 11t-6 28q2 14 13.5 23.5t25.5 9.5q16 0 25 -11t7 -28q-3 -14 -14 -23.5t-26 -9.5zM554 790q-17 0 -26 11.5t-6 27.5q3 14 14 23.5t25 9.5q17 0 26 -11.5t6 -27.5q-3 -14 -14 -23.5t-25 -9.5zM307 -25q-121 0 -182 84.5t-37 220.5l74 421h42l-74 -424
q-21 -119 27.5 -190.5t151.5 -71.5t179 73t97 192l74 421h43l-75 -424q-24 -136 -112 -219t-208 -83z" />
    <glyph glyph-name="Yacute" unicode="&#xdd;" horiz-adv-x="576" 
d="M356 774l108 94h55l-109 -94h-54zM223 0l50 283l-170 418h46l150 -370h7l280 370h48l-318 -418l-50 -283h-43z" />
    <glyph glyph-name="germandbls" unicode="&#xdf;" horiz-adv-x="638" 
d="M320 -25q-75 0 -133 36l5 44q50 -40 127 -40q76 0 130.5 45t68.5 119q13 80 -44 128t-164 48h-36l8 40h35q78 0 135 38t67 100q11 61 -26.5 102t-106.5 41q-82 0 -145 -56t-78 -143l-84 -477h-42l85 481q18 103 93 169.5t173 66.5q88 0 137.5 -54.5t36.5 -132.5
q-22 -119 -166 -149l-4 -7q90 -12 135.5 -65.5t30.5 -137.5q-15 -85 -82.5 -140.5t-155.5 -55.5z" />
    <glyph glyph-name="agrave" unicode="&#xe0;" horiz-adv-x="663" 
d="M353 615l-88 116h50l89 -116h-51zM265 -20q-114 0 -174.5 77t-40.5 196q21 117 107 192.5t199 75.5q75 0 125.5 -37t68.5 -100l8 1l20 116h41l-88 -501h-41l20 118l-5 -1q-41 -64 -103.5 -100.5t-136.5 -36.5zM269 19q95 0 171.5 66.5t93.5 167.5q18 98 -33.5 163.5
t-144.5 65.5q-98 0 -173 -66.5t-92 -167.5q-18 -100 32.5 -164.5t145.5 -64.5z" />
    <glyph glyph-name="aacute" unicode="&#xe1;" horiz-adv-x="663" 
d="M406 615h-53l129 116h53zM265 -20q-114 0 -174.5 77t-40.5 196q21 117 107 192.5t199 75.5q75 0 125.5 -37t68.5 -100l8 1l20 116h41l-88 -501h-41l20 118l-5 -1q-41 -64 -103.5 -100.5t-136.5 -36.5zM269 19q95 0 171.5 66.5t93.5 167.5q18 98 -33.5 163.5t-144.5 65.5
q-98 0 -173 -66.5t-92 -167.5q-18 -100 32.5 -164.5t145.5 -64.5z" />
    <glyph glyph-name="acircumflex" unicode="&#xe2;" horiz-adv-x="663" 
d="M254 615l120 116h50l79 -116h-46l-59 83h-7l-88 -83h-49zM265 -20q-114 0 -174.5 77t-40.5 196q21 117 107 192.5t199 75.5q75 0 125.5 -37t68.5 -100l8 1l20 116h41l-88 -501h-41l20 118l-5 -1q-41 -64 -103.5 -100.5t-136.5 -36.5zM269 19q95 0 171.5 66.5t93.5 167.5
q18 98 -33.5 163.5t-144.5 65.5q-98 0 -173 -66.5t-92 -167.5q-18 -100 32.5 -164.5t145.5 -64.5z" />
    <glyph glyph-name="atilde" unicode="&#xe3;" horiz-adv-x="663" 
d="M439 615q-35 0 -69 29.5t-55 29.5q-39 0 -67 -37l-26 22q16 23 42 37.5t52 14.5q33 0 68 -30t56 -30t41 11.5t30 28.5l29 -20q-15 -25 -43 -40.5t-58 -15.5zM265 -20q-114 0 -174.5 77t-40.5 196q21 117 107 192.5t199 75.5q75 0 125.5 -37t68.5 -100l8 1l20 116h41
l-88 -501h-41l20 118l-5 -1q-41 -64 -103.5 -100.5t-136.5 -36.5zM269 19q95 0 171.5 66.5t93.5 167.5q18 98 -33.5 163.5t-144.5 65.5q-98 0 -173 -66.5t-92 -167.5q-18 -100 32.5 -164.5t145.5 -64.5z" />
    <glyph glyph-name="adieresis" unicode="&#xe4;" horiz-adv-x="663" 
d="M276 608q-16 0 -25 10.5t-7 27.5q7 32 39 32q17 0 25.5 -11t4.5 -27q-5 -32 -37 -32zM484 608q-16 0 -25 10.5t-7 27.5q7 32 39 32q17 0 25.5 -11t4.5 -27q-5 -32 -37 -32zM265 -20q-114 0 -174.5 77t-40.5 196q21 117 107 192.5t199 75.5q75 0 125.5 -37t68.5 -100l8 1
l20 116h41l-88 -501h-41l20 118l-5 -1q-41 -64 -103.5 -100.5t-136.5 -36.5zM269 19q95 0 171.5 66.5t93.5 167.5q18 98 -33.5 163.5t-144.5 65.5q-98 0 -173 -66.5t-92 -167.5q-18 -100 32.5 -164.5t145.5 -64.5z" />
    <glyph glyph-name="aring" unicode="&#xe5;" horiz-adv-x="663" 
d="M375 574q-44 0 -67.5 28t-15.5 71q7 41 38.5 67.5t72.5 26.5q43 0 67 -28t16 -71q-7 -41 -38.5 -67.5t-72.5 -26.5zM374 603q30 0 53.5 20t29.5 50q4 28 -11 46.5t-43 18.5q-30 0 -53.5 -20t-28.5 -50q-5 -28 10 -46.5t43 -18.5zM265 -20q-114 0 -174.5 77t-40.5 196
q21 117 107 192.5t199 75.5q75 0 125.5 -37t68.5 -100l8 1l20 116h41l-88 -501h-41l20 118l-5 -1q-41 -64 -103.5 -100.5t-136.5 -36.5zM269 19q95 0 171.5 66.5t93.5 167.5q18 98 -33.5 163.5t-144.5 65.5q-98 0 -173 -66.5t-92 -167.5q-18 -100 32.5 -164.5t145.5 -64.5z
" />
    <glyph glyph-name="ae" unicode="&#xe6;" horiz-adv-x="973" 
d="M327 521q76 0 123.5 -38t51.5 -99q90 137 233 137q103 0 155.5 -76.5t32.5 -195.5l-3 -13h-433q-13 -96 32.5 -156.5t128.5 -60.5q60 0 115.5 38t89.5 98l36 -14q-38 -71 -104.5 -116t-137.5 -45q-78 0 -130 43.5t-65 116.5q-34 -75 -103 -117t-157 -42q-84 0 -131 41.5
t-35 107.5q9 51 49 85.5t91 49.5t124 24l167 19l5 30q11 64 -27 104t-110 40q-74 0 -128 -37.5t-65 -95.5l-40 3q13 74 79 121.5t156 47.5zM732 482q-82 0 -148 -58.5t-89 -149.5l390 3q9 91 -33.5 148t-119.5 57zM287 251q-203 -22 -222 -128q-7 -46 29.5 -75t101.5 -29
q94 0 161.5 53.5t81.5 133.5l11 64z" />
    <glyph glyph-name="ccedilla" unicode="&#xe7;" horiz-adv-x="597" 
d="M268 19q70 0 132.5 39t88.5 98l39 -9q-29 -70 -98 -116t-149 -51l-13 -38q50 0 77.5 -27t20.5 -70q-7 -39 -39.5 -65t-76.5 -26q-42 0 -67 23t-26 60l34 4q2 -25 17.5 -40t42.5 -15q30 0 53 18t28 45q5 28 -14 44.5t-55 16.5h-39l21 71q-104 8 -158.5 84t-35.5 188
q21 117 107 192.5t199 75.5q86 0 144 -50.5t61 -128.5l-40 -3q-5 63 -52.5 103t-114.5 40q-97 0 -171.5 -66t-91.5 -168q-19 -100 31 -164.5t145 -64.5z" />
    <glyph glyph-name="egrave" unicode="&#xe8;" horiz-adv-x="632" 
d="M359 615l-88 116h50l89 -116h-51zM276 -20q-118 0 -181.5 77.5t-43.5 197.5q21 116 109.5 191t205.5 75q115 0 175.5 -76.5t40.5 -195.5l-3 -13h-489q-13 -96 40 -156.5t149 -60.5q69 0 134.5 38t98.5 98l36 -14q-37 -71 -113 -116t-159 -45zM97 274l447 3q10 91 -41 148
t-140 57q-94 0 -168.5 -58t-97.5 -150z" />
    <glyph glyph-name="eacute" unicode="&#xe9;" horiz-adv-x="632" 
d="M412 615h-53l129 116h53zM276 -20q-118 0 -181.5 77.5t-43.5 197.5q21 116 109.5 191t205.5 75q115 0 175.5 -76.5t40.5 -195.5l-3 -13h-489q-13 -96 40 -156.5t149 -60.5q69 0 134.5 38t98.5 98l36 -14q-37 -71 -113 -116t-159 -45zM97 274l447 3q10 91 -41 148t-140 57
q-94 0 -168.5 -58t-97.5 -150z" />
    <glyph glyph-name="ecircumflex" unicode="&#xea;" horiz-adv-x="632" 
d="M260 615l119 116h51l79 -116h-47l-59 83h-6l-88 -83h-49zM276 -20q-118 0 -181.5 77.5t-43.5 197.5q21 116 109.5 191t205.5 75q115 0 175.5 -76.5t40.5 -195.5l-3 -13h-489q-13 -96 40 -156.5t149 -60.5q69 0 134.5 38t98.5 98l36 -14q-37 -71 -113 -116t-159 -45z
M97 274l447 3q10 91 -41 148t-140 57q-94 0 -168.5 -58t-97.5 -150z" />
    <glyph glyph-name="edieresis" unicode="&#xeb;" horiz-adv-x="632" 
d="M282 608q-16 0 -25 10.5t-7 27.5q7 32 38 32q17 0 26 -11t5 -27q-2 -14 -12.5 -23t-24.5 -9zM490 608q-16 0 -25 10.5t-7 27.5q7 32 38 32q17 0 26 -11t5 -27q-2 -14 -12.5 -23t-24.5 -9zM276 -20q-118 0 -181.5 77.5t-43.5 197.5q21 116 109.5 191t205.5 75
q115 0 175.5 -76.5t40.5 -195.5l-3 -13h-489q-13 -96 40 -156.5t149 -60.5q69 0 134.5 38t98.5 98l36 -14q-37 -71 -113 -116t-159 -45zM97 274l447 3q10 91 -41 148t-140 57q-94 0 -168.5 -58t-97.5 -150z" />
    <glyph glyph-name="igrave" unicode="&#xec;" horiz-adv-x="200" 
d="M139 615l-88 116h50l89 -116h-51zM36 0l88 501h41l-88 -501h-41z" />
    <glyph glyph-name="iacute" unicode="&#xed;" horiz-adv-x="200" 
d="M192 615h-53l129 116h53zM36 0l88 501h41l-88 -501h-41z" />
    <glyph glyph-name="icircumflex" unicode="&#xee;" horiz-adv-x="200" 
d="M40 615l119 116h51l79 -116h-46l-59 83h-7l-88 -83h-49zM36 0l88 501h41l-88 -501h-41z" />
    <glyph glyph-name="idieresis" unicode="&#xef;" horiz-adv-x="200" 
d="M62 608q-16 0 -25 10.5t-7 27.5q7 32 38 32q17 0 26 -10.5t5 -27.5q-2 -14 -12.5 -23t-24.5 -9zM270 608q-16 0 -25 10.5t-7 27.5q7 32 38 32q17 0 26 -10.5t5 -27.5q-2 -14 -12.5 -23t-24.5 -9zM36 0l88 501h41l-88 -501h-41z" />
    <glyph glyph-name="ntilde" unicode="&#xf1;" 
d="M440 615q-35 0 -69 29.5t-55 29.5q-39 0 -67 -37l-26 22q15 23 41.5 37.5t52.5 14.5q32 0 67 -30t57 -30q21 0 41 11.5t30 28.5l29 -20q-16 -25 -44 -40.5t-57 -15.5zM44 0l88 501h41l-16 -92l7 1q33 52 86 81.5t114 29.5q94 0 140 -64.5t28 -165.5l-52 -291h-40l51 294
q15 84 -21 136t-113 52q-78 0 -142 -53t-77 -131l-53 -298h-41z" />
    <glyph glyph-name="ograve" unicode="&#xf2;" horiz-adv-x="624" 
d="M351 615l-89 116h51l88 -116h-50zM267 -20q-115 0 -176 77t-41 196q21 117 107.5 192.5t200.5 75.5q115 0 176 -77t40 -196q-21 -117 -107.5 -192.5t-199.5 -75.5zM269 19q97 0 172.5 66.5t92.5 167.5q18 100 -33 164.5t-146 64.5q-97 0 -172 -66.5t-92 -167.5
q-18 -100 32.5 -164.5t145.5 -64.5z" />
    <glyph glyph-name="oacute" unicode="&#xf3;" horiz-adv-x="624" 
d="M404 615h-54l129 116h53zM267 -20q-115 0 -176 77t-41 196q21 117 107.5 192.5t200.5 75.5q115 0 176 -77t40 -196q-21 -117 -107.5 -192.5t-199.5 -75.5zM269 19q97 0 172.5 66.5t92.5 167.5q18 100 -33 164.5t-146 64.5q-97 0 -172 -66.5t-92 -167.5
q-18 -100 32.5 -164.5t145.5 -64.5z" />
    <glyph glyph-name="ocircumflex" unicode="&#xf4;" horiz-adv-x="624" 
d="M252 615l119 116h51l79 -116h-47l-59 83h-7l-87 -83h-49zM267 -20q-115 0 -176 77t-41 196q21 117 107.5 192.5t200.5 75.5q115 0 176 -77t40 -196q-21 -117 -107.5 -192.5t-199.5 -75.5zM269 19q97 0 172.5 66.5t92.5 167.5q18 100 -33 164.5t-146 64.5
q-97 0 -172 -66.5t-92 -167.5q-18 -100 32.5 -164.5t145.5 -64.5z" />
    <glyph glyph-name="otilde" unicode="&#xf5;" horiz-adv-x="624" 
d="M437 615q-35 0 -69 29.5t-55 29.5q-41 0 -67 -37l-26 22q15 23 41.5 37.5t52.5 14.5q32 0 67 -30t56 -30t41 11.5t31 28.5l29 -20q-16 -25 -44 -40.5t-57 -15.5zM267 -20q-115 0 -176 77t-41 196q21 117 107.5 192.5t200.5 75.5q115 0 176 -77t40 -196
q-21 -117 -107.5 -192.5t-199.5 -75.5zM269 19q97 0 172.5 66.5t92.5 167.5q18 100 -33 164.5t-146 64.5q-97 0 -172 -66.5t-92 -167.5q-18 -100 32.5 -164.5t145.5 -64.5z" />
    <glyph glyph-name="odieresis" unicode="&#xf6;" horiz-adv-x="624" 
d="M274 608q-17 0 -26 10.5t-6 27.5q2 14 12.5 23t25.5 9q16 0 25 -10.5t6 -27.5q-7 -32 -37 -32zM482 608q-17 0 -26 10.5t-6 27.5q2 14 12.5 23t25.5 9q16 0 25 -10.5t6 -27.5q-7 -32 -37 -32zM267 -20q-115 0 -176 77t-41 196q21 117 107.5 192.5t200.5 75.5
q115 0 176 -77t40 -196q-21 -117 -107.5 -192.5t-199.5 -75.5zM269 19q97 0 172.5 66.5t92.5 167.5q18 100 -33 164.5t-146 64.5q-97 0 -172 -66.5t-92 -167.5q-18 -100 32.5 -164.5t145.5 -64.5z" />
    <glyph glyph-name="divide" unicode="&#xf7;" horiz-adv-x="552" 
d="M321 490q-16 0 -24.5 10t-5.5 26q5 31 37 31q16 0 24.5 -10t5.5 -26q-7 -31 -37 -31zM66 334l7 39h450l-7 -39h-450zM258 131q-16 0 -24.5 10t-6.5 26q5 31 37 31q16 0 24.5 -10t6.5 -26q-7 -31 -37 -31z" />
    <glyph glyph-name="oslash" unicode="&#xf8;" horiz-adv-x="626" 
d="M358 521q65 0 114 -26l72 105h45l-87 -124q47 -36 66.5 -95.5t6.5 -132.5q-20 -117 -106.5 -192.5t-200.5 -75.5q-51 0 -91 17l-53 -77h-45l65 92q-57 34 -82.5 97.5t-10.5 143.5q20 117 107 192.5t200 75.5zM357 484q-99 0 -174.5 -66.5t-93.5 -169.5q-12 -68 8 -121
t67 -83l288 419q-41 21 -95 21zM269 17q99 0 174.5 67t93.5 169q23 124 -56 190l-285 -414q33 -12 73 -12z" />
    <glyph glyph-name="ugrave" unicode="&#xf9;" 
d="M327 615l-88 116h50l89 -116h-51zM558 501l-89 -501h-40l16 92l-7 -1q-33 -52 -86 -81.5t-114 -29.5q-94 0 -140 64.5t-28 165.5l51 291h41l-51 -294q-15 -83 21 -135.5t113 -52.5q78 0 142 53t77 132l53 297h41z" />
    <glyph glyph-name="uacute" unicode="&#xfa;" 
d="M380 615h-53l129 116h53zM558 501l-89 -501h-40l16 92l-7 -1q-33 -52 -86 -81.5t-114 -29.5q-94 0 -140 64.5t-28 165.5l51 291h41l-51 -294q-15 -83 21 -135.5t113 -52.5q78 0 142 53t77 132l53 297h41z" />
    <glyph glyph-name="ucircumflex" unicode="&#xfb;" 
d="M228 615l120 116h50l79 -116h-46l-59 83h-7l-88 -83h-49zM558 501l-89 -501h-40l16 92l-7 -1q-33 -52 -86 -81.5t-114 -29.5q-94 0 -140 64.5t-28 165.5l51 291h41l-51 -294q-15 -83 21 -135.5t113 -52.5q78 0 142 53t77 132l53 297h41z" />
    <glyph glyph-name="udieresis" unicode="&#xfc;" 
d="M250 608q-16 0 -25 10.5t-7 27.5q7 32 39 32q17 0 25.5 -11t4.5 -27q-5 -32 -37 -32zM458 608q-16 0 -25 10.5t-7 27.5q7 32 39 32q17 0 25.5 -11t4.5 -27q-5 -32 -37 -32zM558 501l-89 -501h-40l16 92l-7 -1q-33 -52 -86 -81.5t-114 -29.5q-94 0 -140 64.5t-28 165.5
l51 291h41l-51 -294q-15 -83 21 -135.5t113 -52.5q78 0 142 53t77 132l53 297h41z" />
    <glyph glyph-name="yacute" unicode="&#xfd;" horiz-adv-x="539" 
d="M363 615h-53l129 116h53zM31 -221q-35 0 -62 12l5 38q28 -11 57 -11q27 0 50 12t48.5 43t41.5 55t48 77l-148 496h43l131 -441h7l259 441h44l-297 -504q-67 -114 -115 -166t-112 -52z" />
    <glyph glyph-name="ydieresis" unicode="&#xff;" horiz-adv-x="539" 
d="M233 608q-16 0 -25 10.5t-6 27.5q2 14 12.5 23t25.5 9q16 0 25 -10.5t6 -27.5q-7 -32 -38 -32zM441 608q-16 0 -25 10.5t-6 27.5q2 14 12.5 23t25.5 9q16 0 25 -10.5t6 -27.5q-7 -32 -38 -32zM31 -221q-35 0 -62 12l5 38q28 -11 57 -11q27 0 50 12t48.5 43t41.5 55t48 77
l-148 496h43l131 -441h7l259 441h44l-297 -504q-67 -114 -115 -166t-112 -52z" />
    <glyph glyph-name="Amacron" unicode="&#x100;" horiz-adv-x="652" 
d="M287 816l7 38h281l-7 -38h-281zM-21 0l396 701h62l149 -701h-43l-39 183h-377l-105 -183h-43zM148 223h349l-94 438h-7z" />
    <glyph glyph-name="amacron" unicode="&#x101;" horiz-adv-x="663" 
d="M239 616l7 38h282l-8 -38h-281zM265 -20q-114 0 -174.5 77t-40.5 196q21 117 107 192.5t199 75.5q75 0 125.5 -37t68.5 -100l8 1l20 116h41l-88 -501h-41l20 118l-5 -1q-41 -64 -103.5 -100.5t-136.5 -36.5zM269 19q95 0 171.5 66.5t93.5 167.5q18 98 -33.5 163.5
t-144.5 65.5q-98 0 -173 -66.5t-92 -167.5q-18 -100 32.5 -164.5t145.5 -64.5z" />
    <glyph glyph-name="Abreve" unicode="&#x102;" horiz-adv-x="652" 
d="M421 764q-52 0 -81 30t-21 76l39 -3q-5 -30 13 -48t51 -18q35 0 61.5 19t31.5 50l39 -3q-7 -45 -44.5 -74t-88.5 -29zM-21 0l396 701h62l149 -701h-43l-39 183h-377l-105 -183h-43zM148 223h349l-94 438h-7z" />
    <glyph glyph-name="abreve" unicode="&#x103;" horiz-adv-x="663" 
d="M380 608q-55 0 -84.5 35.5t-19.5 88.5l37 -2q-7 -37 12.5 -61.5t55.5 -24.5q38 0 67 25t36 63l37 -2q-10 -54 -49.5 -88t-91.5 -34zM265 -20q-114 0 -174.5 77t-40.5 196q21 117 107 192.5t199 75.5q75 0 125.5 -37t68.5 -100l8 1l20 116h41l-88 -501h-41l20 118l-5 -1
q-41 -64 -103.5 -100.5t-136.5 -36.5zM269 19q95 0 171.5 66.5t93.5 167.5q18 98 -33.5 163.5t-144.5 65.5q-98 0 -173 -66.5t-92 -167.5q-18 -100 32.5 -164.5t145.5 -64.5z" />
    <glyph glyph-name="Aogonek" unicode="&#x104;" horiz-adv-x="652" 
d="M583 0q-81 -38 -115 -65.5t-39 -55.5q-4 -21 7 -33t33 -12q31 0 74 26l-4 -38q-40 -22 -76 -22q-35 0 -54 23.5t-13 59.5q6 34 39.5 64t105.5 64l-37 172h-377l-105 -183h-43l396 701h62l149 -701h-3zM148 223h349l-94 438h-7z" />
    <glyph glyph-name="aogonek" unicode="&#x105;" horiz-adv-x="663" 
d="M578 501h41l-88 -501h-2q-81 -38 -115 -65.5t-39 -55.5q-4 -21 7 -33t33 -12q31 0 74 26l-4 -38q-40 -22 -76 -22q-35 0 -54 23.5t-13 59.5q6 35 40.5 65t109.5 65l18 105l-5 -1q-41 -64 -103.5 -100.5t-136.5 -36.5q-114 0 -174.5 77t-40.5 196q21 117 107 192.5
t199 75.5q75 0 125.5 -37t68.5 -100l8 1zM534 253q18 98 -33.5 163.5t-144.5 65.5q-98 0 -173 -66.5t-92 -167.5q-18 -100 32.5 -164.5t145.5 -64.5t171.5 66.5t93.5 167.5z" />
    <glyph glyph-name="Cacute" unicode="&#x106;" horiz-adv-x="816" 
d="M494 776l108 95h56l-109 -95h-55zM379 -25q-161 0 -246 107t-56 271q29 163 149 268t280 105q121 0 203 -74t87 -183l-42 -3q-5 94 -75.5 157t-174.5 63q-143 0 -251 -95t-134 -243q-26 -145 47 -239t214 -94q107 0 202 62.5t131 153.5l39 -12q-41 -104 -147 -174
t-226 -70z" />
    <glyph glyph-name="cacute" unicode="&#x107;" horiz-adv-x="597" 
d="M403 615h-53l129 116h53zM266 -20q-114 0 -174.5 77t-40.5 196q21 117 107 192.5t199 75.5q86 0 144 -50.5t61 -128.5l-40 -3q-5 63 -52.5 103t-114.5 40q-97 0 -171.5 -66t-91.5 -168q-19 -100 31 -164.5t145 -64.5q70 0 132.5 39t88.5 98l39 -9q-31 -73 -104.5 -120
t-157.5 -47z" />
    <glyph glyph-name="Ccircumflex" unicode="&#x108;" horiz-adv-x="816" 
d="M510 871h51l85 -95h-52l-59 65h-7l-83 -65h-54zM379 -25q-161 0 -246 107t-56 271q29 163 149 268t280 105q121 0 203 -74t87 -183l-42 -3q-5 94 -75.5 157t-174.5 63q-143 0 -251 -95t-134 -243q-26 -145 47 -239t214 -94q107 0 202 62.5t131 153.5l39 -12
q-41 -104 -147 -174t-226 -70z" />
    <glyph glyph-name="ccircumflex" unicode="&#x109;" horiz-adv-x="597" 
d="M252 615l119 116h50l79 -116h-46l-59 83h-7l-88 -83h-48zM266 -20q-114 0 -174.5 77t-40.5 196q21 117 107 192.5t199 75.5q86 0 144 -50.5t61 -128.5l-40 -3q-5 63 -52.5 103t-114.5 40q-97 0 -171.5 -66t-91.5 -168q-19 -100 31 -164.5t145 -64.5q70 0 132.5 39
t88.5 98l39 -9q-31 -73 -104.5 -120t-157.5 -47z" />
    <glyph glyph-name="Cdotaccent" unicode="&#x10a;" horiz-adv-x="816" 
d="M526 793q-16 0 -25 10.5t-6 27.5q2 15 13 24t26 9q16 0 25 -10.5t7 -27.5q-3 -14 -14 -23.5t-26 -9.5zM379 -25q-161 0 -246 107t-56 271q29 163 149 268t280 105q121 0 203 -74t87 -183l-42 -3q-5 94 -75.5 157t-174.5 63q-143 0 -251 -95t-134 -243q-26 -145 47 -239
t214 -94q107 0 202 62.5t131 153.5l39 -12q-41 -104 -147 -174t-226 -70z" />
    <glyph glyph-name="cdotaccent" unicode="&#x10b;" horiz-adv-x="597" 
d="M378 608q-16 0 -25.5 11t-7.5 28q7 33 40 33q17 0 26 -11t5 -28q-1 -14 -12.5 -23.5t-25.5 -9.5zM266 -20q-114 0 -174.5 77t-40.5 196q21 117 107 192.5t199 75.5q86 0 144 -50.5t61 -128.5l-40 -3q-5 63 -52.5 103t-114.5 40q-97 0 -171.5 -66t-91.5 -168
q-19 -100 31 -164.5t145 -64.5q70 0 132.5 39t88.5 98l39 -9q-31 -73 -104.5 -120t-157.5 -47z" />
    <glyph glyph-name="Ccaron" unicode="&#x10c;" horiz-adv-x="816" 
d="M493 776l-85 95h52l60 -65h7l82 65h54l-118 -95h-52zM379 -25q-161 0 -246 107t-56 271q29 163 149 268t280 105q121 0 203 -74t87 -183l-42 -3q-5 94 -75.5 157t-174.5 63q-143 0 -251 -95t-134 -243q-26 -145 47 -239t214 -94q107 0 202 62.5t131 153.5l39 -12
q-41 -104 -147 -174t-226 -70z" />
    <glyph glyph-name="ccaron" unicode="&#x10d;" horiz-adv-x="597" 
d="M272 731h47l59 -83h7l87 83h49l-119 -116h-51zM266 -20q-114 0 -174.5 77t-40.5 196q21 117 107 192.5t199 75.5q86 0 144 -50.5t61 -128.5l-40 -3q-5 63 -52.5 103t-114.5 40q-97 0 -171.5 -66t-91.5 -168q-19 -100 31 -164.5t145 -64.5q70 0 132.5 39t88.5 98l39 -9
q-31 -73 -104.5 -120t-157.5 -47z" />
    <glyph glyph-name="Dcaron" unicode="&#x10e;" horiz-adv-x="741" 
d="M406 774l-85 94h52l60 -64h7l82 64h55l-119 -94h-52zM48 0l123 701h211q172 0 259.5 -94.5t57.5 -258.5q-28 -163 -146.5 -255.5t-290.5 -92.5h-214zM97 40h169q153 0 260 83.5t132 229.5q25 144 -52 226t-228 82h-171z" />
    <glyph glyph-name="dcaron" unicode="&#x10f;" horiz-adv-x="671" 
d="M721 583l-20 8l50 81q-31 6 -25 37q2 14 12.5 23t25.5 9q16 0 24.5 -10.5t6.5 -27.5q-5 -15 -10 -23zM265 -20q-113 0 -174 77.5t-41 195.5q21 117 107.5 192.5t198.5 75.5q76 0 126 -37t67 -101l8 2l61 346h41l-129 -731h-41l20 117l-5 -1q-39 -64 -102 -100t-137 -36z
M269 19q97 0 172.5 66.5t92.5 167.5q18 99 -32.5 164t-145.5 65q-97 0 -172.5 -66.5t-92.5 -167.5q-18 -99 32.5 -164t145.5 -65z" />
    <glyph glyph-name="Dcroat" unicode="&#x110;" horiz-adv-x="790" 
d="M432 701q172 0 259 -94.5t58 -258.5q-29 -163 -147.5 -255.5t-290.5 -92.5h-214l69 388h-119l7 39h119l48 274h211zM708 353q25 144 -52.5 226t-228.5 82h-171l-41 -234h289l-7 -39h-289l-62 -348h169q152 0 259.5 83.5t133.5 229.5z" />
    <glyph glyph-name="dcroat" unicode="&#x111;" horiz-adv-x="661" 
d="M740 661l-6 -37h-94l-110 -624h-41l20 117l-5 -1q-39 -64 -102 -100t-137 -36q-114 0 -174.5 77t-40.5 196q21 117 107.5 192.5t198.5 75.5q76 0 126 -37t67 -101l8 2l42 239h-247l6 37h248l12 70h41l-12 -70h93zM534 253q18 99 -33 164t-146 65q-97 0 -172 -66.5
t-92 -167.5q-18 -100 32.5 -164.5t145.5 -64.5q97 0 172.5 66.5t92.5 167.5z" />
    <glyph glyph-name="Emacron" unicode="&#x112;" horiz-adv-x="625" 
d="M292 816l7 38h281l-7 -38h-281zM48 0l123 701h473l-7 -40h-430l-49 -276h390l-6 -40h-391l-54 -305h440l-7 -40h-482z" />
    <glyph glyph-name="emacron" unicode="&#x113;" horiz-adv-x="632" 
d="M245 616l7 38h281l-7 -38h-281zM276 -20q-118 0 -181.5 77.5t-43.5 197.5q21 116 109.5 191t205.5 75q115 0 175.5 -76.5t40.5 -195.5l-3 -13h-489q-13 -96 40 -156.5t149 -60.5q69 0 134.5 38t98.5 98l36 -14q-37 -71 -113 -116t-159 -45zM97 274l447 3q10 91 -41 148
t-140 57q-94 0 -168.5 -58t-97.5 -150z" />
    <glyph glyph-name="Ebreve" unicode="&#x114;" horiz-adv-x="625" 
d="M426 764q-52 0 -81 30t-21 76l39 -3q-5 -30 13 -48t51 -18q35 0 61.5 19t31.5 50l39 -3q-7 -45 -44.5 -74t-88.5 -29zM48 0l123 701h473l-7 -40h-430l-49 -276h390l-6 -40h-391l-54 -305h440l-7 -40h-482z" />
    <glyph glyph-name="ebreve" unicode="&#x115;" horiz-adv-x="632" 
d="M386 608q-55 0 -84.5 35.5t-19.5 88.5l37 -2q-7 -38 12 -62t56 -24t66.5 25t36.5 63l37 -2q-10 -54 -49.5 -88t-91.5 -34zM276 -20q-118 0 -181.5 77.5t-43.5 197.5q21 116 109.5 191t205.5 75q115 0 175.5 -76.5t40.5 -195.5l-3 -13h-489q-13 -96 40 -156.5t149 -60.5
q69 0 134.5 38t98.5 98l36 -14q-37 -71 -113 -116t-159 -45zM97 274l447 3q10 91 -41 148t-140 57q-94 0 -168.5 -58t-97.5 -150z" />
    <glyph glyph-name="Edotaccent" unicode="&#x116;" horiz-adv-x="625" 
d="M431 790q-17 0 -25.5 11t-5.5 28q2 15 13 24t26 9q17 0 25.5 -11t5.5 -28q-2 -14 -13.5 -23.5t-25.5 -9.5zM48 0l123 701h473l-7 -40h-430l-49 -276h390l-6 -40h-391l-54 -305h440l-7 -40h-482z" />
    <glyph glyph-name="edotaccent" unicode="&#x117;" horiz-adv-x="632" 
d="M387 608q-17 0 -26.5 11.5t-6.5 27.5q7 33 40 33q16 0 25.5 -11t5.5 -28q-2 -14 -13 -23.5t-25 -9.5zM276 -20q-118 0 -181.5 77.5t-43.5 197.5q21 116 109.5 191t205.5 75q115 0 175.5 -76.5t40.5 -195.5l-3 -13h-489q-13 -96 40 -156.5t149 -60.5q69 0 134.5 38
t98.5 98l36 -14q-37 -71 -113 -116t-159 -45zM97 274l447 3q10 91 -41 148t-140 57q-94 0 -168.5 -58t-97.5 -150z" />
    <glyph glyph-name="Eogonek" unicode="&#x118;" horiz-adv-x="625" 
d="M637 661h-430l-49 -276h390l-6 -40h-391l-54 -305h440l-7 -40h-21q-81 -38 -115 -65t-39 -56q-4 -21 7 -33t33 -12q30 0 74 26l-4 -38q-40 -22 -76 -22q-35 0 -54 23.5t-13 59.5q6 32 34.5 59.5t88.5 57.5h-397l123 701h473z" />
    <glyph glyph-name="eogonek" unicode="&#x119;" horiz-adv-x="632" 
d="M366 521q115 0 175.5 -76.5t40.5 -195.5l-3 -13h-489q-13 -96 40 -156.5t149 -60.5q69 0 134.5 38t98.5 98l36 -14q-27 -52 -77.5 -91.5t-110.5 -57.5q-71 -34 -102 -60t-36 -53q-4 -21 7 -33t33 -12q31 0 74 26l-4 -38q-40 -22 -76 -22q-35 0 -54 23.5t-13 59.5
q9 51 86 97q-118 0 -181 77.5t-43 197.5q21 116 109.5 191t205.5 75zM544 277q10 91 -41 148t-140 57q-94 0 -168.5 -58t-97.5 -150z" />
    <glyph glyph-name="Ecaron" unicode="&#x11a;" horiz-adv-x="625" 
d="M398 774l-86 94h52l61 -64h7l82 64h54l-118 -94h-52zM48 0l123 701h473l-7 -40h-430l-49 -276h390l-6 -40h-391l-54 -305h440l-7 -40h-482z" />
    <glyph glyph-name="ecaron" unicode="&#x11b;" horiz-adv-x="632" 
d="M281 731h46l60 -83h6l88 83h49l-120 -116h-50zM276 -20q-118 0 -181.5 77.5t-43.5 197.5q21 116 109.5 191t205.5 75q115 0 175.5 -76.5t40.5 -195.5l-3 -13h-489q-13 -96 40 -156.5t149 -60.5q69 0 134.5 38t98.5 98l36 -14q-37 -71 -113 -116t-159 -45zM97 274l447 3
q10 91 -41 148t-140 57q-94 0 -168.5 -58t-97.5 -150z" />
    <glyph glyph-name="Gcircumflex" unicode="&#x11c;" horiz-adv-x="851" 
d="M514 868h52l85 -94h-52l-60 64h-6l-84 -64h-54zM386 -25q-163 0 -250.5 107t-58.5 271q28 163 151.5 268t284.5 105q119 0 200 -68.5t86 -172.5l-41 -8q-6 91 -76 150t-171 59q-144 1 -255.5 -94.5t-136.5 -243.5q-26 -144 50 -238.5t218 -94.5q133 0 237.5 85t136.5 219
l-405 -2l8 41l447 -2q-28 -167 -146.5 -274t-278.5 -107z" />
    <glyph glyph-name="gcircumflex" unicode="&#x11d;" horiz-adv-x="662" 
d="M253 615l119 116h51l78 -116h-46l-59 83h-7l-88 -83h-48zM236 -250q-102 0 -165.5 53.5t-62.5 137.5l42 7q-2 -70 50 -114.5t138 -44.5q95 0 165.5 60t86.5 154l19 109l-5 -1q-93 -130 -238 -130q-114 0 -174.5 76.5t-40.5 195.5q21 117 107 192.5t199 75.5
q73 0 123.5 -36t70.5 -98l7 1l20 113h41l-88 -501q-19 -110 -102 -180t-193 -70zM270 20q97 0 172.5 66t92.5 167q18 99 -33 164t-146 65q-98 0 -172.5 -66t-91.5 -168q-18 -99 33 -163.5t145 -64.5z" />
    <glyph glyph-name="Gbreve" unicode="&#x11e;" horiz-adv-x="851" 
d="M525 764q-52 0 -81 30t-21 76l40 -3q-5 -30 12.5 -48t50.5 -18q36 0 62 19t31 50l40 -3q-8 -46 -45.5 -74.5t-88.5 -28.5zM386 -25q-163 0 -250.5 107t-58.5 271q28 163 151.5 268t284.5 105q119 0 200 -68.5t86 -172.5l-41 -8q-6 91 -76 150t-171 59
q-144 1 -255.5 -94.5t-136.5 -243.5q-26 -144 50 -238.5t218 -94.5q133 0 237.5 85t136.5 219l-405 -2l8 41l447 -2q-28 -167 -146.5 -274t-278.5 -107z" />
    <glyph glyph-name="gbreve" unicode="&#x11f;" horiz-adv-x="662" 
d="M378 608q-55 0 -84.5 35.5t-18.5 88.5l37 -2q-7 -38 12 -62t55 -24q38 0 67 25t36 63l37 -2q-9 -54 -48.5 -88t-92.5 -34zM236 -250q-102 0 -165.5 53.5t-62.5 137.5l42 7q-2 -70 50 -114.5t138 -44.5q95 0 165.5 60t86.5 154l19 109l-5 -1q-93 -130 -238 -130
q-114 0 -174.5 76.5t-40.5 195.5q21 117 107 192.5t199 75.5q73 0 123.5 -36t70.5 -98l7 1l20 113h41l-88 -501q-19 -110 -102 -180t-193 -70zM270 20q97 0 172.5 66t92.5 167q18 99 -33 164t-146 65q-98 0 -172.5 -66t-91.5 -168q-18 -99 33 -163.5t145 -64.5z" />
    <glyph glyph-name="Gdotaccent" unicode="&#x120;" horiz-adv-x="851" 
d="M531 790q-17 0 -26 11t-6 28q7 33 39 33q17 0 26 -11t6 -28q-3 -14 -14 -23.5t-25 -9.5zM386 -25q-163 0 -250.5 107t-58.5 271q28 163 151.5 268t284.5 105q119 0 200 -68.5t86 -172.5l-41 -8q-6 91 -76 150t-171 59q-144 1 -255.5 -94.5t-136.5 -243.5
q-26 -144 50 -238.5t218 -94.5q133 0 237.5 85t136.5 219l-405 -2l8 41l447 -2q-28 -167 -146.5 -274t-278.5 -107z" />
    <glyph glyph-name="gdotaccent" unicode="&#x121;" horiz-adv-x="662" 
d="M379 608q-17 0 -26 11.5t-6 27.5q2 15 13 24t26 9q17 0 26 -11t6 -28q-2 -14 -13.5 -23.5t-25.5 -9.5zM236 -250q-102 0 -165.5 53.5t-62.5 137.5l42 7q-2 -70 50 -114.5t138 -44.5q95 0 165.5 60t86.5 154l19 109l-5 -1q-93 -130 -238 -130q-114 0 -174.5 76.5
t-40.5 195.5q21 117 107 192.5t199 75.5q73 0 123.5 -36t70.5 -98l7 1l20 113h41l-88 -501q-19 -110 -102 -180t-193 -70zM270 20q97 0 172.5 66t92.5 167q18 99 -33 164t-146 65q-98 0 -172.5 -66t-91.5 -168q-18 -99 33 -163.5t145 -64.5z" />
    <glyph glyph-name="Gcommaaccent" unicode="&#x122;" horiz-adv-x="851" 
d="M386 -25q-163 0 -250.5 107t-58.5 271q28 163 151.5 268t284.5 105q119 0 200 -68.5t86 -172.5l-41 -8q-6 91 -76 150t-171 59q-144 1 -255.5 -94.5t-136.5 -243.5q-26 -144 50 -238.5t218 -94.5q133 0 237.5 85t136.5 219l-405 -2l8 41l447 -2q-28 -167 -146.5 -274
t-278.5 -107zM328 -238l-21 8l50 81q-31 6 -25 37q2 14 12.5 23t25.5 9q16 0 24.5 -10.5t6.5 -26.5q-1 -10 -9 -23z" />
    <glyph glyph-name="gcommaaccent" unicode="&#x123;" horiz-adv-x="662" 
d="M416 739l21 -8l-50 -81q13 -2 20 -12t5 -25q-7 -32 -38 -32q-17 0 -25.5 10.5t-5.5 26.5q1 10 9 24zM236 -250q-102 0 -165.5 53.5t-62.5 137.5l42 7q-2 -70 50 -114.5t138 -44.5q95 0 165.5 60t86.5 154l19 109l-5 -1q-93 -130 -238 -130q-114 0 -174.5 76.5
t-40.5 195.5q21 117 107 192.5t199 75.5q73 0 123.5 -36t70.5 -98l7 1l20 113h41l-88 -501q-19 -110 -102 -180t-193 -70zM270 20q97 0 172.5 66t92.5 167q18 99 -33 164t-146 65q-98 0 -172.5 -66t-91.5 -168q-18 -99 33 -163.5t145 -64.5z" />
    <glyph glyph-name="Itilde" unicode="&#x128;" horiz-adv-x="225" 
d="M270 784q-35 0 -65 25.5t-52 25.5q-42 0 -71 -38l-28 21q16 23 43.5 37.5t56.5 14.5q34 0 64 -25.5t54 -25.5q47 0 74 41l28 -20q-15 -25 -43.5 -40.5t-60.5 -15.5zM48 0l123 701h42l-123 -701h-42z" />
    <glyph glyph-name="itilde" unicode="&#x129;" horiz-adv-x="200" 
d="M225 615q-35 0 -69 29.5t-55 29.5q-39 0 -67 -37l-26 22q16 23 42 37.5t52 14.5q33 0 68 -30t56 -30t41 11.5t30 28.5l29 -20q-15 -25 -43 -40.5t-58 -15.5zM36 0l88 501h41l-88 -501h-41z" />
    <glyph glyph-name="Imacron" unicode="&#x12a;" horiz-adv-x="225" 
d="M72 816l6 38h281l-6 -38h-281zM48 0l123 701h42l-123 -701h-42z" />
    <glyph glyph-name="imacron" unicode="&#x12b;" horiz-adv-x="200" 
d="M25 616l7 38h282l-8 -38h-281zM36 0l88 501h41l-88 -501h-41z" />
    <glyph glyph-name="Iogonek" unicode="&#x12e;" horiz-adv-x="225" 
d="M171 701h42l-123 -701h-3q-81 -38 -115 -65.5t-39 -55.5q-4 -21 7 -33t33 -12q31 0 74 26l-4 -38q-40 -22 -76 -22q-35 0 -54 23.5t-13 59.5q6 35 40.5 65t109.5 65z" />
    <glyph glyph-name="iogonek" unicode="&#x12f;" horiz-adv-x="228" 
d="M187 680q17 0 26 -11.5t6 -27.5q-2 -14 -13 -23.5t-26 -9.5q-17 0 -26 11.5t-6 27.5q7 33 39 33zM52 13l86 488h41l-89 -501h-1q-81 -38 -115 -65t-39 -56q-4 -21 7 -33t33 -12q30 0 74 26l-4 -38q-41 -22 -76 -22t-54 23.5t-13 59.5q6 35 40.5 65t109.5 65z" />
    <glyph glyph-name="Idotaccent" unicode="&#x130;" horiz-adv-x="225" 
d="M211 790q-17 0 -26 11t-6 28q7 33 39 33q17 0 26 -11t6 -28q-3 -14 -14 -23.5t-25 -9.5zM48 0l123 701h42l-123 -701h-42z" />
    <glyph glyph-name="dotlessi" unicode="&#x131;" horiz-adv-x="200" 
d="M35 0l89 501h41l-89 -501h-41z" />
    <glyph glyph-name="IJ" unicode="&#x132;" horiz-adv-x="642" 
d="M48 0l123 701h42l-123 -701h-42zM307 -20q-57 0 -115 20l4 40q65 -20 113 -20q72 0 124 49.5t69 142.5l86 489h42l-86 -492q-20 -110 -84.5 -169.5t-152.5 -59.5z" />
    <glyph glyph-name="ij" unicode="&#x133;" horiz-adv-x="455" 
d="M180 608q-17 0 -26 11.5t-6 27.5q7 33 39 33q17 0 26 -11.5t6 -27.5q-2 -14 -13 -23.5t-26 -9.5zM406 608q-17 0 -26 11t-7 28q7 33 40 33q17 0 26 -11t5 -28q-1 -14 -12.5 -23.5t-25.5 -9.5zM50 0l88 501h41l-89 -501h-40zM169 -221q-37 0 -71 13l4 39q35 -13 63 -13
q34 0 60 23t33 58l106 602h40l-107 -604q-8 -51 -44.5 -84.5t-83.5 -33.5z" />
    <glyph glyph-name="Kcommaaccent" unicode="&#x136;" horiz-adv-x="592" 
d="M47 0l123 701h43l-55 -314h6l409 314h62l-434 -332l317 -369h-58l-302 352h-7l-62 -352h-42zM200 -238l-21 8l50 81q-13 2 -20 12t-5 25q7 32 38 32q17 0 25.5 -10.5t5.5 -26.5q-1 -10 -9 -23z" />
    <glyph glyph-name="kcommaaccent" unicode="&#x137;" horiz-adv-x="464" 
d="M43 0l129 731h41l-80 -453h6l292 223h60l-317 -240l237 -261h-59l-218 242h-7l-43 -242h-41zM166 -238l-21 8l50 81q-31 6 -25 37q2 14 13 23t25 9q16 0 25 -10.5t6 -26.5q-2 -10 -9 -23z" />
    <glyph glyph-name="Lacute" unicode="&#x139;" horiz-adv-x="555" 
d="M180 774l108 94h56l-109 -94h-55zM48 0l123 701h42l-116 -661h391l-7 -40h-433z" />
    <glyph glyph-name="lacute" unicode="&#x13a;" horiz-adv-x="215" 
d="M175 774l108 94h55l-109 -94h-54zM43 0l129 731h41l-129 -731h-41z" />
    <glyph glyph-name="Lcommaaccent" unicode="&#x13b;" horiz-adv-x="555" 
d="M48 0l123 701h42l-116 -661h391l-7 -40h-433zM213 -238l-20 8l50 81q-31 5 -25 37q2 14 12.5 23t25.5 9q16 0 24.5 -10.5t5.5 -26.5q-2 -13 -8 -23z" />
    <glyph glyph-name="lcommaaccent" unicode="&#x13c;" horiz-adv-x="215" 
d="M43 0l129 731h41l-129 -731h-41zM5 -238l-21 8l50 81q-31 6 -25 37q2 14 12.5 23t25.5 9q16 0 24.5 -10.5t6.5 -26.5q-2 -11 -9 -23z" />
    <glyph glyph-name="Lcaron" unicode="&#x13d;" horiz-adv-x="555" 
d="M345 553l-20 8l50 81q-31 5 -25 37q2 14 12.5 23t25.5 9q17 0 25.5 -11t4.5 -27q0 -8 -8 -23zM48 0l123 701h42l-116 -661h391l-7 -40h-433z" />
    <glyph glyph-name="lcaron" unicode="&#x13e;" horiz-adv-x="215" 
d="M266 583l-20 8l50 81q-14 2 -21.5 12t-4.5 25q2 14 13 23t25 9q16 0 25 -10.5t7 -27.5q-1 -7 -10 -23zM43 0l129 731h41l-129 -731h-41z" />
    <glyph glyph-name="Lslash" unicode="&#x141;" horiz-adv-x="596" 
d="M138 40h391l-7 -40h-433l49 276l-122 -68l7 44l123 69l67 380h42l-63 -354l336 187l-7 -43l-337 -189z" />
    <glyph glyph-name="lslash" unicode="&#x142;" horiz-adv-x="377" 
d="M427 543l-8 -47l-186 -108l-69 -388h-40l64 362l-185 -108l8 46l185 108l57 323h41l-53 -296z" />
    <glyph glyph-name="Nacute" unicode="&#x143;" horiz-adv-x="703" 
d="M427 774l109 94h55l-109 -94h-55zM47 0l123 701h63l295 -646h8l113 646h42l-123 -701h-63l-295 645h-7l-114 -645h-42z" />
    <glyph glyph-name="nacute" unicode="&#x144;" 
d="M407 615h-53l128 116h53zM44 0l88 501h41l-16 -92l7 1q33 52 86 81.5t114 29.5q94 0 140 -64.5t28 -165.5l-52 -291h-40l51 294q15 84 -21 136t-113 52q-78 0 -142 -53t-77 -131l-53 -298h-41z" />
    <glyph glyph-name="Ncommaaccent" unicode="&#x145;" horiz-adv-x="703" 
d="M47 0l123 701h63l295 -646h8l113 646h42l-123 -701h-63l-295 645h-7l-114 -645h-42zM257 -238l-20 8l50 81q-31 5 -25 37q2 14 12.5 23t25.5 9q16 0 24.5 -10.5t5.5 -26.5q-2 -13 -8 -23z" />
    <glyph glyph-name="ncommaaccent" unicode="&#x146;" 
d="M44 0l88 501h41l-16 -92l7 1q33 52 86 81.5t114 29.5q94 0 140 -64.5t28 -165.5l-52 -291h-40l51 294q15 84 -21 136t-113 52q-78 0 -142 -53t-77 -131l-53 -298h-41zM210 -238l-21 8l51 81q-31 5 -26 37q7 32 39 32q16 0 24.5 -10.5t5.5 -26.5q-2 -13 -9 -23z" />
    <glyph glyph-name="Ncaron" unicode="&#x147;" horiz-adv-x="703" 
d="M427 774l-86 94h52l61 -64h6l82 64h55l-119 -94h-51zM47 0l123 701h63l295 -646h8l113 646h42l-123 -701h-63l-295 645h-7l-114 -645h-42z" />
    <glyph glyph-name="ncaron" unicode="&#x148;" 
d="M276 731h46l60 -83h6l88 83h49l-120 -116h-50zM44 0l88 501h41l-16 -92l7 1q33 52 86 81.5t114 29.5q94 0 140 -64.5t28 -165.5l-52 -291h-40l51 294q15 84 -21 136t-113 52q-78 0 -142 -53t-77 -131l-53 -298h-41z" />
    <glyph glyph-name="Omacron" unicode="&#x14c;" horiz-adv-x="861" 
d="M391 816l6 38h281l-6 -38h-281zM385 -25q-163 0 -250.5 107t-58.5 271q29 163 151.5 268t284.5 105q163 0 250 -106.5t58 -271.5q-29 -163 -151.5 -268t-283.5 -105zM386 15q145 0 256 95.5t136 242.5q26 145 -50 239t-218 94q-144 0 -255.5 -95.5t-136.5 -242.5
q-26 -145 49.5 -239t218.5 -94z" />
    <glyph glyph-name="omacron" unicode="&#x14d;" horiz-adv-x="624" 
d="M237 616l7 38h281l-7 -38h-281zM267 -20q-115 0 -176 77t-41 196q21 117 107.5 192.5t200.5 75.5q115 0 176 -77t40 -196q-21 -117 -107.5 -192.5t-199.5 -75.5zM269 19q97 0 172.5 66.5t92.5 167.5q18 100 -33 164.5t-146 64.5q-97 0 -172 -66.5t-92 -167.5
q-18 -100 32.5 -164.5t145.5 -64.5z" />
    <glyph glyph-name="Obreve" unicode="&#x14e;" horiz-adv-x="861" 
d="M524 764q-52 0 -81 30t-21 76l40 -3q-5 -30 12.5 -48t50.5 -18q36 0 62 19t31 50l40 -3q-8 -46 -45.5 -74.5t-88.5 -28.5zM385 -25q-163 0 -250.5 107t-58.5 271q29 163 151.5 268t284.5 105q163 0 250 -106.5t58 -271.5q-29 -163 -151.5 -268t-283.5 -105zM386 15
q145 0 256 95.5t136 242.5q26 145 -50 239t-218 94q-144 0 -255.5 -95.5t-136.5 -242.5q-26 -145 49.5 -239t218.5 -94z" />
    <glyph glyph-name="obreve" unicode="&#x14f;" horiz-adv-x="624" 
d="M378 608q-55 0 -84.5 35.5t-19.5 88.5l37 -2q-7 -38 12 -62t55 -24q38 0 67 25t36 63l37 -2q-9 -54 -48.5 -88t-91.5 -34zM267 -20q-115 0 -176 77t-41 196q21 117 107.5 192.5t200.5 75.5q115 0 176 -77t40 -196q-21 -117 -107.5 -192.5t-199.5 -75.5zM269 19
q97 0 172.5 66.5t92.5 167.5q18 100 -33 164.5t-146 64.5q-97 0 -172 -66.5t-92 -167.5q-18 -100 32.5 -164.5t145.5 -64.5z" />
    <glyph glyph-name="Ohungarumlaut" unicode="&#x150;" horiz-adv-x="861" 
d="M408 774l102 95h54l-103 -95h-53zM568 774l102 95h55l-106 -95h-51zM385 -25q-163 0 -250.5 107t-58.5 271q29 163 151.5 268t284.5 105q163 0 250 -106.5t58 -271.5q-29 -163 -151.5 -268t-283.5 -105zM386 15q145 0 256 95.5t136 242.5q26 145 -50 239t-218 94
q-144 0 -255.5 -95.5t-136.5 -242.5q-26 -145 49.5 -239t218.5 -94z" />
    <glyph glyph-name="ohungarumlaut" unicode="&#x151;" horiz-adv-x="624" 
d="M274 615l123 115h54l-125 -115h-52zM484 615h-52l125 115h53zM267 -20q-115 0 -176 77t-41 196q21 117 107.5 192.5t200.5 75.5q115 0 176 -77t40 -196q-21 -117 -107.5 -192.5t-199.5 -75.5zM269 19q97 0 172.5 66.5t92.5 167.5q18 100 -33 164.5t-146 64.5
q-97 0 -172 -66.5t-92 -167.5q-18 -100 32.5 -164.5t145.5 -64.5z" />
    <glyph glyph-name="OE" unicode="&#x152;" horiz-adv-x="1050" 
d="M383 -23q-161 0 -248 106.5t-58 269.5q28 162 150.5 266.5t281.5 104.5q62 0 123 -23h439l-7 -40h-400l-51 -286h360l-7 -39h-359l-53 -296h410l-7 -40h-447q-63 -23 -127 -23zM384 17q66 0 127 23l112 622q-50 22 -114 22q-144 0 -254.5 -95t-135.5 -241
q-25 -145 49.5 -238t215.5 -93z" />
    <glyph glyph-name="oe" unicode="&#x153;" horiz-adv-x="1116" 
d="M850 521q115 0 175.5 -76.5t40.5 -195.5q-1 -1 -3 -13h-490q-13 -96 40 -156.5t149 -60.5q70 0 135.5 38t98.5 98l36 -14q-38 -71 -114 -116t-158 -45q-88 0 -147 44t-76 119q-42 -75 -113.5 -119t-156.5 -44q-115 0 -176 77t-41 196q21 117 107.5 192.5t200.5 75.5
q85 0 141.5 -43.5t73.5 -117.5q42 74 115.5 117.5t161.5 43.5zM269 19q97 0 172.5 66.5t92.5 167.5q18 100 -33 164.5t-146 64.5q-97 0 -172 -66.5t-92 -167.5q-18 -100 32.5 -164.5t145.5 -64.5zM1028 277q9 91 -41.5 148t-139.5 57q-94 0 -168.5 -58t-97.5 -150z" />
    <glyph glyph-name="Racute" unicode="&#x154;" horiz-adv-x="687" 
d="M413 774l108 94h56l-109 -94h-55zM48 0l123 701h292q113 0 169 -54t40 -148q-16 -88 -89.5 -141t-179.5 -54h-33l212 -304h-54l-209 303h-175l-54 -303h-42zM151 343h250q92 0 154 44t76 118q13 74 -32.5 115t-139.5 41h-252z" />
    <glyph glyph-name="racute" unicode="&#x155;" horiz-adv-x="376" 
d="M308 615h-53l129 116h53zM44 0l88 501h41l-16 -88l6 1q56 97 151 97q43 0 74 -17l-5 -41q-31 19 -72 19q-64 0 -113 -54t-64 -141l-49 -277h-41z" />
    <glyph glyph-name="Rcommaaccent" unicode="&#x156;" horiz-adv-x="687" 
d="M48 0l123 701h292q113 0 169 -54t40 -148q-16 -88 -89.5 -141t-179.5 -54h-33l212 -304h-54l-209 303h-175l-54 -303h-42zM151 343h250q92 0 154 44t76 118q13 74 -32.5 115t-139.5 41h-252zM253 -238l-21 8l50 81q-31 6 -25 37q2 14 13 23t25 9q16 0 25 -10.5t6 -26.5
q-2 -10 -9 -23z" />
    <glyph glyph-name="rcommaaccent" unicode="&#x157;" horiz-adv-x="376" 
d="M44 0l88 501h41l-16 -88l6 1q56 97 151 97q43 0 74 -17l-5 -41q-31 19 -72 19q-64 0 -113 -54t-64 -141l-49 -277h-41zM5 -238l-20 8l50 81q-31 6 -25 37q2 14 12.5 23t25.5 9q16 0 24.5 -10.5t6.5 -26.5q-4 -15 -9 -23z" />
    <glyph glyph-name="Rcaron" unicode="&#x158;" horiz-adv-x="687" 
d="M412 774l-85 94h52l60 -64h7l82 64h54l-118 -94h-52zM48 0l123 701h292q113 0 169 -54t40 -148q-16 -88 -89.5 -141t-179.5 -54h-33l212 -304h-54l-209 303h-175l-54 -303h-42zM151 343h250q92 0 154 44t76 118q13 74 -32.5 115t-139.5 41h-252z" />
    <glyph glyph-name="rcaron" unicode="&#x159;" horiz-adv-x="376" 
d="M178 731h46l59 -83h7l88 83h48l-119 -116h-51zM44 0l88 501h41l-16 -88l6 1q56 97 151 97q43 0 74 -17l-5 -41q-31 19 -72 19q-64 0 -113 -54t-64 -141l-49 -277h-41z" />
    <glyph glyph-name="Sacute" unicode="&#x15a;" horiz-adv-x="688" 
d="M407 774l108 94h56l-110 -94h-54zM303 -25q-129 0 -194.5 68t-45.5 182l42 -3q-16 -97 37.5 -152t163.5 -55q105 0 175.5 45.5t83.5 120.5q6 32 -1.5 56.5t-26.5 39t-45 24.5t-58.5 17t-65.5 12q-3 0 -5 0.5t-5 1t-5 0.5q-45 7 -74 14t-64 21.5t-54 33.5t-29 50.5
t-2 73.5q15 91 92.5 146t194.5 55q124 0 186.5 -62.5t43.5 -169.5l-41 2q15 88 -36 139t-153 51q-100 0 -166.5 -46t-79.5 -119q-6 -33 3 -57.5t24 -39t46.5 -25.5t56 -16t66.5 -11q63 -10 98 -19t78 -29.5t58.5 -57t6.5 -89.5q-17 -93 -99 -147.5t-206 -54.5z" />
    <glyph glyph-name="sacute" unicode="&#x15b;" horiz-adv-x="512" 
d="M344 615h-53l129 116h53zM222 -20q-98 0 -149.5 50.5t-37.5 129.5l40 -2q-11 -63 30 -101.5t119 -38.5q68 0 117 29.5t58 78.5q5 31 -3 51.5t-28.5 31t-42.5 16t-55 10.5l-21 3q-32 5 -53.5 9.5t-47 15t-39.5 25t-21 39.5t-1 57q10 61 67.5 99t139.5 38q90 0 137 -46
t33 -122l-39 3q10 58 -26.5 92.5t-107.5 34.5q-65 0 -111 -28.5t-54 -73.5q-4 -24 1.5 -41.5t14.5 -27t31.5 -17.5t36 -10.5t44.5 -7.5q4 -1 6 -1q38 -6 58.5 -10t50.5 -15.5t44 -26t22.5 -41t2.5 -61.5q-12 -66 -71.5 -104t-144.5 -38z" />
    <glyph glyph-name="Scircumflex" unicode="&#x15c;" horiz-adv-x="688" 
d="M423 868h51l85 -94h-52l-59 64h-7l-83 -64h-54zM303 -25q-129 0 -194.5 68t-45.5 182l42 -3q-16 -97 37.5 -152t163.5 -55q105 0 175.5 45.5t83.5 120.5q6 32 -1.5 56.5t-26.5 39t-45 24.5t-58.5 17t-65.5 12q-3 0 -5 0.5t-5 1t-5 0.5q-45 7 -74 14t-64 21.5t-54 33.5
t-29 50.5t-2 73.5q15 91 92.5 146t194.5 55q124 0 186.5 -62.5t43.5 -169.5l-41 2q15 88 -36 139t-153 51q-100 0 -166.5 -46t-79.5 -119q-6 -33 3 -57.5t24 -39t46.5 -25.5t56 -16t66.5 -11q63 -10 98 -19t78 -29.5t58.5 -57t6.5 -89.5q-17 -93 -99 -147.5t-206 -54.5z" />
    <glyph glyph-name="scircumflex" unicode="&#x15d;" horiz-adv-x="512" 
d="M193 615l119 116h51l78 -116h-46l-59 83h-7l-88 -83h-48zM222 -20q-98 0 -149.5 50.5t-37.5 129.5l40 -2q-11 -63 30 -101.5t119 -38.5q68 0 117 29.5t58 78.5q5 31 -3 51.5t-28.5 31t-42.5 16t-55 10.5l-21 3q-32 5 -53.5 9.5t-47 15t-39.5 25t-21 39.5t-1 57
q10 61 67.5 99t139.5 38q90 0 137 -46t33 -122l-39 3q10 58 -26.5 92.5t-107.5 34.5q-65 0 -111 -28.5t-54 -73.5q-4 -24 1.5 -41.5t14.5 -27t31.5 -17.5t36 -10.5t44.5 -7.5q4 -1 6 -1q38 -6 58.5 -10t50.5 -15.5t44 -26t22.5 -41t2.5 -61.5q-12 -66 -71.5 -104t-144.5 -38
z" />
    <glyph glyph-name="Scedilla" unicode="&#x15e;" horiz-adv-x="688" 
d="M647 494l-41 2q15 88 -36 139t-153 51q-100 0 -166.5 -46t-79.5 -119q-6 -33 3 -57.5t24 -39t46.5 -25.5t56 -16t66.5 -11q63 -10 98 -19t78 -29.5t58.5 -57t6.5 -89.5q-17 -90 -94.5 -144t-196.5 -58l-11 -33q50 0 77.5 -27t20.5 -70q-7 -39 -39.5 -65t-76.5 -26
q-41 0 -66.5 23t-26.5 60l34 4q2 -25 18 -40t42 -15q30 0 53.5 18t28.5 45q4 27 -15 44t-54 17h-40l20 66q-119 5 -178.5 72.5t-40.5 176.5l42 -3q-16 -97 37.5 -152t163.5 -55q105 0 175.5 45.5t83.5 120.5q6 32 -1.5 56.5t-26.5 39t-45 24.5t-58.5 17t-65.5 12
q-3 0 -5 0.5t-5 1t-5 0.5q-45 7 -74 14t-64 21.5t-54 33.5t-29 50.5t-2 73.5q15 91 92.5 146t194.5 55q124 0 186.5 -62.5t43.5 -169.5z" />
    <glyph glyph-name="scedilla" unicode="&#x15f;" horiz-adv-x="512" 
d="M464 353l-39 3q10 58 -26.5 92.5t-107.5 34.5q-65 0 -111 -28.5t-54 -73.5q-4 -24 1.5 -41.5t14.5 -27t31.5 -17.5t36 -10.5t44.5 -7.5q4 -1 6 -1q38 -6 58.5 -10t50.5 -15.5t44 -26t22.5 -41t2.5 -61.5q-12 -64 -69 -102t-139 -40l-13 -38q51 0 78.5 -27t20.5 -70
q-7 -39 -39.5 -65t-77.5 -26q-41 0 -66 23t-26 60l34 4q1 -25 17 -40t42 -15q30 0 53.5 18t28.5 45q5 28 -14 44.5t-55 16.5h-40l21 71q-85 7 -128.5 56.5t-30.5 122.5l40 -2q-11 -63 30 -101.5t119 -38.5q68 0 117 29.5t58 78.5q5 31 -3 51.5t-28.5 31t-42.5 16t-55 10.5
l-21 3q-32 5 -53.5 9.5t-47 15t-39.5 25t-21 39.5t-1 57q10 61 67.5 99t139.5 38q90 0 137 -46t33 -122z" />
    <glyph glyph-name="Scaron" unicode="&#x160;" horiz-adv-x="688" 
d="M406 774l-86 94h52l61 -64h7l82 64h54l-118 -94h-52zM303 -25q-129 0 -194.5 68t-45.5 182l42 -3q-16 -97 37.5 -152t163.5 -55q105 0 175.5 45.5t83.5 120.5q6 32 -1.5 56.5t-26.5 39t-45 24.5t-58.5 17t-65.5 12q-3 0 -5 0.5t-5 1t-5 0.5q-45 7 -74 14t-64 21.5
t-54 33.5t-29 50.5t-2 73.5q15 91 92.5 146t194.5 55q124 0 186.5 -62.5t43.5 -169.5l-41 2q15 88 -36 139t-153 51q-100 0 -166.5 -46t-79.5 -119q-6 -33 3 -57.5t24 -39t46.5 -25.5t56 -16t66.5 -11q63 -10 98 -19t78 -29.5t58.5 -57t6.5 -89.5q-17 -93 -99 -147.5
t-206 -54.5z" />
    <glyph glyph-name="scaron" unicode="&#x161;" horiz-adv-x="512" 
d="M214 731h46l59 -83h7l88 83h48l-119 -116h-51zM222 -20q-98 0 -149.5 50.5t-37.5 129.5l40 -2q-11 -63 30 -101.5t119 -38.5q68 0 117 29.5t58 78.5q5 31 -3 51.5t-28.5 31t-42.5 16t-55 10.5l-21 3q-32 5 -53.5 9.5t-47 15t-39.5 25t-21 39.5t-1 57q10 61 67.5 99
t139.5 38q90 0 137 -46t33 -122l-39 3q10 58 -26.5 92.5t-107.5 34.5q-65 0 -111 -28.5t-54 -73.5q-4 -24 1.5 -41.5t14.5 -27t31.5 -17.5t36 -10.5t44.5 -7.5q4 -1 6 -1q38 -6 58.5 -10t50.5 -15.5t44 -26t22.5 -41t2.5 -61.5q-12 -66 -71.5 -104t-144.5 -38z" />
    <glyph glyph-name="uni0162" unicode="&#x162;" horiz-adv-x="573" 
d="M222 0l116 661h-246l6 40h536l-7 -40h-246l-117 -661h-42zM184 -238l-21 8l51 81q-31 5 -26 37q7 32 39 32q16 0 24.5 -10.5t5.5 -26.5q-2 -13 -9 -23z" />
    <glyph glyph-name="uni0163" unicode="&#x163;" horiz-adv-x="347" 
d="M193 -12q-53 0 -79.5 35t-16.5 92l62 349h-88l6 37h88l31 153h37l-27 -153h138l-7 -37h-137l-62 -351q-7 -40 9 -63.5t52 -23.5q34 0 71 10l-4 -37q-31 -11 -73 -11zM123 -238l-20 8l50 81q-31 6 -25 37q2 14 12.5 23t25.5 9q16 0 24.5 -10.5t6.5 -26.5q-4 -15 -9 -23z
" />
    <glyph glyph-name="Tcaron" unicode="&#x164;" horiz-adv-x="573" 
d="M353 774l-85 94h52l60 -64h7l82 64h54l-118 -94h-52zM222 0l116 661h-246l6 40h536l-7 -40h-246l-117 -661h-42z" />
    <glyph glyph-name="tcaron" unicode="&#x165;" horiz-adv-x="347" 
d="M285 542l-21 8l50 81q-13 2 -20 12t-5 25q2 14 12.5 23t24.5 9q17 0 26 -10.5t6 -26.5q-2 -11 -10 -24zM193 -12q-53 0 -79.5 35t-16.5 92l62 349h-88l6 37h88l31 153h37l-27 -153h138l-7 -37h-137l-62 -351q-7 -40 9 -63.5t52 -23.5q34 0 71 10l-4 -37q-31 -11 -73 -11z
" />
    <glyph glyph-name="Utilde" unicode="&#x168;" horiz-adv-x="704" 
d="M511 784q-35 0 -65 25.5t-52 25.5q-42 0 -71 -38l-27 21q15 23 42.5 37.5t56.5 14.5q34 0 64.5 -25.5t54.5 -25.5q48 0 73 41l29 -20q-16 -26 -44.5 -41t-60.5 -15zM307 -25q-121 0 -182 84.5t-37 220.5l74 421h42l-74 -424q-21 -119 27.5 -190.5t151.5 -71.5t179 73
t97 192l74 421h43l-75 -424q-24 -136 -112 -219t-208 -83z" />
    <glyph glyph-name="utilde" unicode="&#x169;" 
d="M413 615q-35 0 -69 29.5t-55 29.5q-39 0 -67 -37l-26 22q16 23 42 37.5t52 14.5q33 0 68 -30t56 -30t41 11.5t30 28.5l29 -20q-15 -25 -43 -40.5t-58 -15.5zM558 501l-89 -501h-40l16 92l-7 -1q-33 -52 -86 -81.5t-114 -29.5q-94 0 -140 64.5t-28 165.5l51 291h41
l-51 -294q-15 -83 21 -135.5t113 -52.5q78 0 142 53t77 132l53 297h41z" />
    <glyph glyph-name="Umacron" unicode="&#x16a;" horiz-adv-x="704" 
d="M313 816l7 38h281l-7 -38h-281zM307 -25q-121 0 -182 84.5t-37 220.5l74 421h42l-74 -424q-21 -119 27.5 -190.5t151.5 -71.5t179 73t97 192l74 421h43l-75 -424q-24 -136 -112 -219t-208 -83z" />
    <glyph glyph-name="umacron" unicode="&#x16b;" 
d="M213 616l7 38h282l-8 -38h-281zM558 501l-89 -501h-40l16 92l-7 -1q-33 -52 -86 -81.5t-114 -29.5q-94 0 -140 64.5t-28 165.5l51 291h41l-51 -294q-15 -83 21 -135.5t113 -52.5q78 0 142 53t77 132l53 297h41z" />
    <glyph glyph-name="Ubreve" unicode="&#x16c;" horiz-adv-x="704" 
d="M447 764q-52 0 -81 30t-21 76l40 -3q-5 -30 12.5 -48t50.5 -18q35 0 61.5 19t31.5 50l39 -3q-7 -45 -44.5 -74t-88.5 -29zM307 -25q-121 0 -182 84.5t-37 220.5l74 421h42l-74 -424q-21 -119 27.5 -190.5t151.5 -71.5t179 73t97 192l74 421h43l-75 -424
q-24 -136 -112 -219t-208 -83z" />
    <glyph glyph-name="ubreve" unicode="&#x16d;" 
d="M354 608q-55 0 -84.5 35.5t-19.5 88.5l37 -2q-7 -37 12.5 -61.5t55.5 -24.5q38 0 67 25t36 63l37 -2q-10 -54 -49.5 -88t-91.5 -34zM558 501l-89 -501h-40l16 92l-7 -1q-33 -52 -86 -81.5t-114 -29.5q-94 0 -140 64.5t-28 165.5l51 291h41l-51 -294q-15 -83 21 -135.5
t113 -52.5q78 0 142 53t77 132l53 297h41z" />
    <glyph glyph-name="Uring" unicode="&#x16e;" horiz-adv-x="704" 
d="M446 762q-39 0 -60.5 25.5t-14.5 63.5q7 37 35 60.5t65 23.5q39 0 60 -25t15 -64q-7 -37 -35.5 -60.5t-64.5 -23.5zM446 794q25 0 44.5 16.5t23.5 41.5q4 22 -8 36.5t-35 14.5q-25 0 -44 -16t-24 -40q-4 -24 7.5 -38.5t35.5 -14.5zM307 -25q-121 0 -182 84.5t-37 220.5
l74 421h42l-74 -424q-21 -119 27.5 -190.5t151.5 -71.5t179 73t97 192l74 421h43l-75 -424q-24 -136 -112 -219t-208 -83z" />
    <glyph glyph-name="uring" unicode="&#x16f;" 
d="M349 574q-44 0 -67.5 28t-15.5 71q7 41 38.5 67.5t72.5 26.5q43 0 67 -28t16 -71q-7 -41 -38.5 -67.5t-72.5 -26.5zM348 603q30 0 53.5 20t29.5 50q4 28 -11 46.5t-43 18.5q-30 0 -53.5 -20t-28.5 -50q-5 -28 10 -46.5t43 -18.5zM558 501l-89 -501h-40l16 92l-7 -1
q-33 -52 -86 -81.5t-114 -29.5q-94 0 -140 64.5t-28 165.5l51 291h41l-51 -294q-15 -83 21 -135.5t113 -52.5q78 0 142 53t77 132l53 297h41z" />
    <glyph glyph-name="Uhungarumlaut" unicode="&#x170;" horiz-adv-x="704" 
d="M331 774l102 95h54l-104 -95h-52zM490 774l102 95h55l-106 -95h-51zM307 -25q-121 0 -182 84.5t-37 220.5l74 421h42l-74 -424q-21 -119 27.5 -190.5t151.5 -71.5t179 73t97 192l74 421h43l-75 -424q-24 -136 -112 -219t-208 -83z" />
    <glyph glyph-name="uhungarumlaut" unicode="&#x171;" 
d="M250 615l124 115h54l-126 -115h-52zM461 615h-53l126 115h52zM558 501l-89 -501h-40l16 92l-7 -1q-33 -52 -86 -81.5t-114 -29.5q-94 0 -140 64.5t-28 165.5l51 291h41l-51 -294q-15 -83 21 -135.5t113 -52.5q78 0 142 53t77 132l53 297h41z" />
    <glyph glyph-name="Uogonek" unicode="&#x172;" horiz-adv-x="704" 
d="M659 701h43l-75 -424q-19 -110 -82.5 -187.5t-154.5 -103.5q-65 -32 -93 -56.5t-33 -50.5q-4 -21 7 -33t33 -12q31 0 74 26l-4 -38q-40 -22 -76 -22q-35 0 -54 23.5t-13 59.5q9 49 78 92h-2q-121 0 -182 84.5t-37 220.5l74 421h42l-74 -424q-21 -119 27.5 -190.5
t151.5 -71.5t179 73t97 192z" />
    <glyph glyph-name="uogonek" unicode="&#x173;" 
d="M517 501h41l-89 -501h-7q-81 -38 -115.5 -65.5t-39.5 -55.5q-3 -21 7.5 -33t32.5 -12q31 0 74 26l-4 -38q-40 -22 -75 -22q-36 0 -55 23.5t-12 59.5t42.5 67t114.5 67l13 75l-7 -1q-33 -52 -86 -81.5t-114 -29.5q-94 0 -140 64.5t-28 165.5l51 291h41l-51 -294
q-15 -83 21 -135.5t113 -52.5q78 0 142 53t77 132z" />
    <glyph glyph-name="Wcircumflex" unicode="&#x174;" horiz-adv-x="998" 
d="M583 868h52l85 -94h-52l-59 64h-7l-84 -64h-54zM200 0l-85 701h41l81 -662h8l301 662h65l67 -662h9l314 662h43l-333 -701h-70l-66 655h-8l-297 -655h-70z" />
    <glyph glyph-name="wcircumflex" unicode="&#x175;" horiz-adv-x="830" 
d="M355 615l119 116h51l79 -116h-47l-59 83h-6l-88 -83h-49zM158 0l-85 501h42l77 -458h6l230 458h59l69 -458h7l239 458h43l-262 -501h-61l-69 455h-7l-227 -455h-61z" />
    <glyph glyph-name="Ycircumflex" unicode="&#x176;" horiz-adv-x="576" 
d="M371 868h52l85 -94h-52l-59 64h-7l-83 -64h-55zM223 0l50 283l-170 418h46l150 -370h7l280 370h48l-318 -418l-50 -283h-43z" />
    <glyph glyph-name="ycircumflex" unicode="&#x177;" horiz-adv-x="539" 
d="M212 615l119 116h51l78 -116h-46l-59 83h-7l-88 -83h-48zM31 -221q-35 0 -62 12l5 38q28 -11 57 -11q27 0 50 12t48.5 43t41.5 55t48 77l-148 496h43l131 -441h7l259 441h44l-297 -504q-67 -114 -115 -166t-112 -52z" />
    <glyph glyph-name="Ydieresis" unicode="&#x178;" horiz-adv-x="576" 
d="M283 790q-16 0 -25 11t-6 28q2 14 13.5 23.5t25.5 9.5q16 0 25 -11t7 -28q-3 -14 -14.5 -23.5t-25.5 -9.5zM489 790q-16 0 -25 11t-6 28q2 14 13.5 23.5t25.5 9.5q17 0 26 -11.5t6 -27.5q-3 -14 -14 -23.5t-26 -9.5zM223 0l50 283l-170 418h46l150 -370h7l280 370h48
l-318 -418l-50 -283h-43z" />
    <glyph glyph-name="Zacute" unicode="&#x179;" horiz-adv-x="612" 
d="M377 774l108 94h56l-109 -94h-55zM-10 0l4 24l579 630l1 7h-457l7 40h523l-3 -24l-577 -630l-2 -7h476l-7 -40h-544z" />
    <glyph glyph-name="zacute" unicode="&#x17a;" horiz-adv-x="521" 
d="M356 615h-53l129 116h53zM-5 0l4 23l439 432l2 7h-353l6 39h424l-4 -23l-439 -432l-2 -7h373l-7 -39h-443z" />
    <glyph glyph-name="Zdotaccent" unicode="&#x17b;" horiz-adv-x="612" 
d="M409 790q-16 0 -25 11t-6 28q7 33 39 33q17 0 26 -11t6 -28q-3 -14 -14 -23.5t-26 -9.5zM-10 0l4 24l579 630l1 7h-457l7 40h523l-3 -24l-577 -630l-2 -7h476l-7 -40h-544z" />
    <glyph glyph-name="zdotaccent" unicode="&#x17c;" horiz-adv-x="521" 
d="M331 608q-17 0 -26.5 11.5t-6.5 27.5q7 33 40 33q16 0 25.5 -11t5.5 -28q-2 -14 -13 -23.5t-25 -9.5zM-5 0l4 23l439 432l2 7h-353l6 39h424l-4 -23l-439 -432l-2 -7h373l-7 -39h-443z" />
    <glyph glyph-name="Zcaron" unicode="&#x17d;" horiz-adv-x="612" 
d="M376 774l-85 94h52l60 -64h7l82 64h54l-118 -94h-52zM-10 0l4 24l579 630l1 7h-457l7 40h523l-3 -24l-577 -630l-2 -7h476l-7 -40h-544z" />
    <glyph glyph-name="zcaron" unicode="&#x17e;" horiz-adv-x="521" 
d="M225 731h46l60 -83h6l88 83h49l-120 -116h-50zM-5 0l4 23l439 432l2 7h-353l6 39h424l-4 -23l-439 -432l-2 -7h373l-7 -39h-443z" />
    <glyph glyph-name="AEacute" unicode="&#x1fc;" horiz-adv-x="884" 
d="M505 774l108 94h56l-109 -94h-55zM-22 0l489 701h438l-7 -40h-361l-51 -285h322l-7 -39h-321l-53 -297h371l-7 -40h-413l27 156h-268l-111 -156h-48zM164 195h248l82 468h-6z" />
    <glyph glyph-name="aeacute" unicode="&#x1fd;" horiz-adv-x="974" 
d="M600 615h-54l129 116h53zM327 521q76 0 123.5 -38t51.5 -99q90 137 233 137q103 0 155.5 -76.5t32.5 -195.5l-3 -13h-433q-13 -96 32.5 -156.5t128.5 -60.5q60 0 115.5 38t89.5 98l36 -14q-38 -71 -104.5 -116t-137.5 -45q-78 0 -130 43.5t-65 116.5q-34 -75 -103 -117
t-157 -42q-84 0 -131 41.5t-35 107.5q9 51 49 85.5t91 49.5t124 24l167 19l5 30q11 64 -27 104t-110 40q-74 0 -128 -37.5t-65 -95.5l-40 3q13 74 79 121.5t156 47.5zM732 482q-82 0 -148 -58.5t-89 -149.5l390 3q9 91 -33.5 148t-119.5 57zM287 251q-203 -22 -222 -128
q-7 -46 29.5 -75t101.5 -29q94 0 161.5 53.5t81.5 133.5l11 64z" />
    <glyph glyph-name="Oslashacute" unicode="&#x1fe;" horiz-adv-x="842" 
d="M465 774l108 94h55l-109 -94h-54zM96 -140l109 158q-78 46 -112.5 134t-15.5 201q28 163 148.5 268t277.5 105q89 0 157 -37l117 171h46l-131 -191q68 -49 97.5 -133t11.5 -188q-29 -162 -149 -267.5t-276 -105.5q-77 0 -137 27l-97 -142h-46zM227 55l411 598
q-61 33 -137 33q-140 0 -248.5 -95.5t-133.5 -242.5q-17 -98 12 -174.5t96 -118.5zM377 15q140 0 248 95.5t134 242.5q16 90 -8 164t-82 117l-409 -596q54 -23 117 -23z" />
    <glyph glyph-name="oslashacute" unicode="&#x1ff;" horiz-adv-x="626" 
d="M424 615h-53l129 116h53zM79 -80l64 92q-56 33 -81.5 97t-10.5 144q20 117 107 192.5t200 75.5q65 0 114 -26l72 105h45l-87 -124q47 -36 66.5 -95.5t6.5 -132.5q-20 -117 -106.5 -192.5t-200.5 -75.5q-49 0 -92 16l-52 -76h-45zM164 45l287 417q-41 22 -94 22
q-98 0 -174 -66.5t-94 -169.5q-12 -68 8 -120.5t67 -82.5zM269 17q98 0 174 67t94 169q11 60 -4 109.5t-52 80.5l-285 -414q33 -12 73 -12z" />
    <glyph glyph-name="Scommaaccent" unicode="&#x218;" horiz-adv-x="688" 
d="M303 -25q-129 0 -194.5 68t-45.5 182l42 -3q-16 -97 37.5 -152t163.5 -55q105 0 175.5 45.5t83.5 120.5q6 32 -1.5 56.5t-26.5 39t-45 24.5t-58.5 17t-65.5 12q-3 0 -5 0.5t-5 1t-5 0.5q-45 7 -74 14t-64 21.5t-54 33.5t-29 50.5t-2 73.5q15 91 92.5 146t194.5 55
q124 0 186.5 -62.5t43.5 -169.5l-41 2q15 88 -36 139t-153 51q-100 0 -166.5 -46t-79.5 -119q-6 -33 3 -57.5t24 -39t46.5 -25.5t56 -16t66.5 -11q63 -10 98 -19t78 -29.5t58.5 -57t6.5 -89.5q-17 -93 -99 -147.5t-206 -54.5zM247 -238l-21 8l50 81q-13 2 -20 12t-5 25
q2 14 13 23t25 9q16 0 25 -10.5t6 -26.5q-2 -10 -9 -23z" />
    <glyph glyph-name="scommaaccent" unicode="&#x219;" horiz-adv-x="512" 
d="M222 -20q-98 0 -149.5 50.5t-37.5 129.5l40 -2q-11 -63 30 -101.5t119 -38.5q68 0 117 29.5t58 78.5q5 31 -3 51.5t-28.5 31t-42.5 16t-55 10.5l-21 3q-32 5 -53.5 9.5t-47 15t-39.5 25t-21 39.5t-1 57q10 61 67.5 99t139.5 38q90 0 137 -46t33 -122l-39 3
q10 58 -26.5 92.5t-107.5 34.5q-65 0 -111 -28.5t-54 -73.5q-4 -24 1.5 -41.5t14.5 -27t31.5 -17.5t36 -10.5t44.5 -7.5q4 -1 6 -1q38 -6 58.5 -10t50.5 -15.5t44 -26t22.5 -41t2.5 -61.5q-12 -66 -71.5 -104t-144.5 -38zM158 -238l-20 8l50 81q-31 5 -25 37q2 14 12.5 23
t25.5 9q16 0 24.5 -10.5t5.5 -26.5q-2 -13 -8 -23z" />
    <glyph glyph-name="uni021A" unicode="&#x21a;" horiz-adv-x="573" 
d="M222 0l116 661h-246l6 40h536l-7 -40h-246l-117 -661h-42zM184 -238l-21 8l51 81q-31 5 -26 37q7 32 39 32q16 0 24.5 -10.5t5.5 -26.5q-2 -13 -9 -23z" />
    <glyph glyph-name="uni021B" unicode="&#x21b;" horiz-adv-x="347" 
d="M193 -12q-53 0 -79.5 35t-16.5 92l62 349h-88l6 37h88l31 153h37l-27 -153h138l-7 -37h-137l-62 -351q-7 -40 9 -63.5t52 -23.5q34 0 71 10l-4 -37q-31 -11 -73 -11zM123 -238l-20 8l50 81q-31 6 -25 37q2 14 12.5 23t25.5 9q16 0 24.5 -10.5t6.5 -26.5q-4 -15 -9 -23z
" />
    <glyph glyph-name="circumflex" unicode="&#x2c6;" horiz-adv-x="350" 
d="M114 615l120 116h51l77 -116h-46l-58 83h-7l-89 -83h-48z" />
    <glyph glyph-name="caron" unicode="&#x2c7;" horiz-adv-x="350" 
d="M136 731h46l59 -83h6l89 83h49l-120 -116h-51z" />
    <glyph glyph-name="breve" unicode="&#x2d8;" horiz-adv-x="346" 
d="M239 608q-54 0 -83.5 35.5t-20.5 88.5l38 -2q-7 -38 12 -62t55 -24q39 0 67.5 25t35.5 63l37 -2q-9 -54 -48.5 -88t-92.5 -34z" />
    <glyph glyph-name="dotaccent" unicode="&#x2d9;" horiz-adv-x="173" 
d="M152 608q-17 0 -26 11.5t-5 27.5q2 15 13 24t25 9q17 0 26 -11t7 -28q-3 -14 -14.5 -23.5t-25.5 -9.5z" />
    <glyph glyph-name="ring" unicode="&#x2da;" horiz-adv-x="297" 
d="M208 574q-43 0 -67 28t-16 71q8 41 39 67.5t72 26.5q44 0 67.5 -28t15.5 -71q-7 -41 -38 -67.5t-73 -26.5zM208 603q30 0 53.5 20t28.5 50q5 29 -10 47t-43 18q-30 0 -53.5 -20t-29.5 -50q-4 -28 11 -46.5t43 -18.5z" />
    <glyph glyph-name="ogonek" unicode="&#x2db;" horiz-adv-x="266" 
d="M52 -200q-35 0 -54 23.5t-12 59.5q6 37 45 69t127 71l14 -23q-81 -38 -114.5 -65t-38.5 -56q-8 -45 39 -45q31 0 74 26l-4 -38q-40 -22 -76 -22z" />
    <glyph glyph-name="tilde" unicode="&#x2dc;" horiz-adv-x="416" 
d="M339 615q-35 0 -69 29.5t-55 29.5q-41 0 -67 -37l-26 22q16 23 42 37.5t52 14.5q33 0 68 -30t56 -30t41 11.5t29 28.5l30 -20q-16 -25 -44 -40.5t-57 -15.5z" />
    <glyph glyph-name="hungarumlaut" unicode="&#x2dd;" horiz-adv-x="416" 
d="M114 615l124 115h54l-125 -115h-53zM324 615h-52l126 115h53z" />
    <glyph glyph-name="uni0401" unicode="&#x401;" horiz-adv-x="625" 
d="M326 790q-16 0 -25 11t-6 28q2 14 13.5 23.5t25.5 9.5q16 0 25 -11t7 -28q-3 -14 -14 -23.5t-26 -9.5zM532 790q-16 0 -25 11t-6 28q3 14 14 23.5t25 9.5q17 0 26 -11.5t6 -27.5q-3 -14 -14 -23.5t-26 -9.5zM48 0l123 701h473l-7 -40h-430l-49 -276h390l-6 -40h-391
l-54 -305h440l-7 -40h-482z" />
    <glyph glyph-name="uni0402" unicode="&#x402;" horiz-adv-x="689" 
d="M353 -19q-46 0 -86 10l4 38q40 -10 79 -10q84 0 140.5 49t74.5 151l6 36q19 109 -23 168t-138 59q-100 0 -171.5 -60.5t-89.5 -162.5l-46 -259h-40l116 662h-88l7 39h218l-7 -39h-89l-50 -281l7 1q33 67 97.5 103t146.5 36q110 0 161.5 -71.5t29.5 -197.5l-6 -36
q-22 -119 -88.5 -177t-164.5 -58z" />
    <glyph glyph-name="uni0403" unicode="&#x403;" horiz-adv-x="593" 
d="M368 774l108 94h56l-109 -94h-55zM47 0l123 701h431l-7 -40h-388l-117 -661h-42z" />
    <glyph glyph-name="uni0404" unicode="&#x404;" horiz-adv-x="819" 
d="M384 -25q-163 0 -250 107t-58 271q29 163 151.5 268t283.5 105q123 0 204 -74.5t83 -184.5l-40 -3q-5 95 -74.5 158.5t-173.5 63.5q-139 0 -248 -89t-140 -228l467 2l-8 -40l-466 -2q-18 -137 58 -225.5t213 -88.5q109 0 202 63t129 155l39 -10q-40 -106 -144.5 -177
t-227.5 -71z" />
    <glyph glyph-name="uni0405" unicode="&#x405;" horiz-adv-x="688" 
d="M303 -25q-129 0 -194.5 68t-45.5 182l42 -3q-16 -97 37.5 -152t163.5 -55q105 0 175.5 45.5t83.5 120.5q6 32 -1.5 56.5t-26.5 39t-45 24.5t-58.5 17t-65.5 12q-3 0 -5 0.5t-5 1t-5 0.5q-45 7 -74 14t-64 21.5t-54 33.5t-29 50.5t-2 73.5q15 91 92.5 146t194.5 55
q124 0 186.5 -62.5t43.5 -169.5l-41 2q15 88 -36 139t-153 51q-100 0 -166.5 -46t-79.5 -119q-6 -33 3 -57.5t24 -39t46.5 -25.5t56 -16t66.5 -11q63 -10 98 -19t78 -29.5t58.5 -57t6.5 -89.5q-17 -93 -99 -147.5t-206 -54.5z" />
    <glyph glyph-name="uni0406" unicode="&#x406;" horiz-adv-x="225" 
d="M47 0l124 701h42l-124 -701h-42z" />
    <glyph glyph-name="uni0407" unicode="&#x407;" horiz-adv-x="225" 
d="M108 790q-17 0 -26 11.5t-6 27.5q3 14 14 23.5t25 9.5q17 0 26 -11.5t6 -27.5q-3 -14 -14 -23.5t-25 -9.5zM314 790q-16 0 -25 11t-7 28q3 14 14 23.5t26 9.5q16 0 25 -11.5t6 -27.5q-2 -14 -13.5 -23.5t-25.5 -9.5zM49 0l124 701h42l-124 -701h-42z" />
    <glyph glyph-name="uni0408" unicode="&#x408;" horiz-adv-x="441" 
d="M107 -20q-53 0 -117 20l4 40q65 -20 113 -20q72 0 124.5 49.5t68.5 142.5l86 489h43l-87 -492q-19 -109 -83 -169t-152 -60z" />
    <glyph glyph-name="uni0409" unicode="&#x409;" horiz-adv-x="1089" 
d="M-21 0l4 40q73 0 119.5 48t76.5 154l133 459h396l-50 -282h173q104 0 161 -60t41 -152q-17 -91 -93.5 -149t-179.5 -58h-218l116 661h-313l-131 -446q-33 -110 -90.5 -162.5t-144.5 -52.5zM592 40h170q86 0 151.5 49t78.5 123q13 72 -34 119.5t-134 47.5h-172z" />
    <glyph glyph-name="uni040A" unicode="&#x40a;" horiz-adv-x="980" 
d="M47 0l123 701h42l-55 -315h361l55 315h42l-55 -315h173q99 0 151.5 -54t36.5 -141q-15 -86 -84.5 -138.5t-169.5 -52.5h-217l61 346h-361l-61 -346h-42zM500 40h169q82 0 140.5 42.5t70.5 112.5q12 68 -30 109.5t-124 41.5h-172z" />
    <glyph glyph-name="uni040B" unicode="&#x40b;" horiz-adv-x="689" 
d="M63 0l116 662h-88l7 39h218l-7 -39h-89l-50 -281l7 1q33 67 97.5 103t146.5 36q110 0 161.5 -71.5t29.5 -197.5l-45 -251h-40l44 254q19 109 -23 168t-138 59q-100 0 -171.5 -60.5t-89.5 -162.5l-46 -259h-40z" />
    <glyph glyph-name="uni040C" unicode="&#x40c;" horiz-adv-x="592" 
d="M378 774l108 94h56l-109 -94h-55zM47 0l123 701h43l-55 -314h6l409 314h62l-434 -332l317 -369h-58l-302 352h-7l-62 -352h-42z" />
    <glyph glyph-name="uni040E" unicode="&#x40e;" horiz-adv-x="590" 
d="M407 764q-52 0 -81 30t-21 76l40 -3q-5 -30 12.5 -48t50.5 -18q35 0 61.5 19t31.5 50l39 -3q-7 -45 -44.5 -74t-88.5 -29zM47 -20q-40 0 -64 11l4 40q28 -11 61 -11q19 0 35 1.5t31.5 9.5t25.5 12t26 21t23 24t26 34t26 37.5t32 47.5l26 35l-187 459h46l166 -409h7
l270 409h47l-326 -496q-31 -48 -48 -72t-41 -55t-41 -45t-40.5 -28.5t-48.5 -19.5t-56 -5z" />
    <glyph glyph-name="uni040F" unicode="&#x40f;" horiz-adv-x="703" 
d="M260 -149l26 149h-239l123 701h42l-116 -661h436l116 661h43l-124 -701h-239l-26 -149h-42z" />
    <glyph glyph-name="uni0410" unicode="&#x410;" horiz-adv-x="652" 
d="M-21 0l396 701h62l149 -701h-43l-39 183h-377l-105 -183h-43zM148 223h349l-94 438h-7z" />
    <glyph glyph-name="uni0411" unicode="&#x411;" horiz-adv-x="647" 
d="M47 0l123 701h456l-6 -40h-414l-46 -262h222q115 0 169.5 -56.5t38.5 -145.5q-15 -87 -91.5 -142t-193.5 -55h-258zM96 40h210q102 0 166 46t76 116q13 69 -31 113t-143 44h-222z" />
    <glyph glyph-name="uni0412" unicode="&#x412;" horiz-adv-x="676" 
d="M47 0l123 701h292q89 0 138.5 -51t36.5 -130q-10 -55 -51 -95.5t-100 -55.5l-4 -7q63 -15 95.5 -62t20.5 -111q-14 -82 -88.5 -135.5t-175.5 -53.5h-287zM157 385h248q71 0 125.5 39.5t65.5 100.5q10 59 -29 97.5t-111 38.5h-250zM96 40h239q84 0 147 44t75 111
q12 65 -34.5 107t-130.5 42h-242z" />
    <glyph glyph-name="uni0413" unicode="&#x413;" horiz-adv-x="552" 
d="M47 0l123 701h431l-7 -40h-388l-117 -661h-42z" />
    <glyph glyph-name="uni0414" unicode="&#x414;" horiz-adv-x="800" 
d="M-59 -150l34 190l68 1q108 71 162 238l132 422h411l-116 -661h109l-34 -190h-41l27 150h-685l-26 -150h-41zM103 40h486l110 621h-330l-124 -391q-49 -155 -140 -224z" />
    <glyph glyph-name="uni0415" unicode="&#x415;" horiz-adv-x="625" 
d="M48 0l123 701h473l-7 -40h-430l-49 -276h390l-6 -40h-391l-54 -305h440l-7 -40h-482z" />
    <glyph glyph-name="uni0416" unicode="&#x416;" horiz-adv-x="877" 
d="M-22 0l415 369l-283 332h57l267 -314h7l55 314h43l-55 -314h6l377 314h60l-402 -332l285 -369h-56l-269 351h-7l-63 -351h-42l62 351h-6l-394 -351h-57z" />
    <glyph glyph-name="uni0417" unicode="&#x417;" horiz-adv-x="645" 
d="M286 -25q-117 0 -179.5 74.5t-42.5 187.5l41 -3q-16 -96 35 -157.5t147 -61.5q91 0 159 49.5t81 125.5q13 73 -30.5 116t-126.5 43h-111l7 40h110q72 0 123.5 41t63.5 109q12 64 -33.5 105.5t-127.5 41.5q-88 0 -155 -53.5t-81 -135.5l-42 3q18 99 96 162.5t183 63.5
q102 0 159.5 -54t42.5 -137q-23 -130 -151 -162l-4 -6q66 -15 98.5 -63t19.5 -121q-16 -90 -95.5 -149t-186.5 -59z" />
    <glyph glyph-name="uni0418" unicode="&#x418;" horiz-adv-x="703" 
d="M568 0h-43l114 645h-6l-523 -645h-63l123 701h42l-113 -646h6l523 646h63z" />
    <glyph glyph-name="uni0419" unicode="&#x419;" horiz-adv-x="703" 
d="M455 764q-53 0 -81.5 30t-20.5 76l39 -3q-5 -30 12.5 -48t50.5 -18q36 0 62 19t31 50l40 -3q-8 -46 -45.5 -74.5t-87.5 -28.5zM170 701h43l-114 -645h7l522 645h63l-123 -701h-42l113 646h-6l-523 -646h-63z" />
    <glyph glyph-name="uni041A" unicode="&#x41a;" horiz-adv-x="592" 
d="M47 0l123 701h43l-55 -314h6l409 314h62l-434 -332l317 -369h-58l-302 352h-7l-62 -352h-42z" />
    <glyph glyph-name="uni041B" unicode="&#x41b;" horiz-adv-x="719" 
d="M-21 0l4 40q73 0 119.5 48t76.5 154l133 459h396l-124 -701h-42l116 661h-313l-131 -446q-33 -110 -90.5 -162.5t-144.5 -52.5z" />
    <glyph glyph-name="uni041C" unicode="&#x41c;" horiz-adv-x="903" 
d="M47 0l123 701h69l174 -645h7l401 645h70l-124 -701h-42l114 647h-6l-403 -647h-46l-174 645h-7l-114 -645h-42z" />
    <glyph glyph-name="uni041D" unicode="&#x41d;" horiz-adv-x="703" 
d="M47 0l123 701h42l-55 -315h436l55 315h43l-124 -701h-42l61 345h-436l-61 -345h-42z" />
    <glyph glyph-name="uni041E" unicode="&#x41e;" horiz-adv-x="861" 
d="M385 -25q-163 0 -250.5 107t-58.5 271q29 163 151.5 268t284.5 105q163 0 250 -106.5t58 -271.5q-29 -163 -151.5 -268t-283.5 -105zM386 15q145 0 256 95.5t136 242.5q26 145 -50 239t-218 94q-144 0 -255.5 -95.5t-136.5 -242.5q-26 -145 49.5 -239t218.5 -94z" />
    <glyph glyph-name="uni041F" unicode="&#x41f;" horiz-adv-x="702" 
d="M47 0l123 701h520l-123 -701h-42l116 662h-435l-117 -662h-42z" />
    <glyph glyph-name="uni0420" unicode="&#x420;" horiz-adv-x="639" 
d="M47 0l124 701h255q116 0 169.5 -58.5t36.5 -155.5q-17 -95 -90 -151.5t-188 -56.5h-216l-49 -279h-42zM145 319h213q98 0 158.5 48t74.5 126q13 76 -29.5 122t-139.5 46h-216z" />
    <glyph glyph-name="uni0421" unicode="&#x421;" horiz-adv-x="816" 
d="M379 -25q-161 0 -246 107t-56 271q29 163 149 268t280 105q121 0 203 -74t87 -183l-42 -3q-5 94 -75.5 157t-174.5 63q-143 0 -251 -95t-134 -243q-26 -145 47 -239t214 -94q107 0 202 62.5t131 153.5l39 -12q-41 -104 -147 -174t-226 -70z" />
    <glyph glyph-name="uni0422" unicode="&#x422;" horiz-adv-x="573" 
d="M222 0l116 661h-246l6 40h536l-7 -40h-246l-117 -661h-42z" />
    <glyph glyph-name="uni0423" unicode="&#x423;" horiz-adv-x="590" 
d="M47 -20q-40 0 -64 11l4 40q28 -11 61 -11q19 0 35 1.5t31.5 9.5t25.5 12t26 21t23 24t26 34t26 37.5t32 47.5l26 35l-187 459h46l166 -409h7l270 409h47l-326 -496q-31 -48 -48 -72t-41 -55t-41 -45t-40.5 -28.5t-48.5 -19.5t-56 -5z" />
    <glyph glyph-name="uni0424" unicode="&#x424;" horiz-adv-x="782" 
d="M320 -30l15 84q-140 5 -215 93t-53 211t126.5 209t247.5 90l14 74h42l-14 -74q142 -1 217.5 -88.5t51.5 -216.5q-22 -126 -127 -212t-247 -86l-16 -84h-42zM341 94l95 523q-125 -4 -216.5 -80t-111.5 -184q-18 -105 46.5 -180t186.5 -79zM384 94q122 0 214.5 76.5
t112.5 187.5q20 109 -45.5 184t-187.5 75z" />
    <glyph glyph-name="uni0425" unicode="&#x425;" horiz-adv-x="614" 
d="M-12 0l312 371l-178 330h49l159 -298h7l265 298h52l-298 -330l182 -371h-50l-162 336h-7l-281 -336h-50z" />
    <glyph glyph-name="uni0426" unicode="&#x426;" horiz-adv-x="727" 
d="M593 -149l26 149h-572l123 701h42l-116 -661h436l117 661h42l-117 -661h94l-33 -189h-42z" />
    <glyph glyph-name="uni0427" unicode="&#x427;" horiz-adv-x="651" 
d="M473 0l59 330q-39 -47 -102 -75.5t-125 -28.5q-110 0 -168.5 62.5t-36.5 183.5l40 229h42l-40 -230q-19 -105 28.5 -155.5t139.5 -50.5q66 0 133 38t100 93l53 305h43l-124 -701h-42z" />
    <glyph glyph-name="uni0428" unicode="&#x428;" horiz-adv-x="926" 
d="M47 0l123 701h42l-116 -661h309l116 661h43l-117 -661h309l116 661h43l-124 -701h-744z" />
    <glyph glyph-name="uni0429" unicode="&#x429;" horiz-adv-x="961" 
d="M826 -149l26 149h-805l123 701h42l-116 -661h309l116 661h43l-117 -661h309l116 661h43l-117 -661h104l-33 -189h-43z" />
    <glyph glyph-name="uni042A" unicode="&#x42a;" horiz-adv-x="710" 
d="M116 0l117 661h-139l7 40h181l-48 -273h216q108 0 165 -60.5t40 -156.5q-17 -94 -93.5 -152.5t-184.5 -58.5h-261zM166 40h212q91 0 156 49t79 127q14 77 -32.5 124t-137.5 47h-215z" />
    <glyph glyph-name="uni042B" unicode="&#x42b;" horiz-adv-x="881" 
d="M47 0l123 701h42l-47 -273h215q105 0 163 -62t42 -155q-17 -91 -95 -151t-183 -60h-260zM704 0l123 701h43l-124 -701h-42zM96 40h212q88 0 155 50t80 126q13 74 -35 122.5t-135 48.5h-215z" />
    <glyph glyph-name="uni042C" unicode="&#x42c;" horiz-adv-x="640" 
d="M47 0l123 701h42l-47 -273h215q105 0 163 -62t42 -155q-17 -91 -95 -151t-183 -60h-260zM96 40h212q88 0 155 50t80 126q13 74 -35 122.5t-135 48.5h-215z" />
    <glyph glyph-name="uni042D" unicode="&#x42d;" horiz-adv-x="819" 
d="M348 -25q-125 0 -208.5 72.5t-85.5 177.5l41 6q3 -92 74.5 -154t179.5 -62q138 0 245 89t138 228l-468 -1l7 40l468 1q19 140 -55 227t-211 87q-107 0 -203 -65t-133 -160l-40 9q41 109 148 182.5t230 73.5q162 0 247 -106.5t56 -271.5q-29 -163 -149.5 -268t-280.5 -105
z" />
    <glyph glyph-name="uni042E" unicode="&#x42e;" horiz-adv-x="994" 
d="M557 -25q-142 0 -218 100t-55 258l-137 -2l-58 -331h-42l123 701h42l-58 -329l138 1q34 156 143.5 254.5t248.5 98.5q149 0 223.5 -106t44.5 -272q-28 -164 -139 -268.5t-256 -104.5zM559 15q129 0 227.5 95t124.5 243q26 147 -37 240t-192 93t-228 -94.5t-125 -243.5
q-26 -147 38.5 -240t191.5 -93z" />
    <glyph glyph-name="uni042F" unicode="&#x42f;" horiz-adv-x="687" 
d="M551 0h-43l54 303h-175l-316 -303h-55l318 304h-28q-107 1 -163 56t-40 145q16 91 90 143.5t186 52.5h295zM569 343l56 318h-250q-95 0 -156 -43t-74 -119q-13 -72 33 -114t138 -42h253z" />
    <glyph glyph-name="uni0430" unicode="&#x430;" horiz-adv-x="663" 
d="M265 -20q-114 0 -174.5 77t-40.5 196q21 117 107 192.5t199 75.5q75 0 125.5 -37t68.5 -100l8 1l20 116h41l-88 -501h-41l20 118l-5 -1q-41 -64 -103.5 -100.5t-136.5 -36.5zM269 19q95 0 171.5 66.5t93.5 167.5q18 98 -33.5 163.5t-144.5 65.5q-98 0 -173 -66.5
t-92 -167.5q-18 -100 32.5 -164.5t145.5 -64.5z" />
    <glyph glyph-name="uni0431" unicode="&#x431;" horiz-adv-x="611" 
d="M274 -21q-107 0 -163 71.5t-37 181.5q34 191 77 291.5t109.5 142t179.5 41.5q72 0 103.5 10t35.5 34l39 -2q-7 -43 -46.5 -62.5t-131.5 -19.5q-65 0 -108.5 -12t-80.5 -45.5t-62.5 -92.5t-47.5 -154l7 2q79 114 212 114q106 0 161.5 -71t35.5 -182q-19 -108 -99 -177.5
t-184 -69.5zM276 18q89 0 156.5 60t84.5 154q16 91 -29 149.5t-132 58.5q-88 0 -157 -59t-85 -154q-16 -92 29.5 -150.5t132.5 -58.5z" />
    <glyph glyph-name="uni0432" unicode="&#x432;" horiz-adv-x="536" 
d="M43 0l88 501h239q64 0 99 -37t25 -95q-15 -88 -105 -109l-4 -7q46 -8 68.5 -39.5t13.5 -79.5q-11 -60 -62 -97t-125 -37h-237zM133 276h195q48 0 83 26.5t44 69.5q7 41 -18 66t-72 25h-199zM90 38h191q58 0 98 28t48 75q8 45 -20.5 71t-87.5 26h-194z" />
    <glyph glyph-name="uni0433" unicode="&#x433;" horiz-adv-x="438" 
d="M43 0l88 501h321l-6 -39h-280l-82 -462h-41z" />
    <glyph glyph-name="uni0434" unicode="&#x434;" horiz-adv-x="630" 
d="M-51 -150l33 189l61 1q43 26 68.5 69t52.5 128l84 264h302l-82 -462h85l-34 -189h-39l27 150h-492l-27 -150h-39zM99 39h328l75 423h-226l-77 -245q-23 -72 -42.5 -108.5t-55.5 -63.5z" />
    <glyph glyph-name="uni0435" unicode="&#x435;" horiz-adv-x="632" 
d="M276 -20q-118 0 -181.5 77.5t-43.5 197.5q21 116 109.5 191t205.5 75q115 0 175.5 -76.5t40.5 -195.5l-3 -13h-489q-13 -96 40 -156.5t149 -60.5q69 0 134.5 38t98.5 98l36 -14q-37 -71 -113 -116t-159 -45zM97 274l447 3q10 91 -41 148t-140 57q-94 0 -168.5 -58
t-97.5 -150z" />
    <glyph glyph-name="uni0436" unicode="&#x436;" horiz-adv-x="679" 
d="M-20 0l296 260l-199 241h55l185 -225h6l40 225h41l-40 -225h7l264 225h55l-283 -241l203 -260h-54l-190 245h-8l-42 -245h-41l43 245h-6l-277 -245h-55z" />
    <glyph glyph-name="uni0437" unicode="&#x437;" horiz-adv-x="479" 
d="M195 -20q-86 0 -130.5 50t-30.5 129l40 -3q-11 -63 22.5 -100t100.5 -37q68 0 116 32.5t57 85.5q8 47 -20.5 76t-80.5 29h-103l7 39h100q47 0 83.5 30.5t43.5 73.5q8 44 -24.5 70.5t-94.5 26.5q-66 0 -111 -35.5t-56 -93.5l-39 3q10 73 68.5 119t139.5 46t124.5 -38.5
t32.5 -102.5q-7 -42 -35 -71t-70 -42l-4 -7q44 -11 65.5 -46t12.5 -85q-12 -68 -71 -108.5t-143 -40.5z" />
    <glyph glyph-name="uni0438" unicode="&#x438;" horiz-adv-x="603" 
d="M43 0l88 501h41l-77 -439h6l410 439h49l-88 -501h-41l78 439h-7l-409 -439h-50z" />
    <glyph glyph-name="uni0439" unicode="&#x439;" horiz-adv-x="603" 
d="M360 608q-55 0 -84.5 35.5t-19.5 88.5l37 -2q-7 -38 12 -62t56 -24q38 0 67 25t36 63l37 -2q-10 -54 -49.5 -88t-91.5 -34zM43 0l88 501h41l-77 -439h6l410 439h49l-88 -501h-41l78 439h-7l-409 -439h-50z" />
    <glyph glyph-name="uni043A" unicode="&#x43a;" horiz-adv-x="463" 
d="M43 0l89 501h40l-39 -223h6l292 223h60l-317 -240l237 -261h-59l-218 242h-7l-43 -242h-41z" />
    <glyph glyph-name="uni043B" unicode="&#x43b;" horiz-adv-x="537" 
d="M-33 0l4 38q50 0 79 38.5t53 117.5l91 307h300l-88 -501h-41l82 462h-220l-90 -291q-27 -85 -67.5 -128t-102.5 -43z" />
    <glyph glyph-name="uni043C" unicode="&#x43c;" horiz-adv-x="744" 
d="M43 0l88 501h64l137 -452h7l298 452h64l-88 -501h-41l79 444h-7l-294 -444h-45l-136 444h-7l-78 -444h-41z" />
    <glyph glyph-name="uni043D" unicode="&#x43d;" horiz-adv-x="611" 
d="M43 0l88 501h41l-40 -229h355l40 229h41l-89 -501h-40l41 233h-355l-41 -233h-41z" />
    <glyph glyph-name="uni043E" unicode="&#x43e;" horiz-adv-x="624" 
d="M267 -20q-115 0 -176 77t-41 196q21 117 107.5 192.5t200.5 75.5q115 0 176 -77t40 -196q-21 -117 -107.5 -192.5t-199.5 -75.5zM269 19q97 0 172.5 66.5t92.5 167.5q18 100 -33 164.5t-146 64.5q-97 0 -172 -66.5t-92 -167.5q-18 -100 32.5 -164.5t145.5 -64.5z" />
    <glyph glyph-name="uni043F" unicode="&#x43f;" horiz-adv-x="622" 
d="M43 0l88 501h448l-88 -501h-41l82 462h-366l-82 -462h-41z" />
    <glyph glyph-name="uni0440" unicode="&#x440;" horiz-adv-x="662" 
d="M397 521q113 0 174 -77.5t41 -195.5q-21 -117 -107.5 -192.5t-198.5 -75.5q-76 0 -126 37t-67 101l-8 -2l-61 -346h-41l129 731h41l-20 -117l5 1q39 64 102 100t137 36zM393 482q-97 0 -172.5 -66.5t-92.5 -167.5q-18 -99 32.5 -164t145.5 -65q97 0 172.5 66.5
t92.5 167.5q18 100 -32.5 164.5t-145.5 64.5z" />
    <glyph glyph-name="uni0441" unicode="&#x441;" horiz-adv-x="597" 
d="M266 -20q-114 0 -174.5 77t-40.5 196q21 117 107 192.5t199 75.5q86 0 144 -50.5t61 -128.5l-40 -3q-5 63 -52.5 103t-114.5 40q-97 0 -171.5 -66t-91.5 -168q-19 -100 31 -164.5t145 -64.5q70 0 132.5 39t88.5 98l39 -9q-31 -73 -104.5 -120t-157.5 -47z" />
    <glyph glyph-name="uni0442" unicode="&#x442;" horiz-adv-x="490" 
d="M181 0l81 462h-196l7 39h433l-6 -39h-197l-82 -462h-40z" />
    <glyph glyph-name="uni0443" unicode="&#x443;" horiz-adv-x="539" 
d="M31 -221q-35 0 -62 12l5 38q28 -11 57 -11q27 0 50 12t48.5 43t41.5 55t48 77l-148 496h43l131 -441h7l259 441h44l-297 -504q-67 -114 -115 -166t-112 -52z" />
    <glyph glyph-name="uni0444" unicode="&#x444;" horiz-adv-x="678" 
d="M234 -231l39 212q-113 5 -178 82t-45 191q20 111 110.5 186t204.5 80l39 212h41l-40 -212q112 -5 177.5 -82t45.5 -190q-20 -111 -110.5 -186.5t-203.5 -80.5l-39 -212h-41zM277 19l84 462q-96 -5 -175 -71t-95 -162q-17 -94 37.5 -159t148.5 -70zM318 19q95 5 174 72
t96 163q17 93 -38 157.5t-149 69.5z" />
    <glyph glyph-name="uni0445" unicode="&#x445;" horiz-adv-x="513" 
d="M-10 0l241 261l-142 240h48l123 -208h6l197 208h49l-227 -240l148 -261h-48l-130 228h-6l-210 -228h-49z" />
    <glyph glyph-name="uni0446" unicode="&#x446;" horiz-adv-x="625" 
d="M477 -150l27 150h-461l88 501h41l-82 -462h353l82 462h41l-82 -462h65l-33 -189h-39z" />
    <glyph glyph-name="uni0447" unicode="&#x447;" horiz-adv-x="554" 
d="M383 0l43 241q-34 -39 -84.5 -60.5t-100.5 -21.5q-88 0 -135 51.5t-30 149.5l25 141h40l-25 -144q-13 -77 20 -118t110 -41q60 0 110.5 28t78.5 76l35 198h41l-88 -500h-40z" />
    <glyph glyph-name="uni0448" unicode="&#x448;" horiz-adv-x="833" 
d="M43 0l88 501h41l-82 -462h269l81 462h41l-82 -462h269l81 462h41l-88 -501h-659z" />
    <glyph glyph-name="uni0449" unicode="&#x449;" horiz-adv-x="849" 
d="M701 -150l27 150h-685l88 501h41l-82 -462h269l81 462h41l-82 -462h269l81 462h41l-82 -462h66l-34 -189h-39z" />
    <glyph glyph-name="uni044A" unicode="&#x44a;" horiz-adv-x="554" 
d="M87 0l81 462h-128l6 39h170l-30 -167h146q94 0 141 -46t34 -124q-14 -78 -74.5 -121t-156.5 -43h-189zM134 39h146q79 0 127.5 34t59.5 97q11 59 -26 92t-113 33h-148z" />
    <glyph glyph-name="uni044B" unicode="&#x44b;" horiz-adv-x="660" 
d="M43 0l88 501h41l-29 -167h107q94 0 141.5 -46t34.5 -124q-14 -78 -75 -121t-158 -43h-150zM488 0l88 501h41l-89 -501h-40zM90 39h108q79 0 128 34t59 97q11 59 -26 92t-113 33h-110z" />
    <glyph glyph-name="uni044C" unicode="&#x44c;" horiz-adv-x="510" 
d="M43 0l88 501h41l-29 -167h145q94 0 142 -46t34 -124t-74.5 -121t-157.5 -43h-189zM90 39h146q79 0 128 34t60 97q11 59 -26.5 92t-113.5 33h-148z" />
    <glyph glyph-name="uni044D" unicode="&#x44d;" horiz-adv-x="596" 
d="M240 -20q-85 0 -143 48t-63 122l39 4q6 -59 53.5 -97t115.5 -38q92 0 163.5 59.5t94.5 153.5l-301 -1l7 38l302 1q11 94 -39 153t-141 59q-69 0 -131.5 -41.5t-90.5 -104.5l-39 9q30 77 104.5 126.5t159.5 49.5q114 0 174.5 -77t40.5 -196q-21 -117 -107 -192.5
t-199 -75.5z" />
    <glyph glyph-name="uni044E" unicode="&#x44e;" horiz-adv-x="762" 
d="M424 -24q-106 0 -161 70.5t-39 185.5l-100 -1l-41 -237h-41l89 507h41l-40 -231l98 1q28 113 105 180.5t179 67.5q109 0 164 -76t33 -198q-21 -120 -100.5 -194.5t-186.5 -74.5zM425 15q93 0 160 64.5t86 170.5q18 105 -25 167.5t-134 62.5q-93 0 -160 -64.5t-86 -170.5
q-19 -104 24.5 -167t134.5 -63z" />
    <glyph glyph-name="uni044F" unicode="&#x44f;" horiz-adv-x="518" 
d="M8 0l207 201q-79 1 -118.5 44t-27.5 111q11 67 67 106t139 39h200l-88 -501h-41l35 200h-119l-202 -200h-52zM228 239h160l40 223h-158q-65 0 -108.5 -30t-53.5 -82q-9 -51 23 -81t97 -30z" />
    <glyph glyph-name="uni0451" unicode="&#x451;" horiz-adv-x="632" 
d="M282 608q-16 0 -25 10.5t-7 27.5q7 32 38 32q17 0 26 -11t5 -27q-2 -14 -12.5 -23t-24.5 -9zM490 608q-16 0 -25 10.5t-7 27.5q7 32 38 32q17 0 26 -11t5 -27q-2 -14 -12.5 -23t-24.5 -9zM276 -20q-118 0 -181.5 77.5t-43.5 197.5q21 116 109.5 191t205.5 75
q115 0 175.5 -76.5t40.5 -195.5l-3 -13h-489q-13 -96 40 -156.5t149 -60.5q69 0 134.5 38t98.5 98l36 -14q-37 -71 -113 -116t-159 -45zM97 274l447 3q10 91 -41 148t-140 57q-94 0 -168.5 -58t-97.5 -150z" />
    <glyph glyph-name="uni0452" unicode="&#x452;" horiz-adv-x="601" 
d="M252 -99q-41 0 -87 11l4 38q40 -10 79 -10q83 0 140 46.5t72 136.5l30 171q15 84 -21 136t-113 52q-78 0 -142 -52.5t-77 -131.5l-53 -298h-41l110 622h-90l6 39h90l13 70h41l-13 -70h138l-6 -39h-138l-39 -217l7 2q33 53 86 83.5t115 30.5q94 0 140 -64.5t28 -165.5
l-30 -171q-19 -107 -85.5 -163t-163.5 -56z" />
    <glyph glyph-name="uni0453" unicode="&#x453;" horiz-adv-x="434" 
d="M271 615l128 116h54l-130 -116h-52zM43 0l88 501h321l-6 -39h-280l-82 -462h-41z" />
    <glyph glyph-name="uni0454" unicode="&#x454;" horiz-adv-x="596" 
d="M265 -20q-114 0 -174.5 77t-40.5 196q21 117 107 192.5t199 75.5q86 0 144 -50.5t61 -128.5l-40 -3q-5 63 -52 103t-115 40q-93 0 -165 -60t-95 -154l302 1l-7 -38l-301 -2q-11 -93 39 -151.5t140 -58.5q70 0 132.5 39t88.5 98l39 -9q-31 -73 -104.5 -120t-157.5 -47z
" />
    <glyph glyph-name="uni0455" unicode="&#x455;" horiz-adv-x="512" 
d="M222 -20q-98 0 -149.5 50.5t-37.5 129.5l40 -2q-11 -63 30 -101.5t119 -38.5q68 0 117 29.5t58 78.5q5 31 -3 51.5t-28.5 31t-42.5 16t-55 10.5l-21 3q-32 5 -53.5 9.5t-47 15t-39.5 25t-21 39.5t-1 57q10 61 67.5 99t139.5 38q90 0 137 -46t33 -122l-39 3
q10 58 -26.5 92.5t-107.5 34.5q-65 0 -111 -28.5t-54 -73.5q-4 -24 1.5 -41.5t14.5 -27t31.5 -17.5t36 -10.5t44.5 -7.5q4 -1 6 -1q38 -6 58.5 -10t50.5 -15.5t44 -26t22.5 -41t2.5 -61.5q-12 -66 -71.5 -104t-144.5 -38z" />
    <glyph glyph-name="uni0456" unicode="&#x456;" horiz-adv-x="231" 
d="M181 608q-17 0 -26 11t-5 28q2 15 13 24t25 9q17 0 26 -11t7 -28q-7 -33 -40 -33zM51 0l89 501h41l-89 -501h-41z" />
    <glyph glyph-name="uni0457" unicode="&#x457;" horiz-adv-x="201" 
d="M55 608q-17 0 -25.5 11t-4.5 27q2 14 12.5 23t24.5 9q17 0 25.5 -10.5t6.5 -27.5q-7 -32 -39 -32zM263 608q-17 0 -25.5 11t-4.5 27q2 14 12.5 23t24.5 9q17 0 25.5 -10.5t6.5 -27.5q-7 -32 -39 -32zM36 0l88 501h41l-88 -501h-41z" />
    <glyph glyph-name="uni0458" unicode="&#x458;" horiz-adv-x="226" 
d="M177 608q-17 0 -26 11t-6 28q7 33 38 33q17 0 26.5 -11t6.5 -28q-3 -14 -14 -23.5t-25 -9.5zM-59 -221q-35 0 -71 13l4 39q35 -13 63 -13q34 0 60 23t32 58l106 602h41l-107 -604q-9 -52 -45 -85t-83 -33z" />
    <glyph glyph-name="uni0459" unicode="&#x459;" horiz-adv-x="740" 
d="M-33 0l4 38q50 0 79 38.5t53 117.5l91 307h271l-39 -226h110q76 0 115 -39t28 -101t-62 -98.5t-127 -36.5h-154l82 463h-191l-90 -292q-27 -85 -67.5 -128t-102.5 -43zM384 39h111q58 0 97.5 27.5t47.5 73.5q8 44 -21.5 70t-86.5 26h-114z" />
    <glyph glyph-name="uni045A" unicode="&#x45a;" horiz-adv-x="738" 
d="M43 0l88 501h41l-39 -226h250l40 226h40l-39 -226h110q76 0 115 -39t28 -101t-62 -98.5t-127 -36.5h-154l42 236h-251l-41 -236h-41zM382 39h110q58 0 98 27.5t48 73.5q8 44 -21.5 70t-86.5 26h-114z" />
    <glyph glyph-name="uni045B" unicode="&#x45b;" horiz-adv-x="601" 
d="M43 0l110 622h-90l6 39h90l13 70h41l-13 -70h138l-6 -39h-138l-39 -217l7 2q33 53 86 83.5t115 30.5q94 0 140 -64.5t28 -165.5l-52 -291h-40l51 294q15 84 -21 136t-113 52q-78 0 -142 -52.5t-77 -131.5l-53 -298h-41z" />
    <glyph glyph-name="uni045C" unicode="&#x45c;" horiz-adv-x="464" 
d="M291 615l128 116h54l-130 -116h-52zM43 0l88 501h41l-39 -223h6l292 223h60l-317 -240l236 -261h-58l-218 242h-7l-43 -242h-41z" />
    <glyph glyph-name="uni045E" unicode="&#x45e;" horiz-adv-x="539" 
d="M337 608q-55 0 -84 35.5t-19 88.5l37 -2q-7 -38 12 -62t55 -24q38 0 67 25t36 63l37 -2q-9 -54 -48.5 -88t-92.5 -34zM31 -221q-35 0 -62 12l5 38q28 -11 57 -11q27 0 50 12t48.5 43t41.5 55t48 77l-148 496h43l131 -441h7l259 441h44l-297 -504q-67 -114 -115 -166
t-112 -52z" />
    <glyph glyph-name="uni045F" unicode="&#x45f;" horiz-adv-x="604" 
d="M210 -150l27 150h-194l88 501h41l-82 -462h348l82 462h41l-89 -501h-194l-27 -150h-41z" />
    <glyph glyph-name="uni0490" unicode="&#x490;" horiz-adv-x="598" 
d="M47 0l123 701h437l20 105h39l-25 -144h-435l-117 -662h-42z" />
    <glyph glyph-name="uni0491" unicode="&#x491;" horiz-adv-x="434" 
d="M43 0l88 501h282l15 87h39l-21 -126h-280l-82 -462h-41z" />
    <glyph glyph-name="Wgrave" unicode="&#x1e80;" horiz-adv-x="998" 
d="M617 774h-53l-75 94h53zM200 0l-85 701h41l81 -662h8l301 662h65l67 -662h9l314 662h43l-333 -701h-70l-66 655h-8l-297 -655h-70z" />
    <glyph glyph-name="wgrave" unicode="&#x1e81;" horiz-adv-x="830" 
d="M454 615l-88 116h50l89 -116h-51zM158 0l-85 501h42l77 -458h6l230 458h59l69 -458h7l239 458h43l-262 -501h-61l-69 455h-7l-227 -455h-61z" />
    <glyph glyph-name="Wacute" unicode="&#x1e82;" horiz-adv-x="998" 
d="M567 774l109 94h55l-109 -94h-55zM200 0l-85 701h41l81 -662h8l301 662h65l67 -662h9l314 662h43l-333 -701h-70l-66 655h-8l-297 -655h-70z" />
    <glyph glyph-name="wacute" unicode="&#x1e83;" horiz-adv-x="830" 
d="M507 615h-53l129 116h53zM158 0l-85 501h42l77 -458h6l230 458h59l69 -458h7l239 458h43l-262 -501h-61l-69 455h-7l-227 -455h-61z" />
    <glyph glyph-name="Wdieresis" unicode="&#x1e84;" horiz-adv-x="998" 
d="M495 790q-16 0 -25 11t-7 28q3 14 14 23.5t26 9.5q16 0 25 -11t6 -28q-2 -14 -13.5 -23.5t-25.5 -9.5zM701 790q-16 0 -25 11t-6 28q2 14 13.5 23.5t25.5 9.5q16 0 25 -11t7 -28q-3 -14 -14.5 -23.5t-25.5 -9.5zM200 0l-85 701h41l81 -662h8l301 662h65l67 -662h9
l314 662h43l-333 -701h-70l-66 655h-8l-297 -655h-70z" />
    <glyph glyph-name="wdieresis" unicode="&#x1e85;" horiz-adv-x="830" 
d="M377 608q-16 0 -25 10.5t-7 27.5q7 32 38 32q17 0 26 -11t5 -27q-2 -14 -12.5 -23t-24.5 -9zM585 608q-16 0 -25 10.5t-7 27.5q7 32 38 32q17 0 26 -11t5 -27q-2 -14 -12.5 -23t-24.5 -9zM158 0l-85 501h42l77 -458h6l230 458h59l69 -458h7l239 458h43l-262 -501h-61
l-69 455h-7l-227 -455h-61z" />
    <glyph glyph-name="uni1E9E" unicode="&#x1e9e;" horiz-adv-x="638" 
d="M320 -25q-75 0 -133 36l5 44q50 -40 127 -40q76 0 130.5 45t68.5 119q13 80 -44 128t-164 48h-36l8 40h35q78 0 135 38t67 100q11 61 -26.5 102t-106.5 41q-82 0 -145 -56t-78 -143l-84 -477h-42l85 481q18 103 93 169.5t173 66.5q88 0 137.5 -54.5t36.5 -132.5
q-22 -119 -166 -149l-4 -7q90 -12 135.5 -65.5t30.5 -137.5q-15 -85 -82.5 -140.5t-155.5 -55.5z" />
    <glyph glyph-name="Ygrave" unicode="&#x1ef2;" horiz-adv-x="576" 
d="M405 774h-52l-76 94h53zM223 0l50 283l-170 418h46l150 -370h7l280 370h48l-318 -418l-50 -283h-43z" />
    <glyph glyph-name="ygrave" unicode="&#x1ef3;" horiz-adv-x="539" 
d="M311 615l-89 116h51l88 -116h-50zM31 -221q-35 0 -62 12l5 38q28 -11 57 -11q27 0 50 12t48.5 43t41.5 55t48 77l-148 496h43l131 -441h7l259 441h44l-297 -504q-67 -114 -115 -166t-112 -52z" />
    <glyph glyph-name="endash" unicode="&#x2013;" horiz-adv-x="670" 
d="M58 296l7 39h570l-7 -39h-570z" />
    <glyph glyph-name="emdash" unicode="&#x2014;" horiz-adv-x="870" 
d="M58 296l7 39h770l-7 -39h-770z" />
    <glyph glyph-name="quoteleft" unicode="&#x2018;" horiz-adv-x="185" 
d="M196 724l22 -8l-65 -105q30 -7 24 -38q-2 -14 -12.5 -23t-25.5 -9q-16 0 -25 10.5t-6 27.5q2 9 9 23z" />
    <glyph glyph-name="quoteright" unicode="&#x2019;" horiz-adv-x="178" 
d="M116 541l-21 7l64 106q-29 7 -23 37q2 14 12.5 23.5t25.5 9.5q16 0 24.5 -11t6.5 -27q-5 -15 -9 -23z" />
    <glyph glyph-name="quotesinglbase" unicode="&#x201a;" horiz-adv-x="178" 
d="M-1 -124l-21 8l64 106q-13 2 -19.5 12.5t-4.5 24.5q7 32 39 32q16 0 24.5 -10.5t5.5 -26.5q-2 -13 -8 -23z" />
    <glyph glyph-name="quotedblleft" unicode="&#x201c;" horiz-adv-x="306" 
d="M196 724l22 -8l-65 -105q30 -7 24 -38q-2 -14 -12.5 -23t-25.5 -9q-16 0 -25 10.5t-6 27.5q2 9 9 23zM317 724l22 -8l-65 -105q30 -7 24 -38q-2 -14 -13 -23t-25 -9q-16 0 -25 10.5t-6 27.5q2 9 9 23z" />
    <glyph glyph-name="quotedblright" unicode="&#x201d;" horiz-adv-x="297" 
d="M116 541l-22 7l65 106q-30 7 -24 37q2 14 12.5 23.5t25.5 9.5q16 0 25 -11t7 -27q-5 -14 -10 -23zM236 541l-22 7l65 106q-30 7 -24 37q2 14 12.5 23.5t25.5 9.5q16 0 25 -11t6 -27q-2 -11 -9 -23z" />
    <glyph glyph-name="quotedblbase" unicode="&#x201e;" horiz-adv-x="299" 
d="M-2 -124l-21 8l64 106q-12 2 -19 12.5t-4 24.5q2 14 12.5 23t25.5 9q16 0 24.5 -10.5t6.5 -26.5q-6 -18 -9 -23zM119 -124l-21 8l64 106q-13 2 -19.5 12.5t-3.5 24.5q2 14 12.5 23t25.5 9q16 0 24.5 -10.5t6.5 -26.5q-6 -18 -9 -23z" />
    <glyph glyph-name="dagger" unicode="&#x2020;" horiz-adv-x="510" 
d="M152 -223l92 520h-186l7 38h185l69 391h40l-70 -391h186l-7 -38h-185l-92 -520h-39z" />
    <glyph glyph-name="daggerdbl" unicode="&#x2021;" horiz-adv-x="570" 
d="M180 -230l72 402h-216l7 38h215l38 214h-216l7 37h216l47 270h40l-48 -270h215l-7 -37h-215l-38 -214h216l-7 -38h-215l-71 -402h-40z" />
    <glyph glyph-name="bullet" unicode="&#x2022;" horiz-adv-x="177" 
d="M95 273q-18 0 -27 11.5t-6 28.5q7 34 41 34q17 0 26 -11.5t6 -28.5q-2 -15 -13.5 -24.5t-26.5 -9.5z" />
    <glyph glyph-name="ellipsis" unicode="&#x2026;" horiz-adv-x="447" 
d="M42 -11q-17 0 -26 10.5t-5 27.5q2 14 12.5 23t25.5 9q16 0 24.5 -10.5t6.5 -26.5q-3 -14 -14 -23.5t-24 -9.5zM180 -11q-16 0 -25 10.5t-6 27.5q7 32 38 32q16 0 25 -10.5t6 -26.5q-2 -14 -13 -23.5t-25 -9.5zM318 -11q-16 0 -25 10.5t-6 27.5q7 32 39 32
q16 0 24.5 -10.5t6.5 -26.5q-3 -14 -14 -23.5t-25 -9.5z" />
    <glyph glyph-name="perthousand" unicode="&#x2030;" horiz-adv-x="1494" 
d="M272 340q-89 0 -137 57.5t-32 145.5q15 87 81 142.5t153 55.5q89 0 136.5 -57.5t32.5 -145.5q-16 -87 -81.5 -142.5t-152.5 -55.5zM191 0l630 731h49l-632 -731h-47zM274 381q71 0 125.5 46t67.5 117q11 68 -25.5 112t-106.5 44q-71 0 -125.5 -45.5t-66.5 -115.5
q-12 -69 24.5 -113.5t106.5 -44.5zM721 -10q-89 0 -136.5 57.5t-31.5 145.5q15 86 81.5 142t153.5 56q89 0 136.5 -57.5t31.5 -145.5q-15 -87 -81 -142.5t-154 -55.5zM1197 -11q-89 0 -136.5 57.5t-31.5 145.5q15 87 81 142.5t153 55.5q89 0 136.5 -57.5t31.5 -145.5
q-15 -87 -80.5 -142.5t-153.5 -55.5zM724 31q71 0 125.5 46t67.5 117q11 68 -25.5 112t-106.5 44q-71 0 -125 -45.5t-67 -116.5q-12 -68 24.5 -112.5t106.5 -44.5zM1200 30q71 0 125 46t67 117q12 68 -24.5 112t-105.5 44q-72 0 -126.5 -45.5t-67.5 -115.5
q-11 -69 25.5 -113.5t106.5 -44.5z" />
    <glyph glyph-name="guilsinglleft" unicode="&#x2039;" horiz-adv-x="336" 
d="M190 0l-163 251l251 250h52l-253 -250l164 -251h-51z" />
    <glyph glyph-name="guilsinglright" unicode="&#x203a;" horiz-adv-x="335" 
d="M58 0h-52l252 251l-164 250h51l163 -250z" />
    <glyph glyph-name="lira" unicode="&#x20a4;" horiz-adv-x="572" 
d="M7 0l9 58q90 12 137 182l-95 -2l7 35l98 2q8 31 14 67l-101 -1l7 36h100l30 171q14 78 70 128t129 50q79 0 122 -56.5t32 -143.5l-39 2q9 71 -23 115t-92 44q-58 0 -102.5 -40t-55.5 -102l-30 -168h266l-6 -36l-266 -1q-10 -52 -15 -68l269 1l-7 -35l-272 -2
q-23 -83 -54 -128t-75 -65l-3 -6h422l-7 -37h-469z" />
    <glyph glyph-name="Euro" unicode="&#x20ac;" horiz-adv-x="886" 
d="M573 686q-117 0 -213 -66t-143 -177h368l-6 -37h-376q-7 -21 -14 -58q-3 -14 -5 -44h377l-7 -37h-371q4 -114 76 -183t191 -69q107 0 202 62.5t131 153.5l39 -12q-42 -104 -148 -174t-226 -70q-138 0 -221.5 80.5t-86.5 211.5h-86l7 37h80q1 23 6 49q5 31 13 53h-82l6 37
h88q50 128 159 205.5t244 77.5q121 0 203.5 -74t87.5 -183l-42 -3q-5 94 -76 157t-175 63z" />
    <glyph glyph-name="uni20BD" unicode="&#x20bd;" horiz-adv-x="723" 
d="M510 701q116 0 170 -58.5t37 -155.5q-17 -94 -90.5 -151t-188.5 -57h-216l-17 -100h293l-7 -40h-293l-24 -139h-42l24 139h-126l8 40h125l18 100h-126l7 40h126l67 382h255zM676 493q13 76 -30 122t-140 46h-216l-60 -342h213q97 0 157.5 47.5t75.5 126.5z" />
    <glyph glyph-name="uni2116" unicode="&#x2116;" horiz-adv-x="846" 
d="M47 0l123 701h58l232 -636h8l112 636h41l-124 -701h-59l-231 635h-7l-112 -635h-41zM710 285q-40 0 -62 26t-15 67q7 38 36 62.5t67 24.5q41 0 62 -26.5t14 -66.5q-7 -38 -35.5 -62.5t-66.5 -24.5zM711 321q25 0 44 16t23 41q4 22 -7.5 36.5t-34.5 14.5q-26 0 -45 -16
t-23 -41q-4 -22 8 -36.5t35 -14.5zM590 169l6 36h192l-6 -36h-192z" />
    <glyph glyph-name="trademark" unicode="&#x2122;" horiz-adv-x="1054" 
d="M151 150l91 514h-158l6 37h355l-7 -37h-158l-91 -514h-38zM435 150l97 551h67l101 -496h7l276 496h68l-97 -551h-38l90 504h-7l-283 -504h-42l-105 504h-7l-89 -504h-38z" />
    <glyph glyph-name="arrowleft" unicode="&#x2190;" horiz-adv-x="640" 
d="M214 50l-163 203l234 203h56l-211 -181l-2 -2h466l-7 -40h-465l-1 -2l147 -181h-54z" />
    <glyph glyph-name="arrowup" unicode="&#x2191;" horiz-adv-x="506" 
d="M189 0l82 465h-2l-212 -179l9 55l237 199l169 -199l-9 -55l-150 179h-3l-82 -465h-39z" />
    <glyph glyph-name="arrowright" unicode="&#x2192;" horiz-adv-x="640" 
d="M299 50l212 181l1 2h-465l7 40h465l1 2l-147 181h54l164 -203l-235 -203h-57z" />
    <glyph glyph-name="arrowdown" unicode="&#x2193;" horiz-adv-x="506" 
d="M210 0l-169 199l9 55l150 -179h2l82 465h40l-83 -465h3l212 179l-9 -55z" />
    <glyph glyph-name="uni2196" unicode="&#x2196;" horiz-adv-x="498" 
d="M389 65l-271 329l-2 -1l-46 -255l-33 39l53 284l284 3l33 -39l-255 -1l-2 -2l271 -329z" />
    <glyph glyph-name="uni2197" unicode="&#x2197;" horiz-adv-x="498" 
d="M46 65l-24 28l388 329l-1 2l-256 1l45 39l285 -3l-47 -284l-46 -39l44 255l-1 1z" />
    <glyph glyph-name="uni2198" unicode="&#x2198;" horiz-adv-x="498" 
d="M131 76l-32 39l255 1l2 2l-272 329l32 28l271 -329l3 1l46 256l32 -40l-52 -284z" />
    <glyph glyph-name="uni2199" unicode="&#x2199;" horiz-adv-x="498" 
d="M307 76l-284 3l47 284l46 40l-44 -256v-1l387 329l24 -28l-387 -329l1 -2l256 -1z" />
    <glyph glyph-name="minus" unicode="&#x2212;" horiz-adv-x="512" 
d="M67 340l7 39h410l-7 -39h-410z" />
    <glyph glyph-name="notequal" unicode="&#x2260;" horiz-adv-x="571" 
d="M93 0l117 212h-166l7 39h180l113 203h-257l7 39h272l100 183h41l-100 -183h157l-7 -39h-172l-112 -203h248l-7 -39h-262l-117 -212h-42z" />
    <glyph glyph-name="lessequal" unicode="&#x2264;" horiz-adv-x="443" 
d="M382 191l-312 174l10 55l373 172l-8 -43l-334 -153l-2 -7l280 -154zM20 80l7 39h342l-6 -39h-343z" />
    <glyph glyph-name="greaterequal" unicode="&#x2265;" horiz-adv-x="443" 
d="M39 191l9 44l334 154l1 7l-280 153l7 43l313 -172l-10 -55zM363 80h-343l7 39h342z" />
    <glyph glyph-name="uniF6C3" unicode="&#xf6c3;" horiz-adv-x="0" 
d="M-190 -238l-19 8l50 81q-14 2 -21.5 12t-4.5 25q2 14 12.5 23t25.5 9q16 0 25 -10.5t7 -26.5q-3 -12 -10 -23z" />
    <glyph glyph-name="a.alt1" horiz-adv-x="541" 
d="M169 -19q-77 0 -117 35t-30 95q23 126 241 161l168 27l5 30q11 64 -23 104.5t-100 40.5q-70 0 -121 -37.5t-61 -96.5l-41 3q13 76 75.5 123t148.5 47q85 0 130.5 -53t31.5 -134l-57 -326h-41l16 93l-6 -1q-36 -54 -94 -82.5t-125 -28.5zM174 19q93 0 159.5 53t80.5 134
l10 55l-159 -26q-186 -32 -202 -129q-7 -41 22.5 -64t88.5 -23z" />
    <glyph glyph-name="agrave.alt1" horiz-adv-x="541" 
d="M310 615l-88 116h51l88 -116h-51zM169 -19q-77 0 -117 35t-30 95q23 126 241 161l168 27l5 30q11 64 -23 104.5t-100 40.5q-70 0 -121 -37.5t-61 -96.5l-41 3q13 76 75.5 123t148.5 47q85 0 130.5 -53t31.5 -134l-57 -326h-41l16 93l-6 -1q-36 -54 -94 -82.5t-125 -28.5z
M174 19q93 0 159.5 53t80.5 134l10 55l-159 -26q-186 -32 -202 -129q-7 -41 22.5 -64t88.5 -23z" />
    <glyph glyph-name="aacute.alt1" horiz-adv-x="541" 
d="M363 615h-53l129 116h53zM169 -19q-77 0 -117 35t-30 95q23 126 241 161l168 27l5 30q11 64 -23 104.5t-100 40.5q-70 0 -121 -37.5t-61 -96.5l-41 3q13 76 75.5 123t148.5 47q85 0 130.5 -53t31.5 -134l-57 -326h-41l16 93l-6 -1q-36 -54 -94 -82.5t-125 -28.5zM174 19
q93 0 159.5 53t80.5 134l10 55l-159 -26q-186 -32 -202 -129q-7 -41 22.5 -64t88.5 -23z" />
    <glyph glyph-name="atilde.alt1" horiz-adv-x="541" 
d="M396 615q-35 0 -68.5 29.5t-54.5 29.5q-40 0 -68 -37l-25 22q15 23 41.5 37.5t52.5 14.5q32 0 67 -30t56 -30t41 11.5t30 28.5l30 -20q-16 -25 -44 -40.5t-58 -15.5zM169 -19q-77 0 -117 35t-30 95q23 126 241 161l168 27l5 30q11 64 -23 104.5t-100 40.5
q-70 0 -121 -37.5t-61 -96.5l-41 3q13 76 75.5 123t148.5 47q85 0 130.5 -53t31.5 -134l-57 -326h-41l16 93l-6 -1q-36 -54 -94 -82.5t-125 -28.5zM174 19q93 0 159.5 53t80.5 134l10 55l-159 -26q-186 -32 -202 -129q-7 -41 22.5 -64t88.5 -23z" />
    <glyph glyph-name="adieresis.alt1" horiz-adv-x="541" 
d="M233 608q-16 0 -25 10.5t-6 27.5q2 14 12.5 23t25.5 9q16 0 25 -10.5t6 -27.5q-7 -32 -38 -32zM441 608q-16 0 -25 10.5t-6 27.5q2 14 12.5 23t25.5 9q16 0 25 -10.5t6 -27.5q-7 -32 -38 -32zM169 -19q-77 0 -117 35t-30 95q23 126 241 161l168 27l5 30q11 64 -23 104.5
t-100 40.5q-70 0 -121 -37.5t-61 -96.5l-41 3q13 76 75.5 123t148.5 47q85 0 130.5 -53t31.5 -134l-57 -326h-41l16 93l-6 -1q-36 -54 -94 -82.5t-125 -28.5zM174 19q93 0 159.5 53t80.5 134l10 55l-159 -26q-186 -32 -202 -129q-7 -41 22.5 -64t88.5 -23z" />
    <glyph glyph-name="aring.alt1" horiz-adv-x="541" 
d="M332 574q-44 0 -67.5 28t-15.5 71q7 41 38.5 67.5t73.5 26.5q44 0 67 -28t15 -71q-8 -41 -39 -67.5t-72 -26.5zM331 603q30 0 53.5 20t29.5 50q5 29 -10.5 47t-43.5 18q-30 0 -53.5 -20t-28.5 -50q-5 -29 10 -47t43 -18zM169 -19q-77 0 -117 35t-30 95q23 126 241 161
l168 27l5 30q11 64 -23 104.5t-100 40.5q-70 0 -121 -37.5t-61 -96.5l-41 3q13 76 75.5 123t148.5 47q85 0 130.5 -53t31.5 -134l-57 -326h-41l16 93l-6 -1q-36 -54 -94 -82.5t-125 -28.5zM174 19q93 0 159.5 53t80.5 134l10 55l-159 -26q-186 -32 -202 -129
q-7 -41 22.5 -64t88.5 -23z" />
    <glyph glyph-name="amacron.alt1" horiz-adv-x="541" 
d="M196 616l8 38h281l-7 -38h-282zM169 -19q-77 0 -117 35t-30 95q23 126 241 161l168 27l5 30q11 64 -23 104.5t-100 40.5q-70 0 -121 -37.5t-61 -96.5l-41 3q13 76 75.5 123t148.5 47q85 0 130.5 -53t31.5 -134l-57 -326h-41l16 93l-6 -1q-36 -54 -94 -82.5t-125 -28.5z
M174 19q93 0 159.5 53t80.5 134l10 55l-159 -26q-186 -32 -202 -129q-7 -41 22.5 -64t88.5 -23z" />
    <glyph glyph-name="abreve.alt1" horiz-adv-x="541" 
d="M337 608q-55 0 -84.5 35.5t-18.5 88.5l37 -2q-7 -38 12 -62t55 -24q38 0 67 25t36 63l37 -2q-9 -54 -48.5 -88t-92.5 -34zM169 -19q-77 0 -117 35t-30 95q23 126 241 161l168 27l5 30q11 64 -23 104.5t-100 40.5q-70 0 -121 -37.5t-61 -96.5l-41 3q13 76 75.5 123
t148.5 47q85 0 130.5 -53t31.5 -134l-57 -326h-41l16 93l-6 -1q-36 -54 -94 -82.5t-125 -28.5zM174 19q93 0 159.5 53t80.5 134l10 55l-159 -26q-186 -32 -202 -129q-7 -41 22.5 -64t88.5 -23z" />
    <glyph glyph-name="aogonek.alt1" horiz-adv-x="541" 
d="M314 513q85 0 130.5 -53t31.5 -134l-57 -325l1 -1q-81 -38 -115 -65t-39 -56q-4 -21 7 -33t33 -12q30 0 74 26l-4 -38q-40 -22 -76 -22q-35 0 -54 23.5t-13 59.5q6 34 40 64t107 65l14 81l-6 -1q-36 -54 -94 -82.5t-125 -28.5q-77 0 -117 35t-30 95q23 126 241 161
l168 27l5 30q11 64 -23 104.5t-100 40.5q-70 0 -121 -37.5t-61 -96.5l-41 3q13 76 75.5 123t148.5 47zM414 206l10 55l-159 -26q-186 -32 -202 -129q-7 -41 22.5 -64t88.5 -23q93 0 159.5 53t80.5 134z" />
    <glyph glyph-name="acircumflex.alt1" horiz-adv-x="541" 
d="M212 615l119 116h51l78 -116h-46l-59 83h-7l-88 -83h-48zM169 -19q-77 0 -117 35t-30 95q23 126 241 161l168 27l5 30q11 64 -23 104.5t-100 40.5q-70 0 -121 -37.5t-61 -96.5l-41 3q13 76 75.5 123t148.5 47q85 0 130.5 -53t31.5 -134l-57 -326h-41l16 93l-6 -1
q-36 -54 -94 -82.5t-125 -28.5zM174 19q93 0 159.5 53t80.5 134l10 55l-159 -26q-186 -32 -202 -129q-7 -41 22.5 -64t88.5 -23z" />
    <glyph glyph-name="IJacute" horiz-adv-x="660" 
d="M171 774l108 94h55l-109 -94h-54zM598 774l108 94h55l-109 -94h-54zM47 0l123 701h42l-123 -701h-42zM321 -20q-52 0 -117 20l4 40q65 -20 113 -20q72 0 124.5 49.5t68.5 142.5l86 489h43l-87 -492q-19 -109 -83 -169t-152 -60z" />
    <glyph glyph-name="ijacute" horiz-adv-x="407" 
d="M142 606l124 125h51l-125 -125h-50zM347 606l124 125h51l-125 -125h-50zM41 0l89 501h41l-89 -501h-41zM143 -220q-36 0 -70 13l4 37q40 -13 61 -12q35 0 60.5 22.5t32.5 57.5l106 603h41l-107 -605q-9 -52 -45 -84t-83 -32z" />
    <glyph glyph-name="acute.case" horiz-adv-x="247" 
d="M142 774l109 94h54l-108 -94h-55z" />
    <glyph glyph-name="breve.case" horiz-adv-x="337" 
d="M262 764q-52 0 -81 30t-21 76l40 -3q-5 -30 12.5 -48t50.5 -18q36 0 62 19t31 50l40 -3q-8 -46 -46 -74.5t-88 -28.5z" />
    <glyph glyph-name="caron.case" horiz-adv-x="357" 
d="M245 774l-85 94h51l61 -64h7l82 64h54l-118 -94h-52z" />
    <glyph glyph-name="caron.alt1" horiz-adv-x="178" 
d="M128 553l-20 8l50 81q-31 6 -25 37q2 14 12.5 23t25.5 9q16 0 24.5 -10.5t6.5 -27.5q-2 -10 -10 -23z" />
    <glyph glyph-name="circumflex.case" horiz-adv-x="357" 
d="M262 868h51l85 -94h-52l-60 64h-7l-82 -64h-55z" />
    <glyph glyph-name="dieresis.case" horiz-adv-x="379" 
d="M185 790q-17 0 -26.5 11.5t-6.5 27.5q3 14 14 23.5t25 9.5q16 0 25.5 -11t7.5 -28q-3 -14 -14 -23.5t-25 -9.5zM391 790q-16 0 -25.5 11t-7.5 28q3 14 14 23.5t26 9.5q16 0 25.5 -11.5t6.5 -27.5q-3 -14 -14 -23.5t-25 -9.5z" />
    <glyph glyph-name="dotaccent.case" horiz-adv-x="173" 
d="M185 790q-17 0 -26.5 11t-6.5 28q7 33 39 33q17 0 26 -11t7 -28q-3 -14 -14 -23.5t-25 -9.5z" />
    <glyph glyph-name="grave.case" horiz-adv-x="246" 
d="M287 774h-52l-76 94h54z" />
    <glyph glyph-name="hungarumlaut.case" horiz-adv-x="399" 
d="M142 774l102 94h54l-103 -94h-53zM302 774l102 94h54l-105 -94h-51z" />
    <glyph glyph-name="ring.case" horiz-adv-x="277" 
d="M232 762q-40 0 -61.5 25.5t-13.5 63.5q6 37 34 60.5t66 23.5q39 0 60 -25t14 -64q-6 -36 -34.5 -60t-64.5 -24zM233 794q24 0 43.5 16.5t23.5 41.5q4 22 -8 36.5t-35 14.5q-25 0 -44.5 -16t-24.5 -40q-4 -24 8 -38.5t37 -14.5z" />
    <glyph glyph-name="tilde.case" horiz-adv-x="416" 
d="M365 784q-35 0 -65 25.5t-52 25.5q-44 0 -71 -38l-27 21q15 23 42.5 37.5t56.5 14.5q34 0 64 -25.5t54 -25.5q48 0 75 41l28 -20q-16 -26 -44.5 -41t-60.5 -15z" />
    <glyph glyph-name="uni0430.alt1" horiz-adv-x="541" 
d="M169 -19q-77 0 -117 35t-30 95q23 126 241 161l168 27l5 30q11 64 -23 104.5t-100 40.5q-70 0 -121 -37.5t-61 -96.5l-41 3q13 76 75.5 123t148.5 47q85 0 130.5 -53t31.5 -134l-57 -326h-41l16 93l-6 -1q-36 -54 -94 -82.5t-125 -28.5zM174 19q93 0 159.5 53t80.5 134
l10 55l-159 -26q-186 -32 -202 -129q-7 -41 22.5 -64t88.5 -23z" />
    <glyph glyph-name="uni0432.alt1" horiz-adv-x="581" 
d="M261 -20q-103 0 -154 63.5t-32 168.5l52 298q17 98 83 157.5t157 59.5q78 0 120 -43t30 -111q-9 -54 -53 -99t-103 -70q86 -3 131.5 -59t28.5 -151q-17 -98 -88 -156t-172 -58zM140 362q315 82 337 214q9 49 -22 80t-89 31q-76 0 -130 -48.5t-68 -129.5zM262 18
q85 0 145.5 49.5t74.5 132.5q15 85 -30 131t-139 45q-107 -37 -177 -55l-22 -113q-15 -87 25 -138.5t123 -51.5z" />
    <glyph glyph-name="uni0433.alt" horiz-adv-x="512" 
d="M200 -20q-87 0 -134.5 40t-35.5 108q6 34 23.5 59.5t35.5 39.5t52 24.5t54 14.5t61 10q33 5 50 8t43 11t40 18.5t27 29t17 43.5q7 43 -27.5 70t-97.5 27q-73 0 -123 -35.5t-61 -94.5l-39 3q12 75 73.5 120t150.5 45q84 0 129 -39.5t33 -102.5q-5 -32 -20.5 -56
t-33.5 -37.5t-47.5 -24t-50 -15t-55.5 -9.5q-5 -1 -14 -2q-43 -6 -64 -10.5t-50.5 -16.5t-45 -33.5t-21.5 -54.5q-9 -46 28.5 -74t104.5 -28q79 0 135.5 39.5t67.5 102.5l40 -2q-14 -80 -81.5 -129t-163.5 -49z" />
    <glyph glyph-name="uni0414.alt1" horiz-adv-x="791" 
d="M-58 -150l34 190h89l377 661h64l144 -661h92l-34 -190h-41l27 150h-685l-27 -150h-40zM111 40h495l-135 620h-7z" />
    <glyph glyph-name="uni0434.alt1" horiz-adv-x="662" 
d="M236 -250q-102 0 -165.5 53.5t-62.5 137.5l42 7q-2 -70 50 -114.5t138 -44.5q95 0 165.5 60t86.5 154l19 109l-5 -1q-93 -130 -238 -130q-114 0 -174.5 76.5t-40.5 195.5q21 117 107 192.5t199 75.5q73 0 123.5 -36t70.5 -98l7 1l20 113h41l-88 -501q-19 -110 -102 -180
t-193 -70zM270 20q97 0 172.5 66t92.5 167q18 99 -33 164t-146 65q-98 0 -172.5 -66t-91.5 -168q-18 -99 33 -163.5t145 -64.5z" />
    <glyph glyph-name="uni0437.alt1" horiz-adv-x="530" 
d="M172 -250q-97 0 -151 59t-38 148l40 -3q-13 -72 29 -118.5t120 -46.5q85 0 145 48t74 126q13 71 -22.5 116t-102.5 45h-136l7 39h134q60 0 105 46.5t57 116.5q13 70 -24 113t-110 43q-72 0 -127 -45t-68 -114l-40 3q12 85 79 140t158 55q92 0 140 -54t32 -142
q-12 -67 -49.5 -113.5t-82.5 -62.5l-3 -7q48 -14 76.5 -65t15.5 -121q-16 -93 -87 -149.5t-171 -56.5z" />
    <glyph glyph-name="uni0436.alt" horiz-adv-x="679" 
d="M-20 0l300 261l-203 240h55l185 -221h7l80 451h41l-80 -451h7l263 221h55l-287 -240l207 -261h-54l-191 240h-7l-42 -240h-41l42 240h-6l-276 -240h-55z" />
    <glyph glyph-name="uni0438.alt1" 
d="M558 501l-89 -501h-40l16 92l-7 -1q-33 -52 -86 -81.5t-114 -29.5q-94 0 -140 64.5t-28 165.5l51 291h41l-51 -294q-15 -83 21 -135.5t113 -52.5q78 0 142 53t77 132l53 297h41z" />
    <glyph glyph-name="uni0439.alt1" 
d="M354 608q-55 0 -84.5 35.5t-19.5 88.5l37 -2q-7 -37 12.5 -61.5t55.5 -24.5q38 0 67 25t36 63l37 -2q-10 -54 -49.5 -88t-91.5 -34zM558 501l-89 -501h-40l16 92l-7 -1q-33 -52 -86 -81.5t-114 -29.5q-94 0 -140 64.5t-28 165.5l51 291h41l-51 -294q-15 -83 21 -135.5
t113 -52.5q78 0 142 53t77 132l53 297h41z" />
    <glyph glyph-name="uni043A.alt1" horiz-adv-x="464" 
d="M43 0l129 731h41l-80 -453h6l292 223h60l-317 -240l237 -261h-59l-218 242h-7l-43 -242h-41z" />
    <glyph glyph-name="uni041B.alt1" horiz-adv-x="651" 
d="M-22 0l395 701h64l148 -701h-44l-139 660h-7l-372 -660h-45z" />
    <glyph glyph-name="uni043B.alt1" horiz-adv-x="537" 
d="M-18 0l297 501h65l122 -501h-44l-112 466h-7l-276 -466h-45z" />
    <glyph glyph-name="uni0442.alt1" horiz-adv-x="922" 
d="M44 0l88 501h40l-13 -79l6 1q29 46 75 72t101 26q65 0 106 -34t46 -91l8 3q27 57 78.5 89.5t118.5 32.5q87 0 130.5 -59.5t26.5 -154.5l-54 -307h-41l55 310q13 77 -20.5 124.5t-101.5 47.5q-74 0 -128.5 -48.5t-68.5 -126.5l-54 -307h-40l55 310q13 78 -20.5 125
t-101.5 47q-74 0 -128.5 -48.5t-68.5 -126.5l-53 -307h-41z" />
    <glyph glyph-name="uni043F.alt1" 
d="M43 0l89 501h41l-17 -92l7 1q34 52 87 81.5t113 29.5q95 0 140.5 -65t27.5 -165l-51 -291h-41l52 294q14 84 -21.5 136t-112.5 52q-78 0 -142 -53t-78 -131l-53 -298h-41z" />
    <glyph glyph-name="uni0446.alt1" horiz-adv-x="645" 
d="M505 -149l26 149h-111l17 93l-7 -1q-34 -51 -87 -81.5t-111 -30.5q-94 0 -137 64t-25 166l51 291h41l-51 -294q-15 -84 17 -136t108 -52q78 0 142 53t77 132l53 297h41l-82 -462h110l-33 -188h-39z" />
    <glyph glyph-name="uni0448.alt1" horiz-adv-x="922" 
d="M879 501l-89 -501h-40l14 79l-6 -1q-29 -45 -75 -71.5t-102 -26.5q-65 0 -105.5 34t-46.5 91l-8 -3q-28 -57 -78.5 -89.5t-117.5 -32.5q-87 0 -130.5 59.5t-26.5 154.5l54 307h40l-54 -310q-14 -77 19.5 -124.5t101.5 -47.5q74 0 129 48.5t68 126.5l54 307h41l-55 -310
q-13 -78 20 -125t101 -47q74 0 129 48.5t68 126.5l54 307h41z" />
    <glyph glyph-name="uni0449.alt1" horiz-adv-x="972" 
d="M833 -149l26 149h-109l13 79l-5 -1q-29 -45 -75 -71.5t-101 -26.5q-65 0 -106 34t-46 91l-8 -3q-27 -57 -78 -89.5t-118 -32.5q-88 0 -131.5 59.5t-26.5 154.5l53 307h41l-55 -310q-13 -77 21 -124.5t102 -47.5q74 0 128 48.5t68 126.5l54 307h41l-55 -310
q-14 -78 19.5 -125t102.5 -47q74 0 128 48.5t68 126.5l54 307h40l-81 -462h107l-32 -188h-39z" />
    <glyph glyph-name="uni044A.alt1" horiz-adv-x="537" 
d="M288 0q-77 0 -119 47.5t-28 120.5l52 294h-129l7 39h169l-29 -167h132q77 0 119.5 -48t29.5 -122q-13 -71 -70.5 -117.5t-133.5 -46.5zM290 39q60 0 105.5 37t55.5 94q11 54 -20.5 89.5t-91.5 35.5h-135l-23 -130q-10 -55 21 -90.5t88 -35.5z" />
    <glyph glyph-name="uni044C.alt1" horiz-adv-x="459" 
d="M210 0q-77 0 -119 47.5t-28 120.5l58 333h41l-29 -167h132q77 0 119.5 -48t29.5 -122q-13 -71 -70.5 -117.5t-133.5 -46.5zM212 39q60 0 105.5 37t55.5 94q11 54 -20.5 89.5t-91.5 35.5h-135l-23 -130q-10 -55 21 -90.5t88 -35.5z" />
    <glyph glyph-name="uni044E.alt1" horiz-adv-x="762" 
d="M419 -25q-104 0 -162 73t-43 185l-90 -2l-41 -238h-41l130 738h41l-81 -462l88 2q27 109 108 178.5t180 69.5q107 0 165.5 -77.5t37.5 -196.5q-21 -117 -104 -193.5t-188 -76.5zM420 14q94 0 163.5 65t88.5 171q18 104 -27.5 167t-137.5 63q-94 0 -163.5 -64.5
t-88.5 -170.5q-18 -104 27.5 -167.5t137.5 -63.5z" />
    <glyph glyph-name="uni0424.alt1" horiz-adv-x="863" 
d="M350 -96l14 76q-153 5 -234.5 110t-53.5 263q28 157 144.5 260t271.5 109l13 65h43l-13 -65q153 -6 234 -111t53 -263q-28 -157 -144 -260t-271 -108l-15 -76h-42zM369 20l119 661q-137 -5 -241 -98.5t-129 -234.5q-25 -139 46 -231t205 -97zM411 20q136 5 240.5 98.5
t129.5 234.5q25 140 -45.5 231.5t-204.5 96.5z" />
    </font>
</defs>
</svg>
