<?xml version="1.0" encoding="utf-8"?>
<!-- Generator: Adobe Illustrator 22.1.0, SVG Export Plug-In . SVG Version: 6.00 Build 0)  -->
<svg version="1.1" id="Capa_1" xmlns="http://www.w3.org/2000/svg" xmlns:xlink="http://www.w3.org/1999/xlink" x="0px" y="0px"
	 viewBox="0 0 179 50" style="enable-background:new 0 0 179 50;" xml:space="preserve">
<style type="text/css">
	.st0{fill:#1B365D;}
	.st1{fill:#57728B;}
</style>
<g>
	<g>
		<path class="st0" d="M62.7,36.2c6.2,12.1,21,17,33.2,10.8c0.2-0.1,0.3-0.2,0.5-0.2C84.8,52.3,70.8,47.7,65,36.2
			c-5.9-11.6-1.3-25.9,10.4-31.8c11.5-5.8,25.5-1.4,31.5,9.9c-0.1-0.2-0.1-0.3-0.2-0.5c-6.2-12.1-21-17-33.2-10.8
			C61.3,9.2,56.5,24,62.7,36.2z"/>
		<g>
			<g>
				<g>
					<g>
						<path class="st0" d="M7.8,20.5H1.3v-3.8h17.1v3.8h-6.5v13.9H7.8V20.5z"/>
					</g>
				</g>
				<g>
					<g>
						<path class="st0" d="M19,25.6c0-4.7,3.2-9.2,8.9-9.2s8.9,4.5,8.9,9.2c0,4.7-3.2,9.2-8.9,9.2S19,30.3,19,25.6z M32.6,25.6
							c0-2.6-1.6-5.2-4.7-5.2s-4.6,2.6-4.6,5.2c0,2.7,1.6,5.2,4.6,5.2S32.6,28.2,32.6,25.6z"/>
					</g>
				</g>
				<g>
					<g>
						<path class="st0" d="M39.6,34.4V16.8h12.2c3.5,0,5.3,2.6,5.3,5.4c0,2.4-1.3,4.6-4,5.1c0.1,0.1,0.2,0.2,0.2,0.4l4,6.7h-4.6
							l-4.1-7h-4.9v7H39.6z M43.7,23.7h8.1c0.8,0,1.2-0.6,1.2-1.3v-0.5c0-0.8-0.4-1.3-1.2-1.3h-8.1V23.7z"/>
					</g>
				</g>
				<path class="st1" d="M66.4,25.9c0-4.5,3-8.9,8.3-8.9c4.1,0,7.1,2.7,8,6.4l0.1,0.3h-2.5l-0.1-0.2c-0.8-2.4-2.8-4.2-5.5-4.2
					c-3.7,0-5.8,3.4-5.8,6.6c0,3.3,2,6.7,5.8,6.7c2.7,0,4.8-1.8,5.5-4.2l0.1-0.2h2.5l-0.1,0.3c-0.9,3.7-3.8,6.4-8,6.4
					C69.4,34.8,66.4,30.4,66.4,25.9z"/>
				<path class="st1" d="M83.1,34.4l7.4-17.2h2.4l7.6,17.2h-2.5l-2-4.6h-8.6l-1.9,4.6H83.1z M88.3,27.8h7.1l-3.7-8.3L88.3,27.8z"/>
				<path class="st1" d="M102.7,34.4V17.3h11.7c3,0,4.5,2.3,4.5,4.8c0,2.6-1.5,4.8-4.5,4.8H105v7.5H102.7z M105,24.8h9.4
					c1.6,0,2.3-1.2,2.3-2.7c0-1.4-0.7-2.7-2.3-2.7H105V24.8z"/>
				<path class="st1" d="M121.6,17.3h2.3v17.1h-2.3V17.3z"/>
				<path class="st1" d="M133.1,19.4h-6.8v-2.1h15.9v2.1h-6.8v15h-2.3V19.4z"/>
				<path class="st1" d="M141,34.4l7.4-17.2h2.4l7.6,17.2H156l-2-4.6h-8.6l-1.9,4.6H141z M146.1,27.8h7.1l-3.7-8.3L146.1,27.8z"/>
				<path class="st1" d="M160.6,17.3h2.3v15h10.2v2.1h-12.5V17.3z"/>
			</g>
		</g>
	</g>
	<g>
		<g>
			<path class="st0" d="M176.2,34.7c-0.7,0-1.3-0.6-1.3-1.3c0-0.7,0.6-1.3,1.3-1.3s1.3,0.6,1.3,1.3
				C177.5,34.1,176.9,34.7,176.2,34.7L176.2,34.7z M177.6,32.8c-0.1-0.2-0.2-0.3-0.3-0.5c-0.1-0.1-0.3-0.2-0.5-0.3
				c-0.2-0.1-0.4-0.1-0.6-0.1s-0.4,0-0.6,0.1c-0.2,0.1-0.3,0.2-0.5,0.3c-0.1,0.1-0.2,0.3-0.3,0.5c-0.1,0.2-0.1,0.4-0.1,0.6
				c0,0.2,0,0.4,0.1,0.6c0.1,0.2,0.2,0.3,0.3,0.5c0.1,0.1,0.3,0.2,0.5,0.3c0.2,0.1,0.4,0.1,0.6,0.1s0.4,0,0.6-0.1
				c0.2-0.1,0.3-0.2,0.5-0.3c0.1-0.1,0.2-0.3,0.3-0.5c0.1-0.2,0.1-0.4,0.1-0.6C177.7,33.2,177.7,33,177.6,32.8L177.6,32.8z"/>
			<path class="st0" d="M176.5,33.2c-0.1,0-0.1,0.1-0.3,0.1H176v-0.5c0.1,0,0.1,0,0.2,0c0.3,0,0.4,0.1,0.4,0.3
				C176.6,33.1,176.6,33.2,176.5,33.2L176.5,33.2z M176.8,33.7c0-0.1-0.1-0.2-0.2-0.2c0.2-0.1,0.2-0.2,0.2-0.4
				c0-0.2-0.1-0.3-0.2-0.4c-0.1-0.1-0.3-0.1-0.5-0.1c-0.1,0-0.3,0-0.4,0l0,0v1.7h0.3v-0.7h0.2c0.2,0,0.3,0.2,0.4,0.7l0,0h0.3l0,0
				C176.9,34,176.8,33.8,176.8,33.7L176.8,33.7z"/>
		</g>
	</g>
</g>
</svg>
