<?xml version="1.0" standalone="no"?>
<!DOCTYPE svg PUBLIC "-//W3C//DTD SVG 1.1//EN" "http://www.w3.org/Graphics/SVG/1.1/DTD/svg11.dtd" >
<svg xmlns="http://www.w3.org/2000/svg" xmlns:xlink="http://www.w3.org/1999/xlink" version="1.1">
<metadata>
Created by FontForge 20170731 at Fri Nov  2 23:15:31 2018
 By Aleksey,,,
Copyright (c) 2018 by Alexander Slobzheninov. All rights reserved.
</metadata>
<defs>
<font id="ObjectSans-Thin" horiz-adv-x="602" >
  <font-face 
    font-family="Object Sans Thin"
    font-weight="250"
    font-stretch="normal"
    units-per-em="1000"
    panose-1="0 0 3 0 0 0 0 0 0 0"
    ascent="800"
    descent="-200"
    x-height="501"
    cap-height="701"
    bbox="-124 -250 1443 935"
    underline-thickness="50"
    underline-position="-175"
    unicode-range="U+000D-FB00"
  />
<missing-glyph horiz-adv-x="0" 
 />
    <glyph glyph-name=".notdef" horiz-adv-x="0" 
 />
    <glyph glyph-name=".null" horiz-adv-x="0" 
 />
    <glyph glyph-name="nonmarkingreturn" horiz-adv-x="333" 
 />
    <glyph glyph-name="NULL" horiz-adv-x="701" 
d="M92 0v701h517v-701h-517zM130 37h441v627h-441v-627z" />
    <glyph glyph-name="NULL" horiz-adv-x="701" 
d="M92 0v701h517v-701h-517zM130 37h441v627h-441v-627z" />
    <glyph glyph-name="CR" unicode="&#xd;" horiz-adv-x="30" 
 />
    <glyph glyph-name="space" unicode=" " horiz-adv-x="250" 
 />
    <glyph glyph-name="exclam" unicode="!" horiz-adv-x="180" 
d="M73 187l-4 333v181h42v-181l-4 -333h-34zM90 -11q-15 0 -25 10t-10 26q0 14 10 24t25 10q16 0 26 -10t10 -24q0 -16 -10 -26t-26 -10z" />
    <glyph glyph-name="quotedbl" unicode="&#x22;" horiz-adv-x="283" 
d="M52 396l-1 169v136h39v-136l-2 -169h-36zM196 396l-2 169v136h39v-136l-1 -169h-36z" />
    <glyph glyph-name="numbersign" unicode="#" horiz-adv-x="945" 
d="M221 0l66 244h-236v36h246l52 197h-248v37h258l60 222h40l-60 -222h204l59 222h40l-59 -222h251l1 -37h-262l-53 -197h265l-1 -36h-273l-65 -244h-40l65 244h-204l-66 -244h-40zM336 280h205l52 197h-204z" />
    <glyph glyph-name="dollar" unicode="$" horiz-adv-x="688" 
d="M620 180q0 -91 -68.5 -146t-187.5 -59v-98h-41v99q-118 7 -186.5 73t-68.5 174h42q0 -96 64.5 -152t175.5 -56q104 0 166 44.5t62 118.5q0 87 -95 122q-39 14 -146 32q-46 7 -76 13.5t-68 21t-59.5 33t-37 50t-15.5 72.5q0 90 64.5 145t177.5 59v94h41v-95
q111 -7 175.5 -68t64.5 -161l-41 -1q-1 88 -62 139.5t-164 51.5q-98 0 -156 -45.5t-58 -117.5q0 -33 13.5 -57.5t31.5 -39t52 -26t59 -16.5t69 -12q37 -6 57 -9.5t53.5 -11.5t52.5 -16.5t42.5 -23t36 -32t21.5 -43t9 -56.5z" />
    <glyph glyph-name="percent" unicode="%" horiz-adv-x="1017" 
d="M254 340q-89 0 -146 56.5t-57 144.5q0 87 57.5 143.5t145.5 56.5t144.5 -56.5t56.5 -143.5q0 -88 -56.5 -144.5t-144.5 -56.5zM235 0l500 731h49l-500 -731h-49zM255 381q70 0 115 45.5t45 115.5q0 69 -45 113.5t-115 44.5q-71 0 -117 -44.5t-46 -113.5q0 -70 46 -115.5
t117 -45.5zM766 -10q-88 0 -145 56.5t-57 143.5q0 88 57 144.5t145 56.5q87 0 144 -56.5t57 -144.5q0 -87 -56.5 -143.5t-144.5 -56.5zM766 31q70 0 115.5 45t45.5 115q0 69 -45.5 114t-115.5 45t-116 -45t-46 -114q0 -70 45.5 -115t116.5 -45z" />
    <glyph glyph-name="ampersand" unicode="&#x26;" horiz-adv-x="766" 
d="M302 -25q-102 0 -168 55.5t-66 140.5q0 76 42.5 122.5t118.5 80.5q-90 90 -90 174q1 73 51.5 120.5t127.5 47.5q82 0 138 -54.5t58 -136.5h-41q-1 65 -45 108t-109 43q-60 0 -99 -36.5t-39 -93.5q0 -76 101 -166l250 -227q43 66 84 187h43q-46 -136 -97 -213l140 -127
h-61l-104 94q-96 -120 -235 -119zM303 15q122 0 204 106l-248 224q-71 -29 -110 -69t-39 -105q0 -68 54.5 -112t138.5 -44z" />
    <glyph glyph-name="quotesingle" unicode="'" horiz-adv-x="140" 
d="M52 397l-1 169v135h38v-135l-1 -169h-36z" />
    <glyph glyph-name="parenleft" unicode="(" horiz-adv-x="295" 
d="M218 -180q-70 71 -114.5 198t-44.5 262t45 263t115 198h49q-78 -77 -124 -201t-46 -260q0 -138 46 -261.5t124 -198.5h-50z" />
    <glyph glyph-name="parenright" unicode=")" horiz-adv-x="294" 
d="M76 -180h-50q78 75 124 198.5t46 261.5q0 136 -46 260t-124 201h50q70 -70 114.5 -198.5t44.5 -262.5q0 -135 -44 -262t-115 -198z" />
    <glyph glyph-name="asterisk" unicode="*" horiz-adv-x="501" 
d="M232 261l1 189l-164 -95l-18 32l164 94l-164 94l18 32l164 -95l-1 189h37l-1 -189l164 95l18 -32l-164 -94l164 -94l-18 -32l-164 95l1 -189h-37z" />
    <glyph glyph-name="plus" unicode="+" horiz-adv-x="572" 
d="M265 132v208h-214v39h214v193h42v-193h214v-39h-215v-208h-41z" />
    <glyph glyph-name="comma" unicode="," horiz-adv-x="178" 
d="M64 -124l-22 8l43 106q-28 5 -28 35q0 15 9.5 24.5t25.5 9.5t25.5 -9.5t9.5 -24.5q0 -10 -6 -25z" />
    <glyph glyph-name="hyphen" unicode="-" horiz-adv-x="512" 
d="M51 296v39h410v-39h-410z" />
    <glyph glyph-name="period" unicode="." horiz-adv-x="171" 
d="M86 -11q-16 0 -25.5 10t-9.5 26q0 15 9.5 24.5t25.5 9.5q15 0 25 -9.5t10 -24.5q0 -16 -10 -26t-25 -10z" />
    <glyph glyph-name="slash" unicode="/" horiz-adv-x="397" 
d="M27 -230l301 931h42l-301 -931h-42z" />
    <glyph glyph-name="zero" unicode="0" horiz-adv-x="707" 
d="M354 -25q-131 0 -208 102t-77 274q0 173 76.5 274t208.5 101q130 0 207 -102t77 -273q0 -173 -76.5 -274.5t-207.5 -101.5zM354 15q111 0 176.5 91.5t65.5 244.5t-65.5 244t-176.5 91q-113 0 -177.5 -90t-65.5 -245q1 -153 66.5 -244.5t176.5 -91.5z" />
    <glyph glyph-name="one" unicode="1" horiz-adv-x="329" 
d="M195 0v634h-6l-156 -126v52l174 141h31v-701h-43z" />
    <glyph glyph-name="two" unicode="2" horiz-adv-x="593" 
d="M69 0v42l292 255q125 107 125 212q0 78 -50 127.5t-127 49.5q-86 0 -142 -58.5t-57 -149.5h-41q0 108 68 178t172 70q95 0 157 -61t62 -155q0 -71 -37.5 -129t-119.5 -129l-238 -205v-7h385v-40h-449z" />
    <glyph glyph-name="three" unicode="3" horiz-adv-x="610" 
d="M306 -25q-99 0 -168 66t-73 166h42q4 -83 60.5 -137.5t139.5 -54.5q85 0 140.5 52.5t55.5 133.5q0 80 -56.5 131.5t-144.5 51.5q-54 0 -83 -18l-14 30l231 258v7h-339v40h411v-28l-225 -251q113 7 188 -56t75 -165q0 -98 -68 -162t-172 -64z" />
    <glyph glyph-name="four" unicode="4" horiz-adv-x="579" 
d="M389 0v183h-350v28l318 490h74v-478h90v-40h-90v-183h-42zM96 223h293v441h-7z" />
    <glyph glyph-name="five" unicode="5" horiz-adv-x="584" 
d="M293 -25q-99 0 -168 66t-73 166h41q5 -83 62 -137.5t139 -54.5q85 0 140.5 53t55.5 133q0 81 -64 132.5t-165 51.5h-146l29 316h337v-40h-301l-20 -236h103q118 0 193.5 -62.5t75.5 -160.5q0 -99 -67.5 -163t-171.5 -64z" />
    <glyph glyph-name="six" unicode="6" horiz-adv-x="583" 
d="M292 -25q-106 0 -173.5 63.5t-67.5 159.5q0 79 55 154l251 349h54l-225 -308q46 32 110 32q102 0 169.5 -63t67.5 -159q0 -99 -68.5 -163.5t-172.5 -64.5zM292 15q85 0 141.5 53.5t56.5 134.5q0 79 -56 131t-141 52q-89 0 -145 -52t-55 -133q0 -82 55 -134t144 -52z" />
    <glyph glyph-name="seven" unicode="7" horiz-adv-x="505" 
d="M155 0l277 661h-419v40h471v-27l-284 -674h-45z" />
    <glyph glyph-name="eight" unicode="8" horiz-adv-x="645" 
d="M323 -25q-110 0 -182 58.5t-72 148.5q0 70 44.5 122t117.5 69v6q-59 17 -95.5 61t-36.5 103q0 80 63 131.5t161 51.5q97 0 160.5 -51.5t63.5 -131.5q0 -58 -37.5 -102.5t-97.5 -61.5v-6q74 -17 119.5 -68.5t45.5 -122.5q0 -91 -71.5 -149t-182.5 -58zM323 395
q79 0 130 41.5t51 105.5q0 63 -51 103.5t-130 40.5t-130 -40.5t-51 -103.5q0 -64 51 -105.5t130 -41.5zM323 11q91 0 150.5 49t59.5 123t-59.5 122.5t-150.5 48.5t-150.5 -48.5t-59.5 -122.5t59.5 -123t150.5 -49z" />
    <glyph glyph-name="nine" unicode="9" horiz-adv-x="584" 
d="M292 726q106 0 173.5 -63.5t67.5 -159.5q0 -78 -56 -154l-251 -349h-53l225 309q-50 -33 -111 -33q-102 0 -169 63t-67 159q0 99 68.5 163.5t172.5 64.5zM291 686q-84 0 -141 -53.5t-57 -134.5q0 -79 56.5 -130.5t141.5 -51.5q89 -1 144.5 51.5t54.5 133.5q0 81 -55 133
t-144 52z" />
    <glyph glyph-name="colon" unicode=":" horiz-adv-x="171" 
d="M86 402q-16 0 -25.5 9.5t-9.5 25.5q0 15 9.5 25t25.5 10q15 0 25 -10t10 -25t-10 -25t-25 -10zM86 -11q-16 0 -25.5 10t-9.5 26q0 15 9.5 24.5t25.5 9.5q15 0 25 -10t10 -24q0 -16 -10 -26t-25 -10z" />
    <glyph glyph-name="semicolon" unicode=";" horiz-adv-x="178" 
d="M92 402q-16 0 -25.5 9.5t-9.5 25.5q0 15 9.5 25t25.5 10q15 0 25 -10t10 -25t-10 -25t-25 -10zM64 -124l-22 8l44 106q-29 5 -29 35q0 14 10 24t25 10q16 0 26 -10t10 -24q0 -11 -7 -25z" />
    <glyph glyph-name="less" unicode="&#x3c;" horiz-adv-x="458" 
d="M399 92l-372 228v45l372 228v-45l-331 -202v-7l331 -203v-44z" />
    <glyph glyph-name="equal" unicode="=" horiz-adv-x="572" 
d="M51 444v39h470v-39h-470zM51 193v39h470v-39h-470z" />
    <glyph glyph-name="greater" unicode="&#x3e;" horiz-adv-x="457" 
d="M58 92v44l332 203v7l-332 202v45l372 -228v-45z" />
    <glyph glyph-name="question" unicode="?" horiz-adv-x="557" 
d="M236 164q0 76 25.5 115.5t90.5 81.5q48 31 76 67t28 92q0 74 -48.5 120t-121.5 46q-79 0 -129 -52.5t-55 -136.5h-43q5 101 67.5 165t158.5 64q92 0 152.5 -57.5t60.5 -148.5q0 -68 -33.5 -112t-95.5 -83q-53 -35 -72.5 -66.5t-19.5 -94.5h-41zM259 -11q-16 0 -26 9.5
t-10 25.5q0 15 10 25t26 10q15 0 25 -10t10 -25t-10 -25t-25 -10z" />
    <glyph glyph-name="at" unicode="@" horiz-adv-x="1004" 
d="M471 -172q-179 0 -295.5 122.5t-116.5 309.5q0 188 125 311.5t318 123.5t318 -123t125 -312q0 -125 -39.5 -196t-119.5 -71q-49 0 -82.5 26t-41.5 77h-7q-56 -111 -192 -111q-79 0 -129 41t-50 106q0 52 32 86.5t79 50t119 24.5l145 19v28q0 66 -42.5 106t-110.5 40
q-69 0 -112 -36.5t-42 -94.5h-41q0 76 51 123.5t136 47.5q86 0 144 -52.5t58 -133.5v-229q0 -35 24.5 -58t61.5 -23q61 0 89.5 62t28.5 168q0 173 -113.5 285t-288.5 112t-288.5 -112t-113.5 -285q0 -172 105 -283t267 -111q45 0 89 9t65 22v-41q-63 -28 -155 -28zM466 23
q87 0 140 52.5t53 133.5v66l-145 -20q-95 -12 -142 -40t-47 -85q0 -47 39.5 -77t101.5 -30z" />
    <glyph glyph-name="A" unicode="A" horiz-adv-x="653" 
d="M23 0l273 701h62l272 -701h-43l-72 183h-377l-72 -183h-43zM152 223h349l-171 438h-7z" />
    <glyph glyph-name="B" unicode="B" horiz-adv-x="676" 
d="M91 0v701h293q89 0 147 -50.5t58 -127.5q0 -56 -34 -97.5t-91 -56.5v-7q65 -15 105 -61t40 -109q0 -83 -66 -137.5t-167 -54.5h-285zM133 385h249q72 0 118.5 38.5t46.5 99.5q0 60 -46.5 99t-118.5 39h-249v-276zM133 40h241q84 0 138.5 43t54.5 110q0 66 -54.5 108.5
t-138.5 42.5h-241v-304z" />
    <glyph glyph-name="C" unicode="C" horiz-adv-x="816" 
d="M424 -25q-160 0 -262.5 106t-102.5 270t102.5 269.5t262.5 105.5q120 0 215 -73.5t118 -181.5l-42 -7q-20 94 -103 158t-188 64q-142 0 -232.5 -94t-90.5 -241t91 -241.5t232 -94.5q106 0 189 62t103 153l41 -9q-23 -104 -117.5 -175t-215.5 -71z" />
    <glyph glyph-name="D" unicode="D" horiz-adv-x="741" 
d="M91 0v701h213q171 0 274.5 -93.5t103.5 -256.5q0 -164 -103 -257.5t-275 -93.5h-213zM134 40h170q152 0 244 82.5t92 228.5q0 144 -92.5 227t-243.5 83h-170v-621z" />
    <glyph glyph-name="E" unicode="E" horiz-adv-x="625" 
d="M92 0v701h472v-40h-430v-276h390v-40h-390v-305h440v-40h-482z" />
    <glyph glyph-name="F" unicode="F" horiz-adv-x="556" 
d="M92 0v701h426v-40h-384v-276h336v-40h-336v-345h-42z" />
    <glyph glyph-name="G" unicode="G" horiz-adv-x="851" 
d="M431 -25q-162 0 -267 106t-105 270q0 163 105 269t267 106q119 0 211.5 -68t115.5 -172l-40 -10q-23 91 -104 150.5t-183 59.5q-143 1 -236.5 -94t-93.5 -241q0 -145 93.5 -240.5t236.5 -95.5q132 0 221 84.5t97 217.5h-405v41h449q1 -168 -100 -275.5t-262 -107.5z" />
    <glyph glyph-name="H" unicode="H" horiz-adv-x="703" 
d="M91 0v701h42v-315h436v315h43v-701h-43v345h-436v-345h-42z" />
    <glyph glyph-name="I" unicode="I" horiz-adv-x="225" 
d="M91 0v701h43v-701h-43z" />
    <glyph glyph-name="J" unicode="J" horiz-adv-x="440" 
d="M152 -20q-56 0 -119 20v40q68 -20 117 -20q71 0 114 49t43 141v491h42v-491q0 -110 -54.5 -170t-142.5 -60z" />
    <glyph glyph-name="K" unicode="K" horiz-adv-x="592" 
d="M91 0v701h42v-314h7l354 314h61l-375 -332l383 -369h-59l-364 352h-7v-352h-42z" />
    <glyph glyph-name="L" unicode="L" horiz-adv-x="555" 
d="M91 0v701h43v-661h391v-40h-434z" />
    <glyph glyph-name="M" unicode="M" horiz-adv-x="903" 
d="M91 0v701h69l288 -645h7l287 645h70v-701h-43v647h-6l-289 -647h-46l-288 645h-7v-645h-42z" />
    <glyph glyph-name="N" unicode="N" horiz-adv-x="703" 
d="M91 0v701h63l409 -646h7v646h42v-701h-63l-409 645h-7v-645h-42z" />
    <glyph glyph-name="O" unicode="O" horiz-adv-x="861" 
d="M430 -25q-162 0 -267 106t-105 270q0 163 105 269t267 106t267.5 -106t105.5 -269t-105.5 -269.5t-267.5 -106.5zM430 15q144 0 237 95t93 241t-93 240.5t-237 94.5q-143 0 -236 -94.5t-93 -240.5t93 -241t236 -95z" />
    <glyph glyph-name="P" unicode="P" horiz-adv-x="639" 
d="M92 0v701h256q116 0 179.5 -58t62.5 -153q0 -95 -63.5 -153t-178.5 -58h-215v-279h-41zM133 319h215q97 0 148.5 46.5t51.5 124.5q0 77 -51.5 124t-148.5 47h-215v-342z" />
    <glyph glyph-name="Q" unicode="Q" horiz-adv-x="862" 
d="M431 -25q-163 0 -267.5 106t-104.5 270t104.5 269.5t267.5 105.5t267.5 -105.5t104.5 -269.5q0 -160 -101 -266l95 -85h-59l-65 58q-100 -83 -242 -83zM431 15q123 0 210 71l-253 226h59l223 -199q91 94 91 238q0 145 -93.5 240t-236.5 95t-236.5 -95t-93.5 -240
q0 -146 93.5 -241t236.5 -95z" />
    <glyph glyph-name="R" unicode="R" horiz-adv-x="687" 
d="M91 0v701h294q113 0 178 -53.5t65 -145.5q0 -89 -65 -143t-171 -55h-31l265 -304h-54l-263 303h-175v-303h-43zM134 343h251q92 0 146 43t54 116q0 75 -53 117t-147 42h-251v-318z" />
    <glyph glyph-name="S" unicode="S" horiz-adv-x="688" 
d="M349 -25q-129 0 -205 67t-76 181l42 1q0 -97 64.5 -153t175.5 -56q104 0 166 44.5t62 118.5q0 33 -14.5 58t-30.5 39t-55.5 26.5t-59 16.5t-71.5 12q-7 1 -11 2q-46 7 -76 13.5t-67.5 21t-59.5 33t-37.5 50t-15.5 72.5q0 92 68.5 148t186.5 56q124 0 196 -62t73 -168
l-42 -1q-1 88 -61.5 139.5t-164.5 51.5q-98 0 -155.5 -45.5t-57.5 -117.5q0 -33 13.5 -57.5t31.5 -39t52 -26t59 -16.5t69 -12q37 -6 57 -9.5t53.5 -11.5t52.5 -16.5t42.5 -23t36 -32t21.5 -43t9 -56.5q0 -95 -73 -150t-198 -55z" />
    <glyph glyph-name="T" unicode="T" horiz-adv-x="573" 
d="M266 0v661h-247v40h536v-40h-247v-661h-42z" />
    <glyph glyph-name="U" unicode="U" horiz-adv-x="704" 
d="M352 -25q-121 0 -195.5 83.5t-74.5 219.5v423h43v-423q0 -119 62 -191t165 -72t165.5 72t62.5 191v423h42v-423q0 -136 -74.5 -219.5t-195.5 -83.5z" />
    <glyph glyph-name="V" unicode="V" horiz-adv-x="650" 
d="M293 0l-270 701h45l254 -663h7l254 663h45l-270 -701h-65z" />
    <glyph glyph-name="W" unicode="W" horiz-adv-x="998" 
d="M244 0l-210 701h43l198 -662h8l184 662h65l184 -662h8l198 662h42l-209 -701h-70l-181 655h-9l-181 -655h-70z" />
    <glyph glyph-name="X" unicode="X" horiz-adv-x="614" 
d="M33 0l246 371l-237 330h50l211 -298h7l213 298h51l-239 -330l247 -371h-50l-222 336h-7l-221 -336h-49z" />
    <glyph glyph-name="Y" unicode="Y" horiz-adv-x="576" 
d="M268 0v283l-245 418h47l215 -370h7l215 370h47l-244 -418v-283h-42z" />
    <glyph glyph-name="Z" unicode="Z" horiz-adv-x="612" 
d="M35 0v24l467 630v7h-457v40h523v-24l-466 -630v-7h476v-40h-543z" />
    <glyph glyph-name="bracketleft" unicode="[" horiz-adv-x="424" 
d="M91 -180v911h306v-36h-265v-839h265l-1 -36h-305z" />
    <glyph glyph-name="backslash" unicode="\" horiz-adv-x="396" 
d="M370 -230h-42l-302 931h43z" />
    <glyph glyph-name="bracketright" unicode="]" horiz-adv-x="423" 
d="M332 -180h-305v36h265v839h-265v36h305v-911z" />
    <glyph glyph-name="asciicircum" unicode="^" horiz-adv-x="553" 
d="M35 400l214 301h56l215 -301h-47l-192 272h-7l-193 -272h-46z" />
    <glyph glyph-name="underscore" unicode="_" horiz-adv-x="500" 
d="M0 -38v38h500v-38h-500z" />
    <glyph glyph-name="grave" unicode="`" horiz-adv-x="261" 
d="M160 615l-109 116h52l108 -116h-51z" />
    <glyph glyph-name="a" unicode="a" horiz-adv-x="541" 
d="M214 -19q-77 0 -122 34.5t-45 92.5q0 128 214 164l161 27v28q0 65 -42.5 106t-109.5 41q-68 0 -111.5 -37t-43.5 -95h-41q0 75 55 123t141 48q85 0 139 -52t54 -134v-327h-41v93h-6q-27 -54 -80.5 -83t-121.5 -29zM217 19q92 0 148.5 52.5t56.5 132.5v57l-156 -26
q-94 -17 -136 -48t-42 -79q0 -42 34.5 -65.5t94.5 -23.5z" />
    <glyph glyph-name="b" unicode="b" horiz-adv-x="662" 
d="M351 -20q-74 0 -131 37t-85 100h-7v-117h-40v731h40v-346h7q28 63 84.5 99.5t131.5 36.5q113 0 187 -76t74 -194t-74 -194.5t-187 -76.5zM349 19q96 0 159 66t63 166t-63 165.5t-159 65.5t-158.5 -65.5t-62.5 -165.5q0 -101 62.5 -166.5t158.5 -65.5z" />
    <glyph glyph-name="c" unicode="c" horiz-adv-x="597" 
d="M311 -20q-113 0 -187 76.5t-73 194.5q0 117 73.5 193.5t186.5 76.5q86 0 152.5 -50t82.5 -127l-40 -6q-17 63 -71.5 103.5t-123.5 40.5q-95 0 -157.5 -65.5t-62.5 -165.5q0 -101 62.5 -166.5t157.5 -65.5q70 0 124.5 38.5t70.5 97.5l40 -7q-18 -73 -84 -120.5t-151 -47.5
z" />
    <glyph glyph-name="d" unicode="d" horiz-adv-x="662" 
d="M311 -20q-113 0 -187 76.5t-74 194.5t73.5 194t186.5 76q75 0 132 -36.5t85 -99.5h6v346h41v-731h-41v117h-6q-28 -63 -85 -100t-131 -37zM312 19q96 0 159 66t63 166t-63 165.5t-159 65.5t-158.5 -65.5t-62.5 -165.5q0 -101 62.5 -166.5t158.5 -65.5z" />
    <glyph glyph-name="e" unicode="e" horiz-adv-x="632" 
d="M321 -20q-118 0 -194 76.5t-76 195.5q0 117 75.5 193t193.5 76q114 0 187.5 -76t73.5 -193v-15h-489q4 -96 68 -157t161 -61q69 0 127 38t81 97l38 -11q-26 -72 -94.5 -117.5t-151.5 -45.5zM93 276h446q-8 91 -69 148.5t-151 57.5q-94 0 -156.5 -57.5t-69.5 -148.5z" />
    <glyph glyph-name="f" unicode="f" horiz-adv-x="348" 
d="M129 0v464h-88v37h88v124q0 61 31.5 93.5t83.5 32.5q40 0 72 -10v-39q-34 10 -67 10q-37 0 -58 -22t-21 -66v-123h137v-37h-137v-464h-41z" />
    <glyph glyph-name="g" unicode="g" horiz-adv-x="662" 
d="M321 -250q-101 0 -173.5 53t-86.5 137l42 9q10 -70 71 -115t147 -45q94 0 153.5 59.5t59.5 153.5v110h-7q-32 -61 -88 -96t-128 -35q-113 0 -186.5 76t-73.5 194q0 117 73.5 193.5t186.5 76.5q73 0 129 -35.5t87 -97.5h7v113h40v-499q0 -111 -71 -181.5t-182 -70.5z
M313 20q97 0 159 65t62 166q0 100 -63 165.5t-158 65.5q-97 0 -159.5 -65t-62.5 -166q0 -100 63 -165.5t159 -65.5z" />
    <glyph glyph-name="h" unicode="h" 
d="M88 0v731h41v-321h6q25 51 73.5 81t109.5 30q94 0 150 -63.5t56 -164.5v-293h-41v293q0 84 -45.5 136.5t-123.5 52.5q-77 0 -131 -52t-54 -131v-299h-41z" />
    <glyph glyph-name="i" unicode="i" horiz-adv-x="228" 
d="M114 608q-16 0 -26 10t-10 26t10 26t26 10t26 -10t10 -26t-10 -26t-26 -10zM93 0v501h41v-501h-41z" />
    <glyph glyph-name="j" unicode="j" horiz-adv-x="226" 
d="M111 608q-16 0 -26 10t-10 26t10 26t26 10t26 -10t10 -26q0 -15 -10 -25.5t-26 -10.5zM21 -221q-34 0 -71 13v39q35 -13 65 -13q34 0 55 22t21 57v604h40v-603q0 -52 -31 -85.5t-79 -33.5z" />
    <glyph glyph-name="k" unicode="k" horiz-adv-x="464" 
d="M87 0v731h41v-453h7l252 223h60l-275 -240l283 -261h-59l-261 242h-7v-242h-41z" />
    <glyph glyph-name="l" unicode="l" horiz-adv-x="215" 
d="M87 0v731h41v-731h-41z" />
    <glyph glyph-name="m" unicode="m" horiz-adv-x="922" 
d="M88 0v501h40v-79h7q21 46 63 72.5t98 26.5q65 0 111 -33.5t62 -90.5h6q18 58 63.5 91t113.5 33q86 0 139.5 -59t53.5 -154v-308h-41v308q0 78 -42.5 126t-111.5 48q-73 0 -118 -48t-45 -126v-308h-41v308q0 79 -42.5 126.5t-111.5 47.5q-74 0 -118.5 -47.5t-44.5 -126.5
v-308h-41z" />
    <glyph glyph-name="n" unicode="n" 
d="M88 0v501h41v-92h6q25 52 73.5 82t109.5 30q94 0 150 -64t56 -165v-292h-41v292q0 84 -46 137t-123 53t-131 -52t-54 -131v-299h-41z" />
    <glyph glyph-name="o" unicode="o" horiz-adv-x="624" 
d="M312 -20q-114 0 -188 76.5t-74 194.5t74 194t188 76t188 -76t74 -194t-74 -194.5t-188 -76.5zM312 19q97 0 159.5 65.5t62.5 166.5t-62.5 166t-159.5 65q-96 0 -158.5 -65.5t-62.5 -165.5q0 -101 62.5 -166.5t158.5 -65.5z" />
    <glyph glyph-name="p" unicode="p" horiz-adv-x="662" 
d="M352 521q113 0 186.5 -76t73.5 -194t-73.5 -194.5t-186.5 -76.5q-75 0 -131.5 36.5t-84.5 99.5h-7v-346h-41v731h41v-117h7q28 64 84.5 100.5t131.5 36.5zM350 482q-96 0 -159 -65.5t-63 -165.5t63 -166t159 -66t158.5 65.5t62.5 166.5q0 100 -62.5 165.5t-158.5 65.5z
" />
    <glyph glyph-name="q" unicode="q" horiz-adv-x="662" 
d="M311 521q74 0 131 -37t85 -100h6v117h41v-731h-41v346h-6q-28 -63 -85 -99.5t-132 -36.5q-113 0 -186.5 76.5t-73.5 194.5t74 194t187 76zM312 482q-96 0 -158.5 -65.5t-62.5 -165.5q0 -101 62.5 -166.5t158.5 -65.5t159 66t63 166t-63 165.5t-159 65.5z" />
    <glyph glyph-name="r" unicode="r" horiz-adv-x="376" 
d="M88 0v501h40v-88h7q39 98 136 98q40 0 74 -16v-43q-34 20 -76 20q-64 0 -102 -53.5t-38 -140.5v-278h-41z" />
    <glyph glyph-name="s" unicode="s" horiz-adv-x="512" 
d="M267 -20q-97 0 -156.5 49.5t-59.5 129.5h40q1 -63 49.5 -102t126.5 -39q67 0 110.5 28.5t43.5 76.5q0 14 -3 26t-6 21.5t-12 17.5t-14 13t-19 10.5t-19.5 8t-23.5 6t-23.5 4.5t-26 4t-25.5 4q-33 5 -54.5 9.5t-49 14.5t-43.5 24.5t-27.5 38.5t-11.5 56q0 62 51.5 101
t134.5 39q89 0 143.5 -45.5t53.5 -120.5h-40q1 58 -42.5 93t-115.5 35q-65 0 -105 -27.5t-40 -71.5q0 -25 9.5 -43.5t21 -28.5t36.5 -18t40 -10.5t48 -7.5q39 -6 59.5 -10t53 -15t48.5 -25.5t29 -40t13 -60.5q0 -66 -54 -105.5t-140 -39.5z" />
    <glyph glyph-name="t" unicode="t" horiz-adv-x="347" 
d="M237 -12q-52 0 -84 35t-32 91v350h-89v37h89l4 153h37l-1 -153h138v-37h-138l1 -349q0 -40 21.5 -64.5t57.5 -24.5q35 0 68 10v-37q-30 -11 -72 -11z" />
    <glyph glyph-name="u" unicode="u" 
d="M514 501v-501h-41v92h-7q-25 -52 -73.5 -82t-109.5 -30q-93 0 -149.5 64.5t-56.5 164.5v292h41v-292q0 -84 46 -137t124 -53q77 0 131 52.5t54 130.5v299h41z" />
    <glyph glyph-name="v" unicode="v" horiz-adv-x="533" 
d="M235 0l-209 501h44l193 -466h6l193 466h44l-209 -501h-62z" />
    <glyph glyph-name="w" unicode="w" horiz-adv-x="830" 
d="M202 0l-174 501h43l158 -458h7l148 458h59l151 -458h6l158 458h43l-174 -501h-61l-149 455h-7l-147 -455h-61z" />
    <glyph glyph-name="x" unicode="x" horiz-adv-x="513" 
d="M35 0l194 261l-184 240h48l160 -208h6l160 208h48l-184 -240l194 -261h-48l-170 228h-6l-170 -228h-48z" />
    <glyph glyph-name="y" unicode="y" horiz-adv-x="538" 
d="M112 -221q-32 0 -63 11v39q37 -11 61 -11q21 0 39.5 10t31.5 23.5t29 41.5t25.5 49t26.5 62l-235 497h43l209 -441h7l181 441h43l-208 -503q-46 -113 -86 -166t-104 -53z" />
    <glyph glyph-name="z" unicode="z" horiz-adv-x="521" 
d="M39 0v23l364 432v7h-354v39h423v-23l-363 -432v-7h373v-39h-443z" />
    <glyph glyph-name="braceleft" unicode="{" horiz-adv-x="328" 
d="M242 -180q-49 0 -80 33.5t-31 85.5v240q0 32 -17.5 53t-45.5 21h-10v54h10q28 0 45.5 21t17.5 54v230q0 52 31 85.5t80 33.5h59v-36h-51q-34 0 -56.5 -24.5t-22.5 -62.5v-228q0 -40 -20.5 -66.5t-52.5 -29.5v-7q32 -3 52.5 -29.5t20.5 -66.5v-238q0 -38 22.5 -62.5
t56.5 -24.5h51v-36h-59z" />
    <glyph glyph-name="bar" unicode="|" horiz-adv-x="223" 
d="M92 -230v961h40v-961h-40z" />
    <glyph glyph-name="braceright" unicode="}" horiz-adv-x="328" 
d="M86 -180h-60v36h52q34 0 56 24.5t22 62.5v238q0 40 20.5 66.5t53.5 29.5v7q-33 3 -53.5 29.5t-20.5 66.5v228q0 38 -22 62.5t-56 24.5h-52v36h60q49 0 80 -33.5t31 -85.5v-230q0 -33 17.5 -54t45.5 -21h10v-54h-10q-28 0 -45.5 -20.5t-17.5 -53.5v-240q0 -52 -31 -85.5
t-80 -33.5z" />
    <glyph glyph-name="asciitilde" unicode="~" horiz-adv-x="593" 
d="M436 235q-41 0 -89 29.5t-94.5 59.5t-82.5 30q-54 0 -98 -46l-21 30q53 55 120 55q33 0 71.5 -18.5t67.5 -41t64.5 -41t63.5 -18.5q44 0 84 38l20 -30q-49 -47 -106 -47z" />
    <glyph glyph-name="exclamdown" unicode="&#xa1;" horiz-adv-x="179" 
d="M90 412q-16 0 -25.5 9.5t-9.5 24.5q0 16 9.5 26t25.5 10q15 0 25 -10t10 -25t-10 -25t-25 -10zM68 -230v181l4 333h35l4 -333v-181h-43z" />
    <glyph glyph-name="cent" unicode="&#xa2;" horiz-adv-x="597" 
d="M312 19q68 0 123 38.5t71 97.5l40 -7q-16 -67 -74.5 -113.5t-135.5 -53.5v-83h-41v82q-108 7 -176 82t-68 189q0 113 68 188t176 82v81h41v-82q78 -8 136.5 -56.5t73.5 -119.5l-40 -6q-16 63 -71 103.5t-123 40.5q-96 0 -158 -65t-62 -166t62 -166.5t158 -65.5z" />
    <glyph glyph-name="sterling" unicode="&#xa3;" horiz-adv-x="571" 
d="M50 0v59q34 5 56.5 28.5t38 85t15.5 161.5h-100v39h100v173q0 79 48 129.5t122 50.5q78 0 130.5 -56.5t56.5 -142.5h-40q-4 71 -44.5 116t-101.5 45q-57 0 -93.5 -40t-36.5 -102v-173h266v-39h-266q-1 -134 -28 -200t-78 -88v-7h425v-39h-470z" />
    <glyph glyph-name="currency" unicode="&#xa4;" horiz-adv-x="742" 
d="M87 -49l-28 26l107 107q-57 68 -57 167q0 98 57 166l-106 106l27 28l107 -106q71 66 178 66t179 -66l105 105l27 -27l-106 -106q57 -68 57 -166q0 -99 -57 -167l106 -106l-27 -27l-105 105q-71 -65 -179 -65t-178 65zM372 28q97 0 159 63t62 160t-62 159.5t-159 62.5
q-96 0 -159 -62.5t-63 -159.5t62.5 -160t159.5 -63z" />
    <glyph glyph-name="yen" unicode="&#xa5;" horiz-adv-x="647" 
d="M303 0v80h-256v37h256v128h-256v37h241l-255 419h49l238 -394h7l237 396l50 -2l-255 -419h241v-37h-255v-128h255v-37h-255v-80h-42z" />
    <glyph glyph-name="brokenbar" unicode="&#xa6;" horiz-adv-x="222" 
d="M91 329v402h40v-402h-40zM91 -230v402h40v-402h-40z" />
    <glyph glyph-name="section" unicode="&#xa7;" horiz-adv-x="593" 
d="M298 -155q-92 0 -150 52t-58 133h40q1 -64 47.5 -104.5t121.5 -40.5q71 0 117 37.5t46 96.5q0 24 -6.5 42.5t-22.5 31t-29.5 20.5t-40.5 13.5t-42.5 7.5t-48.5 6q-38 5 -60.5 8.5t-53.5 13t-48 23t-29.5 37.5t-12.5 56q0 48 34 82.5t94 44.5q-98 32 -98 134
q0 72 54.5 119t137.5 47q85 0 140.5 -52.5t54.5 -132.5h-40q0 63 -44 104t-111 41q-66 0 -108.5 -35t-42.5 -89q0 -23 6.5 -41t22 -30.5t28.5 -20t39.5 -13.5t42 -9t47.5 -7q39 -6 60 -9.5t52 -13.5t47 -23t28.5 -36.5t12.5 -54.5q0 -50 -32.5 -83.5t-92.5 -43.5
q104 -31 104 -134q0 -77 -58.5 -127t-147.5 -50zM314 174q82 2 126 29.5t44 76.5q0 30 -15 50t-42 29.5t-50.5 14t-53.5 7.5q-9 1 -13 1q-14 1 -35 5q-77 -3 -121.5 -32t-44.5 -74q0 -20 6 -36t20.5 -26t26.5 -17t37 -12t39 -7t44 -5q6 -1 16.5 -2.5t15.5 -1.5z" />
    <glyph glyph-name="dieresis" unicode="&#xa8;" horiz-adv-x="379" 
d="M85 608q-16 0 -25.5 9.5t-9.5 25.5t9.5 25.5t25.5 9.5t25.5 -9.5t9.5 -25.5t-9.5 -25.5t-25.5 -9.5zM293 608q-16 0 -25.5 9.5t-9.5 25.5t9.5 25.5t25.5 9.5t25.5 -9.5t9.5 -25.5t-9.5 -25.5t-25.5 -9.5z" />
    <glyph glyph-name="copyright" unicode="&#xa9;" horiz-adv-x="891" 
d="M445 -135q-168 0 -277 109t-109 277q0 164 109.5 274.5t276.5 110.5q169 0 278 -108.5t109 -276.5t-109 -277t-278 -109zM446 -99q152 0 251 98.5t99 251.5q0 149 -99.5 249t-250.5 100q-152 0 -251 -100t-99 -249q0 -153 98.5 -251.5t251.5 -98.5zM446 -19
q-113 0 -187 76t-74 194q0 117 74 193.5t189 76.5q79 0 144.5 -43.5t86.5 -110.5l-34 -9q-23 58 -77 92.5t-121 34.5q-97 0 -160.5 -66.5t-63.5 -167.5q0 -104 62.5 -169.5t161.5 -65.5q67 0 123 37t78 94l32 -12q-23 -67 -89 -110.5t-145 -43.5z" />
    <glyph glyph-name="guillemotleft" unicode="&#xab;" horiz-adv-x="575" 
d="M241 0l-206 251l207 250h51l-208 -250l208 -251h-52zM464 0l-206 251l207 250h51l-207 -250l207 -251h-52z" />
    <glyph glyph-name="logicalnot" unicode="&#xac;" horiz-adv-x="630" 
d="M533 70v233h-482v39h519v-272h-37z" />
    <glyph glyph-name="registered" unicode="&#xae;" horiz-adv-x="891" 
d="M445 -132q-168 0 -277 108.5t-109 276.5q0 164 109.5 274.5t276.5 110.5q169 0 278 -108.5t109 -276.5t-109 -276.5t-278 -108.5zM446 -97q152 0 251 99t99 251q0 149 -99.5 249.5t-250.5 100.5q-152 0 -251 -100t-99 -250q0 -152 98.5 -251t251.5 -99zM292 12v492h187
q73 0 121 -41.5t48 -105.5q0 -63 -48 -104t-121 -41h-4l168 -200h-45l-168 200h-101v-200h-37zM329 247h148q59 0 96.5 30.5t37.5 79.5t-38 80t-97 31h-147v-221z" />
    <glyph glyph-name="macron" unicode="&#xaf;" horiz-adv-x="382" 
d="M51 616v38h281v-38h-281z" />
    <glyph glyph-name="degree" unicode="&#xb0;" horiz-adv-x="503" 
d="M252 347q-91 0 -146 53.5t-55 140.5q0 88 55 141.5t146 53.5q90 0 145 -53.5t55 -141.5q0 -87 -55 -140.5t-145 -53.5zM253 383q73 0 117.5 43.5t44.5 114.5q0 72 -44.5 115.5t-117.5 43.5q-74 0 -119.5 -43.5t-45.5 -115.5q0 -71 45.5 -114.5t119.5 -43.5z" />
    <glyph glyph-name="plusminus" unicode="&#xb1;" horiz-adv-x="555" 
d="M257 270v144h-206v39h206v132h41v-132h207v-39h-207v-144h-41zM51 118v40h454v-40h-454z" />
    <glyph glyph-name="acute" unicode="&#xb4;" horiz-adv-x="260" 
d="M102 615h-52l109 116h51z" />
    <glyph glyph-name="uni00B5" unicode="&#xb5;" horiz-adv-x="568" 
d="M87 -173v674h41v-298q0 -78 42 -121t113 -43q62 0 109.5 45.5t47.5 119.5v297h41v-501h-40v88q-26 -43 -69 -65.5t-91 -22.5q-109 0 -153 82v-255h-41z" />
    <glyph glyph-name="paragraph" unicode="&#xb6;" horiz-adv-x="656" 
d="M272 -228v565q-100 0 -160.5 50t-60.5 132t61 132t160 50h304v-37h-91v-892h-39v892h-135v-892h-39z" />
    <glyph glyph-name="periodcentered" unicode="&#xb7;" horiz-adv-x="172" 
d="M86 255q-16 0 -25.5 10t-9.5 25t9.5 25t25.5 10q15 0 25 -10t10 -25t-10 -25t-25 -10z" />
    <glyph glyph-name="cedilla" unicode="&#xb8;" horiz-adv-x="309" 
d="M155 -246q-40 0 -68.5 22.5t-35.5 58.5l33 8q6 -26 25.5 -41.5t46.5 -15.5q29 0 48 17.5t19 43.5q0 28 -22.5 45.5t-57.5 17.5h-38l11 96h37l-9 -64q50 0 82 -26t32 -68q0 -40 -29 -67t-74 -27z" />
    <glyph glyph-name="guillemotright" unicode="&#xbb;" horiz-adv-x="574" 
d="M58 0l208 251l-208 250h52l207 -250l-207 -251h-52zM282 0l208 251l-208 250h51l207 -250l-206 -251h-52z" />
    <glyph glyph-name="questiondown" unicode="&#xbf;" horiz-adv-x="546" 
d="M295 425q-15 0 -25 9.5t-10 24.5q0 16 10 26t25 10q16 0 26 -10t10 -26q0 -14 -10 -24t-26 -10zM266 -242q-92 0 -152 57.5t-60 148.5q0 68 33.5 112t94.5 83q53 35 72.5 66.5t19.5 93.5h41q0 -75 -25 -114.5t-90 -81.5q-48 -31 -76 -67t-28 -93q0 -73 48 -119t122 -46
q79 0 129 52.5t55 135.5h43q-5 -100 -67.5 -164t-159.5 -64z" />
    <glyph glyph-name="Agrave" unicode="&#xc0;" horiz-adv-x="652" 
d="M351 774h-53l-92 94h54zM23 0l273 701h62l272 -701h-43l-72 183h-377l-72 -183h-43zM152 223h349l-171 438h-7z" />
    <glyph glyph-name="Aacute" unicode="&#xc1;" horiz-adv-x="652" 
d="M302 774l92 94h54l-92 -94h-54zM23 0l273 701h62l272 -701h-43l-72 183h-377l-72 -183h-43zM152 223h349l-171 438h-7z" />
    <glyph glyph-name="Acircumflex" unicode="&#xc2;" horiz-adv-x="652" 
d="M301 868h52l101 -94h-53l-70 64h-7l-72 -64h-53zM23 0l273 701h62l272 -701h-43l-72 183h-377l-72 -183h-43zM152 223h349l-171 438h-7z" />
    <glyph glyph-name="Atilde" unicode="&#xc3;" horiz-adv-x="652" 
d="M388 784q-34 0 -68.5 25.5t-57.5 25.5q-40 0 -63 -37l-28 18q11 24 36 39t56 15q33 0 67.5 -25.5t59.5 -25.5q46 0 65 39l30 -16q-11 -26 -37.5 -42t-59.5 -16zM23 0l273 701h62l272 -701h-43l-72 183h-377l-72 -183h-43zM152 223h349l-171 438h-7z" />
    <glyph glyph-name="Adieresis" unicode="&#xc4;" horiz-adv-x="652" 
d="M224 790q-16 0 -26 10t-10 26q0 15 10 25.5t26 10.5q15 0 25.5 -10.5t10.5 -25.5q0 -16 -10.5 -26t-25.5 -10zM430 790q-16 0 -26 10t-10 26q0 15 10 25.5t26 10.5t26 -10.5t10 -25.5q0 -16 -10 -26t-26 -10zM23 0l273 701h62l272 -701h-43l-72 183h-377l-72 -183h-43z
M152 223h349l-171 438h-7z" />
    <glyph glyph-name="Aring" unicode="&#xc5;" horiz-adv-x="652" 
d="M327 762q-38 0 -63 24.5t-25 62.5q0 37 25 61.5t63 24.5t63 -24.5t25 -61.5t-25 -62t-63 -25zM327 794q24 0 39.5 15.5t15.5 39.5t-15.5 39t-39.5 15t-39.5 -15t-15.5 -39t15 -39.5t40 -15.5zM23 0l273 701h62l272 -701h-43l-72 183h-377l-72 -183h-43zM152 223h349
l-171 438h-7z" />
    <glyph glyph-name="AE" unicode="&#xc6;" horiz-adv-x="884" 
d="M23 0l365 701h438v-40h-362v-285h322v-39h-322v-297h372v-40h-414v156h-269l-82 -156h-48zM173 195h249v468h-7z" />
    <glyph glyph-name="Ccedilla" unicode="&#xc7;" horiz-adv-x="816" 
d="M424 15q107 0 189.5 62t103.5 153l40 -9q-22 -100 -110.5 -170t-204.5 -76l-4 -33q50 0 82 -26t32 -68q0 -40 -29 -67t-74 -27q-40 0 -68.5 22.5t-36.5 58.5l34 8q5 -26 24.5 -41.5t46.5 -15.5q30 0 49 17.5t19 43.5q0 28 -22.5 45.5t-58.5 17.5h-38l8 65
q-153 7 -250 112t-97 264q0 164 102.5 269.5t262.5 105.5q120 0 215 -73.5t119 -181.5l-42 -7q-21 94 -104 158t-188 64q-142 0 -232 -94t-90 -241t90.5 -241.5t231.5 -94.5z" />
    <glyph glyph-name="Egrave" unicode="&#xc8;" horiz-adv-x="625" 
d="M356 774h-53l-92 94h54zM92 0v701h473v-40h-431v-276h391v-40h-391v-305h441v-40h-483z" />
    <glyph glyph-name="Eacute" unicode="&#xc9;" horiz-adv-x="625" 
d="M307 774l92 94h54l-92 -94h-54zM92 0v701h473v-40h-431v-276h391v-40h-391v-305h441v-40h-483z" />
    <glyph glyph-name="Ecircumflex" unicode="&#xca;" horiz-adv-x="625" 
d="M306 868h52l101 -94h-53l-70 64h-7l-72 -64h-53zM92 0v701h473v-40h-431v-276h391v-40h-391v-305h441v-40h-483z" />
    <glyph glyph-name="Edieresis" unicode="&#xcb;" horiz-adv-x="625" 
d="M229 790q-16 0 -26 10t-10 26q0 15 10 25.5t26 10.5q15 0 25.5 -10.5t10.5 -25.5q0 -16 -10.5 -26t-25.5 -10zM435 790q-16 0 -26 10t-10 26q0 15 10 25.5t26 10.5t26 -10.5t10 -25.5q0 -16 -10 -26t-26 -10zM92 0v701h473v-40h-431v-276h391v-40h-391v-305h441v-40h-483
z" />
    <glyph glyph-name="Igrave" unicode="&#xcc;" horiz-adv-x="225" 
d="M136 774h-53l-93 94h55zM92 0v701h42v-701h-42z" />
    <glyph glyph-name="Iacute" unicode="&#xcd;" horiz-adv-x="225" 
d="M87 774l91 94h55l-93 -94h-53zM92 0v701h42v-701h-42z" />
    <glyph glyph-name="Icircumflex" unicode="&#xce;" horiz-adv-x="225" 
d="M85 868h51l102 -94h-53l-71 64h-7l-71 -64h-53zM92 0v701h42v-701h-42z" />
    <glyph glyph-name="Idieresis" unicode="&#xcf;" horiz-adv-x="225" 
d="M8 790q-15 0 -25.5 10t-10.5 26q0 15 10.5 25.5t25.5 10.5q16 0 26 -10.5t10 -25.5q0 -16 -10 -26t-26 -10zM215 790q-16 0 -26 10t-10 26q0 15 10 25.5t26 10.5q15 0 25.5 -10.5t10.5 -25.5q0 -16 -10.5 -26t-25.5 -10zM92 0v701h42v-701h-42z" />
    <glyph glyph-name="Ntilde" unicode="&#xd1;" horiz-adv-x="703" 
d="M422 784q-34 0 -68.5 25.5t-57.5 25.5q-40 0 -63 -37l-29 18q11 24 36.5 39t56.5 15q32 0 67 -25.5t60 -25.5q47 0 64 39l31 -16q-11 -26 -37.5 -42t-59.5 -16zM91 0v701h63l409 -646h7v646h42v-701h-63l-409 645h-7v-645h-42z" />
    <glyph glyph-name="Ograve" unicode="&#xd2;" horiz-adv-x="861" 
d="M455 774h-53l-93 94h55zM430 -25q-162 0 -267 106t-105 270q0 163 105 269t267 106t267.5 -106t105.5 -269t-105.5 -269.5t-267.5 -106.5zM430 15q144 0 237 95t93 241t-93 240.5t-237 94.5q-143 0 -236 -94.5t-93 -240.5t93 -241t236 -95z" />
    <glyph glyph-name="Oacute" unicode="&#xd3;" horiz-adv-x="861" 
d="M406 774l91 94h55l-93 -94h-53zM430 -25q-162 0 -267 106t-105 270q0 163 105 269t267 106t267.5 -106t105.5 -269t-105.5 -269.5t-267.5 -106.5zM430 15q144 0 237 95t93 241t-93 240.5t-237 94.5q-143 0 -236 -94.5t-93 -240.5t93 -241t236 -95z" />
    <glyph glyph-name="Ocircumflex" unicode="&#xd4;" horiz-adv-x="861" 
d="M405 868h51l102 -94h-53l-71 64h-7l-72 -64h-53zM430 -25q-162 0 -267 106t-105 270q0 163 105 269t267 106t267.5 -106t105.5 -269t-105.5 -269.5t-267.5 -106.5zM430 15q144 0 237 95t93 241t-93 240.5t-237 94.5q-143 0 -236 -94.5t-93 -240.5t93 -241t236 -95z" />
    <glyph glyph-name="Otilde" unicode="&#xd5;" horiz-adv-x="861" 
d="M492 784q-34 0 -68.5 25.5t-57.5 25.5q-40 0 -63 -37l-29 18q11 24 36.5 39t56.5 15q32 0 66.5 -25.5t59.5 -25.5q48 0 65 39l31 -16q-11 -26 -37.5 -42t-59.5 -16zM430 -25q-162 0 -267 106t-105 270q0 163 105 269t267 106t267.5 -106t105.5 -269t-105.5 -269.5
t-267.5 -106.5zM430 15q144 0 237 95t93 241t-93 240.5t-237 94.5q-143 0 -236 -94.5t-93 -240.5t93 -241t236 -95z" />
    <glyph glyph-name="Odieresis" unicode="&#xd6;" horiz-adv-x="861" 
d="M327 790q-15 0 -25.5 10t-10.5 26q0 15 10.5 25.5t25.5 10.5q16 0 26 -10.5t10 -25.5q0 -16 -10 -26t-26 -10zM533 790q-15 0 -25.5 10t-10.5 26q0 15 10.5 25.5t25.5 10.5q16 0 26 -10.5t10 -25.5q0 -16 -10 -26t-26 -10zM430 -25q-162 0 -267 106t-105 270
q0 163 105 269t267 106t267.5 -106t105.5 -269t-105.5 -269.5t-267.5 -106.5zM430 15q144 0 237 95t93 241t-93 240.5t-237 94.5q-143 0 -236 -94.5t-93 -240.5t93 -241t236 -95z" />
    <glyph glyph-name="multiply" unicode="&#xd7;" horiz-adv-x="371" 
d="M78 207l-27 26l109 118l-109 117l27 26l107 -115l108 115l28 -26l-110 -117l110 -118l-28 -26l-108 116z" />
    <glyph glyph-name="Oslash" unicode="&#xd8;" horiz-adv-x="842" 
d="M165 -140l80 158q-87 46 -136.5 133.5t-49.5 199.5q0 163 102.5 269t259.5 106q88 0 163 -36l86 170h45l-96 -190q77 -49 120.5 -132t43.5 -187q0 -164 -102.5 -270t-259.5 -106q-76 0 -140 26l-71 -141h-45zM263 55l303 598q-68 33 -145 33q-139 0 -229.5 -95
t-90.5 -240q0 -98 43.5 -176t118.5 -120zM421 15q140 0 230 94.5t90 241.5q0 91 -37.5 164.5t-103.5 117.5l-301 -595q57 -23 122 -23z" />
    <glyph glyph-name="Ugrave" unicode="&#xd9;" horiz-adv-x="704" 
d="M378 774h-54l-92 94h54zM353 -25q-121 0 -195.5 83.5t-74.5 219.5v423h42v-423q0 -119 62.5 -191t165.5 -72t165 72t62 191v423h42v-423q0 -136 -74 -219.5t-195 -83.5z" />
    <glyph glyph-name="Uacute" unicode="&#xda;" horiz-adv-x="704" 
d="M328 774l92 94h54l-92 -94h-54zM353 -25q-121 0 -195.5 83.5t-74.5 219.5v423h42v-423q0 -119 62.5 -191t165.5 -72t165 72t62 191v423h42v-423q0 -136 -74 -219.5t-195 -83.5z" />
    <glyph glyph-name="Ucircumflex" unicode="&#xdb;" horiz-adv-x="704" 
d="M327 868h52l102 -94h-53l-71 64h-7l-72 -64h-53zM353 -25q-121 0 -195.5 83.5t-74.5 219.5v423h42v-423q0 -119 62.5 -191t165.5 -72t165 72t62 191v423h42v-423q0 -136 -74 -219.5t-195 -83.5z" />
    <glyph glyph-name="Udieresis" unicode="&#xdc;" horiz-adv-x="704" 
d="M250 790q-16 0 -26 10t-10 26q0 15 10 25.5t26 10.5q15 0 25.5 -10.5t10.5 -25.5q0 -16 -10.5 -26t-25.5 -10zM456 790q-16 0 -26 10t-10 26q0 15 10 25.5t26 10.5t26 -10.5t10 -25.5q0 -16 -10 -26t-26 -10zM353 -25q-121 0 -195.5 83.5t-74.5 219.5v423h42v-423
q0 -119 62.5 -191t165.5 -72t165 72t62 191v423h42v-423q0 -136 -74 -219.5t-195 -83.5z" />
    <glyph glyph-name="Yacute" unicode="&#xdd;" horiz-adv-x="576" 
d="M264 774l92 94h54l-92 -94h-54zM268 0v283l-245 418h47l215 -370h7l215 370h47l-244 -418v-283h-42z" />
    <glyph glyph-name="germandbls" unicode="&#xdf;" horiz-adv-x="638" 
d="M365 -25q-76 0 -137 35v46q58 -41 135 -41q75 0 121 44.5t46 116.5q0 82 -66 130.5t-173 48.5h-35v40h37q77 0 127 37t50 98t-46 103.5t-116 42.5q-81 0 -133 -55.5t-52 -142.5v-478h-42v480q0 103 64 170t163 67q87 0 145.5 -53.5t58.5 -130.5q0 -122 -141 -152v-7
q92 -11 146.5 -64t54.5 -137q0 -85 -59 -141.5t-148 -56.5z" />
    <glyph glyph-name="agrave" unicode="&#xe0;" horiz-adv-x="541" 
d="M246 615l-109 116h52l108 -116h-51zM214 -19q-77 0 -122 34.5t-45 92.5q0 128 214 164l161 27v28q0 65 -42.5 106t-109.5 41q-68 0 -111.5 -37t-43.5 -95h-41q0 75 55 123t141 48q85 0 139 -52t54 -134v-327h-41v93h-6q-27 -54 -80.5 -83t-121.5 -29zM217 19
q92 0 148.5 52.5t56.5 132.5v57l-156 -26q-94 -17 -136 -48t-42 -79q0 -42 34.5 -65.5t94.5 -23.5z" />
    <glyph glyph-name="aacute" unicode="&#xe1;" horiz-adv-x="541" 
d="M298 615h-51l108 116h52zM214 -19q-77 0 -122 34.5t-45 92.5q0 128 214 164l161 27v28q0 65 -42.5 106t-109.5 41q-68 0 -111.5 -37t-43.5 -95h-41q0 75 55 123t141 48q85 0 139 -52t54 -134v-327h-41v93h-6q-27 -54 -80.5 -83t-121.5 -29zM217 19q92 0 148.5 52.5
t56.5 132.5v57l-156 -26q-94 -17 -136 -48t-42 -79q0 -42 34.5 -65.5t94.5 -23.5z" />
    <glyph glyph-name="acircumflex" unicode="&#xe2;" horiz-adv-x="541" 
d="M148 615l99 116h51l99 -116h-48l-73 83h-7l-74 -83h-47zM214 -19q-77 0 -122 34.5t-45 92.5q0 128 214 164l161 27v28q0 65 -42.5 106t-109.5 41q-68 0 -111.5 -37t-43.5 -95h-41q0 75 55 123t141 48q85 0 139 -52t54 -134v-327h-41v93h-6q-27 -54 -80.5 -83t-121.5 -29z
M217 19q92 0 148.5 52.5t56.5 132.5v57l-156 -26q-94 -17 -136 -48t-42 -79q0 -42 34.5 -65.5t94.5 -23.5z" />
    <glyph glyph-name="atilde" unicode="&#xe3;" horiz-adv-x="541" 
d="M330 615q-34 0 -73.5 29.5t-61.5 29.5q-38 0 -59 -36l-28 19q11 24 35.5 39t51.5 15q31 0 72 -30t63 -30q20 0 37 10.5t24 27.5l32 -17q-11 -25 -37 -41t-56 -16zM214 -19q-77 0 -122 34.5t-45 92.5q0 128 214 164l161 27v28q0 65 -42.5 106t-109.5 41q-68 0 -111.5 -37
t-43.5 -95h-41q0 75 55 123t141 48q85 0 139 -52t54 -134v-327h-41v93h-6q-27 -54 -80.5 -83t-121.5 -29zM217 19q92 0 148.5 52.5t56.5 132.5v57l-156 -26q-94 -17 -136 -48t-42 -79q0 -42 34.5 -65.5t94.5 -23.5z" />
    <glyph glyph-name="adieresis" unicode="&#xe4;" horiz-adv-x="541" 
d="M167 608q-16 0 -25.5 9.5t-9.5 25.5t9.5 25.5t25.5 9.5t25.5 -9.5t9.5 -25.5t-9.5 -25.5t-25.5 -9.5zM375 608q-16 0 -25.5 9.5t-9.5 25.5t9.5 25.5t25.5 9.5t25.5 -9.5t9.5 -25.5t-9.5 -25.5t-25.5 -9.5zM214 -19q-77 0 -122 34.5t-45 92.5q0 128 214 164l161 27v28
q0 65 -42.5 106t-109.5 41q-68 0 -111.5 -37t-43.5 -95h-41q0 75 55 123t141 48q85 0 139 -52t54 -134v-327h-41v93h-6q-27 -54 -80.5 -83t-121.5 -29zM217 19q92 0 148.5 52.5t56.5 132.5v57l-156 -26q-94 -17 -136 -48t-42 -79q0 -42 34.5 -65.5t94.5 -23.5z" />
    <glyph glyph-name="aring" unicode="&#xe5;" horiz-adv-x="541" 
d="M272 574q-43 0 -70.5 27t-27.5 69q0 43 27.5 70t70.5 27t70.5 -27t27.5 -70q0 -42 -27.5 -69t-70.5 -27zM272 603q29 0 48 19t19 48t-19 48.5t-48 19.5t-48 -19.5t-19 -48.5t19 -48t48 -19zM214 -19q-77 0 -122 34.5t-45 92.5q0 128 214 164l161 27v28q0 65 -42.5 106
t-109.5 41q-68 0 -111.5 -37t-43.5 -95h-41q0 75 55 123t141 48q85 0 139 -52t54 -134v-327h-41v93h-6q-27 -54 -80.5 -83t-121.5 -29zM217 19q92 0 148.5 52.5t56.5 132.5v57l-156 -26q-94 -17 -136 -48t-42 -79q0 -42 34.5 -65.5t94.5 -23.5z" />
    <glyph glyph-name="ae" unicode="&#xe6;" horiz-adv-x="973" 
d="M282 521q75 0 128.5 -37.5t68.5 -99.5q67 137 211 137q102 0 167.5 -76t65.5 -193v-15h-433q4 -95 60.5 -156.5t140.5 -61.5q59 0 107.5 37t71.5 98l38 -11q-25 -72 -84 -117.5t-132 -45.5q-77 0 -136.5 43.5t-85.5 116.5q-20 -75 -82 -117t-151 -42q-83 0 -136.5 41
t-53.5 105q0 75 63.5 111.5t174.5 50.5l162 19v28q0 64 -46 105t-119 41t-120 -37t-47 -94h-41q0 74 58.5 122t149.5 48zM689 482q-82 0 -136.5 -57.5t-61.5 -149.5h389q-8 92 -60.5 149.5t-130.5 57.5zM285 251q-96 -11 -146.5 -39.5t-50.5 -85.5q0 -47 42.5 -77t108.5 -30
q94 0 151 52.5t57 133.5v65z" />
    <glyph glyph-name="ccedilla" unicode="&#xe7;" horiz-adv-x="597" 
d="M312 19q68 0 123 38.5t71 97.5l40 -7q-17 -69 -77.5 -116t-139.5 -51l-5 -39q50 0 82 -26t32 -68q0 -40 -29 -67t-74 -27q-41 0 -69 22.5t-36 58.5l34 8q5 -26 24.5 -41.5t46.5 -15.5q30 0 49 17.5t19 43.5q0 28 -22.5 45.5t-58.5 17.5h-38l9 71q-107 7 -174.5 82
t-67.5 188q0 118 73.5 194t187.5 76q85 0 151.5 -50t82.5 -127l-40 -6q-16 63 -71 103.5t-123 40.5q-96 0 -158 -65t-62 -166t62 -166.5t158 -65.5z" />
    <glyph glyph-name="egrave" unicode="&#xe8;" horiz-adv-x="632" 
d="M294 615l-108 116h51l109 -116h-52zM322 -20q-118 0 -194.5 76.5t-76.5 195.5q0 117 76 193t194 76q114 0 187.5 -76t73.5 -193v-15h-490q4 -96 68.5 -157t161.5 -61q69 0 127 38t80 97l38 -11q-26 -72 -94 -117.5t-151 -45.5zM93 276h446q-7 91 -67.5 148.5t-151.5 57.5
q-93 0 -156 -57.5t-71 -148.5z" />
    <glyph glyph-name="eacute" unicode="&#xe9;" horiz-adv-x="632" 
d="M347 615h-52l109 116h51zM322 -20q-118 0 -194.5 76.5t-76.5 195.5q0 117 76 193t194 76q114 0 187.5 -76t73.5 -193v-15h-490q4 -96 68.5 -157t161.5 -61q69 0 127 38t80 97l38 -11q-26 -72 -94 -117.5t-151 -45.5zM93 276h446q-7 91 -67.5 148.5t-151.5 57.5
q-93 0 -156 -57.5t-71 -148.5z" />
    <glyph glyph-name="ecircumflex" unicode="&#xea;" horiz-adv-x="632" 
d="M197 615l98 116h51l99 -116h-47l-74 83h-7l-73 -83h-47zM322 -20q-118 0 -194.5 76.5t-76.5 195.5q0 117 76 193t194 76q114 0 187.5 -76t73.5 -193v-15h-490q4 -96 68.5 -157t161.5 -61q69 0 127 38t80 97l38 -11q-26 -72 -94 -117.5t-151 -45.5zM93 276h446
q-7 91 -67.5 148.5t-151.5 57.5q-93 0 -156 -57.5t-71 -148.5z" />
    <glyph glyph-name="edieresis" unicode="&#xeb;" horiz-adv-x="632" 
d="M216 608q-16 0 -25.5 9.5t-9.5 25.5t9.5 25.5t25.5 9.5t25.5 -9.5t9.5 -25.5t-9.5 -25.5t-25.5 -9.5zM424 608q-16 0 -25.5 9.5t-9.5 25.5t9.5 25.5t25.5 9.5t25.5 -9.5t9.5 -25.5t-9.5 -25.5t-25.5 -9.5zM322 -20q-118 0 -194.5 76.5t-76.5 195.5q0 117 76 193t194 76
q114 0 187.5 -76t73.5 -193v-15h-490q4 -96 68.5 -157t161.5 -61q69 0 127 38t80 97l38 -11q-26 -72 -94 -117.5t-151 -45.5zM93 276h446q-7 91 -67.5 148.5t-151.5 57.5q-93 0 -156 -57.5t-71 -148.5z" />
    <glyph glyph-name="igrave" unicode="&#xec;" horiz-adv-x="200" 
d="M74 615l-108 116h51l109 -116h-52zM80 0v501h41v-501h-41z" />
    <glyph glyph-name="iacute" unicode="&#xed;" horiz-adv-x="200" 
d="M127 615h-52l109 116h51zM80 0v501h41v-501h-41z" />
    <glyph glyph-name="icircumflex" unicode="&#xee;" horiz-adv-x="200" 
d="M-23 615l98 116h51l99 -116h-47l-74 83h-6l-74 -83h-47zM80 0v501h41v-501h-41z" />
    <glyph glyph-name="idieresis" unicode="&#xef;" horiz-adv-x="200" 
d="M-4 608q-16 0 -25.5 9.5t-9.5 25.5t9.5 25.5t25.5 9.5t25.5 -9.5t9.5 -25.5t-9.5 -25.5t-25.5 -9.5zM204 608q-16 0 -25.5 9.5t-9.5 25.5t9.5 25.5t25.5 9.5t25.5 -9.5t9.5 -25.5t-9.5 -25.5t-25.5 -9.5zM80 0v501h41v-501h-41z" />
    <glyph glyph-name="ntilde" unicode="&#xf1;" 
d="M373 615q-34 0 -73.5 29.5t-60.5 29.5q-38 0 -59 -36l-28 19q11 24 35 39t51 15q32 0 72.5 -30t62.5 -30q20 0 37 10.5t25 27.5l31 -17q-11 -25 -37 -41t-56 -16zM88 0v501h41v-92h7q24 52 72.5 82t110.5 30q93 0 149.5 -64.5t56.5 -164.5v-292h-41v292q0 84 -46 137
t-124 53q-77 0 -131 -52t-54 -131v-299h-41z" />
    <glyph glyph-name="ograve" unicode="&#xf2;" horiz-adv-x="624" 
d="M286 615l-109 116h52l109 -116h-52zM312 -20q-114 0 -188 76.5t-74 194.5t74 194t188 76q115 0 188.5 -76t73.5 -194q0 -119 -73.5 -195t-188.5 -76zM312 19q96 0 159 65.5t63 166.5q0 100 -63 165.5t-159 65.5t-158.5 -65.5t-62.5 -165.5q0 -101 62.5 -166.5
t158.5 -65.5z" />
    <glyph glyph-name="oacute" unicode="&#xf3;" horiz-adv-x="624" 
d="M339 615h-52l108 116h52zM312 -20q-114 0 -188 76.5t-74 194.5t74 194t188 76q115 0 188.5 -76t73.5 -194q0 -119 -73.5 -195t-188.5 -76zM312 19q96 0 159 65.5t63 166.5q0 100 -63 165.5t-159 65.5t-158.5 -65.5t-62.5 -165.5q0 -101 62.5 -166.5t158.5 -65.5z" />
    <glyph glyph-name="ocircumflex" unicode="&#xf4;" horiz-adv-x="624" 
d="M188 615l99 116h51l99 -116h-48l-73 83h-7l-73 -83h-48zM312 -20q-114 0 -188 76.5t-74 194.5t74 194t188 76q115 0 188.5 -76t73.5 -194q0 -119 -73.5 -195t-188.5 -76zM312 19q96 0 159 65.5t63 166.5q0 100 -63 165.5t-159 65.5t-158.5 -65.5t-62.5 -165.5
q0 -101 62.5 -166.5t158.5 -65.5z" />
    <glyph glyph-name="otilde" unicode="&#xf5;" horiz-adv-x="624" 
d="M370 615q-34 0 -73.5 29.5t-60.5 29.5q-38 0 -59 -36l-28 19q10 24 34.5 39t51.5 15q32 0 72.5 -30t62.5 -30q20 0 37 10.5t25 27.5l31 -17q-11 -25 -37 -41t-56 -16zM312 -20q-114 0 -188 76.5t-74 194.5t74 194t188 76q115 0 188.5 -76t73.5 -194q0 -119 -73.5 -195
t-188.5 -76zM312 19q96 0 159 65.5t63 166.5q0 100 -63 165.5t-159 65.5t-158.5 -65.5t-62.5 -165.5q0 -101 62.5 -166.5t158.5 -65.5z" />
    <glyph glyph-name="odieresis" unicode="&#xf6;" horiz-adv-x="624" 
d="M207 608q-16 0 -25.5 9.5t-9.5 25.5t9.5 25.5t25.5 9.5t25.5 -9.5t9.5 -25.5t-9.5 -25.5t-25.5 -9.5zM415 608q-16 0 -25.5 9.5t-9.5 25.5t9.5 25.5t25.5 9.5t25.5 -9.5t9.5 -25.5t-9.5 -25.5t-25.5 -9.5zM312 -20q-114 0 -188 76.5t-74 194.5t74 194t188 76
q115 0 188.5 -76t73.5 -194q0 -119 -73.5 -195t-188.5 -76zM312 19q96 0 159 65.5t63 166.5q0 100 -63 165.5t-159 65.5t-158.5 -65.5t-62.5 -165.5q0 -101 62.5 -166.5t158.5 -65.5z" />
    <glyph glyph-name="divide" unicode="&#xf7;" horiz-adv-x="552" 
d="M276 490q-15 0 -24.5 9t-9.5 25q0 15 9.5 24t24.5 9t24.5 -9t9.5 -24q0 -16 -9.5 -25t-24.5 -9zM51 334v39h450v-39h-450zM276 131q-15 0 -24.5 9.5t-9.5 24.5t9.5 24t24.5 9t24.5 -9t9.5 -24t-9.5 -24.5t-24.5 -9.5z" />
    <glyph glyph-name="oslash" unicode="&#xf8;" horiz-adv-x="626" 
d="M313 521q64 0 117 -25l53 104h43l-62 -123q53 -36 82.5 -95t29.5 -131q0 -118 -74 -194.5t-189 -76.5q-52 0 -93 16l-39 -76h-43l46 91q-62 33 -97.5 96t-35.5 144q0 118 74 194t188 76zM313 484q-97 0 -160 -66t-63 -167q0 -69 30 -122.5t82 -83.5l211 417
q-47 22 -100 22zM313 17q98 0 161 66t63 168q0 124 -91 191l-209 -412q33 -13 76 -13z" />
    <glyph glyph-name="ugrave" unicode="&#xf9;" 
d="M262 615l-108 116h51l109 -116h-52zM514 501v-501h-41v92h-7q-25 -52 -73.5 -82t-109.5 -30q-93 0 -149.5 64.5t-56.5 164.5v292h41v-292q0 -84 46 -137t124 -53q77 0 131 52.5t54 130.5v299h41z" />
    <glyph glyph-name="uacute" unicode="&#xfa;" 
d="M315 615h-52l109 116h52zM514 501v-501h-41v92h-7q-25 -52 -73.5 -82t-109.5 -30q-93 0 -149.5 64.5t-56.5 164.5v292h41v-292q0 -84 46 -137t124 -53q77 0 131 52.5t54 130.5v299h41z" />
    <glyph glyph-name="ucircumflex" unicode="&#xfb;" 
d="M165 615l99 116h50l99 -116h-47l-74 83h-6l-74 -83h-47zM514 501v-501h-41v92h-7q-25 -52 -73.5 -82t-109.5 -30q-93 0 -149.5 64.5t-56.5 164.5v292h41v-292q0 -84 46 -137t124 -53q77 0 131 52.5t54 130.5v299h41z" />
    <glyph glyph-name="udieresis" unicode="&#xfc;" 
d="M184 608q-16 0 -25.5 9.5t-9.5 25.5t9.5 25.5t25.5 9.5t25.5 -9.5t9.5 -25.5t-9.5 -25.5t-25.5 -9.5zM392 608q-16 0 -25.5 9.5t-9.5 25.5t9.5 25.5t25.5 9.5t25.5 -9.5t9.5 -25.5t-9.5 -25.5t-25.5 -9.5zM514 501v-501h-41v92h-7q-25 -52 -73.5 -82t-109.5 -30
q-93 0 -149.5 64.5t-56.5 164.5v292h41v-292q0 -84 46 -137t124 -53q77 0 131 52.5t54 130.5v299h41z" />
    <glyph glyph-name="yacute" unicode="&#xfd;" horiz-adv-x="539" 
d="M299 615h-52l108 116h52zM112 -221q-32 0 -63 11v39q37 -11 61 -11q21 0 39.5 10t31.5 23.5t29 41.5t25.5 49t26.5 62l-235 497h43l209 -441h7l181 441h43l-208 -503q-46 -113 -86 -166t-104 -53z" />
    <glyph glyph-name="ydieresis" unicode="&#xff;" horiz-adv-x="539" 
d="M167 608q-16 0 -25.5 9.5t-9.5 25.5t9.5 25.5t25.5 9.5t25.5 -9.5t9.5 -25.5t-9.5 -25.5t-25.5 -9.5zM375 608q-16 0 -25.5 9.5t-9.5 25.5t9.5 25.5t25.5 9.5t25.5 -9.5t9.5 -25.5t-9.5 -25.5t-25.5 -9.5zM112 -221q-32 0 -63 11v39q37 -11 61 -11q21 0 39.5 10
t31.5 23.5t29 41.5t25.5 49t26.5 62l-235 497h43l209 -441h7l181 441h43l-208 -503q-46 -113 -86 -166t-104 -53z" />
    <glyph glyph-name="Amacron" unicode="&#x100;" horiz-adv-x="652" 
d="M187 816v38h281v-38h-281zM23 0l273 701h62l272 -701h-43l-72 183h-377l-72 -183h-43zM152 223h349l-171 438h-7z" />
    <glyph glyph-name="amacron" unicode="&#x101;" horiz-adv-x="541" 
d="M132 616v38h281v-38h-281zM214 -19q-77 0 -122 34.5t-45 92.5q0 128 214 164l161 27v28q0 65 -42.5 106t-109.5 41q-68 0 -111.5 -37t-43.5 -95h-41q0 75 55 123t141 48q85 0 139 -52t54 -134v-327h-41v93h-6q-27 -54 -80.5 -83t-121.5 -29zM217 19q92 0 148.5 52.5
t56.5 132.5v57l-156 -26q-94 -17 -136 -48t-42 -79q0 -42 34.5 -65.5t94.5 -23.5z" />
    <glyph glyph-name="Abreve" unicode="&#x102;" horiz-adv-x="652" 
d="M328 764q-52 0 -85.5 29.5t-33.5 74.5h41q0 -30 21.5 -48.5t56.5 -18.5q34 0 55.5 18.5t21.5 48.5h41q0 -45 -33.5 -74.5t-84.5 -29.5zM23 0l273 701h62l272 -701h-43l-72 183h-377l-72 -183h-43zM152 223h349l-171 438h-7z" />
    <glyph glyph-name="abreve" unicode="&#x103;" horiz-adv-x="541" 
d="M271 608q-53 0 -88 34.5t-35 88.5h38q0 -38 24 -62.5t61 -24.5t61 24.5t24 62.5h38q0 -54 -35 -88.5t-88 -34.5zM214 -19q-77 0 -122 34.5t-45 92.5q0 128 214 164l161 27v28q0 65 -42.5 106t-109.5 41q-68 0 -111.5 -37t-43.5 -95h-41q0 75 55 123t141 48q85 0 139 -52
t54 -134v-327h-41v93h-6q-27 -54 -80.5 -83t-121.5 -29zM217 19q92 0 148.5 52.5t56.5 132.5v57l-156 -26q-94 -17 -136 -48t-42 -79q0 -42 34.5 -65.5t94.5 -23.5z" />
    <glyph glyph-name="Aogonek" unicode="&#x104;" horiz-adv-x="652" 
d="M626 0q-74 -38 -102.5 -64.5t-28.5 -53.5q0 -22 13.5 -35t36.5 -13q31 0 68 24v-35q-37 -23 -73 -23q-35 0 -57 22.5t-22 57.5t28 65t94 65l-68 173h-377l-72 -183h-43l273 701h62l272 -701h-4zM152 223h349l-171 438h-7z" />
    <glyph glyph-name="aogonek" unicode="&#x105;" horiz-adv-x="541" 
d="M463 0q-74 -38 -102.5 -64.5t-28.5 -53.5q0 -22 13.5 -35t36.5 -13q29 0 68 24v-35q-38 -23 -74 -23q-34 0 -56 22.5t-22 57.5t28.5 65.5t95.5 65.5v82h-6q-27 -54 -80.5 -83t-121.5 -29q-77 0 -122 34.5t-45 92.5q0 128 214 164l161 27v28q0 65 -42.5 106t-109.5 41
q-68 0 -111.5 -37t-43.5 -95h-41q0 75 55 123t141 48q85 0 139 -52t54 -134v-327zM217 19q92 0 148.5 52.5t56.5 132.5v57l-156 -26q-94 -17 -136 -48t-42 -79q0 -42 34.5 -65.5t94.5 -23.5z" />
    <glyph glyph-name="Cacute" unicode="&#x106;" horiz-adv-x="816" 
d="M402 776l91 95h55l-93 -95h-53zM424 -25q-160 0 -262.5 106t-102.5 270t102.5 269.5t262.5 105.5q120 0 215 -73.5t119 -181.5l-42 -7q-21 94 -104 158t-188 64q-142 0 -232 -94t-90 -241t90.5 -241.5t231.5 -94.5q107 0 189.5 62t103.5 153l40 -9q-23 -104 -117.5 -175
t-215.5 -71z" />
    <glyph glyph-name="cacute" unicode="&#x107;" horiz-adv-x="597" 
d="M338 615h-52l109 116h52zM312 -20q-114 0 -187.5 76.5t-73.5 194.5t73.5 194t187.5 76q85 0 151.5 -50t82.5 -127l-40 -6q-16 63 -71 103.5t-123 40.5q-96 0 -158 -65t-62 -166t62 -166.5t158 -65.5q68 0 123 38.5t71 97.5l40 -7q-18 -73 -84 -120.5t-150 -47.5z" />
    <glyph glyph-name="Ccircumflex" unicode="&#x108;" horiz-adv-x="816" 
d="M401 871h52l101 -95h-53l-71 65h-7l-71 -65h-53zM424 -25q-160 0 -262.5 106t-102.5 270t102.5 269.5t262.5 105.5q120 0 215 -73.5t119 -181.5l-42 -7q-21 94 -104 158t-188 64q-142 0 -232 -94t-90 -241t90.5 -241.5t231.5 -94.5q107 0 189.5 62t103.5 153l40 -9
q-23 -104 -117.5 -175t-215.5 -71z" />
    <glyph glyph-name="ccircumflex" unicode="&#x109;" horiz-adv-x="597" 
d="M188 615l99 116h50l99 -116h-47l-74 83h-6l-74 -83h-47zM312 -20q-114 0 -187.5 76.5t-73.5 194.5t73.5 194t187.5 76q85 0 151.5 -50t82.5 -127l-40 -6q-16 63 -71 103.5t-123 40.5q-96 0 -158 -65t-62 -166t62 -166.5t158 -65.5q68 0 123 38.5t71 97.5l40 -7
q-18 -73 -84 -120.5t-150 -47.5z" />
    <glyph glyph-name="Cdotaccent" unicode="&#x10a;" horiz-adv-x="816" 
d="M428 793q-16 0 -26 10t-10 26t10 25.5t26 9.5t26 -9.5t10 -25.5t-10 -26t-26 -10zM424 -25q-160 0 -262.5 106t-102.5 270t102.5 269.5t262.5 105.5q120 0 215 -73.5t119 -181.5l-42 -7q-21 94 -104 158t-188 64q-142 0 -232 -94t-90 -241t90.5 -241.5t231.5 -94.5
q107 0 189.5 62t103.5 153l40 -9q-23 -104 -117.5 -175t-215.5 -71z" />
    <glyph glyph-name="cdotaccent" unicode="&#x10b;" horiz-adv-x="597" 
d="M312 608q-16 0 -26 10.5t-10 25.5q0 16 10 26t26 10q15 0 25.5 -10t10.5 -26q0 -15 -10.5 -25.5t-25.5 -10.5zM312 -20q-114 0 -187.5 76.5t-73.5 194.5t73.5 194t187.5 76q85 0 151.5 -50t82.5 -127l-40 -6q-16 63 -71 103.5t-123 40.5q-96 0 -158 -65t-62 -166
t62 -166.5t158 -65.5q68 0 123 38.5t71 97.5l40 -7q-18 -73 -84 -120.5t-150 -47.5z" />
    <glyph glyph-name="Ccaron" unicode="&#x10c;" horiz-adv-x="816" 
d="M400 776l-102 95h53l71 -65h7l71 65h53l-101 -95h-52zM424 -25q-160 0 -262.5 106t-102.5 270t102.5 269.5t262.5 105.5q120 0 215 -73.5t119 -181.5l-42 -7q-21 94 -104 158t-188 64q-142 0 -232 -94t-90 -241t90.5 -241.5t231.5 -94.5q107 0 189.5 62t103.5 153l40 -9
q-23 -104 -117.5 -175t-215.5 -71z" />
    <glyph glyph-name="ccaron" unicode="&#x10d;" horiz-adv-x="597" 
d="M187 731h48l73 -83h7l73 83h48l-99 -116h-51zM312 -20q-114 0 -187.5 76.5t-73.5 194.5t73.5 194t187.5 76q85 0 151.5 -50t82.5 -127l-40 -6q-16 63 -71 103.5t-123 40.5q-96 0 -158 -65t-62 -166t62 -166.5t158 -65.5q68 0 123 38.5t71 97.5l40 -7q-18 -73 -84 -120.5
t-150 -47.5z" />
    <glyph glyph-name="Dcaron" unicode="&#x10e;" horiz-adv-x="741" 
d="M314 774l-103 94h53l72 -64h7l71 64h53l-102 -94h-51zM92 0v701h212q172 0 275 -93.5t103 -256.5q0 -164 -102.5 -257.5t-275.5 -93.5h-212zM134 40h170q152 0 244 82.5t92 228.5q0 144 -92 227t-244 83h-170v-621z" />
    <glyph glyph-name="dcaron" unicode="&#x10f;" horiz-adv-x="671" 
d="M662 583l-21 8l34 81q-30 5 -30 34q0 15 9.5 25t25.5 10t25.5 -10t9.5 -25q0 -9 -6 -24zM311 -20q-113 0 -187 76.5t-74 194.5t73.5 194t186.5 76q75 0 132 -36.5t85 -99.5h6v346h41v-731h-41v117h-6q-28 -63 -85 -100t-131 -37zM312 19q96 0 159 66t63 166t-63 165.5
t-159 65.5t-158.5 -65.5t-62.5 -165.5q0 -101 62.5 -166.5t158.5 -65.5z" />
    <glyph glyph-name="Dcroat" unicode="&#x110;" horiz-adv-x="790" 
d="M354 701q171 0 274.5 -93.5t103.5 -256.5q0 -164 -103 -257.5t-275 -93.5h-213v388h-118v39h118v274h213zM354 40q152 0 244 82.5t92 228.5q0 144 -92.5 227t-243.5 83h-170v-234h289v-39h-289v-348h170z" />
    <glyph glyph-name="dcroat" unicode="&#x111;" horiz-adv-x="661" 
d="M668 661v-37h-94v-624h-41v117h-7q-28 -64 -84.5 -100.5t-131.5 -36.5q-113 0 -186.5 76.5t-73.5 194.5t73.5 194t186.5 76q75 0 131.5 -36.5t84.5 -99.5h7v239h-247v37h247v70h41v-70h94zM312 19q96 0 159 66t63 166t-63 165.5t-159 65.5t-158.5 -65.5t-62.5 -165.5
q0 -101 62.5 -166.5t158.5 -65.5z" />
    <glyph glyph-name="Emacron" unicode="&#x112;" horiz-adv-x="625" 
d="M192 816v38h281v-38h-281zM92 0v701h473v-40h-431v-276h391v-40h-391v-305h441v-40h-483z" />
    <glyph glyph-name="emacron" unicode="&#x113;" horiz-adv-x="632" 
d="M181 616v38h281v-38h-281zM322 -20q-118 0 -194.5 76.5t-76.5 195.5q0 117 76 193t194 76q114 0 187.5 -76t73.5 -193v-15h-490q4 -96 68.5 -157t161.5 -61q69 0 127 38t80 97l38 -11q-26 -72 -94 -117.5t-151 -45.5zM93 276h446q-7 91 -67.5 148.5t-151.5 57.5
q-93 0 -156 -57.5t-71 -148.5z" />
    <glyph glyph-name="Ebreve" unicode="&#x114;" horiz-adv-x="625" 
d="M333 764q-52 0 -85.5 29.5t-33.5 74.5h41q0 -30 21.5 -48.5t56.5 -18.5q34 0 55.5 18.5t21.5 48.5h41q0 -45 -33.5 -74.5t-84.5 -29.5zM92 0v701h473v-40h-431v-276h391v-40h-391v-305h441v-40h-483z" />
    <glyph glyph-name="ebreve" unicode="&#x115;" horiz-adv-x="632" 
d="M320 608q-54 0 -88.5 34.5t-34.5 88.5h38q0 -38 24 -62.5t61 -24.5t60.5 24.5t23.5 62.5h38q0 -54 -34.5 -88.5t-87.5 -34.5zM322 -20q-118 0 -194.5 76.5t-76.5 195.5q0 117 76 193t194 76q114 0 187.5 -76t73.5 -193v-15h-490q4 -96 68.5 -157t161.5 -61q69 0 127 38
t80 97l38 -11q-26 -72 -94 -117.5t-151 -45.5zM93 276h446q-7 91 -67.5 148.5t-151.5 57.5q-93 0 -156 -57.5t-71 -148.5z" />
    <glyph glyph-name="Edotaccent" unicode="&#x116;" horiz-adv-x="625" 
d="M333 790q-16 0 -26 10t-10 26t10 26t26 10t26 -10t10 -26t-10 -26t-26 -10zM92 0v701h473v-40h-431v-276h391v-40h-391v-305h441v-40h-483z" />
    <glyph glyph-name="edotaccent" unicode="&#x117;" horiz-adv-x="632" 
d="M320 608q-15 0 -25.5 10.5t-10.5 25.5q0 16 10.5 26t25.5 10q16 0 26 -10t10 -26q0 -15 -10 -25.5t-26 -10.5zM322 -20q-118 0 -194.5 76.5t-76.5 195.5q0 117 76 193t194 76q114 0 187.5 -76t73.5 -193v-15h-490q4 -96 68.5 -157t161.5 -61q69 0 127 38t80 97l38 -11
q-26 -72 -94 -117.5t-151 -45.5zM93 276h446q-7 91 -67.5 148.5t-151.5 57.5q-93 0 -156 -57.5t-71 -148.5z" />
    <glyph glyph-name="Eogonek" unicode="&#x118;" horiz-adv-x="625" 
d="M134 40h441v-40h-23q-74 -38 -102.5 -64.5t-28.5 -53.5q0 -22 13.5 -35t36.5 -13q29 0 68 24v-35q-38 -23 -74 -23q-34 0 -56 22.5t-22 57.5q0 33 24 61t80 59h-399v701h473v-40h-431v-276h391v-40h-391v-305z" />
    <glyph glyph-name="eogonek" unicode="&#x119;" horiz-adv-x="632" 
d="M582 252v-15h-490q4 -96 68.5 -157t161.5 -61q69 0 127 38t80 97l38 -11q-19 -53 -61.5 -92.5t-99.5 -57.5q-66 -35 -92 -60t-26 -51q0 -22 13.5 -35t36.5 -13q29 0 68 24v-35q-37 -23 -73 -23q-35 0 -57 22.5t-22 57.5q0 53 71 100h-3q-118 0 -194.5 76.5t-76.5 195.5
q0 117 76 193t194 76q114 0 187.5 -76t73.5 -193zM93 276h446q-7 91 -67.5 148.5t-151.5 57.5q-93 0 -156 -57.5t-71 -148.5z" />
    <glyph glyph-name="Ecaron" unicode="&#x11a;" horiz-adv-x="625" 
d="M305 774l-102 94h53l72 -64h7l70 64h53l-101 -94h-52zM92 0v701h473v-40h-431v-276h391v-40h-391v-305h441v-40h-483z" />
    <glyph glyph-name="ecaron" unicode="&#x11b;" horiz-adv-x="632" 
d="M196 731h47l74 -83h7l73 83h48l-99 -116h-51zM322 -20q-118 0 -194.5 76.5t-76.5 195.5q0 117 76 193t194 76q114 0 187.5 -76t73.5 -193v-15h-490q4 -96 68.5 -157t161.5 -61q69 0 127 38t80 97l38 -11q-26 -72 -94 -117.5t-151 -45.5zM93 276h446q-7 91 -67.5 148.5
t-151.5 57.5q-93 0 -156 -57.5t-71 -148.5z" />
    <glyph glyph-name="Gcircumflex" unicode="&#x11c;" horiz-adv-x="851" 
d="M406 868h51l102 -94h-53l-71 64h-7l-72 -64h-53zM431 -25q-162 0 -267 106t-105 270q0 163 105 269t267 106q119 0 211.5 -68t115.5 -172l-40 -10q-23 91 -104 150.5t-183 59.5q-143 1 -236 -94t-93 -241q0 -145 93 -240.5t236 -95.5q132 0 221 84.5t97 217.5h-405v41
h449q1 -168 -100 -275.5t-262 -107.5z" />
    <glyph glyph-name="gcircumflex" unicode="&#x11d;" horiz-adv-x="662" 
d="M189 615l99 116h51l99 -116h-48l-73 83h-7l-74 -83h-47zM321 -250q-100 0 -172.5 53t-86.5 137l41 9q11 -71 72 -115.5t147 -44.5q93 0 152.5 59.5t59.5 153.5v110h-7q-31 -61 -87 -96t-129 -35q-113 0 -186.5 76t-73.5 194q0 117 73.5 193.5t186.5 76.5
q73 0 129.5 -35.5t87.5 -97.5h6v113h41v-499q0 -111 -71 -181.5t-183 -70.5zM313 20q97 0 159.5 65t62.5 166q0 100 -63 165.5t-159 65.5q-97 0 -159 -65t-62 -166q0 -100 63 -165.5t158 -65.5z" />
    <glyph glyph-name="Gbreve" unicode="&#x11e;" horiz-adv-x="851" 
d="M432 764q-52 0 -85 29.5t-33 74.5h41q0 -30 21.5 -48.5t55.5 -18.5q35 0 56.5 18.5t21.5 48.5h40q0 -45 -33 -74.5t-85 -29.5zM431 -25q-162 0 -267 106t-105 270q0 163 105 269t267 106q119 0 211.5 -68t115.5 -172l-40 -10q-23 91 -104 150.5t-183 59.5
q-143 1 -236 -94t-93 -241q0 -145 93 -240.5t236 -95.5q132 0 221 84.5t97 217.5h-405v41h449q1 -168 -100 -275.5t-262 -107.5z" />
    <glyph glyph-name="gbreve" unicode="&#x11f;" horiz-adv-x="662" 
d="M312 608q-53 0 -88 34.5t-35 88.5h38q0 -38 24 -62.5t61 -24.5t61 24.5t24 62.5h38q0 -54 -35 -88.5t-88 -34.5zM321 -250q-100 0 -172.5 53t-86.5 137l41 9q11 -71 72 -115.5t147 -44.5q93 0 152.5 59.5t59.5 153.5v110h-7q-31 -61 -87 -96t-129 -35q-113 0 -186.5 76
t-73.5 194q0 117 73.5 193.5t186.5 76.5q73 0 129.5 -35.5t87.5 -97.5h6v113h41v-499q0 -111 -71 -181.5t-183 -70.5zM313 20q97 0 159.5 65t62.5 166q0 100 -63 165.5t-159 65.5q-97 0 -159 -65t-62 -166q0 -100 63 -165.5t158 -65.5z" />
    <glyph glyph-name="Gdotaccent" unicode="&#x120;" horiz-adv-x="851" 
d="M433 790q-16 0 -26 10t-10 26t10 26t26 10t26 -10t10 -26t-10 -26t-26 -10zM431 -25q-162 0 -267 106t-105 270q0 163 105 269t267 106q119 0 211.5 -68t115.5 -172l-40 -10q-23 91 -104 150.5t-183 59.5q-143 1 -236 -94t-93 -241q0 -145 93 -240.5t236 -95.5
q132 0 221 84.5t97 217.5h-405v41h449q1 -168 -100 -275.5t-262 -107.5z" />
    <glyph glyph-name="gdotaccent" unicode="&#x121;" horiz-adv-x="662" 
d="M313 608q-16 0 -26 10.5t-10 25.5q0 16 10 26t26 10t26 -10t10 -26q0 -15 -10 -25.5t-26 -10.5zM321 -250q-100 0 -172.5 53t-86.5 137l41 9q11 -71 72 -115.5t147 -44.5q93 0 152.5 59.5t59.5 153.5v110h-7q-31 -61 -87 -96t-129 -35q-113 0 -186.5 76t-73.5 194
q0 117 73.5 193.5t186.5 76.5q73 0 129.5 -35.5t87.5 -97.5h6v113h41v-499q0 -111 -71 -181.5t-183 -70.5zM313 20q97 0 159.5 65t62.5 166q0 100 -63 165.5t-159 65.5q-97 0 -159 -65t-62 -166q0 -100 63 -165.5t158 -65.5z" />
    <glyph glyph-name="Gcommaaccent" unicode="&#x122;" horiz-adv-x="851" 
d="M431 -25q-162 0 -267 106t-105 270q0 163 105 269t267 106q119 0 211.5 -68t115.5 -172l-40 -10q-23 91 -104 150.5t-183 59.5q-143 1 -236 -94t-93 -241q0 -145 93 -240.5t236 -95.5q132 0 221 84.5t97 217.5h-405v41h449q1 -168 -100 -275.5t-262 -107.5zM413 -238
l-21 8l34 81q-30 5 -30 34q0 15 9.5 25t25.5 10t25.5 -10t9.5 -25q0 -9 -6 -24z" />
    <glyph glyph-name="gcommaaccent" unicode="&#x123;" horiz-adv-x="662" 
d="M331 739l20 -8l-34 -81q31 -5 31 -34q0 -15 -9.5 -25t-25.5 -10t-25.5 10t-9.5 25q0 12 6 24zM321 -250q-100 0 -172.5 53t-86.5 137l41 9q11 -71 72 -115.5t147 -44.5q93 0 152.5 59.5t59.5 153.5v110h-7q-31 -61 -87 -96t-129 -35q-113 0 -186.5 76t-73.5 194
q0 117 73.5 193.5t186.5 76.5q73 0 129.5 -35.5t87.5 -97.5h6v113h41v-499q0 -111 -71 -181.5t-183 -70.5zM313 20q97 0 159.5 65t62.5 166q0 100 -63 165.5t-159 65.5q-97 0 -159 -65t-62 -166q0 -100 63 -165.5t158 -65.5z" />
    <glyph glyph-name="Itilde" unicode="&#x128;" horiz-adv-x="225" 
d="M173 784q-34 0 -68.5 25.5t-57.5 25.5q-40 0 -63 -37l-29 18q11 24 36.5 39t56.5 15q32 0 67 -25.5t60 -25.5q47 0 64 39l31 -16q-11 -26 -37.5 -42t-59.5 -16zM92 0v701h42v-701h-42z" />
    <glyph glyph-name="itilde" unicode="&#x129;" horiz-adv-x="200" 
d="M158 615q-33 0 -72.5 29.5t-61.5 29.5q-38 0 -59 -36l-28 19q11 24 35.5 39t51.5 15q32 0 72 -30t62 -30q20 0 37.5 10.5t24.5 27.5l31 -17q-11 -25 -36.5 -41t-56.5 -16zM80 0v501h41v-501h-41z" />
    <glyph glyph-name="Imacron" unicode="&#x12a;" horiz-adv-x="225" 
d="M-28 816v38h281v-38h-281zM92 0v701h42v-701h-42z" />
    <glyph glyph-name="imacron" unicode="&#x12b;" horiz-adv-x="200" 
d="M-39 616v38h281v-38h-281zM80 0v501h41v-501h-41z" />
    <glyph glyph-name="Iogonek" unicode="&#x12e;" horiz-adv-x="225" 
d="M92 701h42v-701h-4q-74 -38 -102.5 -64.5t-28.5 -53.5q0 -22 13.5 -35t36.5 -13q30 0 68 24v-35q-37 -23 -73 -23q-35 0 -57 22.5t-22 57.5t29.5 65.5t97.5 66.5v689z" />
    <glyph glyph-name="iogonek" unicode="&#x12f;" horiz-adv-x="228" 
d="M114 680q16 0 26 -10t10 -26q0 -15 -10 -25.5t-26 -10.5t-26 10.5t-10 25.5q0 16 10 26t26 10zM94 12v489h41v-501h-3q-74 -38 -102.5 -64.5t-28.5 -53.5q0 -22 13.5 -35t36.5 -13q29 0 68 24v-35q-38 -23 -74 -23q-34 0 -56 22.5t-22 57.5q0 36 29 66t98 66z" />
    <glyph glyph-name="Idotaccent" unicode="&#x130;" horiz-adv-x="225" 
d="M113 790q-16 0 -26 10t-10 26t10 26t26 10t26 -10t10 -26t-10 -26t-26 -10zM92 0v701h42v-701h-42z" />
    <glyph glyph-name="dotlessi" unicode="&#x131;" horiz-adv-x="200" 
d="M80 0v501h40v-501h-40z" />
    <glyph glyph-name="IJ" unicode="&#x132;" horiz-adv-x="642" 
d="M92 0v701h42v-701h-42zM353 -20q-56 0 -119 20v40q68 -20 118 -20q71 0 114 49t43 141v491h42v-491q0 -110 -54.5 -170t-143.5 -60z" />
    <glyph glyph-name="ij" unicode="&#x133;" horiz-adv-x="455" 
d="M114 608q-16 0 -26 10.5t-10 25.5q0 16 10 26t26 10t26 -10t10 -26q0 -15 -10 -25.5t-26 -10.5zM340 608q-16 0 -26 10t-10 26t10 26t26 10q15 0 25.5 -10t10.5 -26q0 -15 -10.5 -25.5t-25.5 -10.5zM94 0v501h41v-501h-41zM250 -221q-36 0 -73 13v39q37 -13 67 -13
q34 0 54.5 22t20.5 57v604h41v-603q0 -52 -31.5 -85.5t-78.5 -33.5z" />
    <glyph glyph-name="Kcommaaccent" unicode="&#x136;" horiz-adv-x="592" 
d="M91 0v701h42v-314h7l354 314h61l-375 -332l383 -369h-59l-364 352h-7v-352h-42zM285 -238l-20 8l34 81q-31 5 -31 34q0 15 9.5 25t25.5 10t25.5 -10t9.5 -25q0 -12 -6 -24z" />
    <glyph glyph-name="kcommaaccent" unicode="&#x137;" horiz-adv-x="464" 
d="M87 0v731h41v-453h7l252 223h60l-275 -240l283 -261h-59l-261 242h-7v-242h-41zM251 -238l-21 8l34 81q-30 5 -30 34q0 15 9.5 25t25.5 10t25.5 -10t9.5 -25q0 -12 -6 -24z" />
    <glyph glyph-name="Lacute" unicode="&#x139;" horiz-adv-x="555" 
d="M89 774l91 94h54l-92 -94h-53zM92 0v701h42v-661h391v-40h-433z" />
    <glyph glyph-name="lacute" unicode="&#x13a;" horiz-adv-x="215" 
d="M83 774l92 94h54l-92 -94h-54zM87 0v731h41v-731h-41z" />
    <glyph glyph-name="Lcommaaccent" unicode="&#x13b;" horiz-adv-x="555" 
d="M92 0v701h42v-661h391v-40h-433zM299 -238l-21 8l34 81q-31 5 -31 34q0 15 10 25t25 10q16 0 26 -10t10 -25q0 -10 -7 -24z" />
    <glyph glyph-name="lcommaaccent" unicode="&#x13c;" horiz-adv-x="215" 
d="M87 0v731h41v-731h-41zM90 -238l-21 8l34 81q-30 5 -30 34q0 15 9.5 25t25.5 10t25.5 -10t9.5 -25q0 -9 -6 -24z" />
    <glyph glyph-name="Lcaron" unicode="&#x13d;" horiz-adv-x="555" 
d="M291 553l-20 8l34 81q-31 5 -31 34q0 15 9.5 25t25.5 10t25.5 -10t9.5 -25q0 -12 -6 -24zM92 0v701h42v-661h391v-40h-433z" />
    <glyph glyph-name="lcaron" unicode="&#x13e;" horiz-adv-x="215" 
d="M207 583l-21 8l34 81q-30 5 -30 34q0 15 9.5 25t25.5 10t25.5 -10t9.5 -25q0 -10 -7 -24zM87 0v731h41v-731h-41z" />
    <glyph glyph-name="Lslash" unicode="&#x141;" horiz-adv-x="596" 
d="M176 40h390v-40h-433v276l-110 -68v44l110 68v381h43v-354l302 187v-43l-302 -188v-263z" />
    <glyph glyph-name="lslash" unicode="&#x142;" horiz-adv-x="377" 
d="M376 543v-47l-167 -108v-388h-41v361l-166 -107v46l166 108v323h41v-297z" />
    <glyph glyph-name="Nacute" unicode="&#x143;" horiz-adv-x="703" 
d="M336 774l91 94h55l-93 -94h-53zM91 0v701h63l409 -646h7v646h42v-701h-63l-409 645h-7v-645h-42z" />
    <glyph glyph-name="nacute" unicode="&#x144;" 
d="M342 615h-52l108 116h52zM88 0v501h41v-92h7q24 52 72.5 82t110.5 30q93 0 149.5 -64.5t56.5 -164.5v-292h-41v292q0 84 -46 137t-124 53q-77 0 -131 -52t-54 -131v-299h-41z" />
    <glyph glyph-name="Ncommaaccent" unicode="&#x145;" horiz-adv-x="703" 
d="M91 0v701h63l409 -646h7v646h42v-701h-63l-409 645h-7v-645h-42zM343 -238l-21 8l34 81q-31 5 -31 34q0 15 10 25t25 10q16 0 26 -10t10 -25q0 -10 -7 -24z" />
    <glyph glyph-name="ncommaaccent" unicode="&#x146;" 
d="M88 0v501h41v-92h7q24 52 72.5 82t110.5 30q93 0 149.5 -64.5t56.5 -164.5v-292h-41v292q0 84 -46 137t-124 53q-77 0 -131 -52t-54 -131v-299h-41zM295 -238l-20 8l34 81q-31 5 -31 34q0 15 9.5 25t25.5 10t25.5 -10t9.5 -25q0 -12 -6 -24z" />
    <glyph glyph-name="Ncaron" unicode="&#x147;" horiz-adv-x="703" 
d="M334 774l-102 94h53l71 -64h7l71 64h53l-102 -94h-51zM91 0v701h63l409 -646h7v646h42v-701h-63l-409 645h-7v-645h-42z" />
    <glyph glyph-name="ncaron" unicode="&#x148;" 
d="M191 731h47l74 -83h6l74 83h47l-99 -116h-50zM88 0v501h41v-92h7q24 52 72.5 82t110.5 30q93 0 149.5 -64.5t56.5 -164.5v-292h-41v292q0 84 -46 137t-124 53q-77 0 -131 -52t-54 -131v-299h-41z" />
    <glyph glyph-name="Omacron" unicode="&#x14c;" horiz-adv-x="861" 
d="M291 816v38h281v-38h-281zM430 -25q-162 0 -267 106t-105 270q0 163 105 269t267 106t267.5 -106t105.5 -269t-105.5 -269.5t-267.5 -106.5zM430 15q144 0 237 95t93 241t-93 240.5t-237 94.5q-143 0 -236 -94.5t-93 -240.5t93 -241t236 -95z" />
    <glyph glyph-name="omacron" unicode="&#x14d;" horiz-adv-x="624" 
d="M172 616v38h282v-38h-282zM312 -20q-114 0 -188 76.5t-74 194.5t74 194t188 76q115 0 188.5 -76t73.5 -194q0 -119 -73.5 -195t-188.5 -76zM312 19q96 0 159 65.5t63 166.5q0 100 -63 165.5t-159 65.5t-158.5 -65.5t-62.5 -165.5q0 -101 62.5 -166.5t158.5 -65.5z" />
    <glyph glyph-name="Obreve" unicode="&#x14e;" horiz-adv-x="861" 
d="M431 764q-52 0 -85 29.5t-33 74.5h41q0 -30 21.5 -48.5t55.5 -18.5q35 0 56.5 18.5t21.5 48.5h40q0 -45 -33 -74.5t-85 -29.5zM430 -25q-162 0 -267 106t-105 270q0 163 105 269t267 106t267.5 -106t105.5 -269t-105.5 -269.5t-267.5 -106.5zM430 15q144 0 237 95t93 241
t-93 240.5t-237 94.5q-143 0 -236 -94.5t-93 -240.5t93 -241t236 -95z" />
    <glyph glyph-name="obreve" unicode="&#x14f;" horiz-adv-x="624" 
d="M311 608q-53 0 -87.5 34.5t-34.5 88.5h38q0 -38 23.5 -62.5t60.5 -24.5t61 24.5t24 62.5h38q0 -54 -35 -88.5t-88 -34.5zM312 -20q-114 0 -188 76.5t-74 194.5t74 194t188 76q115 0 188.5 -76t73.5 -194q0 -119 -73.5 -195t-188.5 -76zM312 19q96 0 159 65.5t63 166.5
q0 100 -63 165.5t-159 65.5t-158.5 -65.5t-62.5 -165.5q0 -101 62.5 -166.5t158.5 -65.5z" />
    <glyph glyph-name="Ohungarumlaut" unicode="&#x150;" horiz-adv-x="861" 
d="M317 774l85 95h53l-87 -95h-51zM476 774l85 95h54l-89 -95h-50zM430 -25q-162 0 -267 106t-105 270q0 163 105 269t267 106t267.5 -106t105.5 -269t-105.5 -269.5t-267.5 -106.5zM430 15q144 0 237 95t93 241t-93 240.5t-237 94.5q-143 0 -236 -94.5t-93 -240.5t93 -241
t236 -95z" />
    <glyph glyph-name="ohungarumlaut" unicode="&#x151;" horiz-adv-x="624" 
d="M210 615l103 115h53l-105 -115h-51zM419 615h-51l105 115h52zM312 -20q-114 0 -188 76.5t-74 194.5t74 194t188 76q115 0 188.5 -76t73.5 -194q0 -119 -73.5 -195t-188.5 -76zM312 19q96 0 159 65.5t63 166.5q0 100 -63 165.5t-159 65.5t-158.5 -65.5t-62.5 -165.5
q0 -101 62.5 -166.5t158.5 -65.5z" />
    <glyph glyph-name="OE" unicode="&#x152;" horiz-adv-x="1050" 
d="M429 -23q-161 0 -265.5 105.5t-104.5 268.5t104.5 268t265.5 105q65 0 125 -23h437v-40h-400v-286h360v-39h-360v-296h410v-40h-448q-58 -23 -124 -23zM428 17q67 0 121 23v621q-52 23 -119 23q-143 0 -236 -94t-93 -239t92.5 -239.5t234.5 -94.5z" />
    <glyph glyph-name="oe" unicode="&#x153;" horiz-adv-x="1116" 
d="M1066 252q0 -10 -1 -15h-489q5 -96 69 -157t161 -61q69 0 126.5 38t80.5 97l38 -11q-26 -72 -94 -117.5t-152 -45.5q-88 0 -154 44t-96 119q-29 -75 -93.5 -119t-149.5 -44q-114 0 -188 76.5t-74 194.5t74 194t188 76q85 0 149.5 -44t93.5 -118q30 74 96 118t153 44
q115 0 188.5 -76t73.5 -193zM312 19q96 0 159 65.5t63 166.5q0 100 -63 165.5t-159 65.5t-158.5 -65.5t-62.5 -165.5q0 -101 62.5 -166.5t158.5 -65.5zM577 276h446q-7 91 -68 148.5t-151 57.5q-94 0 -157 -57.5t-70 -148.5z" />
    <glyph glyph-name="Racute" unicode="&#x154;" horiz-adv-x="687" 
d="M322 774l91 94h54l-92 -94h-53zM92 0v701h293q113 0 178 -53.5t65 -145.5q0 -89 -65 -143t-171 -55h-30l264 -304h-54l-262 303h-176v-303h-42zM134 343h251q93 0 147 43t54 116q0 75 -53 117t-148 42h-251v-318z" />
    <glyph glyph-name="racute" unicode="&#x155;" horiz-adv-x="376" 
d="M244 615h-52l108 116h52zM88 0v501h40v-88h7q39 98 136 98q40 0 75 -16v-43q-36 20 -77 20q-64 0 -102 -53.5t-38 -140.5v-278h-41z" />
    <glyph glyph-name="Rcommaaccent" unicode="&#x156;" horiz-adv-x="687" 
d="M92 0v701h293q113 0 178 -53.5t65 -145.5q0 -89 -65 -143t-171 -55h-30l264 -304h-54l-262 303h-176v-303h-42zM134 343h251q93 0 147 43t54 116q0 75 -53 117t-148 42h-251v-318zM338 -238l-21 8l34 81q-30 5 -30 34q0 15 9.5 25t25.5 10t25.5 -10t9.5 -25q0 -12 -6 -24
z" />
    <glyph glyph-name="rcommaaccent" unicode="&#x157;" horiz-adv-x="376" 
d="M88 0v501h40v-88h7q39 98 136 98q40 0 75 -16v-43q-36 20 -77 20q-64 0 -102 -53.5t-38 -140.5v-278h-41zM91 -238l-21 8l34 81q-30 5 -30 34q0 15 9.5 25t25.5 10t25.5 -10t9.5 -25q0 -10 -7 -24z" />
    <glyph glyph-name="Rcaron" unicode="&#x158;" horiz-adv-x="687" 
d="M320 774l-103 94h53l72 -64h7l71 64h53l-102 -94h-51zM92 0v701h293q113 0 178 -53.5t65 -145.5q0 -89 -65 -143t-171 -55h-30l264 -304h-54l-262 303h-176v-303h-42zM134 343h251q93 0 147 43t54 116q0 75 -53 117t-148 42h-251v-318z" />
    <glyph glyph-name="rcaron" unicode="&#x159;" horiz-adv-x="376" 
d="M93 731h47l74 -83h6l74 83h47l-99 -116h-51zM88 0v501h40v-88h7q39 98 136 98q40 0 75 -16v-43q-36 20 -77 20q-64 0 -102 -53.5t-38 -140.5v-278h-41z" />
    <glyph glyph-name="Sacute" unicode="&#x15a;" horiz-adv-x="688" 
d="M315 774l92 94h54l-92 -94h-54zM349 -25q-129 0 -205 67t-76 181h42q0 -96 64.5 -152t175.5 -56q104 0 166 44.5t62 118.5q0 87 -95 122q-39 14 -146 32q-46 7 -76 13.5t-68 21t-59.5 33t-37 50t-15.5 72.5q0 93 68 148.5t187 55.5q123 0 195.5 -62t72.5 -168l-41 -1
q-1 88 -62 139.5t-164 51.5q-98 0 -156 -45.5t-58 -117.5q0 -33 13.5 -57.5t31.5 -39t52 -26t59 -16.5t69 -12q37 -6 57 -9.5t53.5 -11.5t52.5 -16.5t42.5 -23t36 -32t21.5 -43t9 -56.5q0 -95 -73 -150t-198 -55z" />
    <glyph glyph-name="sacute" unicode="&#x15b;" horiz-adv-x="512" 
d="M279 615h-51l108 116h52zM267 -20q-97 0 -156.5 49.5t-59.5 129.5h40q0 -62 48.5 -101.5t127.5 -39.5q67 0 110.5 28.5t43.5 76.5q0 14 -3 26t-6 21.5t-12 17.5t-14 13t-19 10.5t-19.5 8t-23.5 6t-23.5 4.5t-26 4t-25.5 4q-33 5 -54.5 9.5t-49 14.5t-43.5 24.5
t-27.5 38.5t-11.5 56q0 62 51.5 101t134.5 39q89 0 143.5 -45.5t53.5 -120.5h-40q1 58 -42.5 93t-115.5 35q-65 0 -105 -27.5t-40 -71.5q0 -25 9.5 -43.5t21 -28.5t36.5 -18t40 -10.5t48 -7.5q40 -6 60 -10t52.5 -15t48.5 -25.5t29 -40t13 -60.5q0 -67 -54 -106t-140 -39z
" />
    <glyph glyph-name="Scircumflex" unicode="&#x15c;" horiz-adv-x="688" 
d="M314 868h52l102 -94h-53l-71 64h-7l-72 -64h-53zM349 -25q-129 0 -205 67t-76 181h42q0 -96 64.5 -152t175.5 -56q104 0 166 44.5t62 118.5q0 87 -95 122q-39 14 -146 32q-46 7 -76 13.5t-68 21t-59.5 33t-37 50t-15.5 72.5q0 93 68 148.5t187 55.5q123 0 195.5 -62
t72.5 -168l-41 -1q-1 88 -62 139.5t-164 51.5q-98 0 -156 -45.5t-58 -117.5q0 -33 13.5 -57.5t31.5 -39t52 -26t59 -16.5t69 -12q37 -6 57 -9.5t53.5 -11.5t52.5 -16.5t42.5 -23t36 -32t21.5 -43t9 -56.5q0 -95 -73 -150t-198 -55z" />
    <glyph glyph-name="scircumflex" unicode="&#x15d;" horiz-adv-x="512" 
d="M129 615l99 116h51l99 -116h-48l-73 83h-7l-74 -83h-47zM267 -20q-97 0 -156.5 49.5t-59.5 129.5h40q0 -62 48.5 -101.5t127.5 -39.5q67 0 110.5 28.5t43.5 76.5q0 14 -3 26t-6 21.5t-12 17.5t-14 13t-19 10.5t-19.5 8t-23.5 6t-23.5 4.5t-26 4t-25.5 4q-33 5 -54.5 9.5
t-49 14.5t-43.5 24.5t-27.5 38.5t-11.5 56q0 62 51.5 101t134.5 39q89 0 143.5 -45.5t53.5 -120.5h-40q1 58 -42.5 93t-115.5 35q-65 0 -105 -27.5t-40 -71.5q0 -25 9.5 -43.5t21 -28.5t36.5 -18t40 -10.5t48 -7.5q40 -6 60 -10t52.5 -15t48.5 -25.5t29 -40t13 -60.5
q0 -67 -54 -106t-140 -39z" />
    <glyph glyph-name="Scedilla" unicode="&#x15e;" horiz-adv-x="688" 
d="M620 180q0 -91 -68 -145.5t-186 -59.5l-4 -33q50 0 82 -26t32 -68q0 -40 -29 -67t-74 -27q-40 0 -68.5 22.5t-36.5 58.5l34 8q5 -26 24.5 -41.5t46.5 -15.5q30 0 49 17.5t19 43.5q0 28 -22.5 45.5t-58.5 17.5h-38l8 65q-121 5 -191.5 72t-70.5 176h42q0 -96 64.5 -152
t175.5 -56q104 0 166 44.5t62 118.5q0 87 -95 122q-39 14 -146 32q-46 7 -76 13.5t-68 21t-59.5 33t-37 50t-15.5 72.5q0 93 68 148.5t187 55.5q123 0 195.5 -62t72.5 -168l-41 -1q-1 88 -62 139.5t-164 51.5q-98 0 -156 -45.5t-58 -117.5q0 -33 13.5 -57.5t31.5 -39t52 -26
t59 -16.5t69 -12q37 -6 57 -9.5t53.5 -11.5t52.5 -16.5t42.5 -23t36 -32t21.5 -43t9 -56.5z" />
    <glyph glyph-name="scedilla" unicode="&#x15f;" horiz-adv-x="512" 
d="M461 125q0 -64 -50.5 -103t-132.5 -42l-5 -38q50 0 82 -26t32 -68q0 -40 -29 -67t-74 -27q-40 0 -68.5 22.5t-35.5 58.5l33 8q6 -26 25.5 -41.5t46.5 -15.5q30 0 49 17.5t19 43.5q0 28 -23 45.5t-58 17.5h-38l9 71q-87 6 -139.5 55t-52.5 123h40q0 -62 48.5 -101.5
t127.5 -39.5q67 0 110.5 28.5t43.5 76.5q0 14 -3 26t-6 21.5t-12 17.5t-14 13t-19 10.5t-19.5 8t-23.5 6t-23.5 4.5t-26 4t-25.5 4q-33 5 -54.5 9.5t-49 14.5t-43.5 24.5t-27.5 38.5t-11.5 56q0 62 51.5 101t134.5 39q89 0 143.5 -45.5t53.5 -120.5h-40q1 58 -42.5 93
t-115.5 35q-65 0 -105 -27.5t-40 -71.5q0 -25 9.5 -43.5t21 -28.5t36.5 -18t40 -10.5t48 -7.5q40 -6 60 -10t52.5 -15t48.5 -25.5t29 -40t13 -60.5z" />
    <glyph glyph-name="Scaron" unicode="&#x160;" horiz-adv-x="688" 
d="M313 774l-102 94h53l72 -64h7l71 64h53l-102 -94h-52zM349 -25q-129 0 -205 67t-76 181h42q0 -96 64.5 -152t175.5 -56q104 0 166 44.5t62 118.5q0 87 -95 122q-39 14 -146 32q-46 7 -76 13.5t-68 21t-59.5 33t-37 50t-15.5 72.5q0 93 68 148.5t187 55.5q123 0 195.5 -62
t72.5 -168l-41 -1q-1 88 -62 139.5t-164 51.5q-98 0 -156 -45.5t-58 -117.5q0 -33 13.5 -57.5t31.5 -39t52 -26t59 -16.5t69 -12q37 -6 57 -9.5t53.5 -11.5t52.5 -16.5t42.5 -23t36 -32t21.5 -43t9 -56.5q0 -95 -73 -150t-198 -55z" />
    <glyph glyph-name="scaron" unicode="&#x161;" horiz-adv-x="512" 
d="M129 731h47l73 -83h7l74 83h47l-99 -116h-51zM267 -20q-97 0 -156.5 49.5t-59.5 129.5h40q0 -62 48.5 -101.5t127.5 -39.5q67 0 110.5 28.5t43.5 76.5q0 14 -3 26t-6 21.5t-12 17.5t-14 13t-19 10.5t-19.5 8t-23.5 6t-23.5 4.5t-26 4t-25.5 4q-33 5 -54.5 9.5t-49 14.5
t-43.5 24.5t-27.5 38.5t-11.5 56q0 62 51.5 101t134.5 39q89 0 143.5 -45.5t53.5 -120.5h-40q1 58 -42.5 93t-115.5 35q-65 0 -105 -27.5t-40 -71.5q0 -25 9.5 -43.5t21 -28.5t36.5 -18t40 -10.5t48 -7.5q40 -6 60 -10t52.5 -15t48.5 -25.5t29 -40t13 -60.5q0 -67 -54 -106
t-140 -39z" />
    <glyph glyph-name="uni0162" unicode="&#x162;" horiz-adv-x="573" 
d="M266 0v661h-247v40h536v-40h-247v-661h-42zM269 -238l-20 8l34 81q-31 5 -31 34q0 15 9.5 25t25.5 10t25.5 -10t9.5 -25q0 -12 -6 -24z" />
    <glyph glyph-name="uni0163" unicode="&#x163;" horiz-adv-x="347" 
d="M237 -12q-52 0 -84 35t-32 91v350h-88v37h88l4 153h37v-153h138v-37h-138v-349q0 -40 21.5 -64.5t57.5 -24.5q35 0 68 10v-37q-30 -11 -72 -11zM209 -238l-21 8l34 81q-30 5 -30 34q0 15 9.5 25t25.5 10t25.5 -10t9.5 -25q0 -10 -7 -24z" />
    <glyph glyph-name="Tcaron" unicode="&#x164;" horiz-adv-x="573" 
d="M261 774l-103 94h53l72 -64h7l71 64h53l-102 -94h-51zM266 0v661h-247v40h536v-40h-247v-661h-42z" />
    <glyph glyph-name="tcaron" unicode="&#x165;" horiz-adv-x="347" 
d="M232 542l-20 8l34 81q-31 5 -31 34q0 15 9.5 25t25.5 10t25.5 -10t9.5 -25q0 -12 -6 -24zM237 -12q-52 0 -84 35t-32 91v350h-88v37h88l4 153h37v-153h138v-37h-138v-349q0 -40 21.5 -64.5t57.5 -24.5q35 0 68 10v-37q-30 -11 -72 -11z" />
    <glyph glyph-name="Utilde" unicode="&#x168;" horiz-adv-x="704" 
d="M414 784q-34 0 -68 25.5t-57 25.5q-42 0 -63 -37l-29 18q11 24 36 39t56 15q33 0 67.5 -25.5t59.5 -25.5q46 0 65 39l30 -16q-11 -26 -37.5 -42t-59.5 -16zM353 -25q-121 0 -195.5 83.5t-74.5 219.5v423h42v-423q0 -119 62.5 -191t165.5 -72t165 72t62 191v423h42v-423
q0 -136 -74 -219.5t-195 -83.5z" />
    <glyph glyph-name="utilde" unicode="&#x169;" 
d="M346 615q-34 0 -73 29.5t-61 29.5q-38 0 -59 -36l-28 19q11 24 35.5 39t51.5 15q32 0 72 -30t62 -30q20 0 37.5 10.5t24.5 27.5l32 -17q-11 -25 -37.5 -41t-56.5 -16zM514 501v-501h-41v92h-7q-25 -52 -73.5 -82t-109.5 -30q-93 0 -149.5 64.5t-56.5 164.5v292h41v-292
q0 -84 46 -137t124 -53q77 0 131 52.5t54 130.5v299h41z" />
    <glyph glyph-name="Umacron" unicode="&#x16a;" horiz-adv-x="704" 
d="M213 816v38h281v-38h-281zM353 -25q-121 0 -195.5 83.5t-74.5 219.5v423h42v-423q0 -119 62.5 -191t165.5 -72t165 72t62 191v423h42v-423q0 -136 -74 -219.5t-195 -83.5z" />
    <glyph glyph-name="umacron" unicode="&#x16b;" 
d="M149 616v38h281v-38h-281zM514 501v-501h-41v92h-7q-25 -52 -73.5 -82t-109.5 -30q-93 0 -149.5 64.5t-56.5 164.5v292h41v-292q0 -84 46 -137t124 -53q77 0 131 52.5t54 130.5v299h41z" />
    <glyph glyph-name="Ubreve" unicode="&#x16c;" horiz-adv-x="704" 
d="M354 764q-52 0 -85 29.5t-33 74.5h40q0 -30 21.5 -48.5t56.5 -18.5q34 0 55.5 18.5t21.5 48.5h41q0 -45 -33.5 -74.5t-84.5 -29.5zM353 -25q-121 0 -195.5 83.5t-74.5 219.5v423h42v-423q0 -119 62.5 -191t165.5 -72t165 72t62 191v423h42v-423q0 -136 -74 -219.5
t-195 -83.5z" />
    <glyph glyph-name="ubreve" unicode="&#x16d;" 
d="M288 608q-54 0 -88.5 34.5t-34.5 88.5h38q0 -38 24 -62.5t61 -24.5t61 24.5t24 62.5h38q0 -54 -35 -88.5t-88 -34.5zM514 501v-501h-41v92h-7q-25 -52 -73.5 -82t-109.5 -30q-93 0 -149.5 64.5t-56.5 164.5v292h41v-292q0 -84 46 -137t124 -53q77 0 131 52.5t54 130.5
v299h41z" />
    <glyph glyph-name="Uring" unicode="&#x16e;" horiz-adv-x="704" 
d="M353 762q-38 0 -63 24.5t-25 62.5q0 37 25 61.5t63 24.5t63 -24.5t25 -61.5t-25 -62t-63 -25zM353 794q24 0 40 15.5t16 39.5t-15.5 39t-40.5 15q-24 0 -39.5 -15t-15.5 -39t15 -39.5t40 -15.5zM353 -25q-121 0 -195.5 83.5t-74.5 219.5v423h42v-423q0 -119 62.5 -191
t165.5 -72t165 72t62 191v423h42v-423q0 -136 -74 -219.5t-195 -83.5z" />
    <glyph glyph-name="uring" unicode="&#x16f;" 
d="M289 574q-43 0 -70.5 27t-27.5 69q0 43 27.5 70t70.5 27q42 0 69.5 -27t27.5 -70q0 -42 -27.5 -69t-69.5 -27zM289 603q29 0 48 19.5t19 47.5q0 29 -19 48.5t-48 19.5t-48.5 -19.5t-19.5 -48.5t19.5 -48t48.5 -19zM514 501v-501h-41v92h-7q-25 -52 -73.5 -82t-109.5 -30
q-93 0 -149.5 64.5t-56.5 164.5v292h41v-292q0 -84 46 -137t124 -53q77 0 131 52.5t54 130.5v299h41z" />
    <glyph glyph-name="Uhungarumlaut" unicode="&#x170;" horiz-adv-x="704" 
d="M239 774l85 95h53l-87 -95h-51zM399 774l85 95h54l-89 -95h-50zM353 -25q-121 0 -195.5 83.5t-74.5 219.5v423h42v-423q0 -119 62.5 -191t165.5 -72t165 72t62 191v423h42v-423q0 -136 -74 -219.5t-195 -83.5z" />
    <glyph glyph-name="uhungarumlaut" unicode="&#x171;" 
d="M187 615l103 115h53l-106 -115h-50zM396 615h-52l106 115h51zM514 501v-501h-41v92h-7q-25 -52 -73.5 -82t-109.5 -30q-93 0 -149.5 64.5t-56.5 164.5v292h41v-292q0 -84 46 -137t124 -53q77 0 131 52.5t54 130.5v299h41z" />
    <glyph glyph-name="Uogonek" unicode="&#x172;" horiz-adv-x="704" 
d="M580 701h42v-423q0 -109 -50 -187t-135 -104q-60 -32 -83.5 -56t-23.5 -49q0 -22 13.5 -35t36.5 -13q31 0 68 24v-35q-37 -23 -73 -23q-35 0 -57 22.5t-22 57.5q0 50 64 95h-7q-121 0 -195.5 83.5t-74.5 219.5v423h42v-423q0 -119 62.5 -191t165.5 -72t165 72t62 191v423
z" />
    <glyph glyph-name="uogonek" unicode="&#x173;" 
d="M473 501h41v-501h-10q-74 -38 -102.5 -64.5t-28.5 -53.5q0 -22 14 -35t37 -13q30 0 67 24v-35q-37 -23 -73 -23q-34 0 -56 22.5t-22 57.5q0 36 30 67.5t103 68.5v76h-7q-25 -52 -73.5 -82t-109.5 -30q-93 0 -149.5 64.5t-56.5 164.5v292h41v-292q0 -84 46 -137t124 -53
q77 0 131 52.5t54 130.5v299z" />
    <glyph glyph-name="Wcircumflex" unicode="&#x174;" horiz-adv-x="998" 
d="M475 868h51l102 -94h-53l-71 64h-7l-71 -64h-53zM244 0l-210 701h43l198 -662h8l184 662h65l184 -662h8l198 662h42l-209 -701h-70l-181 655h-9l-181 -655h-70z" />
    <glyph glyph-name="wcircumflex" unicode="&#x175;" horiz-adv-x="830" 
d="M292 615l98 116h51l99 -116h-47l-74 83h-7l-73 -83h-47zM202 0l-174 501h43l158 -458h7l148 458h59l151 -458h6l158 458h43l-174 -501h-61l-149 455h-7l-147 -455h-61z" />
    <glyph glyph-name="Ycircumflex" unicode="&#x176;" horiz-adv-x="576" 
d="M263 868h52l101 -94h-53l-71 64h-6l-72 -64h-53zM268 0v283l-245 418h47l215 -370h7l215 370h47l-244 -418v-283h-42z" />
    <glyph glyph-name="ycircumflex" unicode="&#x177;" horiz-adv-x="539" 
d="M148 615l99 116h51l99 -116h-48l-73 83h-7l-73 -83h-48zM112 -221q-32 0 -63 11v39q37 -11 61 -11q21 0 39.5 10t31.5 23.5t29 41.5t25.5 49t26.5 62l-235 497h43l209 -441h7l181 441h43l-208 -503q-46 -113 -86 -166t-104 -53z" />
    <glyph glyph-name="Ydieresis" unicode="&#x178;" horiz-adv-x="576" 
d="M186 790q-16 0 -26 10t-10 26q0 15 10 25.5t26 10.5q15 0 25.5 -10.5t10.5 -25.5q0 -16 -10.5 -26t-25.5 -10zM392 790q-16 0 -26 10t-10 26q0 15 10 25.5t26 10.5q15 0 25.5 -10.5t10.5 -25.5q0 -16 -10.5 -26t-25.5 -10zM268 0v283l-245 418h47l215 -370h7l215 370h47
l-244 -418v-283h-42z" />
    <glyph glyph-name="Zacute" unicode="&#x179;" horiz-adv-x="612" 
d="M286 774l91 94h54l-92 -94h-53zM35 0v24l467 630v7h-457v40h523v-24l-466 -630v-7h476v-40h-543z" />
    <glyph glyph-name="zacute" unicode="&#x17a;" horiz-adv-x="521" 
d="M291 615h-52l109 116h51zM39 0v23l364 432v7h-354v39h423v-23l-363 -432v-7h373v-39h-443z" />
    <glyph glyph-name="Zdotaccent" unicode="&#x17b;" horiz-adv-x="612" 
d="M312 790q-16 0 -26 10t-10 26t10 26t26 10t26 -10t10 -26t-10 -26t-26 -10zM35 0v24l467 630v7h-457v40h523v-24l-466 -630v-7h476v-40h-543z" />
    <glyph glyph-name="zdotaccent" unicode="&#x17c;" horiz-adv-x="521" 
d="M264 608q-15 0 -25.5 10.5t-10.5 25.5q0 16 10.5 26t25.5 10q16 0 26 -10t10 -26q0 -15 -10 -25.5t-26 -10.5zM39 0v23l364 432v7h-354v39h423v-23l-363 -432v-7h373v-39h-443z" />
    <glyph glyph-name="Zcaron" unicode="&#x17d;" horiz-adv-x="612" 
d="M284 774l-103 94h53l72 -64h7l71 64h53l-102 -94h-51zM35 0v24l467 630v7h-457v40h523v-24l-466 -630v-7h476v-40h-543z" />
    <glyph glyph-name="zcaron" unicode="&#x17e;" horiz-adv-x="521" 
d="M140 731h47l74 -83h7l73 83h48l-99 -116h-51zM39 0v23l364 432v7h-354v39h423v-23l-363 -432v-7h373v-39h-443z" />
    <glyph glyph-name="AEacute" unicode="&#x1fc;" horiz-adv-x="884" 
d="M413 774l92 94h54l-92 -94h-54zM23 0l365 701h438v-40h-362v-285h322v-39h-322v-297h371v-40h-413v156h-269l-83 -156h-47zM173 195h249v468h-7z" />
    <glyph glyph-name="aeacute" unicode="&#x1fd;" horiz-adv-x="974" 
d="M535 615h-52l108 116h52zM282 521q75 0 128.5 -37.5t68.5 -99.5q67 137 211 137q102 0 167.5 -76t65.5 -193v-15h-433q4 -95 60.5 -156.5t140.5 -61.5q59 0 107.5 37t71.5 98l38 -11q-25 -72 -84 -117.5t-132 -45.5q-77 0 -136.5 43.5t-85.5 116.5q-20 -75 -82 -117
t-151 -42q-83 0 -136.5 41t-53.5 105q0 75 63.5 111.5t174.5 50.5l162 19v28q0 64 -46 105t-119 41t-120 -37t-47 -94h-41q0 74 58.5 122t149.5 48zM689 482q-82 0 -136.5 -57.5t-61.5 -149.5h389q-8 92 -60.5 149.5t-130.5 57.5zM285 251q-96 -11 -146.5 -39.5t-50.5 -85.5
q0 -47 42.5 -77t108.5 -30q94 0 151 52.5t57 133.5v65z" />
    <glyph glyph-name="Oslashacute" unicode="&#x1fe;" horiz-adv-x="842" 
d="M373 774l92 94h54l-92 -94h-54zM165 -140l80 158q-87 46 -136.5 133.5t-49.5 199.5q0 163 102 269t260 106q89 0 163 -37l87 171h44l-96 -190q77 -49 121 -132.5t44 -186.5q0 -164 -102.5 -270t-260.5 -106q-76 0 -140 26l-71 -141h-45zM263 55l303 598q-68 33 -145 33
q-139 0 -229 -94.5t-90 -240.5q0 -98 43 -176t118 -120zM421 15q140 0 230 94.5t90 241.5q0 91 -37.5 165t-103.5 117l-300 -595q55 -23 121 -23z" />
    <glyph glyph-name="oslashacute" unicode="&#x1ff;" horiz-adv-x="626" 
d="M359 615h-52l109 116h52zM138 -80l46 91q-62 34 -97.5 96.5t-35.5 143.5q0 118 73.5 194t188.5 76q65 0 117 -26l53 105h43l-63 -123q53 -36 83 -95t30 -131q0 -118 -74 -194.5t-189 -76.5q-52 0 -94 16l-38 -76h-43zM201 45l212 417q-46 22 -100 22q-97 0 -160 -66
t-63 -167q0 -68 29.5 -122t81.5 -84zM313 17q98 0 161 66t63 168q0 124 -91 191l-210 -413q36 -12 77 -12z" />
    <glyph glyph-name="Scommaaccent" unicode="&#x218;" horiz-adv-x="688" 
d="M349 -25q-129 0 -205 67t-76 181h42q0 -96 64.5 -152t175.5 -56q104 0 166 44.5t62 118.5q0 87 -95 122q-39 14 -146 32q-46 7 -76 13.5t-68 21t-59.5 33t-37 50t-15.5 72.5q0 93 68 148.5t187 55.5q123 0 195.5 -62t72.5 -168l-41 -1q-1 88 -62 139.5t-164 51.5
q-98 0 -156 -45.5t-58 -117.5q0 -33 13.5 -57.5t31.5 -39t52 -26t59 -16.5t69 -12q37 -6 57 -9.5t53.5 -11.5t52.5 -16.5t42.5 -23t36 -32t21.5 -43t9 -56.5q0 -95 -73 -150t-198 -55zM332 -238l-20 8l33 81q-30 5 -30 34q0 15 9.5 25t25.5 10t25.5 -10t9.5 -25
q0 -12 -6 -24z" />
    <glyph glyph-name="scommaaccent" unicode="&#x219;" horiz-adv-x="512" 
d="M267 -20q-97 0 -156.5 49.5t-59.5 129.5h40q0 -62 48.5 -101.5t127.5 -39.5q67 0 110.5 28.5t43.5 76.5q0 14 -3 26t-6 21.5t-12 17.5t-14 13t-19 10.5t-19.5 8t-23.5 6t-23.5 4.5t-26 4t-25.5 4q-33 5 -54.5 9.5t-49 14.5t-43.5 24.5t-27.5 38.5t-11.5 56q0 62 51.5 101
t134.5 39q89 0 143.5 -45.5t53.5 -120.5h-40q1 58 -42.5 93t-115.5 35q-65 0 -105 -27.5t-40 -71.5q0 -25 9.5 -43.5t21 -28.5t36.5 -18t40 -10.5t48 -7.5q40 -6 60 -10t52.5 -15t48.5 -25.5t29 -40t13 -60.5q0 -67 -54 -106t-140 -39zM243 -238l-20 8l34 81q-31 5 -31 34
q0 15 9.5 25t25.5 10t25.5 -10t9.5 -25q0 -12 -6 -24z" />
    <glyph glyph-name="uni021A" unicode="&#x21a;" horiz-adv-x="573" 
d="M266 0v661h-247v40h536v-40h-247v-661h-42zM269 -238l-20 8l34 81q-31 5 -31 34q0 15 9.5 25t25.5 10t25.5 -10t9.5 -25q0 -12 -6 -24z" />
    <glyph glyph-name="uni021B" unicode="&#x21b;" horiz-adv-x="347" 
d="M237 -12q-52 0 -84 35t-32 91v350h-88v37h88l4 153h37v-153h138v-37h-138v-349q0 -40 21.5 -64.5t57.5 -24.5q35 0 68 10v-37q-30 -11 -72 -11zM209 -238l-21 8l34 81q-30 5 -30 34q0 15 9.5 25t25.5 10t25.5 -10t9.5 -25q0 -10 -7 -24z" />
    <glyph glyph-name="circumflex" unicode="&#x2c6;" horiz-adv-x="350" 
d="M51 615l98 116h51l99 -116h-47l-74 83h-7l-73 -83h-47z" />
    <glyph glyph-name="caron" unicode="&#x2c7;" horiz-adv-x="350" 
d="M51 731h47l73 -83h7l74 83h47l-99 -116h-51z" />
    <glyph glyph-name="breve" unicode="&#x2d8;" horiz-adv-x="346" 
d="M173 608q-53 0 -87.5 35t-34.5 88h38q0 -38 23.5 -62.5t60.5 -24.5t61 24.5t24 62.5h38q0 -53 -34.5 -88t-88.5 -35z" />
    <glyph glyph-name="dotaccent" unicode="&#x2d9;" horiz-adv-x="173" 
d="M87 608q-16 0 -26 10.5t-10 25.5q0 16 10 26t26 10q15 0 25.5 -10t10.5 -26q0 -15 -10.5 -25.5t-25.5 -10.5z" />
    <glyph glyph-name="ring" unicode="&#x2da;" horiz-adv-x="297" 
d="M148 574q-42 0 -69.5 27t-27.5 69q0 43 27.5 70t69.5 27q43 0 70.5 -27t27.5 -70q0 -42 -27.5 -69t-70.5 -27zM148 603q29 0 48.5 19t19.5 48t-19.5 48.5t-48.5 19.5t-48 -19.5t-19 -48.5q0 -28 19.5 -47.5t47.5 -19.5z" />
    <glyph glyph-name="ogonek" unicode="&#x2db;" horiz-adv-x="266" 
d="M129 -200q-34 0 -56 22.5t-22 57.5q0 38 33.5 71t114.5 72l16 -23q-74 -38 -102.5 -64.5t-28.5 -53.5q0 -23 13.5 -35.5t37.5 -12.5q29 0 67 24v-35q-37 -23 -73 -23z" />
    <glyph glyph-name="tilde" unicode="&#x2dc;" horiz-adv-x="416" 
d="M272 615q-34 0 -73.5 29.5t-60.5 29.5q-38 0 -59 -36l-28 19q11 24 35 39t51 15q32 0 72.5 -30t62.5 -30q20 0 37 10.5t25 27.5l31 -17q-11 -25 -37 -41t-56 -16z" />
    <glyph glyph-name="hungarumlaut" unicode="&#x2dd;" horiz-adv-x="416" 
d="M51 615l103 115h53l-105 -115h-51zM260 615h-51l105 115h51z" />
    <glyph glyph-name="uni0401" unicode="&#x401;" horiz-adv-x="625" 
d="M229 790q-16 0 -26 10t-10 26q0 15 10 25.5t26 10.5q15 0 25.5 -10.5t10.5 -25.5q0 -16 -10.5 -26t-25.5 -10zM435 790q-16 0 -26 10t-10 26q0 15 10 25.5t26 10.5t26 -10.5t10 -25.5q0 -16 -10 -26t-26 -10zM92 0v701h473v-40h-431v-276h391v-40h-391v-305h441v-40h-483
z" />
    <glyph glyph-name="uni0402" unicode="&#x402;" horiz-adv-x="689" 
d="M398 -19q-44 0 -87 10v39q39 -11 83 -11q83 0 130 48.5t47 149.5v37q0 109 -53.5 168.5t-150.5 59.5q-99 0 -159.5 -60t-60.5 -162v-260h-40v662h-89v39h218v-39h-89v-281h7q21 67 80.5 103.5t141.5 36.5q109 0 172 -71t63 -196v-37q0 -119 -57 -177.5t-156 -58.5z" />
    <glyph glyph-name="uni0403" unicode="&#x403;" horiz-adv-x="593" 
d="M276 774l92 94h54l-92 -94h-54zM91 0v701h431v-40h-389v-661h-42z" />
    <glyph glyph-name="uni0404" unicode="&#x404;" horiz-adv-x="819" 
d="M430 -25q-162 0 -267 106t-105 270q0 163 105 269t267 106q122 0 215.5 -74t114.5 -183l-41 -7q-21 95 -102 159.5t-186 64.5q-138 0 -230.5 -88t-99.5 -227h466v-40h-466q7 -138 99.5 -227t230.5 -89q108 0 189 62.5t100 154.5l41 -8q-21 -106 -114.5 -177.5
t-216.5 -71.5z" />
    <glyph glyph-name="uni0405" unicode="&#x405;" horiz-adv-x="688" 
d="M349 -25q-129 0 -205 67t-76 181h42q0 -96 64.5 -152t175.5 -56q104 0 166 44.5t62 118.5q0 87 -95 122q-39 14 -146 32q-46 7 -76 13.5t-68 21t-59.5 33t-37 50t-15.5 72.5q0 93 68 148.5t187 55.5q123 0 195.5 -62t72.5 -168l-41 -1q-1 88 -62 139.5t-164 51.5
q-98 0 -156 -45.5t-58 -117.5q0 -33 13.5 -57.5t31.5 -39t52 -26t59 -16.5t69 -12q37 -6 57 -9.5t53.5 -11.5t52.5 -16.5t42.5 -23t36 -32t21.5 -43t9 -56.5q0 -95 -73 -150t-198 -55z" />
    <glyph glyph-name="uni0406" unicode="&#x406;" horiz-adv-x="225" 
d="M91 0v701h43v-701h-43z" />
    <glyph glyph-name="uni0407" unicode="&#x407;" horiz-adv-x="225" 
d="M10 790q-16 0 -26 10t-10 26q0 15 10 25.5t26 10.5t26 -10.5t10 -25.5q0 -16 -10 -26t-26 -10zM216 790q-15 0 -25.5 10t-10.5 26q0 15 10.5 25.5t25.5 10.5q16 0 26 -10.5t10 -25.5q0 -16 -10 -26t-26 -10zM93 0v701h42v-701h-42z" />
    <glyph glyph-name="uni0408" unicode="&#x408;" horiz-adv-x="441" 
d="M152 -20q-56 0 -119 20v40q68 -20 117 -20q71 0 114 49t43 141v491h42v-491q0 -110 -54.5 -170t-142.5 -60z" />
    <glyph glyph-name="uni0409" unicode="&#x409;" horiz-adv-x="1089" 
d="M22 0v40q73 0 110.5 47.5t48.5 153.5l51 460h396v-282h174q103 0 170.5 -59t67.5 -150t-67 -150.5t-171 -59.5h-216v661h-313l-54 -444q-13 -111 -61.5 -164t-135.5 -53zM629 40h171q87 0 143 47.5t56 121.5t-56 122t-143 48h-171v-339z" />
    <glyph glyph-name="uni040A" unicode="&#x40a;" horiz-adv-x="980" 
d="M91 0v701h42v-315h361v315h42v-315h174q99 0 160.5 -53.5t61.5 -139.5t-61.5 -139.5t-160.5 -53.5h-216v346h-361v-346h-42zM537 40h171q82 0 131.5 42t49.5 111t-49.5 111t-131.5 42h-171v-306z" />
    <glyph glyph-name="uni040B" unicode="&#x40b;" horiz-adv-x="689" 
d="M107 0v662h-89v39h218v-39h-89v-281h7q21 67 80.5 103.5t141.5 36.5q109 0 172 -71t63 -196v-253h-40v253q0 109 -53.5 168.5t-150.5 59.5q-99 0 -159.5 -60t-60.5 -162v-260h-40z" />
    <glyph glyph-name="uni040C" unicode="&#x40c;" horiz-adv-x="592" 
d="M287 774l91 94h54l-92 -94h-53zM91 0v701h42v-314h7l354 314h61l-375 -332l383 -369h-59l-364 352h-7v-352h-42z" />
    <glyph glyph-name="uni040E" unicode="&#x40e;" horiz-adv-x="590" 
d="M314 764q-52 0 -85 29.5t-33 74.5h40q0 -30 22 -48.5t56 -18.5t55.5 18.5t21.5 48.5h41q0 -45 -33 -74.5t-85 -29.5zM92 -20q-39 0 -64 11v40q35 -11 63 -11q22 0 39.5 4t31 8.5t27.5 19.5t22 23.5t22.5 35.5t22 41t26.5 54l18 36l-268 459h47l239 -409h6l198 409h46
l-239 -494q-24 -50 -35.5 -72.5t-31 -55t-33.5 -46t-35.5 -28.5t-45.5 -20t-56 -5z" />
    <glyph glyph-name="uni040F" unicode="&#x40f;" horiz-adv-x="703" 
d="M330 -149v149h-239v701h42v-661h436v661h43v-701h-240v-149h-42z" />
    <glyph glyph-name="uni0410" unicode="&#x410;" horiz-adv-x="652" 
d="M23 0l273 701h62l272 -701h-43l-72 183h-377l-72 -183h-43zM152 223h349l-171 438h-7z" />
    <glyph glyph-name="uni0411" unicode="&#x411;" horiz-adv-x="647" 
d="M91 0v701h456v-40h-414v-262h224q115 0 178.5 -55.5t63.5 -143.5q0 -89 -67 -144.5t-185 -55.5h-256zM133 40h211q102 0 157.5 45t55.5 115t-52 114.5t-151 44.5h-221v-319z" />
    <glyph glyph-name="uni0412" unicode="&#x412;" horiz-adv-x="676" 
d="M91 0v701h293q89 0 147 -50.5t58 -127.5q0 -56 -34 -97.5t-91 -56.5v-7q65 -15 105 -61t40 -109q0 -83 -66 -137.5t-167 -54.5h-285zM133 385h249q72 0 118.5 38.5t46.5 99.5q0 60 -46.5 99t-118.5 39h-249v-276zM133 40h241q84 0 138.5 43t54.5 110q0 66 -54.5 108.5
t-138.5 42.5h-241v-304z" />
    <glyph glyph-name="uni0413" unicode="&#x413;" horiz-adv-x="552" 
d="M91 0v701h431v-40h-389v-661h-42z" />
    <glyph glyph-name="uni0414" unicode="&#x414;" horiz-adv-x="800" 
d="M12 -150v190h70q95 70 118 238l58 423h411v-661h109v-190h-41v150h-684v-150h-41zM140 40h486v621h-330l-55 -390q-21 -154 -101 -224v-7z" />
    <glyph glyph-name="uni0415" unicode="&#x415;" horiz-adv-x="625" 
d="M92 0v701h473v-40h-431v-276h391v-40h-391v-305h441v-40h-483z" />
    <glyph glyph-name="uni0416" unicode="&#x416;" horiz-adv-x="877" 
d="M22 0l350 369l-342 332h58l322 -314h7v314h43v-314h6l322 314h59l-343 -332l351 -369h-57l-332 351h-6v-351h-43v351h-7l-331 -351h-57z" />
    <glyph glyph-name="uni0417" unicode="&#x417;" horiz-adv-x="645" 
d="M331 -25q-116 0 -190.5 73.5t-74.5 187.5h42q0 -97 62.5 -159t160.5 -62q89 0 148 48.5t59 123.5q0 74 -51.5 118t-134.5 44h-111v40h112q71 0 115.5 40t44.5 108q0 64 -54 106.5t-137 42.5q-87 0 -143 -53t-56 -135h-42q0 99 68 163.5t173 64.5q101 0 167 -53t66 -135
q0 -66 -33 -107.5t-91 -56.5v-7q69 -15 109 -62t40 -119q0 -92 -70.5 -151.5t-178.5 -59.5z" />
    <glyph glyph-name="uni0418" unicode="&#x418;" horiz-adv-x="703" 
d="M612 0h-42v645h-7l-409 -645h-63v701h42v-646h7l409 646h63v-701z" />
    <glyph glyph-name="uni0419" unicode="&#x419;" horiz-adv-x="703" 
d="M361 764q-51 0 -84.5 29.5t-33.5 74.5h41q0 -30 21.5 -48.5t55.5 -18.5q35 0 56.5 18.5t21.5 48.5h40q0 -45 -33 -74.5t-85 -29.5zM91 701h42v-645h7l409 645h63v-701h-42v646h-7l-409 -646h-63v701z" />
    <glyph glyph-name="uni041A" unicode="&#x41a;" horiz-adv-x="592" 
d="M91 0v701h42v-314h7l354 314h61l-375 -332l383 -369h-59l-364 352h-7v-352h-42z" />
    <glyph glyph-name="uni041B" unicode="&#x41b;" horiz-adv-x="719" 
d="M22 0v40q73 0 110.5 47.5t48.5 153.5l51 460h396v-701h-42v661h-313l-54 -444q-13 -111 -61.5 -164t-135.5 -53z" />
    <glyph glyph-name="uni041C" unicode="&#x41c;" horiz-adv-x="903" 
d="M91 0v701h69l288 -645h7l287 645h70v-701h-43v647h-6l-289 -647h-46l-288 645h-7v-645h-42z" />
    <glyph glyph-name="uni041D" unicode="&#x41d;" horiz-adv-x="703" 
d="M91 0v701h42v-315h436v315h43v-701h-43v345h-436v-345h-42z" />
    <glyph glyph-name="uni041E" unicode="&#x41e;" horiz-adv-x="861" 
d="M430 -25q-162 0 -267 106t-105 270q0 163 105 269t267 106t267.5 -106t105.5 -269t-105.5 -269.5t-267.5 -106.5zM430 15q144 0 237 95t93 241t-93 240.5t-237 94.5q-143 0 -236 -94.5t-93 -240.5t93 -241t236 -95z" />
    <glyph glyph-name="uni041F" unicode="&#x41f;" horiz-adv-x="702" 
d="M91 0v701h520v-701h-42v662h-436v-662h-42z" />
    <glyph glyph-name="uni0420" unicode="&#x420;" horiz-adv-x="639" 
d="M92 0v701h256q116 0 179.5 -58t62.5 -153q0 -95 -63.5 -153t-178.5 -58h-215v-279h-41zM133 319h215q97 0 148.5 46.5t51.5 124.5q0 77 -51.5 124t-148.5 47h-215v-342z" />
    <glyph glyph-name="uni0421" unicode="&#x421;" horiz-adv-x="816" 
d="M424 -25q-160 0 -262.5 106t-102.5 270t102.5 269.5t262.5 105.5q120 0 215 -73.5t119 -181.5l-42 -7q-21 94 -104 158t-188 64q-142 0 -232 -94t-90 -241t90.5 -241.5t231.5 -94.5q107 0 189.5 62t103.5 153l40 -9q-23 -104 -117.5 -175t-215.5 -71z" />
    <glyph glyph-name="uni0422" unicode="&#x422;" horiz-adv-x="573" 
d="M266 0v661h-247v40h536v-40h-247v-661h-42z" />
    <glyph glyph-name="uni0423" unicode="&#x423;" horiz-adv-x="590" 
d="M92 -20q-39 0 -64 11v40q35 -11 63 -11q22 0 39.5 4t31 8.5t27.5 19.5t22 23.5t22.5 35.5t22 41t26.5 54l18 36l-268 459h47l239 -409h6l198 409h46l-239 -494q-24 -50 -35.5 -72.5t-31 -55t-33.5 -46t-35.5 -28.5t-45.5 -20t-56 -5z" />
    <glyph glyph-name="uni0424" unicode="&#x424;" horiz-adv-x="782" 
d="M369 -30v84q-141 5 -231 92t-90 209q1 125 90.5 211.5t231.5 90.5v74h42v-74q143 -1 233 -88t89 -214q0 -128 -90.5 -214.5t-232.5 -86.5v-84h-42zM370 94v523q-124 -4 -201.5 -79.5t-77.5 -182.5q0 -106 78.5 -181.5t200.5 -79.5zM412 94q123 0 201.5 75.5t78.5 185.5
q1 110 -78 186t-202 76v-523z" />
    <glyph glyph-name="uni0425" unicode="&#x425;" horiz-adv-x="614" 
d="M33 0l246 371l-237 330h50l211 -298h7l213 298h51l-239 -330l247 -371h-50l-222 336h-7l-221 -336h-49z" />
    <glyph glyph-name="uni0426" unicode="&#x426;" horiz-adv-x="727" 
d="M663 -149v149h-572v701h42v-661h436v661h43v-661h94v-189h-43z" />
    <glyph glyph-name="uni0427" unicode="&#x427;" horiz-adv-x="651" 
d="M517 0v332q-31 -47 -89.5 -76.5t-121.5 -29.5q-109 0 -177 61.5t-68 183.5v230h42v-228q0 -105 57.5 -156.5t150.5 -51.5q65 0 124 37t82 92v307h43v-701h-43z" />
    <glyph glyph-name="uni0428" unicode="&#x428;" horiz-adv-x="926" 
d="M91 0v701h42v-661h309v661h42v-661h309v661h42v-701h-744z" />
    <glyph glyph-name="uni0429" unicode="&#x429;" horiz-adv-x="961" 
d="M896 -149v149h-805v701h42v-661h309v661h42v-661h309v661h42v-661h104v-189h-43z" />
    <glyph glyph-name="uni042A" unicode="&#x42a;" horiz-adv-x="710" 
d="M161 0v661h-139v40h181v-273h217q108 0 175 -59.5t67 -154.5t-67 -154.5t-175 -59.5h-259zM203 40h214q91 0 146.5 48t55.5 126q0 77 -55.5 125t-146.5 48h-214v-347z" />
    <glyph glyph-name="uni042B" unicode="&#x42b;" horiz-adv-x="881" 
d="M91 0v701h42v-273h217q105 0 173.5 -60.5t68.5 -153.5t-68.5 -153.5t-173.5 -60.5h-259zM748 0v701h42v-701h-42zM133 40h214q88 0 145 49t57 125q0 75 -57 124t-145 49h-214v-347z" />
    <glyph glyph-name="uni042C" unicode="&#x42c;" horiz-adv-x="640" 
d="M91 0v701h42v-273h217q105 0 173.5 -60.5t68.5 -153.5t-68.5 -153.5t-173.5 -60.5h-259zM133 40h214q88 0 145 49t57 125q0 75 -57 124t-145 49h-214v-347z" />
    <glyph glyph-name="uni042D" unicode="&#x42d;" horiz-adv-x="819" 
d="M393 -25q-123 0 -218.5 72t-116.5 177l41 8q19 -92 102 -154.5t192 -62.5q137 0 227.5 88.5t97.5 227.5h-468v40h468q-6 140 -96.5 227.5t-228.5 87.5q-106 0 -189.5 -64.5t-103.5 -159.5l-41 7q21 108 116 182.5t218 74.5q162 0 265 -105.5t103 -269.5t-103 -270
t-265 -106z" />
    <glyph glyph-name="uni042E" unicode="&#x42e;" horiz-adv-x="994" 
d="M603 -25q-141 0 -233.5 99.5t-99.5 256.5h-137v-331h-42v701h42v-329h137q7 156 99.5 255t233.5 99q147 0 239.5 -105t92.5 -270t-93.5 -270.5t-238.5 -105.5zM603 15q128 0 209 94t81 242t-80.5 241.5t-209.5 93.5q-128 0 -209.5 -94t-81.5 -241q0 -148 81.5 -242
t209.5 -94z" />
    <glyph glyph-name="uni042F" unicode="&#x42f;" horiz-adv-x="687" 
d="M595 0h-43v303h-175l-262 -303h-55l265 304h-30q-106 1 -171 55t-65 143q0 92 65 145.5t177 53.5h294v-701zM552 343v318h-251q-94 0 -147 -42t-53 -117q0 -73 54 -116t146 -43h251z" />
    <glyph glyph-name="uni0430" unicode="&#x430;" horiz-adv-x="541" 
d="M214 -19q-77 0 -122 34.5t-45 92.5q0 128 214 164l161 27v28q0 65 -42.5 106t-109.5 41q-68 0 -111.5 -37t-43.5 -95h-41q0 75 55 123t141 48q85 0 139 -52t54 -134v-327h-41v93h-6q-27 -54 -80.5 -83t-121.5 -29zM217 19q92 0 148.5 52.5t56.5 132.5v57l-156 -26
q-94 -17 -136 -48t-42 -79q0 -42 34.5 -65.5t94.5 -23.5z" />
    <glyph glyph-name="uni0431" unicode="&#x431;" horiz-adv-x="611" 
d="M320 -21q-106 0 -174.5 70.5t-68.5 179.5q0 192 26 293t85.5 143t173.5 42q71 0 100 10t29 33h39q0 -43 -37 -63t-130 -20q-86 0 -133.5 -23t-74.5 -89t-33 -191h6q59 115 194 115q105 0 172 -70.5t67 -179.5t-68 -179.5t-173 -70.5zM320 18q88 0 144 59t56 153
q0 92 -56 151t-144 59t-145 -58t-57 -152t56.5 -153t145.5 -59z" />
    <glyph glyph-name="uni0432" unicode="&#x432;" horiz-adv-x="536" 
d="M87 0v501h241q64 0 104.5 -36.5t40.5 -92.5q0 -89 -87 -112v-6q47 -8 74 -39t27 -78q0 -62 -45 -99.5t-119 -37.5h-236zM128 276h198q47 0 77 25.5t30 67.5t-30 68t-77 26h-198v-187zM128 38h192q58 0 92.5 27.5t34.5 72.5q0 46 -34 73t-93 27h-192v-200z" />
    <glyph glyph-name="uni0433" unicode="&#x433;" horiz-adv-x="438" 
d="M87 0v501h321v-39h-280v-462h-41z" />
    <glyph glyph-name="uni0434" unicode="&#x434;" horiz-adv-x="630" 
d="M20 -150v189h61q39 26 56.5 69t29.5 128l37 265h301v-462h85v-189h-39v150h-492v-150h-39zM136 39h329v423h-226l-35 -243q-10 -71 -23.5 -108.5t-44.5 -64.5v-7z" />
    <glyph glyph-name="uni0435" unicode="&#x435;" horiz-adv-x="632" 
d="M322 -20q-118 0 -194.5 76.5t-76.5 195.5q0 117 76 193t194 76q114 0 187.5 -76t73.5 -193v-15h-490q4 -96 68.5 -157t161.5 -61q69 0 127 38t80 97l38 -11q-26 -72 -94 -117.5t-151 -45.5zM93 276h446q-7 91 -67.5 148.5t-151.5 57.5q-93 0 -156 -57.5t-71 -148.5z" />
    <glyph glyph-name="uni0436" unicode="&#x436;" horiz-adv-x="679" 
d="M25 0l249 260l-241 241h55l224 -225h7v225h41v-225h7l224 225h55l-241 -241l249 -260h-54l-233 245h-7v-245h-41v245h-7l-233 -245h-54z" />
    <glyph glyph-name="uni0437" unicode="&#x437;" horiz-adv-x="479" 
d="M241 -20q-86 0 -138.5 49.5t-52.5 127.5h41q0 -63 40.5 -100.5t109.5 -37.5q67 0 108 31.5t41 83.5q0 48 -34.5 78t-86.5 30h-101v39h101q47 0 77.5 29.5t30.5 71.5q0 46 -38 73t-101 27q-66 0 -103.5 -34.5t-37.5 -92.5h-41q-2 72 49 119t133 47q80 0 129.5 -38
t49.5 -100q0 -85 -86 -116v-7q46 -11 73 -45t27 -83q0 -69 -52.5 -110.5t-137.5 -41.5z" />
    <glyph glyph-name="uni0438" unicode="&#x438;" horiz-adv-x="603" 
d="M87 0v501h41v-439h7l332 439h49v-501h-41v439h-7l-331 -439h-50z" />
    <glyph glyph-name="uni0439" unicode="&#x439;" horiz-adv-x="603" 
d="M294 608q-54 0 -88.5 34.5t-34.5 88.5h38q0 -38 24 -62.5t61 -24.5t60.5 24.5t23.5 62.5h38q0 -54 -34.5 -88.5t-87.5 -34.5zM87 0v501h41v-439h7l332 439h49v-501h-41v439h-7l-331 -439h-50z" />
    <glyph glyph-name="uni043A" unicode="&#x43a;" horiz-adv-x="463" 
d="M87 0v501h41v-223h7l252 223h60l-275 -240l283 -261h-59l-261 242h-7v-242h-41z" />
    <glyph glyph-name="uni043B" unicode="&#x43b;" horiz-adv-x="537" 
d="M10 0v38q50 0 71.5 38t31.5 117l37 308h300v-501h-41v462h-220l-38 -289q-24 -173 -141 -173z" />
    <glyph glyph-name="uni043C" unicode="&#x43c;" horiz-adv-x="744" 
d="M87 0v501h64l217 -452h7l218 452h64v-501h-41v444h-7l-215 -444h-45l-214 444h-7v-444h-41z" />
    <glyph glyph-name="uni043D" unicode="&#x43d;" horiz-adv-x="611" 
d="M87 0v501h41v-229h355v229h41v-501h-41v233h-355v-233h-41z" />
    <glyph glyph-name="uni043E" unicode="&#x43e;" horiz-adv-x="624" 
d="M312 -20q-114 0 -188 76.5t-74 194.5t74 194t188 76q115 0 188.5 -76t73.5 -194q0 -119 -73.5 -195t-188.5 -76zM312 19q96 0 159 65.5t63 166.5q0 100 -63 165.5t-159 65.5t-158.5 -65.5t-62.5 -165.5q0 -101 62.5 -166.5t158.5 -65.5z" />
    <glyph glyph-name="uni043F" unicode="&#x43f;" horiz-adv-x="622" 
d="M87 0v501h448v-501h-41v462h-366v-462h-41z" />
    <glyph glyph-name="uni0440" unicode="&#x440;" horiz-adv-x="662" 
d="M352 521q113 0 186.5 -76t73.5 -194t-73.5 -194.5t-186.5 -76.5q-75 0 -131.5 36.5t-84.5 99.5h-7v-346h-41v731h41v-117h7q28 64 84.5 100.5t131.5 36.5zM350 482q-96 0 -159 -65.5t-63 -165.5t63 -166t159 -66t158.5 65.5t62.5 166.5q0 100 -62.5 165.5t-158.5 65.5z
" />
    <glyph glyph-name="uni0441" unicode="&#x441;" horiz-adv-x="597" 
d="M312 -20q-114 0 -187.5 76.5t-73.5 194.5t73.5 194t187.5 76q85 0 151.5 -50t82.5 -127l-40 -6q-16 63 -71 103.5t-123 40.5q-96 0 -158 -65t-62 -166t62 -166.5t158 -65.5q68 0 123 38.5t71 97.5l40 -7q-18 -73 -84 -120.5t-150 -47.5z" />
    <glyph glyph-name="uni0442" unicode="&#x442;" horiz-adv-x="490" 
d="M225 0v462h-197v39h434v-39h-196v-462h-41z" />
    <glyph glyph-name="uni0443" unicode="&#x443;" horiz-adv-x="539" 
d="M112 -221q-32 0 -63 11v39q37 -11 61 -11q21 0 39.5 10t31.5 23.5t29 41.5t25.5 49t26.5 62l-235 497h43l209 -441h7l181 441h43l-208 -503q-46 -113 -86 -166t-104 -53z" />
    <glyph glyph-name="uni0444" unicode="&#x444;" horiz-adv-x="678" 
d="M319 -231v212q-114 5 -191.5 81t-77.5 189q0 112 77.5 188t191.5 81v212h41v-212q112 -5 190 -81t78 -188t-78 -188.5t-190 -81.5v-212h-41zM319 19v462q-95 -5 -161.5 -70.5t-66.5 -159.5q0 -95 66.5 -161t161.5 -71zM360 19q94 5 160.5 71t66.5 161q0 94 -66.5 159.5
t-160.5 70.5v-462z" />
    <glyph glyph-name="uni0445" unicode="&#x445;" horiz-adv-x="513" 
d="M35 0l194 261l-184 240h48l160 -208h6l160 208h48l-184 -240l194 -261h-48l-170 228h-6l-170 -228h-48z" />
    <glyph glyph-name="uni0446" unicode="&#x446;" horiz-adv-x="625" 
d="M548 -150v150h-461v501h41v-462h353v462h41v-462h65v-189h-39z" />
    <glyph glyph-name="uni0447" unicode="&#x447;" horiz-adv-x="554" 
d="M427 0v242q-28 -38 -75.5 -60.5t-97.5 -22.5q-87 0 -142.5 50.5t-55.5 148.5v143h41v-143q0 -77 41.5 -118.5t119.5 -41.5q59 0 104 28t64 75v199h41v-500h-40z" />
    <glyph glyph-name="uni0448" unicode="&#x448;" horiz-adv-x="833" 
d="M87 0v501h41v-462h268v462h41v-462h268v462h41v-501h-659z" />
    <glyph glyph-name="uni0449" unicode="&#x449;" horiz-adv-x="849" 
d="M772 -150v150h-685v501h41v-462h268v462h41v-462h268v462h41v-462h65v-189h-39z" />
    <glyph glyph-name="uni044A" unicode="&#x44a;" horiz-adv-x="554" 
d="M131 0v462h-129v39h169v-167h147q94 0 149 -45t55 -122q0 -79 -53.5 -123t-150.5 -44h-187zM172 39h147q79 0 121 33t42 95q0 60 -43.5 94t-119.5 34h-147v-256z" />
    <glyph glyph-name="uni044B" unicode="&#x44b;" horiz-adv-x="660" 
d="M87 0v501h41v-167h109q94 0 148.5 -45t54.5 -122q0 -79 -53.5 -123t-150.5 -44h-149zM532 0v501h41v-501h-41zM128 39h109q79 0 121 33t42 95q0 60 -43.5 94t-119.5 34h-109v-256z" />
    <glyph glyph-name="uni044C" unicode="&#x44c;" horiz-adv-x="510" 
d="M87 0v501h41v-167h147q94 0 149 -45t55 -122q0 -79 -54 -123t-150 -44h-188zM128 39h147q79 0 121 33t42 95q0 60 -43.5 94t-119.5 34h-147v-256z" />
    <glyph glyph-name="uni044D" unicode="&#x44d;" horiz-adv-x="596" 
d="M285 -20q-84 0 -150 47.5t-84 120.5l39 7q17 -59 71.5 -97.5t123.5 -38.5q91 0 151.5 59t67.5 153h-301v38h302q-6 94 -67.5 153.5t-152.5 59.5q-68 0 -123 -40.5t-71 -103.5l-41 6q16 77 83 127t152 50q113 0 187 -76t74 -194t-73.5 -194.5t-187.5 -76.5z" />
    <glyph glyph-name="uni044E" unicode="&#x44e;" horiz-adv-x="762" 
d="M469 -24q-104 0 -171 70t-71 185h-99v-237h-41v507h41v-231h99q7 113 73 181t169 68q108 0 175.5 -75t67.5 -196t-67.5 -196.5t-175.5 -75.5zM469 15q92 0 147 64t55 169t-55 168.5t-147 63.5t-147 -63.5t-55 -168.5t55 -169t147 -64z" />
    <glyph glyph-name="uni044F" unicode="&#x44f;" horiz-adv-x="518" 
d="M52 0l170 201q-79 1 -125.5 43.5t-46.5 108.5q0 68 49.5 108t132.5 40h199v-501h-41v200h-119l-167 -200h-52zM232 239h158v223h-158q-66 0 -103.5 -29t-37.5 -80t38 -82.5t103 -31.5z" />
    <glyph glyph-name="uni0451" unicode="&#x451;" horiz-adv-x="632" 
d="M216 608q-16 0 -25.5 9.5t-9.5 25.5t9.5 25.5t25.5 9.5t25.5 -9.5t9.5 -25.5t-9.5 -25.5t-25.5 -9.5zM424 608q-16 0 -25.5 9.5t-9.5 25.5t9.5 25.5t25.5 9.5t25.5 -9.5t9.5 -25.5t-9.5 -25.5t-25.5 -9.5zM322 -20q-118 0 -194.5 76.5t-76.5 195.5q0 117 76 193t194 76
q114 0 187.5 -76t73.5 -193v-15h-490q4 -96 68.5 -157t161.5 -61q69 0 127 38t80 97l38 -11q-26 -72 -94 -117.5t-151 -45.5zM93 276h446q-7 91 -67.5 148.5t-151.5 57.5q-93 0 -156 -57.5t-71 -148.5z" />
    <glyph glyph-name="uni0452" unicode="&#x452;" horiz-adv-x="601" 
d="M311 -99q-37 0 -87 10v39q42 -10 82 -10q82 0 129.5 46t47.5 136v171q0 84 -46 136.5t-124 52.5q-77 0 -131 -52t-54 -131v-299h-41v622h-90v39h90v70h41v-70h138v-39h-138v-217h7q24 53 72 84.5t111 31.5q93 0 149.5 -64t56.5 -164v-172q0 -107 -57.5 -163.5
t-155.5 -56.5z" />
    <glyph glyph-name="uni0453" unicode="&#x453;" horiz-adv-x="434" 
d="M207 615l108 116h53l-109 -116h-52zM87 0v501h321v-39h-280v-462h-41z" />
    <glyph glyph-name="uni0454" unicode="&#x454;" horiz-adv-x="596" 
d="M311 -20q-114 0 -187.5 76.5t-73.5 194.5t73.5 194t187.5 76q85 0 151.5 -50t82.5 -127l-40 -6q-16 63 -71 103.5t-123 40.5q-92 0 -153 -59.5t-67 -153.5h302v-38h-302q7 -93 68 -152.5t152 -59.5q69 0 123.5 38.5t70.5 97.5l40 -7q-18 -73 -84 -120.5t-150 -47.5z" />
    <glyph glyph-name="uni0455" unicode="&#x455;" horiz-adv-x="512" 
d="M267 -20q-97 0 -156.5 49.5t-59.5 129.5h40q0 -62 48.5 -101.5t127.5 -39.5q67 0 110.5 28.5t43.5 76.5q0 14 -3 26t-6 21.5t-12 17.5t-14 13t-19 10.5t-19.5 8t-23.5 6t-23.5 4.5t-26 4t-25.5 4q-33 5 -54.5 9.5t-49 14.5t-43.5 24.5t-27.5 38.5t-11.5 56q0 62 51.5 101
t134.5 39q89 0 143.5 -45.5t53.5 -120.5h-40q1 58 -42.5 93t-115.5 35q-65 0 -105 -27.5t-40 -71.5q0 -25 9.5 -43.5t21 -28.5t36.5 -18t40 -10.5t48 -7.5q40 -6 60 -10t52.5 -15t48.5 -25.5t29 -40t13 -60.5q0 -67 -54 -106t-140 -39z" />
    <glyph glyph-name="uni0456" unicode="&#x456;" horiz-adv-x="231" 
d="M116 608q-16 0 -26 10t-10 26t10 26t26 10t26 -10t10 -26t-10 -26t-26 -10zM95 0v501h41v-501h-41z" />
    <glyph glyph-name="uni0457" unicode="&#x457;" horiz-adv-x="201" 
d="M-10 608q-16 0 -25.5 9.5t-9.5 25.5t9.5 25.5t25.5 9.5t25.5 -9.5t9.5 -25.5t-9.5 -25.5t-25.5 -9.5zM198 608q-16 0 -25.5 9.5t-9.5 25.5t9.5 25.5t25.5 9.5t25.5 -9.5t9.5 -25.5t-9.5 -25.5t-25.5 -9.5zM80 0v501h41v-501h-41z" />
    <glyph glyph-name="uni0458" unicode="&#x458;" horiz-adv-x="226" 
d="M111 608q-16 0 -26 10t-10 26t10 26t26 10t26 -10t10 -26q0 -15 -10 -25.5t-26 -10.5zM21 -221q-34 0 -71 13v39q35 -13 65 -13q34 0 55 22t21 57v604h40v-603q0 -52 -31 -85.5t-79 -33.5z" />
    <glyph glyph-name="uni0459" unicode="&#x459;" horiz-adv-x="740" 
d="M10 0v38q50 0 71.5 38t31.5 117l37 308h271v-226h112q75 0 121 -38t46 -100t-46 -99.5t-121 -37.5h-153v463h-191l-38 -290q-24 -173 -141 -173zM421 39h112q58 0 92 27t34 71t-34.5 71.5t-91.5 27.5h-112v-197z" />
    <glyph glyph-name="uni045A" unicode="&#x45a;" horiz-adv-x="738" 
d="M87 0v501h41v-226h250v226h41v-226h112q75 0 121 -38t46 -100t-46 -99.5t-121 -37.5h-153v236h-250v-236h-41zM419 39h112q58 0 92 27t34 71t-34.5 71.5t-91.5 27.5h-112v-197z" />
    <glyph glyph-name="uni045B" unicode="&#x45b;" horiz-adv-x="601" 
d="M87 0v622h-90v39h90v70h41v-70h138v-39h-138v-217h7q24 53 72 84.5t111 31.5q93 0 149.5 -64t56.5 -164v-293h-41v293q0 84 -46 136.5t-124 52.5q-77 0 -131 -52t-54 -131v-299h-41z" />
    <glyph glyph-name="uni045C" unicode="&#x45c;" horiz-adv-x="464" 
d="M227 615l108 116h53l-110 -116h-51zM87 0v501h41v-223h7l252 223h59l-274 -240l283 -261h-59l-261 242h-7v-242h-41z" />
    <glyph glyph-name="uni045E" unicode="&#x45e;" horiz-adv-x="539" 
d="M271 608q-53 0 -87.5 34.5t-34.5 88.5h38q0 -38 23.5 -62.5t60.5 -24.5t61 24.5t24 62.5h38q0 -54 -35 -88.5t-88 -34.5zM112 -221q-32 0 -63 11v39q37 -11 61 -11q21 0 39.5 10t31.5 23.5t29 41.5t25.5 49t26.5 62l-235 497h43l209 -441h7l181 441h43l-208 -503
q-46 -113 -86 -166t-104 -53z" />
    <glyph glyph-name="uni045F" unicode="&#x45f;" horiz-adv-x="604" 
d="M281 -150v150h-194v501h41v-462h348v462h40v-501h-194v-150h-41z" />
    <glyph glyph-name="uni0490" unicode="&#x490;" horiz-adv-x="598" 
d="M91 0v701h437v105h40v-144h-435v-662h-42z" />
    <glyph glyph-name="uni0491" unicode="&#x491;" horiz-adv-x="434" 
d="M87 0v501h282v87h39v-126h-280v-462h-41z" />
    <glyph glyph-name="Wgrave" unicode="&#x1e80;" horiz-adv-x="998" 
d="M525 774h-53l-93 94h55zM244 0l-210 701h43l198 -662h8l184 662h65l184 -662h8l198 662h42l-209 -701h-70l-181 655h-9l-181 -655h-70z" />
    <glyph glyph-name="wgrave" unicode="&#x1e81;" horiz-adv-x="830" 
d="M389 615l-108 116h51l109 -116h-52zM202 0l-174 501h43l158 -458h7l148 458h59l151 -458h6l158 458h43l-174 -501h-61l-149 455h-7l-147 -455h-61z" />
    <glyph glyph-name="Wacute" unicode="&#x1e82;" horiz-adv-x="998" 
d="M476 774l91 94h55l-93 -94h-53zM244 0l-210 701h43l198 -662h8l184 662h65l184 -662h8l198 662h42l-209 -701h-70l-181 655h-9l-181 -655h-70z" />
    <glyph glyph-name="wacute" unicode="&#x1e83;" horiz-adv-x="830" 
d="M442 615h-52l109 116h51zM202 0l-174 501h43l158 -458h7l148 458h59l151 -458h6l158 458h43l-174 -501h-61l-149 455h-7l-147 -455h-61z" />
    <glyph glyph-name="Wdieresis" unicode="&#x1e84;" horiz-adv-x="998" 
d="M397 790q-15 0 -25.5 10t-10.5 26q0 15 10.5 25.5t25.5 10.5q16 0 26 -10.5t10 -25.5q0 -16 -10 -26t-26 -10zM604 790q-16 0 -26 10t-10 26q0 15 10 25.5t26 10.5q15 0 25.5 -10.5t10.5 -25.5q0 -16 -10.5 -26t-25.5 -10zM244 0l-210 701h43l198 -662h8l184 662h65
l184 -662h8l198 662h42l-209 -701h-70l-181 655h-9l-181 -655h-70z" />
    <glyph glyph-name="wdieresis" unicode="&#x1e85;" horiz-adv-x="830" 
d="M311 608q-16 0 -25.5 9.5t-9.5 25.5t9.5 25.5t25.5 9.5t25.5 -9.5t9.5 -25.5t-9.5 -25.5t-25.5 -9.5zM519 608q-16 0 -25.5 9.5t-9.5 25.5t9.5 25.5t25.5 9.5t25.5 -9.5t9.5 -25.5t-9.5 -25.5t-25.5 -9.5zM202 0l-174 501h43l158 -458h7l148 458h59l151 -458h6l158 458
h43l-174 -501h-61l-149 455h-7l-147 -455h-61z" />
    <glyph glyph-name="uni1E9E" unicode="&#x1e9e;" horiz-adv-x="638" 
d="M365 -25q-76 0 -137 35v46q58 -41 135 -41q75 0 121 44.5t46 116.5q0 82 -66 130.5t-173 48.5h-35v40h37q77 0 127 37t50 98t-46 103.5t-116 42.5q-81 0 -133 -55.5t-52 -142.5v-478h-42v480q0 103 64 170t163 67q87 0 145.5 -53.5t58.5 -130.5q0 -122 -141 -152v-7
q92 -11 146.5 -64t54.5 -137q0 -85 -59 -141.5t-148 -56.5z" />
    <glyph glyph-name="Ygrave" unicode="&#x1ef2;" horiz-adv-x="576" 
d="M313 774h-53l-92 94h54zM268 0v283l-245 418h47l215 -370h7l215 370h47l-244 -418v-283h-42z" />
    <glyph glyph-name="ygrave" unicode="&#x1ef3;" horiz-adv-x="539" 
d="M246 615l-109 116h52l109 -116h-52zM112 -221q-32 0 -63 11v39q37 -11 61 -11q21 0 39.5 10t31.5 23.5t29 41.5t25.5 49t26.5 62l-235 497h43l209 -441h7l181 441h43l-208 -503q-46 -113 -86 -166t-104 -53z" />
    <glyph glyph-name="endash" unicode="&#x2013;" horiz-adv-x="670" 
d="M50 296v39h570v-39h-570z" />
    <glyph glyph-name="emdash" unicode="&#x2014;" horiz-adv-x="870" 
d="M50 296v39h770v-39h-770z" />
    <glyph glyph-name="quoteleft" unicode="&#x2018;" horiz-adv-x="185" 
d="M113 724l22 -8l-43 -105q28 -7 28 -35q0 -15 -9.5 -25t-25.5 -10t-25.5 10t-9.5 25q0 9 6 24z" />
    <glyph glyph-name="quoteright" unicode="&#x2019;" horiz-adv-x="178" 
d="M65 541l-22 7l43 106q-28 5 -28 35q0 15 9.5 25t25.5 10t25.5 -10t9.5 -25q0 -9 -6 -25z" />
    <glyph glyph-name="quotesinglbase" unicode="&#x201a;" horiz-adv-x="178" 
d="M65 -124l-22 8l43 106q-28 5 -28 35q0 15 10 24.5t25 9.5t25 -9.5t10 -24.5q0 -10 -6 -25z" />
    <glyph glyph-name="quotedblleft" unicode="&#x201c;" horiz-adv-x="306" 
d="M113 724l22 -8l-43 -105q28 -7 28 -35q0 -15 -9.5 -25t-25.5 -10t-25.5 10t-9.5 25q0 9 6 24zM234 724l22 -8l-44 -105q29 -6 29 -35q0 -15 -9.5 -25t-25.5 -10t-25.5 10t-9.5 25q0 12 6 24z" />
    <glyph glyph-name="quotedblright" unicode="&#x201d;" horiz-adv-x="297" 
d="M64 541l-22 7l44 106q-29 5 -29 35q0 15 10 25t25 10q16 0 26 -10t10 -25q0 -10 -7 -25zM184 541l-22 7l44 106q-29 5 -29 35q0 15 9.5 25t25.5 10t25.5 -10t9.5 -25q0 -12 -6 -25z" />
    <glyph glyph-name="quotedblbase" unicode="&#x201e;" horiz-adv-x="298" 
d="M64 -124l-22 8l44 106q-29 5 -29 35q0 15 9.5 24.5t25.5 9.5t25.5 -9.5t9.5 -24.5q0 -13 -6 -25zM185 -124l-22 8l44 106q-29 5 -29 35q0 15 10 24.5t25 9.5t25 -9.5t10 -24.5q0 -13 -6 -25z" />
    <glyph glyph-name="dagger" unicode="&#x2020;" horiz-adv-x="510" 
d="M235 -223v520h-185v38h185v391h40v-391h185v-38h-185v-520h-40z" />
    <glyph glyph-name="daggerdbl" unicode="&#x2021;" horiz-adv-x="570" 
d="M265 -230v402h-215v38h215v214h-215v37h215v270h40v-270h215v-37h-215v-214h215v-38h-215v-402h-40z" />
    <glyph glyph-name="bullet" unicode="&#x2022;" horiz-adv-x="176" 
d="M88 273q-16 0 -26.5 10.5t-10.5 26.5t10.5 26.5t26.5 10.5t27 -10.5t11 -26.5t-11 -26.5t-27 -10.5z" />
    <glyph glyph-name="ellipsis" unicode="&#x2026;" horiz-adv-x="447" 
d="M85 -11q-16 0 -25.5 10t-9.5 26q0 15 10 24.5t25 9.5t25 -10t10 -24q0 -16 -10 -26t-25 -10zM223 -11q-15 0 -25 10t-10 26q0 14 10 24t25 10q16 0 26 -10t10 -24q0 -16 -10 -26t-26 -10zM362 -11q-16 0 -25.5 10t-9.5 26q0 15 9.5 24.5t25.5 9.5q15 0 25 -10t10 -24
q0 -16 -10 -26t-25 -10z" />
    <glyph glyph-name="perthousand" unicode="&#x2030;" horiz-adv-x="1493" 
d="M253 340q-88 0 -145 56.5t-57 144.5q0 87 57.5 143.5t145.5 56.5t144.5 -56.5t56.5 -143.5q0 -88 -57 -144.5t-145 -56.5zM235 0l502 731h47l-502 -731h-47zM254 381q70 0 115.5 45.5t45.5 115.5q0 69 -45.5 113.5t-115.5 44.5q-71 0 -116.5 -44.5t-45.5 -113.5
q0 -70 46 -115.5t116 -45.5zM765 -10q-88 0 -145 56.5t-57 143.5q0 88 57 144.5t146 56.5q87 0 144 -56.5t57 -144.5q0 -87 -57 -143.5t-145 -56.5zM1241 -11q-88 0 -145 56.5t-57 144.5q0 87 57 143.5t145 56.5t145 -56.5t57 -143.5q0 -88 -57 -144.5t-145 -56.5zM766 31
q70 0 115.5 45t45.5 115q0 69 -45.5 114t-115.5 45t-116 -45t-46 -114q0 -70 45.5 -115t116.5 -45zM1242 30q70 0 115 45t45 115t-45 114.5t-115 44.5q-71 0 -116.5 -44.5t-45.5 -114.5t45.5 -115t116.5 -45z" />
    <glyph glyph-name="guilsinglleft" unicode="&#x2039;" horiz-adv-x="336" 
d="M234 0l-207 251l207 250h51l-207 -250l207 -251h-51z" />
    <glyph glyph-name="guilsinglright" unicode="&#x203a;" horiz-adv-x="335" 
d="M102 0h-52l208 251l-208 250h51l207 -250z" />
    <glyph glyph-name="lira" unicode="&#x20a4;" horiz-adv-x="572" 
d="M51 0v58q42 6 68.5 46.5t35.5 133.5h-95v35h98q3 31 3 68h-101v36h101v169q0 79 48 129.5t122 50.5q78 0 130.5 -56.5t56.5 -142.5h-40q-4 70 -44.5 115t-101.5 45q-57 0 -93.5 -39.5t-36.5 -101.5v-169h266v-36h-266q0 -35 -3 -68h269v-35h-272q-16 -156 -97 -194v-7
h422v-37h-470z" />
    <glyph glyph-name="Euro" unicode="&#x20ac;" horiz-adv-x="886" 
d="M494 15q107 0 189.5 62t102.5 153l41 -9q-23 -104 -117.5 -175t-215.5 -71q-137 0 -234 80.5t-123 211.5h-86v37h80q-2 30 -2 47q0 28 3 55h-81v37h88q27 128 123.5 205.5t231.5 77.5q120 0 215 -73.5t118 -181.5l-42 -6q-20 94 -103 157.5t-188 63.5q-118 0 -202 -66.5
t-110 -176.5h370v-37h-377q-4 -24 -4 -55q0 -25 3 -47h378v-37h-372q25 -114 110 -183t204 -69z" />
    <glyph glyph-name="uni20BD" unicode="&#x20bd;" horiz-adv-x="723" 
d="M432 279h-214v-100h293v-40h-293v-139h-42v139h-126v40h126v100h-126v40h126v382h256q116 0 179.5 -58t63.5 -153t-64 -153t-179 -58zM218 661v-342h214q98 0 149.5 46.5t51.5 124.5q0 77 -52 124t-149 47h-214z" />
    <glyph glyph-name="uni2116" unicode="&#x2116;" horiz-adv-x="846" 
d="M91 0v701h58l345 -636h6v636h42v-701h-60l-343 635h-7v-635h-41zM701 285q-39 0 -64.5 25.5t-25.5 64.5q0 40 25.5 65t64.5 25q40 0 65 -25t25 -65q0 -39 -25.5 -64.5t-64.5 -25.5zM701 321q24 0 39.5 15.5t15.5 38.5t-15.5 38.5t-39.5 15.5t-39.5 -15.5t-15.5 -38.5
t15.5 -38.5t39.5 -15.5zM604 169v36h192v-36h-192z" />
    <glyph glyph-name="trademark" unicode="&#x2122;" horiz-adv-x="1054" 
d="M169 150v514h-158v37h354v-37h-158v-514h-38zM453 150v551h67l189 -496h7l188 496h68v-551h-38v504h-6l-195 -504h-42l-194 504h-6v-504h-38z" />
    <glyph glyph-name="arrowleft" unicode="&#x2190;" horiz-adv-x="640" 
d="M249 50l-199 203l199 203h55l-179 -181v-2h465v-40h-465v-2l179 -181h-55z" />
    <glyph glyph-name="arrowup" unicode="&#x2191;" horiz-adv-x="506" 
d="M233 0v465h-2l-181 -179v55l203 199l203 -199v-55l-181 179h-2v-465h-40z" />
    <glyph glyph-name="arrowright" unicode="&#x2192;" horiz-adv-x="640" 
d="M336 50l179 181v2h-465v40h465v2l-179 181h55l199 -203l-199 -203h-55z" />
    <glyph glyph-name="arrowdown" unicode="&#x2193;" horiz-adv-x="506" 
d="M253 0l-203 199v55l181 -179h2v465h40v-465h2l181 179v-55z" />
    <glyph glyph-name="uni2196" unicode="&#x2196;" horiz-adv-x="498" 
d="M421 65l-329 329l-2 -1l-1 -255l-39 39l3 284l284 3l40 -39l-256 -1l-2 -2l329 -329z" />
    <glyph glyph-name="uni2197" unicode="&#x2197;" horiz-adv-x="498" 
d="M78 65l-28 28l329 329l-1 2l-255 1l38 39l285 -3l2 -284l-38 -39l-1 255l-2 1z" />
    <glyph glyph-name="uni2198" unicode="&#x2198;" horiz-adv-x="498" 
d="M161 76l-38 39l255 1l1 2l-329 329l28 28l329 -329l2 1l1 256l38 -40l-2 -284z" />
    <glyph glyph-name="uni2199" unicode="&#x2199;" horiz-adv-x="498" 
d="M337 76l-284 3l-3 284l39 40l1 -256l2 -1l329 329l27 -28l-329 -329l2 -2l256 -1z" />
    <glyph glyph-name="minus" unicode="&#x2212;" horiz-adv-x="512" 
d="M51 340v39h410v-39h-410z" />
    <glyph glyph-name="notequal" unicode="&#x2260;" horiz-adv-x="571" 
d="M138 0l79 212h-166v39h181l76 203h-257v39h272l69 183h40l-68 -183h157v-39h-172l-76 -203h248v-39h-263l-79 -212h-41z" />
    <glyph glyph-name="lessequal" unicode="&#x2264;" horiz-adv-x="443" 
d="M393 191l-343 174v55l343 172v-43l-308 -153v-7l307 -154zM50 80v39h343v-39h-343z" />
    <glyph glyph-name="greaterequal" unicode="&#x2265;" horiz-adv-x="443" 
d="M50 191l1 44l307 154v7l-308 153v43l343 -172v-55zM393 80h-343v39h343v-39z" />
    <glyph glyph-name="uniF6C3" unicode="&#xf6c3;" horiz-adv-x="0" 
d="M-104 -238l-20 8l34 81q-31 5 -31 34q0 15 9.5 25t25.5 10t25.5 -10t9.5 -25q0 -12 -6 -24z" />
    <glyph glyph-name="uni0430.alt1" unicode="&#xfb00;" horiz-adv-x="663" 
d="M310 -20q-113 0 -186.5 76.5t-73.5 194.5t73.5 194t186.5 76q75 0 131 -36t85 -100h8v116h41v-501h-41v118h-7q-29 -64 -85 -101t-132 -37zM312 19q94 0 158 66t64 166q0 99 -64 165t-158 66q-97 0 -159 -65t-62 -166t62 -166.5t159 -65.5z" />
    <glyph glyph-name="a.alt1" horiz-adv-x="663" 
d="M310 -20q-113 0 -186.5 76.5t-73.5 194.5t73.5 194t186.5 76q75 0 131 -36t85 -100h8v116h41v-501h-41v118h-7q-29 -64 -85 -101t-132 -37zM312 19q94 0 158 66t64 166q0 99 -64 165t-158 66q-97 0 -159 -65t-62 -166t62 -166.5t159 -65.5z" />
    <glyph glyph-name="agrave.alt1" horiz-adv-x="663" 
d="M288 615l-108 116h51l109 -116h-52zM310 -20q-113 0 -186.5 76.5t-73.5 194.5t73.5 194t186.5 76q75 0 131 -36t85 -100h8v116h41v-501h-41v118h-7q-29 -64 -85 -101t-132 -37zM312 19q94 0 158 66t64 166q0 99 -64 165t-158 66q-97 0 -159 -65t-62 -166t62 -166.5
t159 -65.5z" />
    <glyph glyph-name="aacute.alt1" horiz-adv-x="663" 
d="M341 615h-52l109 116h52zM310 -20q-113 0 -186.5 76.5t-73.5 194.5t73.5 194t186.5 76q75 0 131 -36t85 -100h8v116h41v-501h-41v118h-7q-29 -64 -85 -101t-132 -37zM312 19q94 0 158 66t64 166q0 99 -64 165t-158 66q-97 0 -159 -65t-62 -166t62 -166.5t159 -65.5z" />
    <glyph glyph-name="atilde.alt1" horiz-adv-x="663" 
d="M372 615q-34 0 -73 29.5t-61 29.5q-38 0 -59 -36l-28 19q11 24 35.5 39t51.5 15q32 0 72 -30t62 -30q20 0 37.5 10.5t24.5 27.5l32 -17q-11 -25 -37.5 -41t-56.5 -16zM310 -20q-113 0 -186.5 76.5t-73.5 194.5t73.5 194t186.5 76q75 0 131 -36t85 -100h8v116h41v-501h-41
v118h-7q-29 -64 -85 -101t-132 -37zM312 19q94 0 158 66t64 166q0 99 -64 165t-158 66q-97 0 -159 -65t-62 -166t62 -166.5t159 -65.5z" />
    <glyph glyph-name="adieresis.alt1" horiz-adv-x="663" 
d="M210 608q-16 0 -25.5 9.5t-9.5 25.5t9.5 25.5t25.5 9.5t25.5 -9.5t9.5 -25.5t-9.5 -25.5t-25.5 -9.5zM418 608q-16 0 -25.5 9.5t-9.5 25.5t9.5 25.5t25.5 9.5t25.5 -9.5t9.5 -25.5t-9.5 -25.5t-25.5 -9.5zM310 -20q-113 0 -186.5 76.5t-73.5 194.5t73.5 194t186.5 76
q75 0 131 -36t85 -100h8v116h41v-501h-41v118h-7q-29 -64 -85 -101t-132 -37zM312 19q94 0 158 66t64 166q0 99 -64 165t-158 66q-97 0 -159 -65t-62 -166t62 -166.5t159 -65.5z" />
    <glyph glyph-name="aring.alt1" horiz-adv-x="663" 
d="M315 574q-43 0 -70.5 27t-27.5 69q0 43 27.5 70t70.5 27q42 0 69.5 -27t27.5 -70q0 -42 -27.5 -69t-69.5 -27zM315 603q29 0 48 19.5t19 47.5q0 29 -19 48.5t-48 19.5t-48.5 -19.5t-19.5 -48.5t19.5 -48t48.5 -19zM310 -20q-113 0 -186.5 76.5t-73.5 194.5t73.5 194
t186.5 76q75 0 131 -36t85 -100h8v116h41v-501h-41v118h-7q-29 -64 -85 -101t-132 -37zM312 19q94 0 158 66t64 166q0 99 -64 165t-158 66q-97 0 -159 -65t-62 -166t62 -166.5t159 -65.5z" />
    <glyph glyph-name="amacron.alt1" horiz-adv-x="663" 
d="M175 616v38h281v-38h-281zM310 -20q-113 0 -186.5 76.5t-73.5 194.5t73.5 194t186.5 76q75 0 131 -36t85 -100h8v116h41v-501h-41v118h-7q-29 -64 -85 -101t-132 -37zM312 19q94 0 158 66t64 166q0 99 -64 165t-158 66q-97 0 -159 -65t-62 -166t62 -166.5t159 -65.5z" />
    <glyph glyph-name="abreve.alt1" horiz-adv-x="663" 
d="M314 608q-54 0 -88.5 34.5t-34.5 88.5h38q0 -38 24 -62.5t61 -24.5t61 24.5t24 62.5h38q0 -54 -35 -88.5t-88 -34.5zM310 -20q-113 0 -186.5 76.5t-73.5 194.5t73.5 194t186.5 76q75 0 131 -36t85 -100h8v116h41v-501h-41v118h-7q-29 -64 -85 -101t-132 -37zM312 19
q94 0 158 66t64 166q0 99 -64 165t-158 66q-97 0 -159 -65t-62 -166t62 -166.5t159 -65.5z" />
    <glyph glyph-name="aogonek.alt1" horiz-adv-x="663" 
d="M534 501h41v-501h-3q-74 -38 -102.5 -64.5t-28.5 -53.5q0 -22 13.5 -35t36.5 -13q31 0 68 24v-35q-37 -23 -73 -23q-35 0 -57 22.5t-22 57.5t29.5 65.5t97.5 66.5v106h-7q-29 -64 -85 -101t-132 -37q-113 0 -186.5 76.5t-73.5 194.5t73.5 194t186.5 76q75 0 131 -36
t85 -100h8v116zM312 19q94 0 158 66t64 166q0 99 -64 165t-158 66q-97 0 -159 -65t-62 -166t62 -166.5t159 -65.5z" />
    <glyph glyph-name="acircumflex.alt1" horiz-adv-x="663" 
d="M191 615l99 116h50l99 -116h-47l-74 83h-6l-74 -83h-47zM310 -20q-113 0 -186.5 76.5t-73.5 194.5t73.5 194t186.5 76q75 0 131 -36t85 -100h8v116h41v-501h-41v118h-7q-29 -64 -85 -101t-132 -37zM312 19q94 0 158 66t64 166q0 99 -64 165t-158 66q-97 0 -159 -65
t-62 -166t62 -166.5t159 -65.5z" />
    <glyph glyph-name="IJacute" horiz-adv-x="660" 
d="M79 774l92 94h54l-92 -94h-54zM506 774l91 94h55l-93 -94h-53zM91 0v701h42v-701h-42zM366 -20q-56 0 -119 20v40q68 -20 117 -20q71 0 114 49t43 141v491h42v-491q0 -110 -54.5 -170t-142.5 -60z" />
    <glyph glyph-name="ijacute" horiz-adv-x="407" 
d="M80 606l102 125h50l-103 -125h-49zM285 606l102 125h50l-104 -125h-48zM86 0v501h40v-501h-40zM223 -220q-34 0 -71 13v38q41 -14 66 -13q34 0 54.5 22t20.5 57v604h41v-604q0 -51 -31.5 -84t-79.5 -33z" />
    <glyph glyph-name="acute.case" horiz-adv-x="247" 
d="M51 774l91 94h54l-92 -94h-53z" />
    <glyph glyph-name="breve.case" horiz-adv-x="337" 
d="M169 764q-52 0 -85 29.5t-33 74.5h40q0 -30 22 -48.5t56 -18.5q35 0 56.5 18.5t21.5 48.5h40q0 -45 -33 -74.5t-85 -29.5z" />
    <glyph glyph-name="caron.case" horiz-adv-x="357" 
d="M152 774l-102 94h53l72 -64h7l71 64h53l-102 -94h-52z" />
    <glyph glyph-name="caron.alt1" horiz-adv-x="178" 
d="M74 553l-20 8l34 81q-31 5 -31 34q0 15 9.5 25t25.5 10t25.5 -10t9.5 -25q0 -12 -6 -24z" />
    <glyph glyph-name="circumflex.case" horiz-adv-x="357" 
d="M153 869h51l102 -95h-53l-71 64h-7l-71 -64h-53z" />
    <glyph glyph-name="dieresis.case" horiz-adv-x="379" 
d="M87 790q-16 0 -26 10t-10 26q0 15 10 25.5t26 10.5q15 0 25.5 -10.5t10.5 -25.5q0 -16 -10.5 -26t-25.5 -10zM293 790q-16 0 -26 10t-10 26q0 15 10 25.5t26 10.5q15 0 25.5 -10.5t10.5 -25.5q0 -16 -10.5 -26t-25.5 -10z" />
    <glyph glyph-name="dotaccent.case" horiz-adv-x="173" 
d="M87 790q-16 0 -26 10t-10 26t10 26t26 10q15 0 25.5 -10t10.5 -26t-10.5 -26t-25.5 -10z" />
    <glyph glyph-name="grave.case" horiz-adv-x="246" 
d="M196 774h-54l-92 94h54z" />
    <glyph glyph-name="hungarumlaut.case" horiz-adv-x="399" 
d="M51 774l85 94h53l-87 -94h-51zM210 774l85 94h54l-89 -94h-50z" />
    <glyph glyph-name="ring.case" horiz-adv-x="277" 
d="M139 762q-38 0 -63 24.5t-25 62.5q0 37 25 61.5t63 24.5t62.5 -24t24.5 -62t-24.5 -62.5t-62.5 -24.5zM139 794q23 0 39 15.5t16 39.5q0 23 -15.5 38.5t-39.5 15.5t-39.5 -15.5t-15.5 -38.5q0 -24 15 -39.5t40 -15.5z" />
    <glyph glyph-name="tilde.case" horiz-adv-x="416" 
d="M268 784q-34 0 -68.5 25.5t-57.5 25.5q-40 0 -63 -37l-28 18q11 24 36 39t56 15q33 0 67.5 -25.5t59.5 -25.5q46 0 65 39l30 -16q-11 -26 -37.5 -42t-59.5 -16z" />
    <glyph glyph-name="uni0432.alt1" horiz-adv-x="581" 
d="M307 -20q-103 0 -164.5 63t-61.5 168v298q0 98 56.5 158t148.5 60q77 0 126 -42.5t49 -109.5q0 -53 -36.5 -99t-90.5 -72q87 -3 142 -58t55 -150q0 -98 -61 -157t-163 -59zM122 362q298 79 298 211q0 51 -37.5 82.5t-96.5 31.5q-76 0 -120 -48t-44 -129v-148zM307 18
q84 0 134 49t50 130q0 86 -54 133t-149 47q-90 -35 -166 -56v-112q0 -87 50 -139t135 -52z" />
    <glyph glyph-name="uni0433.alt" horiz-adv-x="512" 
d="M245 -20q-85 0 -139 39.5t-54 105.5q0 29 7.5 51.5t24.5 38t32 25.5t43.5 17t45 10.5t49.5 8.5t48 7.5t40 10.5t36.5 18t21 28.5t9.5 43.5q0 44 -40 71.5t-104 27.5q-72 0 -115.5 -35t-43.5 -93h-40q-1 75 54 120.5t144 45.5q82 0 133.5 -39t51.5 -101q0 -32 -11.5 -56
t-27 -38.5t-43 -24.5t-49 -14.5t-54.5 -9.5q-5 -1 -25.5 -4t-26 -4t-23.5 -4.5t-23.5 -6t-19.5 -8t-19 -10.5t-14 -13t-12 -17.5t-6 -21.5t-3 -26q0 -48 43 -76.5t110 -28.5q79 0 127.5 39t48.5 102h40q0 -80 -59.5 -129.5t-156.5 -49.5z" />
    <glyph glyph-name="uni0414.alt1" horiz-adv-x="791" 
d="M13 -150v190h90l260 661h64l260 -661h92v-190h-41v150h-685v-150h-40zM147 40h495l-244 620h-6z" />
    <glyph glyph-name="uni0434.alt1" horiz-adv-x="662" 
d="M321 -250q-100 0 -172.5 53t-86.5 137l41 9q11 -71 72 -115.5t147 -44.5q93 0 152.5 59.5t59.5 153.5v110h-7q-31 -61 -87 -96t-129 -35q-113 0 -186.5 76t-73.5 194q0 117 73.5 193.5t186.5 76.5q73 0 129.5 -35.5t87.5 -97.5h6v113h41v-499q0 -111 -71 -181.5
t-183 -70.5zM313 20q97 0 159.5 65t62.5 166q0 100 -63 165.5t-159 65.5q-97 0 -159 -65t-62 -166q0 -100 63 -165.5t158 -65.5z" />
    <glyph glyph-name="uni0437.alt1" horiz-adv-x="530" 
d="M257 -250q-96 0 -159 58t-63 147h40q0 -73 51.5 -119.5t130.5 -46.5q83 0 133.5 47t50.5 124q0 73 -43.5 118.5t-110.5 45.5h-135v39h135q60 0 96.5 45.5t36.5 114.5q0 72 -45 115.5t-119 43.5q-71 0 -117.5 -44.5t-46.5 -112.5h-41q-3 84 55 140t150 56
q91 0 147.5 -53.5t56.5 -139.5q0 -69 -29.5 -116t-72.5 -63v-7q51 -14 87.5 -64t36.5 -120q0 -94 -62 -151t-163 -57z" />
    <glyph glyph-name="uni0436.alt" horiz-adv-x="679" 
d="M25 0l253 261l-245 240h55l224 -221h7v451h41v-451h7l224 221h55l-245 -240l253 -261h-54l-233 240h-7v-240h-41v240h-7l-233 -240h-54z" />
    <glyph glyph-name="uni0438.alt1" 
d="M514 501v-501h-41v92h-7q-25 -52 -73.5 -82t-109.5 -30q-93 0 -149.5 64.5t-56.5 164.5v292h41v-292q0 -84 46 -137t124 -53q77 0 131 52.5t54 130.5v299h41z" />
    <glyph glyph-name="uni0439.alt1" 
d="M288 608q-54 0 -88.5 34.5t-34.5 88.5h38q0 -38 24 -62.5t61 -24.5t61 24.5t24 62.5h38q0 -54 -35 -88.5t-88 -34.5zM514 501v-501h-41v92h-7q-25 -52 -73.5 -82t-109.5 -30q-93 0 -149.5 64.5t-56.5 164.5v292h41v-292q0 -84 46 -137t124 -53q77 0 131 52.5t54 130.5
v299h41z" />
    <glyph glyph-name="uni043A.alt1" horiz-adv-x="464" 
d="M87 0v731h41v-453h7l252 223h60l-275 -240l283 -261h-59l-261 242h-7v-242h-41z" />
    <glyph glyph-name="uni041B.alt1" horiz-adv-x="651" 
d="M22 0l272 701h64l272 -701h-45l-256 660h-6l-256 -660h-45z" />
    <glyph glyph-name="uni043B.alt1" horiz-adv-x="537" 
d="M27 0l208 501h65l211 -501h-45l-195 466h-7l-193 -466h-44z" />
    <glyph glyph-name="uni0442.alt1" horiz-adv-x="922" 
d="M88 0v501h40v-79h7q21 46 63 72.5t98 26.5q65 0 111 -33.5t62 -90.5h6q18 58 63.5 91t113.5 33q86 0 139.5 -59t53.5 -154v-308h-41v308q0 78 -42.5 126t-111.5 48q-73 0 -118 -48t-45 -126v-308h-41v308q0 79 -42.5 126.5t-111.5 47.5q-74 0 -118.5 -47.5t-44.5 -126.5
v-308h-41z" />
    <glyph glyph-name="uni043F.alt1" 
d="M88 0v501h41v-92h6q25 52 73.5 82t109.5 30q94 0 150 -64t56 -165v-292h-41v292q0 84 -46 137t-123 53t-131 -52t-54 -131v-299h-41z" />
    <glyph glyph-name="uni0446.alt1" horiz-adv-x="645" 
d="M575 -149v149h-111v93h-7q-25 -51 -73 -82t-107 -31q-94 0 -147 63.5t-53 165.5v292h41v-292q0 -85 42 -137.5t119 -52.5t131 52.5t54 130.5v299h41v-462h109v-188h-39z" />
    <glyph glyph-name="uni0448.alt1" horiz-adv-x="922" 
d="M834 501v-501h-40v79h-7q-21 -45 -62.5 -72t-97.5 -27q-65 0 -111 33.5t-62 90.5h-7q-18 -58 -63.5 -91t-113.5 -33q-86 0 -139.5 59t-53.5 154v308h41v-308q0 -78 42.5 -126t111.5 -48q74 0 119 48t45 126v308h41v-308q0 -78 42 -126t111 -48q74 0 119 48t45 126v308h40
z" />
    <glyph glyph-name="uni0449.alt1" horiz-adv-x="972" 
d="M903 -149v149h-109v79h-7q-21 -46 -62.5 -72.5t-97.5 -26.5q-64 0 -110 33.5t-62 90.5h-7q-18 -58 -63.5 -91t-113.5 -33q-86 0 -140 59t-54 154v308h41v-308q0 -78 43 -126t112 -48q73 0 118 48t45 126v308h40v-308q0 -78 43 -126t112 -48q73 0 117.5 48t44.5 126v308
h41v-462h108v-188h-39z" />
    <glyph glyph-name="uni044A.alt1" horiz-adv-x="537" 
d="M330 0q-76 0 -125.5 47t-49.5 120v295h-128v39h169v-167h134q77 0 127 -47t50 -120t-50 -120t-127 -47zM330 39q59 0 97.5 36t38.5 92t-38.5 92t-97.5 36h-134v-128q0 -56 38 -92t96 -36z" />
    <glyph glyph-name="uni044C.alt1" horiz-adv-x="459" 
d="M252 0q-76 0 -125.5 47t-49.5 120v334h41v-167h134q77 0 127 -47t50 -120t-50 -120t-127 -47zM252 39q59 0 97.5 36t38.5 92t-38.5 92t-97.5 36h-134v-128q0 -56 38 -92t96 -36z" />
    <glyph glyph-name="uni044E.alt1" horiz-adv-x="762" 
d="M464 -25q-102 0 -172.5 72t-74.5 184h-89v-238h-41v738h41v-462h89q7 110 76.5 180t170.5 70q106 0 177 -76.5t71 -194.5q0 -119 -71 -196t-177 -77zM464 14q93 0 150.5 64.5t57.5 169.5q0 104 -57.5 168t-150.5 64t-150.5 -64t-57.5 -168q0 -105 57.5 -169.5
t150.5 -64.5z" />
    <glyph glyph-name="uni0424.alt1" horiz-adv-x="863" 
d="M410 -96v76q-154 5 -253 109.5t-99 261.5t99 261t253 110v65h43v-65q154 -6 253 -109.5t99 -261.5t-99 -262t-253 -109v-76h-43zM410 20v661q-135 -5 -222 -97.5t-87 -232.5t87 -233t222 -98zM453 20q135 5 222.5 97.5t87.5 233.5q0 140 -87.5 232.5t-222.5 97.5v-661z
" />
    </font>
</defs>
</svg>
